<svg width="70" height="70" viewBox="0 0 70 70" fill="none" xmlns="http://www.w3.org/2000/svg">
<g filter="url(#filter0_d_401_239)">
<path d="M48.125 50.3125H63.4375V35" stroke="#FFECE8" stroke-width="3" stroke-linecap="round" stroke-linejoin="round" shape-rendering="crispEdges"/>
</g>
<g filter="url(#filter1_d_401_239)">
<path d="M6.5625 19.6875L23.1561 36.2811C23.5623 36.6874 24.0447 37.0098 24.5755 37.2297C25.1064 37.4496 25.6754 37.5628 26.25 37.5628C26.8246 37.5628 27.3936 37.4496 27.9245 37.2297C28.4553 37.0098 28.9377 36.6874 29.3439 36.2811L36.2811 29.3439C36.6873 28.9376 37.1697 28.6152 37.7005 28.3953C38.2314 28.1754 38.8004 28.0622 39.375 28.0622C39.9496 28.0622 40.5186 28.1754 41.0495 28.3953C41.5803 28.6152 42.0627 28.9376 42.4689 29.3439L61.25 48.125" stroke="#FFECE8" stroke-width="3" stroke-linecap="round" stroke-linejoin="round"/>
</g>
<defs>
<filter id="filter0_d_401_239" x="41.625" y="30.5" width="28.3125" height="28.3125" filterUnits="userSpaceOnUse" color-interpolation-filters="sRGB">
<feFlood flood-opacity="0" result="BackgroundImageFix"/>
<feColorMatrix in="SourceAlpha" type="matrix" values="0 0 0 0 0 0 0 0 0 0 0 0 0 0 0 0 0 0 127 0" result="hardAlpha"/>
<feOffset dy="2"/>
<feGaussianBlur stdDeviation="2.5"/>
<feComposite in2="hardAlpha" operator="out"/>
<feColorMatrix type="matrix" values="0 0 0 0 0.219608 0 0 0 0 0.121569 0 0 0 0 0.121569 0 0 0 0.4 0"/>
<feBlend mode="normal" in2="BackgroundImageFix" result="effect1_dropShadow_401_239"/>
<feBlend mode="normal" in="SourceGraphic" in2="effect1_dropShadow_401_239" result="shape"/>
</filter>
<filter id="filter1_d_401_239" x="0.0625" y="15.1875" width="67.6875" height="41.4375" filterUnits="userSpaceOnUse" color-interpolation-filters="sRGB">
<feFlood flood-opacity="0" result="BackgroundImageFix"/>
<feColorMatrix in="SourceAlpha" type="matrix" values="0 0 0 0 0 0 0 0 0 0 0 0 0 0 0 0 0 0 127 0" result="hardAlpha"/>
<feOffset dy="2"/>
<feGaussianBlur stdDeviation="2.5"/>
<feComposite in2="hardAlpha" operator="out"/>
<feColorMatrix type="matrix" values="0 0 0 0 0.219608 0 0 0 0 0.121569 0 0 0 0 0.121569 0 0 0 0.4 0"/>
<feBlend mode="normal" in2="BackgroundImageFix" result="effect1_dropShadow_401_239"/>
<feBlend mode="normal" in="SourceGraphic" in2="effect1_dropShadow_401_239" result="shape"/>
</filter>
</defs>
</svg>
