<svg width="273" height="200" viewBox="0 0 273 200" fill="none" xmlns="http://www.w3.org/2000/svg">
<path opacity="0.2" d="M139.168 184.75C202.356 184.75 253.579 179.173 253.579 172.293C253.579 165.414 202.356 159.837 139.168 159.837C75.9803 159.837 24.7566 165.414 24.7566 172.293C24.7566 179.173 75.9803 184.75 139.168 184.75Z" fill="#ED5135"/>
<path d="M236.727 45V173H36.2727V45H236.727Z" fill="#ED5135"/>
<path opacity="0.1" d="M236.727 145.453V173H36.2727V145C51.0764 151.024 75.3601 158.194 110.639 160.648C119.168 161.237 127.826 161.53 136.5 161.523C145.205 161.529 153.891 161.227 162.444 160.623C196.182 158.223 220.792 151.456 236.727 145.453Z" fill="black" fill-opacity="0.5"/>
<path d="M251.938 24H19.1525C17.0097 24 15.2727 25.7909 15.2727 28C15.2727 30.2091 17.0097 32 19.1525 32H251.938C254.081 32 255.818 30.2091 255.818 28C255.818 25.7909 254.081 24 251.938 24Z" fill="#784421"/>
<path d="M250.561 29H21.0059C18.8929 29 16.2273 29.6866 16.2273 30.5C17.1818 32 18.6137 32 21.0059 31.9455H250.561C252.958 31.9455 253.432 32 254.864 30.5C254.864 29.6866 252.674 29 250.561 29Z" fill="#381F1F"/>
<path d="M67.7726 22H50.5908V48H67.7726V22Z" fill="#ED5135"/>
<path d="M222.409 22H205.227V48H222.409V22Z" fill="#ED5135"/>
<path d="M119.318 22H102.136V48H119.318V22Z" fill="#ED5135"/>
<path d="M170.863 22H152.727V48H170.863V22Z" fill="#ED5135"/>
</svg>
