<svg width="184" height="167" viewBox="0 0 184 167" fill="none" xmlns="http://www.w3.org/2000/svg">
<mask id="mask0_522_116" style="mask-type:alpha" maskUnits="userSpaceOnUse" x="0" y="0" width="105" height="167">
<g opacity="0.5" clip-path="url(#clip0_522_116)">
<path d="M-6.75171 92.0979L104.338 83.3901L104.338 82.8011L-6.75171 74.3937L-6.75171 92.0979Z" fill="#FFD8CF"/>
<path d="M-6.75171 124.468L104.338 85.7387L104.338 85.0815L-6.75171 105.444L-6.75171 124.468Z" fill="#FFD8CF"/>
<path d="M-6.75171 163.616L104.338 88.5459L104.338 87.6257L-6.75171 139.793L-6.75171 163.616Z" fill="#FFD8CF"/>
<path d="M40.2219 166.379L104.339 92.5763L104.339 90.9482L14.5569 166.379L40.2219 166.379Z" fill="#FFD8CF"/>
<path d="M72.2687 166.379L104.339 100.235L104.339 96.2883L55.3772 166.379L72.2687 166.379Z" fill="#FFD8CF"/>
<path d="M97.0413 166.379L104.338 127.502L104.338 108.554L83.5588 166.379L97.0413 166.379Z" fill="#FFD8CF"/>
<path d="M83.5227 0.151405L104.339 57.575L104.339 38.7631L96.9793 0.151405L83.5227 0.151405Z" fill="#FFD8CF"/>
<path d="M55.3599 0.151375L104.338 69.8564L104.338 65.8834L72.2428 0.151374L55.3599 0.151375Z" fill="#FFD8CF"/>
<path d="M14.4897 0.151321L104.339 75.2208L104.339 73.5751L40.1956 0.15132L14.4897 0.151321Z" fill="#FFD8CF"/>
<path d="M-6.75171 26.7567L104.338 78.5575L104.338 77.6287L-6.75171 2.99739L-6.75171 26.7567Z" fill="#FFD8CF"/>
<path d="M-6.75171 61.0552L104.338 81.1094L104.338 80.4471L-6.75171 42.054L-6.75171 61.0552Z" fill="#FFD8CF"/>
<path d="M74.0575 72.0645L39 9L92.0475 68.3819C85.036 55.1245 86.0508 46.2863 87.4347 43.5243C96.6603 39.8417 107.27 50.2758 111.421 55.9531C135.777 51.534 147.094 61.7839 149.708 67.4612C151.245 69.7628 155.52 77.4963 160.317 90.0171C166.287 105.599 164.028 114.337 160.366 128.496L160.317 128.684C156.627 142.954 134.947 157.685 126.644 155.844C120.432 154.466 115.35 144.395 113.208 138.576C113.407 142.726 106.276 153.981 98.0442 146.177C88.8185 137.431 88.8185 138.811 80.5154 135.129C72.2123 131.446 62.0641 139.732 62.5254 137.431C62.9867 135.129 55.1449 125.922 55.1449 117.176C55.1449 108.43 68.5221 93.6997 69.9059 91.3981C71.2898 89.0965 70.8285 80.3503 72.6736 77.5883C74.1497 75.3788 74.2112 72.9851 74.0575 72.0645Z" fill="#381F1F"/>
</g>
</mask>
<g mask="url(#mask0_522_116)">
<path d="M104.615 3.66002C94.2413 3.66002 83.9691 5.70328 74.385 9.67315C64.8009 13.643 56.0926 19.4618 48.7572 26.7971C41.4218 34.1325 35.6031 42.8408 31.6332 52.4249C27.6634 62.0091 25.6201 72.2813 25.6201 82.655C25.6201 93.0288 27.6634 103.301 31.6333 112.885C35.6031 122.469 41.4219 131.178 48.7572 138.513C56.0926 145.848 64.8009 151.667 74.385 155.637C83.9692 159.607 94.2414 161.65 104.615 161.65L104.615 82.655L104.615 3.66002Z" fill="#FB9B26"/>
</g>
<path d="M104 4C114.374 4 124.647 6.04339 134.232 10.0135C143.817 13.9836 152.526 19.8027 159.861 27.1386C167.197 34.4744 173.016 43.1833 176.986 52.768C180.957 62.3527 183 72.6256 183 83C183 93.3744 180.957 103.647 176.986 113.232C173.016 122.817 167.197 131.526 159.861 138.861C152.526 146.197 143.817 152.016 134.232 155.986C124.647 159.957 114.374 162 104 162L104 83L104 4Z" fill="#F0C086"/>
<mask id="mask1_522_116" style="mask-type:alpha" maskUnits="userSpaceOnUse" x="86" y="-283" width="98" height="493">
<path d="M133.771 62.8644C133.771 52.4037 124.644 43.9097 113.333 43.7559C113.298 43.7559 113.265 43.7559 113.23 43.7559C113.194 43.7559 113.161 43.7559 113.126 43.7559C101.807 43.9097 92.6879 52.4037 92.6879 62.8644C92.6879 73.325 101.815 81.8191 113.126 81.9729C113.161 81.9729 113.194 81.9729 113.23 81.9729C113.265 81.9729 113.298 81.9729 113.333 81.9729C124.652 81.8191 133.771 73.3233 133.771 62.8644ZM95.8259 62.9063C95.8259 54.1011 103.599 46.9532 113.23 46.8518C122.86 46.9532 130.633 54.1011 130.633 62.9046C130.633 71.708 122.86 78.8578 113.23 78.9592C103.599 78.856 95.8259 71.708 95.8259 62.9063Z" fill="url(#paint0_linear_522_116)"/>
<path d="M127.083 61.908C127.083 54.6125 120.745 48.6836 112.854 48.533C112.819 48.533 112.787 48.533 112.752 48.533C112.717 48.533 112.684 48.533 112.65 48.533C104.765 48.6836 98.4205 54.6125 98.4205 61.908C98.4205 69.2035 104.759 75.1325 112.65 75.2849C112.684 75.2849 112.717 75.2849 112.752 75.2849C112.787 75.2849 112.819 75.2849 112.854 75.2849C120.739 75.1325 127.083 69.2053 127.083 61.908ZM101.537 62.0832C101.537 56.0597 106.54 51.1698 112.752 51.0629C118.964 51.1698 123.967 56.0597 123.967 62.0832C123.967 68.1068 118.964 72.995 112.752 73.1018C106.54 72.9985 101.537 68.1085 101.537 62.0868L101.537 62.0832Z" fill="url(#paint1_linear_522_116)"/>
<path d="M121.351 62.3866C121.351 57.9929 117.575 54.4172 112.855 54.2655C112.82 54.2655 112.787 54.2655 112.752 54.2655C112.717 54.2655 112.684 54.2655 112.649 54.2655C107.929 54.4172 104.153 57.9929 104.153 62.3866C104.153 66.7804 107.929 70.3561 112.649 70.5078C112.684 70.5078 112.717 70.5078 112.752 70.5078C112.787 70.5078 112.82 70.5078 112.855 70.5078C117.575 70.351 121.351 66.7753 121.351 62.3866ZM107.518 62.2997C107.518 59.4535 109.849 57.1373 112.762 57.0316C115.677 57.1373 118.006 59.4535 118.006 62.2997C118.006 65.1459 115.675 67.4638 112.762 67.5695C109.837 67.4587 107.508 65.1408 107.508 62.2946L107.518 62.2997Z" fill="url(#paint2_linear_522_116)"/>
<path d="M133.771 112.069C133.771 101.347 124.644 92.6402 113.333 92.4825C113.298 92.4825 113.265 92.4825 113.23 92.4825C113.194 92.4825 113.161 92.4825 113.126 92.4825C101.807 92.6402 92.6879 101.347 92.6879 112.069C92.6879 122.791 101.815 131.497 113.126 131.655C113.161 131.655 113.194 131.655 113.23 131.655C113.265 131.655 113.298 131.655 113.333 131.655C124.652 131.497 133.771 122.789 133.771 112.069ZM95.8259 112.112C95.8259 103.086 103.599 95.7597 113.23 95.6558C122.86 95.7597 130.633 103.086 130.633 112.11C130.633 121.134 122.86 128.462 113.23 128.566C103.599 128.46 95.8259 121.134 95.8259 112.112Z" fill="url(#paint3_linear_522_116)"/>
<path d="M127.083 111.59C127.083 104.295 120.745 98.3658 112.854 98.2151C112.819 98.2151 112.787 98.2151 112.752 98.2151C112.717 98.2151 112.684 98.2151 112.65 98.2151C104.765 98.3658 98.4205 104.295 98.4205 111.59C98.4205 118.886 104.759 124.815 112.65 124.967C112.684 124.967 112.717 124.967 112.752 124.967C112.787 124.967 112.819 124.967 112.854 124.967C120.739 124.815 127.083 118.887 127.083 111.59ZM101.537 111.765C101.537 105.742 106.54 100.852 112.752 100.745C118.964 100.852 123.967 105.742 123.967 111.765C123.967 117.789 118.964 122.677 112.752 122.784C106.54 122.681 101.537 117.791 101.537 111.769L101.537 111.765Z" fill="url(#paint4_linear_522_116)"/>
<path d="M121.351 112.069C121.351 107.675 117.575 104.099 112.855 103.948C112.82 103.948 112.787 103.948 112.752 103.948C112.717 103.948 112.684 103.948 112.649 103.948C107.929 104.099 104.153 107.675 104.153 112.069C104.153 116.463 107.929 120.038 112.649 120.19C112.684 120.19 112.717 120.19 112.752 120.19C112.787 120.19 112.82 120.19 112.855 120.19C117.575 120.033 121.351 116.457 121.351 112.069ZM107.518 111.982C107.518 109.136 109.849 106.819 112.762 106.714C115.677 106.819 118.006 109.136 118.006 111.982C118.006 114.828 115.675 117.146 112.762 117.252C109.837 117.141 107.508 114.823 107.508 111.977L107.518 111.982Z" fill="url(#paint5_linear_522_116)"/>
<path d="M133.771 161.273C133.771 150.813 124.644 142.319 113.333 142.165C113.298 142.165 113.265 142.165 113.23 142.165C113.194 142.165 113.161 142.165 113.126 142.165C101.807 142.319 92.6879 150.813 92.6879 161.273C92.6879 171.734 101.815 180.228 113.126 180.382C113.161 180.382 113.194 180.382 113.23 180.382C113.265 180.382 113.298 180.382 113.333 180.382C124.652 180.228 133.771 171.732 133.771 161.273ZM95.8259 161.315C95.8259 152.51 103.599 145.362 113.23 145.261C122.86 145.362 130.633 152.51 130.633 161.314C130.633 170.117 122.86 177.267 113.23 177.368C103.599 177.265 95.8259 170.117 95.8259 161.315Z" fill="url(#paint6_linear_522_116)"/>
<path d="M127.083 161.272C127.083 153.977 120.745 148.048 112.854 147.897C112.819 147.897 112.787 147.897 112.752 147.897C112.717 147.897 112.684 147.897 112.65 147.897C104.765 148.048 98.4205 153.977 98.4205 161.272C98.4205 168.568 104.759 174.497 112.65 174.649C112.684 174.649 112.717 174.649 112.752 174.649C112.787 174.649 112.819 174.649 112.854 174.649C120.739 174.497 127.083 168.57 127.083 161.272ZM101.537 161.447C101.537 155.424 106.54 150.534 112.752 150.427C118.964 150.534 123.967 155.424 123.967 161.447C123.967 167.471 118.964 172.359 112.752 172.466C106.54 172.363 101.537 167.473 101.537 161.451L101.537 161.447Z" fill="url(#paint7_linear_522_116)"/>
<path d="M121.351 161.273C121.351 156.621 117.575 152.835 112.855 152.674C112.82 152.674 112.787 152.674 112.752 152.674C112.717 152.674 112.684 152.674 112.649 152.674C107.929 152.835 104.153 156.621 104.153 161.273C104.153 165.925 107.929 169.712 112.649 169.872C112.684 169.872 112.717 169.872 112.752 169.872C112.787 169.872 112.82 169.872 112.855 169.872C117.575 169.706 121.351 165.92 121.351 161.273ZM107.518 161.181C107.518 158.168 109.849 155.715 112.762 155.603C115.677 155.715 118.006 158.168 118.006 161.181C118.006 164.195 115.675 166.649 112.762 166.761C109.837 166.644 107.508 164.189 107.508 161.176L107.518 161.181Z" fill="url(#paint8_linear_522_116)"/>
<path d="M127.839 210L128.151 210C135.234 209.882 141.87 207.348 146.859 202.852C151.898 198.313 154.672 192.299 154.672 185.909C154.67 185.065 154.618 184.22 154.518 183.38C157.182 182.187 159.597 180.622 161.662 178.751C166.7 174.211 169.474 168.198 169.474 161.808C169.474 160.674 169.383 159.541 169.202 158.417C177.995 154.203 183.454 146.081 183.454 137.184C183.454 128.288 177.985 120.148 169.174 115.94C169.564 113.637 169.574 111.299 169.202 108.994C177.995 104.782 183.454 96.6575 183.454 87.7613C183.454 78.8652 177.985 70.7253 169.174 66.5164C169.564 64.2138 169.574 61.8757 169.202 59.5708C177.995 55.3584 183.454 47.2344 183.454 38.3382C183.454 31.9519 180.678 25.9349 175.641 21.3954C173.755 19.6902 171.579 18.2386 169.186 17.0898C169.378 15.9132 169.474 14.7267 169.474 13.5387C169.474 12.4044 169.383 11.2714 169.202 10.1477C177.995 5.93353 183.454 -2.18875 183.454 -11.0849C183.454 -19.9811 177.985 -28.1209 169.174 -32.3298C169.564 -34.6324 169.574 -36.9706 169.202 -39.2754C177.995 -43.4878 183.454 -51.6119 183.454 -60.508C183.454 -69.4042 177.985 -77.5441 169.174 -81.7529C169.564 -84.0555 169.574 -86.3937 169.202 -88.6986C177.995 -92.9109 183.454 -101.035 183.454 -109.931C183.454 -116.317 180.678 -122.334 175.641 -126.874C173.755 -128.579 171.579 -130.031 169.186 -131.18C169.378 -132.356 169.474 -133.543 169.474 -134.731C169.474 -135.865 169.383 -136.998 169.202 -138.122C177.995 -142.336 183.454 -150.458 183.454 -159.354C183.454 -168.25 177.985 -176.39 169.174 -180.599C169.564 -182.902 169.574 -185.24 169.202 -187.545C177.995 -191.757 183.454 -199.881 183.454 -208.777C183.454 -217.674 177.985 -225.813 169.174 -230.022C169.564 -232.325 169.574 -234.663 169.202 -236.968C177.995 -241.18 183.454 -249.304 183.454 -258.201C183.454 -264.587 180.678 -270.604 175.641 -275.143C170.652 -279.639 164.016 -282.173 156.933 -282.296L156.627 -282.296L156.316 -282.296C151.544 -282.213 146.889 -281.015 142.855 -278.832C138.559 -281.461 133.432 -282.915 128.151 -283L127.845 -283L127.534 -283C120.452 -282.882 113.816 -280.348 108.826 -275.852C103.787 -271.313 101.014 -265.299 101.014 -258.909C101.016 -257.814 101.099 -256.72 101.265 -255.634C98.4819 -254.431 95.9634 -252.824 93.8206 -250.886C88.7817 -246.346 86.0084 -240.333 86.0084 -233.943C86.0084 -227.553 88.7838 -221.539 93.8206 -217C95.9451 -215.075 98.4393 -213.476 101.195 -212.272C100.932 -210.26 100.956 -208.228 101.265 -206.22C98.4796 -205.009 95.9603 -203.394 93.8185 -201.448C88.7797 -196.909 86.0063 -190.895 86.0063 -184.506C86.0063 -178.116 88.7817 -172.102 93.8185 -167.563C95.9431 -165.638 98.4373 -164.039 101.193 -162.835C101.074 -161.913 101.014 -160.986 101.014 -160.058C101.016 -158.963 101.099 -157.869 101.265 -156.783C98.4823 -155.578 95.9639 -153.972 93.8206 -152.034C88.7817 -147.494 86.0084 -141.481 86.0084 -135.091C86.0084 -128.701 88.7838 -122.688 93.8206 -118.148C95.9451 -116.224 98.4393 -114.625 101.195 -113.421L101.15 -113.014C101.123 -112.784 101.102 -112.554 101.084 -112.321L101.049 -111.827L101.033 -111.493C101.033 -111.21 101.014 -110.927 101.014 -110.643C101.014 -110.39 101.014 -110.137 101.028 -109.884L101.028 -109.764C101.059 -108.959 101.137 -108.158 101.257 -107.369C98.4744 -106.161 95.9567 -104.551 93.8144 -102.611C88.7755 -98.0714 86.0022 -92.0579 86.0022 -85.6681C86.0022 -79.2783 88.7776 -73.2648 93.8144 -68.7253C95.939 -66.8007 98.4331 -65.2017 101.189 -63.9975C100.926 -61.9852 100.95 -59.953 101.259 -57.9454C98.4761 -56.7353 95.959 -55.1227 93.8185 -53.179C88.7796 -48.6394 86.0063 -42.626 86.0063 -36.2362C86.0063 -29.8463 88.7817 -23.8329 93.8185 -19.2934C95.9431 -17.3688 98.4373 -15.7698 101.193 -14.5656C101.074 -13.6434 101.014 -12.7163 101.014 -11.7885C101.016 -10.6933 101.099 -9.59943 101.265 -8.51352C98.4808 -7.30655 95.9616 -5.69696 93.8185 -3.75586C88.7796 0.783687 86.0063 6.79711 86.0063 13.1869C86.0063 19.5768 88.7817 25.5902 93.8185 30.1297C95.9431 32.0543 98.4373 33.6533 101.193 34.8575C101.174 34.9964 101.162 35.1354 101.146 35.2743L101.113 35.5733L101.078 35.999C101.065 36.1537 101.055 36.3103 101.047 36.4651L101.03 36.8028C101.03 37.0807 101.012 37.3585 101.012 37.6347C101.012 37.9108 101.012 38.1412 101.026 38.3945L101.026 38.5141C101.057 39.3196 101.135 40.1199 101.255 40.9096C98.4724 42.1174 95.9547 43.7269 93.8124 45.6673C88.7735 50.2068 86.0001 56.2202 86.0001 62.61C86.0001 68.9999 88.7755 75.0133 93.8124 79.5529C95.9369 81.4774 98.4311 83.0765 101.187 84.2806C100.924 86.293 100.947 88.3252 101.257 90.3328C98.4755 91.5404 95.9592 93.1499 93.8185 95.0904C88.7796 99.6299 86.0063 105.643 86.0063 112.033C86.0063 118.423 88.7817 124.436 93.8185 128.976C95.9431 130.901 98.4373 132.5 101.193 133.704C101.074 134.626 101.014 135.553 101.014 136.481C101.016 137.576 101.099 138.67 101.265 139.756C98.4808 140.963 95.9616 142.572 93.8185 144.513C88.7796 149.053 86.0063 155.066 86.0063 161.456C86.0063 167.846 88.7817 173.86 93.8185 178.399C95.9431 180.324 98.4373 181.923 101.193 183.127C101.074 184.049 101.014 184.976 101.014 185.904C101.014 192.29 103.789 198.307 108.826 202.847C113.814 207.342 120.45 209.882 127.534 209.995L127.839 210ZM165.827 161.764C165.827 173.304 155.426 182.773 142.647 182.87C138.278 182.833 134.017 181.704 130.388 179.621C130.89 179.231 131.377 178.821 131.85 178.39C131.971 178.283 132.088 178.174 132.205 178.063C135.276 179.8 138.862 180.751 142.542 180.807C142.577 180.807 142.61 180.807 142.645 180.807C142.68 180.807 142.713 180.807 142.748 180.807C154.02 180.652 163.101 172.104 163.101 161.581C163.101 154.521 159.01 148.351 152.914 145.008C153.166 144.413 153.392 143.811 153.592 143.201C161.162 146.916 165.827 153.958 165.827 161.764ZM142.645 174.792C142.68 174.792 142.713 174.792 142.748 174.792C150.675 174.639 157.054 168.689 157.054 161.363C157.054 156.519 154.263 152.277 150.079 149.915C150.184 149.776 150.285 149.639 150.391 149.498C150.79 148.946 151.158 148.379 151.504 147.803C156.582 150.631 159.976 155.765 159.976 161.63C159.976 170.49 152.236 177.682 142.645 177.784C139.73 177.751 136.878 177.058 134.378 175.775C135.035 174.986 135.637 174.163 136.179 173.313C138.128 174.241 140.312 174.749 142.542 174.794C142.577 174.795 142.61 174.794 142.645 174.792ZM142.645 169.835C142.68 169.835 142.713 169.835 142.748 169.835C147.447 169.679 151.208 165.989 151.208 161.455C151.208 158.144 149.201 155.286 146.29 153.923C146.996 153.322 147.664 152.689 148.29 152.027C151.66 153.962 153.921 157.492 153.921 161.544C153.921 167.589 148.891 172.498 142.645 172.605C140.768 172.571 138.937 172.103 137.345 171.251C137.761 170.417 138.123 169.563 138.428 168.694C139.652 169.387 141.074 169.782 142.54 169.835C142.577 169.839 142.61 169.835 142.645 169.835ZM142.645 166.8C141.369 166.738 140.17 166.261 139.292 165.466C139.743 163.052 139.784 160.595 139.413 158.171C140.833 157.557 142.186 156.837 143.457 156.018C145.967 156.496 147.867 158.705 147.867 161.361C147.867 164.299 145.546 166.691 142.645 166.8ZM142.252 136.034C142.252 131.312 139.598 127.163 135.589 124.767C136.081 124.067 136.529 123.345 136.934 122.606C141.882 125.462 145.174 130.52 145.174 136.302C145.174 142.225 141.714 147.4 136.553 150.212C136.043 149.352 135.472 148.518 134.845 147.716C139.267 145.407 142.252 141.043 142.252 136.034ZM133.244 145.866C132.799 145.402 132.337 144.95 131.85 144.513C131.595 144.283 131.336 144.06 131.071 143.84C134.206 142.563 136.416 139.591 136.416 136.124C136.416 133.007 134.635 130.295 131.998 128.849C132.667 128.238 133.299 127.596 133.891 126.929C137.043 128.9 139.129 132.321 139.129 136.214C139.119 140.363 136.749 143.972 133.244 145.866ZM148.299 136.263C148.299 129.252 144.265 123.121 138.239 119.761C138.47 119.153 138.675 118.537 138.856 117.915C146.368 121.628 151.025 128.7 151.025 136.437C151.025 144.241 146.306 151.345 138.69 155.037C138.47 154.333 138.215 153.63 137.923 152.937C144.131 149.618 148.299 143.395 148.299 136.263ZM151.208 112.033C151.208 108.723 149.201 105.865 146.29 104.502C146.996 103.901 147.664 103.268 148.29 102.606C151.66 104.541 153.921 108.071 153.921 112.123C153.921 116.005 151.847 119.417 148.708 121.392C148.072 120.688 147.391 120.015 146.668 119.376C149.374 117.945 151.208 115.199 151.208 112.033ZM143.837 117.201C142.479 116.292 141.021 115.497 139.485 114.826C139.746 112.807 139.721 110.768 139.413 108.753C140.833 108.14 142.186 107.419 143.457 106.6C145.967 107.079 147.867 109.288 147.867 111.943C147.867 114.459 146.156 116.576 143.837 117.195L143.837 117.201ZM142.252 86.6163C142.252 81.8939 139.598 77.7448 135.589 75.3492C136.081 74.649 136.529 73.9275 136.934 73.1877C141.882 76.044 145.174 81.1024 145.174 86.8837C145.174 92.8074 141.714 97.9819 136.553 100.794C136.043 99.934 135.472 99.1006 134.845 98.2985C139.267 95.9838 142.252 91.6202 142.252 86.6111L142.252 86.6163ZM133.244 96.4481C132.8 95.9838 132.337 95.5318 131.85 95.0956C131.595 94.8652 131.336 94.6419 131.071 94.422C134.206 93.1451 136.416 90.1727 136.416 86.706C136.416 83.5894 134.635 80.8773 131.998 79.4315C132.667 78.8196 133.299 78.1786 133.891 77.5109C137.043 79.4825 139.129 82.9034 139.129 86.7957C139.119 90.9395 136.749 94.5487 133.244 96.4429L133.244 96.4481ZM148.299 86.8397C148.299 79.829 144.265 73.6977 138.239 70.3383C138.47 69.7298 138.675 69.1142 138.856 68.4916C146.368 72.2045 151.025 79.2767 151.025 87.0138C151.025 94.8177 146.306 101.922 138.69 105.613C138.47 104.91 138.215 104.206 137.923 103.513C144.131 100.194 148.299 93.9717 148.299 86.8397ZM104.758 39.4586C104.743 39.3108 104.729 39.1649 104.719 39.0171C104.708 38.8694 104.694 38.6917 104.686 38.5281L104.675 38.2749C104.675 38.048 104.661 37.8193 104.661 37.5907C104.661 37.1088 104.684 36.6163 104.723 36.1221C105.6 36.3744 106.492 36.5863 107.395 36.757C107.395 36.9751 107.381 37.195 107.381 37.4166C107.381 37.9595 107.405 38.4971 107.453 39.0294C106.55 39.1978 105.657 39.4074 104.78 39.6573L104.758 39.4586ZM164.902 26.9568C165.42 26.2697 165.899 25.5627 166.341 24.8357C170.944 27.7465 173.964 32.6273 173.964 38.1588C173.964 43.7325 170.901 48.6432 166.24 51.547C165.723 50.6943 165.148 49.868 164.519 49.0724C168.45 46.6645 171.042 42.5647 171.042 37.8914C171.034 33.3801 168.612 29.3911 164.902 26.9568ZM167.901 38.0709C167.901 41.8699 165.911 45.2187 162.883 47.2168C162.22 46.5327 161.513 45.8809 160.765 45.2645C163.405 43.8205 165.187 41.1066 165.187 37.9882C165.187 35.0228 163.578 32.4197 161.152 30.93C161.322 30.784 161.493 30.6398 161.66 30.4886C162.163 30.0348 162.642 29.5657 163.099 29.0815C166.008 31.0848 167.901 34.3615 167.901 38.0709ZM150.085 51.0704C150.602 50.3881 151.079 49.6837 151.512 48.9598C156.586 51.7915 159.976 56.922 159.976 62.7842C159.976 68.5039 156.75 73.5236 151.884 76.394C151.442 75.5984 150.95 74.8234 150.412 74.0724L150.256 73.8648C154.341 71.4833 157.054 67.2938 157.054 62.5168C157.054 57.673 154.261 53.4325 150.085 51.0704ZM161.847 37.8914C161.847 40.4136 160.134 42.526 157.815 43.1451C156.718 42.4665 155.561 41.8609 154.355 41.3335C154.511 40.4324 154.608 39.5246 154.647 38.6143L154.647 38.5018C154.657 38.2133 154.666 37.9249 154.666 37.6347C154.666 37.3814 154.666 37.1264 154.649 36.8713C154.649 36.7412 154.643 36.611 154.631 36.4809L154.614 36.2206C154.589 35.8477 154.557 35.4748 154.513 35.1055C155.931 34.4708 157.28 33.7285 158.543 32.8876C160.488 33.7178 161.847 35.6437 161.847 37.8914ZM132.917 35.9568C133.014 36.3619 133.064 36.7743 133.065 37.1879C133.065 40.1252 130.744 42.5172 127.843 42.6262C127.806 42.6262 127.769 42.6262 127.732 42.6262C126.521 41.8951 125.241 41.2526 123.904 40.7056C123.495 40.2169 123.179 39.6762 122.966 39.1033C122.913 38.9626 122.868 38.8201 122.827 38.6741L122.816 38.6337C122.777 38.493 122.746 38.3505 122.718 38.2063L122.718 38.1535C122.693 38.0093 122.672 37.8633 122.658 37.7156L122.658 37.6698C122.646 37.5168 122.637 37.3621 122.637 37.2038C122.637 37.0455 122.637 36.8925 122.658 36.7394L122.681 36.5512C122.691 36.4651 122.701 36.3753 122.716 36.2909L122.763 36.0605L122.808 35.8565L122.878 35.6138L122.915 35.503C124.513 34.9177 126.04 34.1989 127.473 33.3572C129.162 34.4024 130.989 35.2732 132.917 35.9515L132.917 35.9568ZM112.837 38.5141L112.527 38.5141C111.868 38.5258 111.212 38.5581 110.561 38.6108L110.561 38.5194C110.561 38.3822 110.543 38.245 110.537 38.106C110.537 37.8897 110.52 37.6716 110.52 37.4517L110.52 37.1721C111.186 37.226 111.857 37.2595 112.531 37.2723L112.839 37.2723L113.144 37.2723C113.242 37.2723 113.339 37.2723 113.435 37.2723C113.435 37.4482 113.435 37.6241 113.452 37.8L113.452 37.9266C113.464 38.1289 113.479 38.3294 113.501 38.5281C113.378 38.5281 113.257 38.5282 113.135 38.5176L112.837 38.5141ZM116.663 38.7814C116.632 38.551 116.608 38.3206 116.591 38.0884L116.591 38.0374L116.575 37.7402L116.575 37.3656C116.575 37.2512 116.575 37.1387 116.575 37.0244C117.499 36.9047 118.415 36.742 119.319 36.5372C119.309 36.6356 119.303 36.7324 119.297 36.8309C119.286 36.9786 119.28 37.1264 119.28 37.2759C119.28 37.4254 119.28 37.6276 119.299 37.8035L119.299 37.8194C119.333 38.3225 119.415 38.8224 119.543 39.3144C118.596 39.0912 117.634 38.9138 116.663 38.7832L116.663 38.7814ZM131.071 44.9918C131.128 44.969 131.182 44.9444 131.237 44.9197C131.252 44.9146 131.266 44.9087 131.28 44.9022C131.385 44.8564 131.486 44.8089 131.593 44.7579C131.811 44.6506 132.024 44.5363 132.232 44.4062C132.327 44.3499 132.421 44.2918 132.516 44.2303C132.534 44.2197 132.551 44.2074 132.569 44.1951C132.647 44.1441 132.723 44.0913 132.8 44.0386L132.867 43.9911C132.939 43.9401 133.011 43.8873 133.073 43.8328L133.139 43.7835C133.213 43.7255 133.285 43.6674 133.357 43.6077L133.406 43.5672C133.583 43.4195 133.753 43.2629 133.918 43.1011L133.947 43.073C134.017 43.0026 134.084 42.9322 134.152 42.8601L134.216 42.7916L134.378 42.6157L134.448 42.533C134.498 42.4732 134.547 42.4152 134.594 42.3571L134.664 42.2709L134.804 42.0828L134.866 42.0001L135.022 41.7732L135.055 41.7222C135.116 41.629 135.178 41.5322 135.236 41.4355L135.264 41.3863C135.31 41.3071 135.357 41.2262 135.4 41.1453L135.452 41.0468L135.554 40.8481L135.608 40.7355L135.696 40.542L135.748 40.4242C135.776 40.3573 135.803 40.2905 135.828 40.2237L135.873 40.1093C135.902 40.0355 135.929 39.9598 135.953 39.8825L135.986 39.791C136.021 39.6837 136.054 39.5764 136.085 39.4674L136.095 39.4217C136.122 39.3284 136.146 39.2335 136.169 39.1402L136.194 39.0259L136.239 38.8061L136.264 38.6759L136.297 38.4648L136.315 38.3294C136.325 38.2591 136.334 38.1869 136.34 38.1148L136.375 37.9864L136.391 37.7508L136.391 37.6382C136.391 37.5221 136.391 37.4043 136.391 37.2864C136.391 37.1686 136.391 37.0613 136.381 36.9505C137.278 37.1462 138.188 37.3006 139.105 37.4131C139.105 37.5608 139.105 37.7068 139.092 37.8528L139.092 37.9055C139.092 38.0322 139.078 38.1588 139.068 38.2837L139.068 38.3628C139.058 38.4824 139.045 38.602 139.029 38.7146L139.029 38.7885C139.01 38.9186 138.992 39.047 138.969 39.1736L138.969 39.2088C138.92 39.4937 138.858 39.7752 138.786 40.0513L138.77 40.1146C138.741 40.2254 138.71 40.3345 138.677 40.4453L138.64 40.5596L138.552 40.8322L138.504 40.9676L138.412 41.2174L138.356 41.3564L138.256 41.6008L138.198 41.7363C138.145 41.8523 138.091 41.9667 138.036 42.088C138.005 42.1548 137.97 42.2182 137.937 42.2833L137.857 42.438L137.738 42.6526L137.668 42.7757C137.625 42.8513 137.579 42.927 137.532 43.0009C137.514 43.0343 137.493 43.0659 137.472 43.0976C137.421 43.1785 137.37 43.2612 137.316 43.3403L137.281 43.3913C136.302 44.8654 134.919 46.1142 133.252 47.0303C132.808 46.566 132.345 46.114 131.858 45.6778C131.595 45.4368 131.336 45.2135 131.071 44.9936L131.071 44.9918ZM134.845 48.8613C134.874 48.8455 134.903 48.8279 134.933 48.8138L135.166 48.6872L135.371 48.5711L135.593 48.4409L135.799 48.3125C135.869 48.2686 135.939 48.2263 136.005 48.1824C136.07 48.1384 136.161 48.0804 136.237 48.0276C136.313 47.9748 136.354 47.952 136.412 47.9115C136.543 47.8201 136.675 47.7356 136.802 47.6319L136.882 47.5703C136.987 47.4911 137.088 47.4102 137.195 47.3293C137.236 47.2977 137.275 47.2642 137.314 47.2326L137.579 47.0128L137.699 46.909C137.785 46.8333 137.869 46.7577 137.954 46.6786L138.062 46.5801L138.324 46.3286L138.412 46.2406C138.507 46.1457 138.599 46.0489 138.692 45.9522L138.747 45.8924C140.924 43.5316 142.15 40.6318 142.242 37.6259C142.273 37.6259 142.304 37.6259 142.335 37.6259L142.639 37.6259L142.953 37.6259C143.7 37.6136 144.44 37.5713 145.174 37.5063L145.174 37.5485C145.174 37.7244 145.174 37.9126 145.159 38.0937L145.159 38.2362C145.159 38.3857 145.143 38.5352 145.13 38.6847L145.114 38.8606C145.102 38.9995 145.087 39.1367 145.071 39.2757L145.048 39.4515C145.029 39.5887 145.009 39.7241 144.987 39.8578L144.958 40.0337L144.88 40.4471L144.847 40.6071C144.814 40.7601 144.779 40.9114 144.74 41.0644L144.715 41.1682C144.619 41.5446 144.51 41.9139 144.384 42.2798C144.37 42.3272 144.351 42.373 144.335 42.4204C144.29 42.5524 144.242 42.6825 144.193 42.8127L144.117 43.0044L143.981 43.3368L143.889 43.5478L143.751 43.8521L143.644 44.072C143.597 44.1687 143.55 44.2637 143.5 44.3569C143.451 44.4501 143.424 44.5082 143.383 44.5821C143.342 44.6559 143.284 44.7579 143.233 44.8547C143.182 44.9514 143.151 45.0059 143.105 45.0798C143.06 45.1537 143.003 45.2557 142.949 45.3401L142.811 45.567C142.758 45.6514 142.703 45.7429 142.647 45.8167C142.544 45.9733 142.441 46.1281 142.328 46.2811C142.285 46.3444 142.242 46.4077 142.197 46.4693C142.131 46.559 142.061 46.6452 141.991 46.7366L141.856 46.9125C141.786 47.0022 141.714 47.0884 141.65 47.1798L141.514 47.3434C141.438 47.4331 141.362 47.5193 141.284 47.6107L141.15 47.762L140.902 48.0311L140.778 48.1613C140.688 48.2545 140.597 48.3477 140.505 48.4392L140.404 48.5359C140.303 48.6361 140.199 48.7346 140.094 48.8332C139.589 49.3008 139.05 49.7413 138.482 50.1523L138.41 50.205C138.289 50.293 138.165 50.3809 138.04 50.4618L137.943 50.5269C137.82 50.6096 137.697 50.6905 137.571 50.7696L137.47 50.8312C137.343 50.9103 137.215 50.9895 137.086 51.0651L136.998 51.1161C136.862 51.1952 136.724 51.2744 136.586 51.35C136.064 50.4945 135.483 49.6664 134.845 48.8701L134.845 48.8613ZM137.929 54.0815C138.102 53.9883 138.274 53.8933 138.443 53.7948L138.521 53.7526C138.677 53.6611 138.833 53.5767 138.988 53.4729L139.103 53.4026C139.251 53.3111 139.395 53.2267 139.541 53.1229L139.67 53.0367C139.812 52.9418 139.952 52.8468 140.081 52.7501L140.213 52.6551C140.351 52.5566 140.486 52.4581 140.624 52.3561L140.749 52.2611C140.885 52.1573 141.019 52.0536 141.161 51.9463C141.198 51.9164 141.233 51.8865 141.27 51.8583C141.405 51.7458 141.541 51.6332 141.681 51.5189L141.751 51.4573C142.38 50.9102 142.969 50.3311 143.517 49.7231L143.529 49.709C143.64 49.5842 143.751 49.4558 143.86 49.3291L143.967 49.2025C144.064 49.0864 144.158 48.9686 144.253 48.8507L144.388 48.6749L144.645 48.3354L144.789 48.1402L145.026 47.806L145.172 47.5914C145.246 47.4824 145.318 47.3715 145.39 47.2607L145.535 47.0303C145.603 46.9213 145.671 46.8123 145.741 46.7014C145.79 46.6205 145.836 46.5379 145.883 46.457C145.947 46.3462 146.01 46.2371 146.07 46.1263L146.208 45.8695L146.378 45.5406L146.512 45.268C146.563 45.159 146.617 45.0517 146.666 44.9426C146.716 44.8336 146.771 44.7087 146.82 44.5908C146.894 44.415 146.964 44.2549 147.026 44.0843C147.073 43.9682 147.121 43.8504 147.164 43.7325C147.207 43.6147 147.234 43.5391 147.269 43.4441C147.304 43.3491 147.351 43.2137 147.388 43.0923L147.482 42.7968C147.519 42.6808 147.556 42.5647 147.589 42.4451L147.674 42.1478L147.768 41.7961L147.84 41.4953C147.869 41.3739 147.896 41.2543 147.92 41.1312C147.945 41.0081 147.963 40.9307 147.982 40.8305C148 40.7302 148.029 40.5825 148.05 40.4576C148.07 40.3327 148.085 40.2588 148.099 40.1586C148.12 40.0302 148.136 39.9001 148.155 39.7699L148.192 39.4797C148.208 39.3425 148.22 39.2036 148.233 39.0664L148.257 38.792C148.27 38.6389 148.278 38.4842 148.286 38.3294C148.286 38.252 148.297 38.1764 148.299 38.099C148.299 37.8669 148.313 37.6329 148.313 37.3955C148.313 37.2776 148.313 37.1616 148.313 37.0437C149.221 36.8649 150.117 36.6447 150.998 36.3842C151.01 36.5829 151.018 36.7764 151.027 36.9698L151.027 36.9857C151.027 37.1809 151.027 37.3744 151.027 37.5678C151.027 37.8299 151.027 38.0955 151.01 38.3523L150.998 38.5669C150.988 38.7603 150.975 38.952 150.961 39.1437L150.94 39.3566C150.922 39.5553 150.901 39.7541 150.877 39.951L150.854 40.1076C150.823 40.3362 150.79 40.5649 150.751 40.79L150.751 40.841C149.598 47.4525 145.013 53.0754 138.704 56.1534C138.479 55.4639 138.221 54.7762 137.931 54.0903L137.929 54.0815ZM139.413 59.3246C140.835 58.7094 142.19 57.9866 143.461 57.1647C145.969 57.6449 147.865 59.8522 147.865 62.5063C147.865 65.0267 146.154 67.1443 143.837 67.7634C142.478 66.8551 141.02 66.06 139.483 65.389C139.602 64.4662 139.662 63.5385 139.664 62.61C139.664 61.5144 139.581 60.4198 139.415 59.3333L139.413 59.3246ZM151.206 62.596C151.206 59.2859 149.199 56.4295 146.29 55.0647C146.481 54.9029 146.67 54.7375 146.855 54.5687C147.357 54.1184 147.836 53.6506 148.294 53.1704C151.662 55.1051 153.921 58.6351 153.921 62.6857C153.921 66.5674 151.847 69.9796 148.708 71.9547C148.072 71.2509 147.391 70.578 146.668 69.9391C149.374 68.5215 151.208 65.7759 151.208 62.61L151.206 62.596ZM167.899 87.4852C167.899 91.2842 165.909 94.6331 162.881 96.6311C162.218 95.947 161.511 95.2952 160.763 94.6788C163.403 93.2348 165.185 90.5209 165.185 87.4025C165.185 84.4354 163.571 81.8341 161.141 80.3444C161.827 79.7555 162.476 79.1367 163.086 78.4905C166.001 80.4991 167.901 83.7793 167.901 87.494L167.899 87.4852ZM164.879 76.3571C165.396 75.6711 165.871 74.9635 166.306 74.2342C170.923 77.1432 173.954 82.031 173.954 87.5731C173.954 93.1469 170.89 98.0575 166.23 100.961C165.713 100.109 165.138 99.2823 164.509 98.4867C168.44 96.0788 171.032 91.979 171.032 87.3058C171.034 82.7944 168.604 78.8001 164.881 76.3658L164.879 76.3571ZM161.845 87.3058C161.845 89.8279 160.132 91.9403 157.813 92.5594C156.714 91.8832 155.556 91.2788 154.351 90.7513C154.711 88.6877 154.768 86.5938 154.522 84.518C155.936 83.8857 157.281 83.1464 158.541 82.309C160.482 83.1409 161.847 85.065 161.847 87.3146L161.845 87.3058ZM151.502 98.3671C156.58 101.197 159.974 106.331 159.974 112.197C159.974 117.916 156.748 122.936 151.882 125.807C151.44 125.011 150.948 124.236 150.41 123.485L150.254 123.277C154.339 120.896 157.052 116.706 157.052 111.929C157.052 107.086 154.261 102.843 150.077 100.479C150.182 100.342 150.282 100.205 150.389 100.064C150.79 99.5208 151.158 98.9545 151.504 98.3759L151.502 98.3671ZM167.899 136.908C167.899 140.707 165.909 144.056 162.881 146.054C162.218 145.37 161.511 144.718 160.763 144.102C163.403 142.658 165.185 139.944 165.185 136.826C165.185 133.858 163.571 131.257 161.139 129.767C161.826 129.179 162.476 128.56 163.086 127.914C166.001 129.922 167.901 133.202 167.901 136.917L167.899 136.908ZM164.879 125.78C165.396 125.094 165.871 124.387 166.306 123.657C170.923 126.566 173.954 131.454 173.954 136.996C173.954 142.57 170.89 147.481 166.23 150.384C165.712 149.531 165.138 148.705 164.509 147.908C168.44 145.502 171.032 141.4 171.032 136.729C171.034 132.217 168.604 128.223 164.881 125.789L164.879 125.78ZM161.845 136.729C161.845 139.251 160.132 141.363 157.811 141.983C156.713 141.306 155.556 140.702 154.351 140.174C154.711 138.111 154.768 136.017 154.522 133.941C155.936 133.309 157.281 132.569 158.541 131.732C160.482 132.564 161.847 134.488 161.847 136.738L161.845 136.729ZM179.804 137.132C179.804 144.519 175.456 151.433 168.44 155.237C168.209 154.514 167.942 153.802 167.636 153.104C173.322 149.679 177.093 143.729 177.093 136.958C177.093 130.221 173.368 124.294 167.733 120.864C167.989 120.256 168.218 119.638 168.421 119.01C175.448 122.822 179.807 129.741 179.807 137.14L179.804 137.132ZM165.825 112.332C165.825 120.018 161.277 126.992 153.901 130.737C153.701 130.008 153.463 129.291 153.187 128.584C159.149 125.209 163.113 119.116 163.113 112.158C163.113 105.098 159.022 98.9281 152.926 95.5846C153.178 94.9901 153.405 94.388 153.605 93.7783C161.162 97.4929 165.827 104.535 165.827 112.341L165.825 112.332ZM179.804 87.7086C179.804 95.0956 175.456 102.01 168.44 105.814C168.209 105.09 167.942 104.379 167.636 103.68C173.322 100.256 177.093 94.3059 177.093 87.5344C177.093 80.7981 173.368 74.8708 167.733 71.4411C167.989 70.8326 168.218 70.2147 168.421 69.5873C175.448 73.3987 179.807 80.318 179.807 87.7173L179.804 87.7086ZM165.825 62.9091C165.825 70.5951 161.277 77.5689 153.901 81.3135C153.701 80.5853 153.463 79.8677 153.187 79.1607C159.149 75.7855 163.113 69.6929 163.113 62.7349C163.113 55.6767 159.026 49.5103 152.935 46.165C153.185 45.5728 153.41 44.9702 153.609 44.3569C161.164 48.0716 165.827 55.1139 165.827 62.9178L165.825 62.9091ZM179.804 38.2854C179.804 45.6725 175.456 52.5865 168.44 56.3908C168.209 55.6674 167.942 54.9562 167.636 54.2574C173.322 50.8329 177.093 44.8828 177.093 38.1113C177.093 31.3838 173.378 25.4653 167.753 22.0303C168.008 21.4276 168.235 20.8156 168.434 20.1941C175.23 23.9158 179.807 30.6433 179.807 38.2942L179.804 38.2854ZM165.825 13.4859C165.825 25.0256 155.424 34.4951 142.645 34.5919C138.276 34.5547 134.015 33.4255 130.386 31.3433C130.888 30.9529 131.375 30.5425 131.848 30.1121C131.969 30.0049 132.086 29.8958 132.203 29.785C135.274 31.5215 138.86 32.4732 142.54 32.5288C142.575 32.5288 142.608 32.5288 142.643 32.5288C142.678 32.5288 142.711 32.5288 142.746 32.5288C154.018 32.374 163.099 23.8261 163.099 13.303C163.099 6.24307 159.007 0.073119 152.912 -3.27042C153.164 -3.8649 153.39 -4.46701 153.59 -5.07675C161.162 -1.3533 165.827 5.68906 165.827 13.4947L165.825 13.4859ZM142.643 26.5136C142.678 26.5136 142.711 26.5136 142.746 26.5136C150.673 26.3606 157.052 20.4105 157.052 13.0849C157.052 8.24112 154.261 3.99881 150.077 1.63669C150.182 1.49774 150.282 1.36056 150.389 1.21985C150.788 0.667571 151.156 0.101225 151.502 -0.475648C156.58 2.35254 159.974 7.48657 159.974 13.3523C159.974 22.2115 152.233 29.4033 142.643 29.5054C139.728 29.4727 136.876 28.7796 134.376 27.4968C135.033 26.7074 135.635 25.8851 136.177 25.0344C138.126 25.9628 140.31 26.4711 142.54 26.5153C142.577 26.5259 142.61 26.5241 142.645 26.5224L142.643 26.5136ZM142.643 21.5572C142.678 21.5572 142.711 21.5572 142.746 21.5572C147.445 21.4007 151.206 17.7106 151.206 13.1764C151.206 9.86627 149.199 7.00818 146.288 5.64508C146.994 5.04428 147.662 4.41134 148.288 3.74905C151.658 5.68378 153.919 9.21374 153.919 13.2661C153.919 19.3112 148.889 24.2201 142.643 24.3274C140.766 24.2926 138.935 23.8247 137.343 22.9731C137.759 22.1385 138.121 21.2847 138.426 20.4157C139.65 21.1093 141.072 21.504 142.538 21.5572C142.577 21.5695 142.61 21.566 142.645 21.566L142.643 21.5572ZM142.643 18.5215C141.367 18.4598 140.167 17.9828 139.29 17.1883C139.741 14.7741 139.782 12.3168 139.411 9.89264C140.831 9.2792 142.184 8.55874 143.455 7.73984C145.965 8.21826 147.865 10.4273 147.865 13.0832C147.867 16.0292 145.546 18.4212 142.645 18.5303L142.643 18.5215ZM142.25 -12.244C142.25 -16.9664 139.596 -21.1155 135.587 -23.511C136.079 -24.2113 136.527 -24.9328 136.932 -25.6726C141.88 -22.8163 145.172 -17.7579 145.172 -11.9766C145.172 -6.05289 141.712 -0.87842 136.551 1.93396C136.04 1.0737 135.47 0.240293 134.843 -0.561831C139.267 -2.8624 142.252 -7.22605 142.252 -12.2352L142.25 -12.244ZM133.242 -2.41211C132.797 -2.87644 132.335 -3.32846 131.848 -3.76468C131.593 -3.99506 131.334 -4.21845 131.068 -4.4383C134.204 -5.71521 136.414 -8.68762 136.414 -12.1543C136.414 -15.2709 134.633 -17.983 131.996 -19.4288C132.665 -20.0407 133.297 -20.6817 133.889 -21.3494C137.041 -19.3778 139.127 -15.9569 139.127 -12.0646C139.119 -7.90671 136.749 -4.29758 133.244 -2.40332L133.242 -2.41211ZM148.299 -12.0065C148.299 -19.0172 144.265 -25.1485 138.239 -28.5079C138.47 -29.1164 138.675 -29.732 138.856 -30.3547C146.368 -26.6418 151.025 -19.5695 151.025 -11.8324C151.025 -4.02847 146.306 3.07544 138.69 6.76721C138.47 6.06369 138.215 5.36017 137.923 4.66717C144.131 1.34826 148.299 -4.87448 148.299 -12.0065ZM151.208 -36.2362C151.208 -39.5463 149.201 -42.4044 146.29 -43.7675C146.996 -44.3683 147.664 -45.0012 148.29 -45.6635C151.66 -43.7288 153.921 -40.1988 153.921 -36.1465C153.921 -32.2647 151.847 -28.8526 148.708 -26.8774C148.072 -27.5813 147.391 -28.2542 146.668 -28.8931C149.374 -30.3248 151.208 -33.0703 151.208 -36.2362ZM143.837 -31.0687C142.479 -31.9775 141.021 -32.7726 139.485 -33.4432C139.746 -35.4627 139.721 -37.5018 139.413 -39.5164C140.833 -40.1299 142.186 -40.8503 143.457 -41.6692C145.967 -41.1908 147.867 -38.9817 147.867 -36.3259C147.867 -33.8108 146.156 -31.6931 143.837 -31.074L143.837 -31.0687ZM142.252 -61.653C142.252 -66.3755 139.598 -70.5246 135.589 -72.9201C136.081 -73.6203 136.529 -74.3419 136.934 -75.0817C141.882 -72.2254 145.174 -67.167 145.174 -61.3857C145.174 -55.4619 141.714 -50.2875 136.553 -47.4751C136.043 -48.3353 135.472 -49.1687 134.845 -49.9709C139.267 -52.2855 142.252 -56.6492 142.252 -61.6583L142.252 -61.653ZM133.244 -51.8212C132.8 -52.2855 132.337 -52.7375 131.85 -53.1737C131.595 -53.4041 131.336 -53.6275 131.071 -53.8473C134.206 -55.1243 136.416 -58.0967 136.416 -61.5633C136.416 -64.68 134.635 -67.3921 131.998 -68.8378C132.667 -69.4497 133.299 -70.0908 133.891 -70.7585C137.043 -68.7869 139.129 -65.3659 139.129 -61.4736C139.119 -57.3298 136.749 -53.7207 133.244 -51.8264L133.244 -51.8212ZM148.299 -61.4297C148.299 -68.4404 144.265 -74.5716 138.239 -77.931C138.47 -78.5396 138.675 -79.1552 138.856 -79.7778C146.368 -76.0649 151.025 -68.9926 151.025 -61.2555C151.025 -53.4516 146.306 -46.3477 138.69 -42.6559C138.47 -43.3594 138.215 -44.063 137.923 -44.7559C144.131 -48.0748 148.299 -54.2976 148.299 -61.4297ZM151.208 -85.6593C151.208 -88.9694 149.201 -91.8257 146.29 -93.1906C146.481 -93.3524 146.672 -93.5177 146.857 -93.6866C147.359 -94.1369 147.838 -94.6047 148.297 -95.0849C151.664 -93.1501 153.923 -89.6202 153.923 -85.5696C153.923 -81.6879 151.849 -78.2757 148.71 -76.3006C148.074 -77.0044 147.393 -77.6773 146.67 -78.3162C149.374 -79.7479 151.208 -82.4934 151.208 -85.6593ZM143.839 -80.4919C142.48 -81.4002 141.022 -82.1953 139.485 -82.8663C139.604 -83.7938 139.664 -84.7262 139.664 -85.6593C139.664 -86.755 139.581 -87.8495 139.415 -88.936C140.838 -89.5511 142.193 -90.2739 143.465 -91.0958C145.971 -90.6139 147.867 -88.4084 147.867 -85.7543C147.867 -83.2339 146.156 -81.1162 143.839 -80.4971L143.839 -80.4919ZM137.686 -101.332C137.723 -101.364 137.76 -101.394 137.795 -101.425C137.886 -101.506 137.974 -101.589 138.062 -101.672L138.137 -101.74C138.242 -101.839 138.345 -101.939 138.445 -102.041L138.467 -102.064C140.821 -104.474 142.152 -107.495 142.244 -110.635C142.275 -110.635 142.306 -110.635 142.337 -110.635L142.641 -110.635L142.953 -110.635C143.7 -110.647 144.44 -110.689 145.174 -110.754L145.174 -110.712C145.174 -110.536 145.174 -110.35 145.159 -110.169L145.159 -110.028C145.159 -109.878 145.141 -109.729 145.128 -109.581L145.114 -109.405L145.069 -108.992L145.046 -108.816C145.028 -108.682 145.009 -108.55 144.987 -108.417L144.958 -108.241L144.882 -107.84L144.847 -107.664C144.816 -107.522 144.783 -107.379 144.748 -107.238L144.715 -107.103C144.67 -106.927 144.623 -106.751 144.571 -106.575L144.571 -106.554C144.516 -106.368 144.456 -106.183 144.395 -106L144.353 -105.882C144.306 -105.745 144.257 -105.606 144.203 -105.471L144.127 -105.277C144.084 -105.166 144.041 -105.057 143.994 -104.95L143.899 -104.73L143.765 -104.438C143.73 -104.359 143.693 -104.282 143.654 -104.204L143.521 -103.937L143.395 -103.694L143.26 -103.448C143.212 -103.364 143.167 -103.272 143.118 -103.198C143.068 -103.124 143.029 -103.049 142.984 -102.975C142.939 -102.901 142.879 -102.799 142.824 -102.713L142.711 -102.537C142.472 -102.171 142.221 -101.814 141.954 -101.468L141.886 -101.38C141.802 -101.272 141.718 -101.169 141.631 -101.063C141.599 -101.026 141.568 -100.988 141.537 -100.949C141.451 -100.847 141.364 -100.747 141.274 -100.645L141.175 -100.532L140.9 -100.233L140.803 -100.133C140.706 -100.031 140.608 -99.9287 140.507 -99.8302L140.427 -99.751C140.318 -99.6455 140.211 -99.5417 140.1 -99.438L140.059 -99.401C139.289 -98.6891 138.441 -98.0413 137.528 -97.4663L137.503 -97.4505C137.359 -97.359 137.211 -97.2746 137.063 -97.1849L137.024 -97.1603C136.876 -97.0741 136.728 -96.9844 136.578 -96.9088L136.566 -96.9088C136.055 -97.769 135.484 -98.6024 134.857 -99.4046L134.896 -99.4257L135.139 -99.5576L135.32 -99.6578L135.548 -99.7915L135.735 -99.9023C135.807 -99.9463 135.877 -99.9902 135.941 -100.036C136.005 -100.082 136.072 -100.119 136.136 -100.163C136.2 -100.207 136.268 -100.249 136.331 -100.293L136.537 -100.435L136.714 -100.562L136.919 -100.722L137.076 -100.842L137.304 -101.017L137.44 -101.128C137.526 -101.197 137.608 -101.267 137.686 -101.338L137.686 -101.332ZM133.244 -101.244C132.8 -101.709 132.337 -102.161 131.85 -102.597C131.595 -102.827 131.336 -103.051 131.071 -103.27L131.099 -103.283C131.167 -103.311 131.233 -103.339 131.305 -103.369L131.428 -103.423L131.634 -103.517L131.745 -103.573C131.969 -103.687 132.189 -103.81 132.403 -103.941C132.44 -103.963 132.477 -103.986 132.512 -104.011C132.547 -104.036 132.631 -104.088 132.691 -104.127L132.804 -104.204L132.976 -104.328C133.011 -104.352 133.044 -104.379 133.079 -104.405C133.184 -104.484 133.285 -104.565 133.387 -104.649L133.488 -104.732L133.638 -104.864L133.749 -104.966L133.891 -105.1L134.004 -105.21L134.113 -105.358L134.239 -105.494C134.302 -105.566 134.366 -105.636 134.428 -105.71C134.469 -105.757 134.512 -105.807 134.551 -105.856C134.59 -105.905 134.623 -105.946 134.658 -105.991L134.767 -106.134L134.868 -106.271L134.979 -106.431L135.065 -106.558C135.125 -106.649 135.184 -106.742 135.24 -106.837L135.301 -106.943L135.415 -107.143L135.482 -107.274L135.579 -107.464L135.641 -107.594L135.739 -107.814L135.783 -107.916C135.828 -108.023 135.869 -108.128 135.908 -108.237L135.943 -108.338L136.023 -108.577L136.06 -108.703L136.126 -108.934L136.169 -109.052C136.194 -109.148 136.214 -109.245 136.235 -109.342L136.249 -109.404C136.272 -109.521 136.292 -109.639 136.311 -109.755L136.325 -109.861C136.338 -109.947 136.35 -110.037 136.358 -110.121L136.373 -110.246L136.391 -110.506L136.391 -110.621C136.391 -110.744 136.401 -110.869 136.401 -110.993C136.401 -111.118 136.401 -111.219 136.401 -111.329C137.298 -111.134 138.207 -110.979 139.123 -110.867C139.123 -110.723 139.123 -110.578 139.123 -110.436L139.123 -110.392C139.123 -110.265 139.109 -110.14 139.099 -110.016L139.099 -109.94L139.064 -109.588L139.053 -109.506L139.002 -109.154L138.99 -109.082C138.969 -108.957 138.947 -108.834 138.92 -108.711L138.92 -108.675C138.862 -108.399 138.792 -108.128 138.714 -107.859L138.714 -107.831C138.679 -107.713 138.642 -107.595 138.603 -107.479L138.568 -107.379C138.538 -107.285 138.505 -107.194 138.47 -107.105L138.42 -106.978C138.389 -106.895 138.356 -106.816 138.322 -106.735L138.262 -106.596L138.161 -106.373L138.093 -106.229L137.988 -106.018L137.912 -105.87L137.799 -105.666C137.74 -105.559 137.678 -105.451 137.614 -105.348L137.532 -105.209L137.401 -105.005L137.322 -104.885L137.178 -104.678L137.104 -104.572L136.946 -104.361L136.878 -104.271L136.704 -104.051L136.65 -103.988L136.445 -103.752L136.445 -103.74C135.563 -102.75 134.479 -101.907 133.244 -101.25L133.244 -101.244ZM142.131 -97.155L142.172 -97.1919C142.308 -97.3168 142.441 -97.4435 142.583 -97.5736L142.67 -97.658C142.795 -97.7794 142.916 -97.9043 143.038 -98.0291L143.14 -98.1364C143.258 -98.2595 143.373 -98.3844 143.486 -98.5093L143.589 -98.6236L143.924 -99.0106L144.006 -99.1108C144.119 -99.248 144.234 -99.387 144.343 -99.5277C144.705 -99.9885 145.048 -100.464 145.371 -100.954C145.402 -101.005 145.437 -101.054 145.468 -101.104C145.544 -101.221 145.618 -101.342 145.69 -101.468L145.821 -101.684L146.017 -102.036L146.152 -102.284L146.329 -102.62L146.448 -102.896C146.504 -103.005 146.555 -103.116 146.609 -103.226L146.738 -103.517C146.788 -103.624 146.835 -103.731 146.88 -103.84C146.925 -103.949 146.966 -104.053 147.01 -104.159L147.133 -104.466C147.182 -104.598 147.227 -104.73 147.275 -104.862L147.39 -105.2C147.45 -105.376 147.507 -105.552 147.561 -105.728L147.632 -105.988C147.669 -106.122 147.709 -106.255 147.741 -106.391L147.811 -106.676C147.842 -106.804 147.873 -106.934 147.9 -107.064L147.959 -107.356C147.986 -107.486 148.011 -107.617 148.033 -107.748L148.081 -108.042C148.103 -108.176 148.122 -108.311 148.14 -108.445L148.177 -108.735C148.194 -108.876 148.208 -109.017 148.22 -109.159C148.22 -109.25 148.239 -109.335 148.245 -109.433C148.257 -109.59 148.268 -109.748 148.276 -109.905L148.299 -110.142C148.299 -110.378 148.313 -110.615 148.313 -110.846C148.313 -110.964 148.313 -111.08 148.313 -111.198C149.217 -111.38 150.109 -111.603 150.986 -111.866C150.998 -111.664 151.008 -111.467 151.014 -111.271C151.021 -111.076 151.014 -110.879 151.014 -110.682C151.014 -110.418 151.014 -110.155 150.996 -109.894L150.984 -109.676C150.984 -109.483 150.963 -109.289 150.947 -109.097L150.926 -108.883C150.907 -108.682 150.887 -108.482 150.862 -108.283L150.842 -108.128C150.809 -107.894 150.774 -107.662 150.735 -107.425L150.735 -107.384C149.577 -100.782 144.993 -95.171 138.69 -92.0949C138.472 -92.7984 138.218 -93.4926 137.929 -94.1773C137.934 -94.1777 137.94 -94.1777 137.945 -94.1773C138.122 -94.2723 138.299 -94.3708 138.472 -94.471L138.533 -94.5062C138.706 -94.6065 138.879 -94.7085 139.047 -94.814L139.097 -94.8439C140.192 -95.5296 141.208 -96.3035 142.131 -97.155ZM167.901 -110.198C167.901 -106.399 165.911 -103.051 162.883 -101.053C162.22 -101.737 161.513 -102.389 160.765 -103.005C163.405 -104.449 165.187 -107.163 165.187 -110.281C165.187 -113.247 163.578 -115.848 161.15 -117.339C161.32 -117.485 161.493 -117.63 161.66 -117.781C162.163 -118.235 162.642 -118.704 163.099 -119.188C166.008 -117.186 167.901 -113.908 167.901 -110.198ZM164.902 -121.313C165.419 -121.999 165.896 -122.707 166.33 -123.434C170.936 -120.523 173.956 -115.642 173.956 -110.107C173.956 -104.533 170.892 -99.6227 166.232 -96.7188C165.715 -97.5715 165.14 -98.3978 164.511 -99.1935C168.442 -101.601 171.034 -105.701 171.034 -110.374C171.034 -114.889 168.612 -118.878 164.902 -121.313ZM161.847 -110.378C161.847 -107.856 160.134 -105.743 157.815 -105.124C156.718 -105.803 155.561 -106.408 154.355 -106.936C154.511 -107.837 154.608 -108.745 154.647 -109.655L154.647 -109.768C154.657 -110.056 154.666 -110.344 154.666 -110.635C154.666 -110.891 154.666 -111.15 154.649 -111.409C154.649 -111.537 154.637 -111.665 154.631 -111.794C154.631 -111.883 154.62 -111.97 154.612 -112.061C154.589 -112.43 154.556 -112.798 154.513 -113.164C155.933 -113.799 157.283 -114.542 158.547 -115.384C160.486 -114.552 161.847 -112.626 161.847 -110.378ZM151.512 -99.3113C156.586 -96.4796 159.976 -91.3491 159.976 -85.4869C159.976 -79.7672 156.75 -74.7475 151.884 -71.8771C151.442 -72.6727 150.95 -73.4477 150.412 -74.1988L150.256 -74.4063C154.341 -76.7878 157.054 -80.9773 157.054 -85.7543C157.054 -90.5963 154.265 -94.8369 150.085 -97.199C150.603 -97.8818 151.079 -98.5868 151.512 -99.3113ZM167.901 -60.7754C167.901 -56.9763 165.911 -53.6275 162.883 -51.6295C162.22 -52.3136 161.513 -52.9654 160.765 -53.5818C163.405 -55.0258 165.187 -57.7396 165.187 -60.858C165.187 -63.8252 163.574 -66.4265 161.144 -67.9162C161.829 -68.5051 162.478 -69.1238 163.088 -69.77C166.001 -67.7702 167.901 -64.49 167.901 -60.7754ZM164.881 -71.9035C165.398 -72.5894 165.873 -73.2971 166.308 -74.0264C170.925 -71.1173 173.956 -66.2295 173.956 -60.6874C173.956 -55.1137 170.892 -50.203 166.232 -47.2992C165.715 -48.1519 165.14 -48.9782 164.511 -49.7739C168.442 -52.1817 171.034 -56.2816 171.034 -60.9548C171.034 -65.475 168.604 -69.4693 164.881 -71.9035ZM161.847 -60.9548C161.847 -58.4326 160.134 -56.3203 157.815 -55.7012C156.715 -56.3804 155.557 -56.9878 154.351 -57.518C154.711 -59.5816 154.768 -61.6756 154.522 -63.7513C155.936 -64.3837 157.281 -65.123 158.541 -65.9604C160.482 -65.1285 161.847 -63.2043 161.847 -60.9548ZM151.504 -49.8935C156.582 -47.0635 159.976 -41.9295 159.976 -36.0638C159.976 -30.3441 156.75 -25.3244 151.884 -22.454C151.442 -23.2496 150.95 -24.0246 150.412 -24.7756L150.256 -24.9832C154.341 -27.3646 157.054 -31.5542 157.054 -36.3312C157.054 -41.175 154.263 -45.4173 150.079 -47.7811C150.184 -47.9183 150.285 -48.0555 150.391 -48.1962C150.79 -48.7485 151.158 -49.3148 151.504 -49.8935ZM167.901 -11.3523C167.901 -7.55319 165.911 -4.20438 162.883 -2.20633C162.22 -2.89047 161.513 -3.54227 160.765 -4.15863C163.405 -5.60263 165.187 -8.3165 165.187 -11.4349C165.187 -14.4021 163.574 -17.0034 161.141 -18.4931C161.828 -19.0815 162.478 -19.7003 163.088 -20.3469C166.001 -18.3471 167.901 -15.0669 167.901 -11.3523ZM164.881 -22.4804C165.398 -23.1663 165.873 -23.874 166.308 -24.6033C170.925 -21.6942 173.956 -16.8064 173.956 -11.2643C173.956 -5.69058 170.892 -0.779938 166.232 2.1239C165.714 1.27081 165.14 0.443969 164.511 -0.35254C168.442 -2.75861 171.034 -6.8602 171.034 -11.5317C171.034 -16.0518 168.604 -20.0461 164.881 -22.4804ZM161.847 -11.5317C161.847 -9.00949 160.134 -6.89716 157.813 -6.27805C156.714 -6.9577 155.557 -7.56506 154.351 -8.09491C154.711 -10.1585 154.768 -12.2524 154.522 -14.3282C155.936 -14.9606 157.281 -15.6999 158.541 -16.5373C160.482 -15.7054 161.847 -13.7812 161.847 -11.5317ZM179.807 -11.1289C179.807 -3.74179 175.458 3.17215 168.442 6.9765C168.212 6.25302 167.944 5.5419 167.638 4.84305C173.324 1.41861 177.095 -4.53152 177.095 -11.303C177.095 -18.0393 173.37 -23.9666 167.735 -27.3963C167.991 -28.0049 168.22 -28.6228 168.423 -29.2501C175.448 -25.4475 179.807 -18.5283 179.807 -11.1289ZM165.827 -35.9284C165.827 -28.2423 161.279 -21.2685 153.903 -17.524C153.703 -18.2521 153.465 -18.9698 153.189 -19.6768C159.151 -23.052 163.115 -29.1446 163.115 -36.1025C163.115 -43.1624 159.024 -49.3324 152.928 -52.676C153.181 -53.2704 153.407 -53.8725 153.607 -54.4823C161.162 -50.7764 165.827 -43.7341 165.827 -35.9284ZM179.807 -60.552C179.807 -53.1649 175.458 -46.251 168.442 -42.4466C168.212 -43.1701 167.944 -43.8812 167.638 -44.5801C173.324 -48.0045 177.095 -53.9546 177.095 -60.7261C177.095 -67.4624 173.37 -73.3897 167.735 -76.8194C167.991 -77.428 168.22 -78.0459 168.423 -78.6732C175.448 -74.8706 179.807 -67.9514 179.807 -60.552ZM165.827 -85.3515C165.827 -77.6654 161.279 -70.6917 153.903 -66.9471C153.703 -67.6753 153.465 -68.3929 153.189 -69.0999C159.151 -72.4751 163.115 -78.5677 163.115 -85.5256C163.115 -92.5838 159.028 -98.7503 152.937 -102.096C153.187 -102.688 153.412 -103.29 153.611 -103.904C161.164 -100.198 165.827 -93.1554 165.827 -85.3515ZM179.807 -109.975C179.807 -102.588 175.458 -95.6741 168.442 -91.8697C168.212 -92.5932 167.944 -93.3043 167.638 -94.0032C173.324 -97.4276 177.095 -103.378 177.095 -110.149C177.08 -116.877 173.38 -122.797 167.749 -126.232C168.004 -126.836 168.231 -127.447 168.429 -128.066C175.23 -124.354 179.807 -117.626 179.807 -109.975ZM165.827 -134.775C165.827 -123.235 155.426 -113.765 142.647 -113.669C138.278 -113.706 134.017 -114.835 130.388 -116.917C130.89 -117.308 131.377 -117.718 131.85 -118.148C131.971 -118.256 132.088 -118.365 132.205 -118.476C135.275 -116.736 138.861 -115.781 142.542 -115.723C142.577 -115.723 142.61 -115.723 142.645 -115.723C142.68 -115.723 142.713 -115.723 142.748 -115.723C154.02 -115.878 163.101 -124.426 163.101 -134.949C163.101 -142.009 159.01 -148.179 152.914 -151.522C153.166 -152.117 153.392 -152.719 153.592 -153.329C161.162 -149.623 165.827 -142.58 165.827 -134.775ZM142.645 -121.747C142.68 -121.747 142.713 -121.747 142.748 -121.747C150.675 -121.9 157.054 -127.85 157.054 -135.176C157.054 -140.019 154.263 -144.262 150.079 -146.624C150.184 -146.763 150.285 -146.9 150.391 -147.041C150.79 -147.593 151.158 -148.159 151.504 -148.736C156.582 -145.908 159.976 -140.774 159.976 -134.908C159.976 -126.049 152.236 -118.857 142.645 -118.755C139.73 -118.788 136.878 -119.481 134.378 -120.764C135.035 -121.553 135.637 -122.375 136.179 -123.226C138.129 -122.299 140.312 -121.792 142.542 -121.749C142.577 -121.743 142.61 -121.745 142.645 -121.747ZM142.645 -126.703C142.68 -126.703 142.713 -126.703 142.748 -126.703C147.447 -126.86 151.208 -130.55 151.208 -135.084C151.208 -138.394 149.201 -141.252 146.29 -142.615C146.999 -143.217 147.67 -143.851 148.299 -144.515C151.668 -142.58 153.93 -139.05 153.93 -134.998C153.93 -128.953 148.899 -124.044 142.653 -123.937C140.776 -123.971 138.945 -124.439 137.353 -125.291C137.767 -126.126 138.127 -126.979 138.43 -127.848C139.654 -127.155 141.076 -126.76 142.542 -126.707C142.577 -126.7 142.61 -126.703 142.645 -126.703ZM142.645 -129.739C141.369 -129.801 140.17 -130.278 139.292 -131.072C139.743 -133.486 139.784 -135.944 139.413 -138.368C140.833 -138.981 142.186 -139.702 143.457 -140.521C145.967 -140.042 147.867 -137.833 147.867 -135.177C147.867 -132.24 145.546 -129.848 142.645 -129.739ZM142.252 -160.505C142.252 -165.227 139.598 -169.376 135.589 -171.772C136.081 -172.472 136.529 -173.193 136.934 -173.933C141.882 -171.077 145.174 -166.018 145.174 -160.237C145.174 -154.313 141.714 -149.139 136.553 -146.327C136.043 -147.187 135.472 -148.02 134.845 -148.822C139.267 -151.132 142.252 -155.495 142.252 -160.505ZM133.244 -150.673C132.8 -151.137 132.337 -151.589 131.85 -152.025C131.595 -152.256 131.336 -152.479 131.071 -152.699C134.206 -153.976 136.416 -156.948 136.416 -160.415C136.416 -163.531 134.635 -166.244 131.998 -167.689C132.667 -168.301 133.299 -168.942 133.891 -169.61C137.043 -167.638 139.129 -164.217 139.129 -160.325C139.119 -156.176 136.749 -152.567 133.244 -150.673ZM148.299 -160.276C148.299 -167.287 144.265 -173.418 138.239 -176.777C138.47 -177.386 138.675 -178.001 138.856 -178.624C146.368 -174.911 151.025 -167.839 151.025 -160.102C151.025 -152.298 146.306 -145.194 138.69 -141.502C138.47 -142.206 138.215 -142.909 137.923 -143.602C144.131 -146.921 148.299 -153.144 148.299 -160.276ZM151.208 -184.506C151.208 -187.816 149.201 -190.674 146.29 -192.037C146.999 -192.639 147.67 -193.274 148.299 -193.938C151.668 -192.003 153.93 -188.473 153.93 -184.421C153.93 -180.539 151.855 -177.127 148.716 -175.152C148.08 -175.856 147.4 -176.529 146.677 -177.168C149.374 -178.594 151.208 -181.34 151.208 -184.506ZM143.837 -179.338C142.479 -180.247 141.021 -181.042 139.485 -181.713C139.746 -183.732 139.721 -185.771 139.413 -187.786C140.833 -188.399 142.186 -189.12 143.457 -189.939C145.967 -189.46 147.867 -187.251 147.867 -184.595C147.867 -182.08 146.156 -179.962 143.837 -179.343L143.837 -179.338ZM142.252 -209.922C142.252 -214.645 139.598 -218.794 135.589 -221.189C136.081 -221.89 136.529 -222.611 136.934 -223.351C141.882 -220.495 145.174 -215.436 145.174 -209.655C145.174 -203.731 141.714 -198.557 136.553 -195.744C136.043 -196.605 135.472 -197.438 134.845 -198.24C139.267 -200.555 142.252 -204.919 142.252 -209.928L142.252 -209.922ZM133.244 -200.091C132.8 -200.555 132.337 -201.007 131.85 -201.443C131.595 -201.673 131.336 -201.897 131.071 -202.117C134.206 -203.394 136.416 -206.366 136.416 -209.833C136.416 -212.949 134.635 -215.661 131.998 -217.107C132.667 -217.719 133.299 -218.36 133.891 -219.028C137.043 -217.056 139.129 -213.635 139.129 -209.743C139.119 -205.599 136.749 -201.99 133.244 -200.096L133.244 -200.091ZM148.299 -209.699C148.299 -216.71 144.265 -222.841 138.239 -226.2C138.47 -226.809 138.675 -227.424 138.856 -228.047C146.368 -224.334 151.025 -217.262 151.025 -209.525C151.025 -201.721 146.306 -194.617 138.69 -190.925C138.47 -191.629 138.215 -192.332 137.923 -193.025C144.131 -196.344 148.299 -202.567 148.299 -209.699ZM151.208 -233.929C151.208 -237.239 149.201 -240.097 146.29 -241.46C146.999 -242.062 147.67 -242.697 148.299 -243.361C151.668 -241.427 153.93 -237.897 153.93 -233.844C153.93 -229.962 151.855 -226.55 148.716 -224.575C148.08 -225.279 147.4 -225.952 146.677 -226.591C149.374 -228.017 151.208 -230.763 151.208 -233.929ZM143.839 -228.761C142.48 -229.67 141.022 -230.465 139.485 -231.136C139.746 -233.155 139.721 -235.194 139.413 -237.209C140.833 -237.822 142.186 -238.543 143.457 -239.362C145.967 -238.883 147.867 -236.674 147.867 -234.018C147.867 -231.503 146.156 -229.386 143.839 -228.766L143.839 -228.761ZM150.079 -245.47C150.184 -245.607 150.285 -245.744 150.391 -245.885C150.79 -246.437 151.158 -247.004 151.504 -247.581C156.582 -244.752 159.976 -239.618 159.976 -233.753C159.976 -228.033 156.75 -223.013 151.884 -220.143C151.442 -220.939 150.95 -221.714 150.412 -222.465L150.256 -222.672C154.341 -225.054 157.054 -229.243 157.054 -234.02C157.054 -238.867 154.261 -243.11 150.079 -245.474L150.079 -245.47ZM167.901 -209.045C167.901 -205.246 165.911 -201.897 162.883 -199.899C162.22 -200.583 161.513 -201.235 160.765 -201.851C163.405 -203.295 165.187 -206.009 165.187 -209.127C165.187 -212.095 163.574 -214.696 161.144 -216.186C161.829 -216.774 162.478 -217.393 163.088 -218.039C166.001 -216.04 167.901 -212.759 167.901 -209.045ZM164.881 -220.173C165.398 -220.859 165.873 -221.566 166.308 -222.296C170.925 -219.387 173.956 -214.499 173.956 -208.953C173.956 -203.38 170.892 -198.469 166.232 -195.565C165.715 -196.421 165.14 -197.25 164.511 -198.049C168.446 -200.451 171.034 -204.556 171.034 -209.224C171.034 -213.744 168.604 -217.739 164.881 -220.173ZM161.847 -209.224C161.847 -206.702 160.134 -204.59 157.815 -203.971C156.715 -204.65 155.557 -205.257 154.351 -205.787C154.711 -207.851 154.768 -209.945 154.522 -212.021C155.936 -212.653 157.281 -213.392 158.541 -214.23C160.482 -213.398 161.847 -211.474 161.847 -209.224ZM151.504 -198.161C156.582 -195.333 159.976 -190.199 159.976 -184.333C159.976 -178.613 156.75 -173.594 151.884 -170.723C151.442 -171.519 150.95 -172.294 150.412 -173.045L150.256 -173.253C154.341 -175.634 157.054 -179.824 157.054 -184.601C157.054 -189.444 154.263 -193.687 150.079 -196.05C150.184 -196.188 150.285 -196.325 150.391 -196.466C150.79 -197.018 151.158 -197.584 151.504 -198.161ZM167.901 -159.622C167.901 -155.823 165.911 -152.474 162.883 -150.476C162.22 -151.16 161.513 -151.812 160.765 -152.428C163.405 -153.872 165.187 -156.586 165.187 -159.704C165.187 -162.671 163.574 -165.273 161.141 -166.762C161.828 -167.351 162.478 -167.97 163.088 -168.616C166.001 -166.616 167.901 -163.336 167.901 -159.622ZM164.881 -170.75C165.398 -171.436 165.873 -172.143 166.308 -172.873C170.925 -169.964 173.956 -165.076 173.956 -159.53C173.956 -153.956 170.892 -149.046 166.232 -146.142C165.715 -146.997 165.14 -147.827 164.511 -148.625C168.446 -151.028 171.034 -155.133 171.034 -159.801C171.034 -164.321 168.604 -168.315 164.881 -170.75ZM161.847 -159.801C161.847 -157.279 160.134 -155.166 157.813 -154.547C156.714 -155.227 155.557 -155.834 154.351 -156.364C154.711 -158.428 154.768 -160.522 154.522 -162.598C155.936 -163.23 157.281 -163.969 158.541 -164.807C160.482 -163.975 161.847 -162.051 161.847 -159.801ZM179.807 -159.398C179.807 -152.011 175.458 -145.097 168.442 -141.293C168.212 -142.015 167.944 -142.726 167.638 -143.426C173.324 -146.851 177.095 -152.801 177.095 -159.572C177.095 -166.309 173.37 -172.236 167.735 -175.666C167.991 -176.274 168.22 -176.892 168.423 -177.519C175.448 -173.717 179.807 -166.798 179.807 -159.398ZM165.827 -184.198C165.827 -176.512 161.279 -169.538 153.903 -165.793C153.703 -166.521 153.465 -167.239 153.189 -167.946C159.135 -171.314 163.101 -177.414 163.101 -184.372C163.101 -191.432 159.01 -197.602 152.914 -200.945C153.166 -201.54 153.392 -202.142 153.592 -202.752C161.162 -199.046 165.827 -192.003 165.827 -184.198ZM179.807 -208.821C179.807 -201.434 175.458 -194.52 168.442 -190.716C168.212 -191.438 167.944 -192.149 167.638 -192.849C173.324 -196.274 177.095 -202.224 177.095 -208.995C177.095 -215.732 173.37 -221.659 167.735 -225.089C167.991 -225.697 168.22 -226.315 168.423 -226.943C175.448 -223.14 179.807 -216.221 179.807 -208.821ZM165.827 -233.621C165.827 -225.935 161.279 -218.961 153.903 -215.216C153.703 -215.945 153.465 -216.662 153.189 -217.369C159.135 -220.737 163.101 -226.837 163.101 -233.795C163.101 -240.855 159.01 -247.025 152.914 -250.368C153.166 -250.963 153.392 -251.565 153.592 -252.175C161.162 -248.469 165.827 -241.427 165.827 -233.621ZM165.187 -258.552C165.187 -263.087 161.427 -266.777 156.728 -266.933C156.693 -266.933 156.66 -266.933 156.625 -266.933C156.59 -266.933 156.557 -266.933 156.522 -266.933C155.435 -266.895 154.369 -266.667 153.389 -266.263C153.098 -267.075 152.758 -267.873 152.371 -268.655C153.7 -269.203 155.15 -269.503 156.625 -269.534C162.87 -269.427 167.901 -264.518 167.901 -258.471C167.901 -254.672 165.911 -251.323 162.883 -249.325C162.22 -250.01 161.513 -250.661 160.765 -251.278C163.405 -252.725 165.187 -255.439 165.187 -258.552ZM157.815 -253.388C156.716 -254.069 155.558 -254.679 154.351 -255.21C154.824 -257.931 154.773 -260.7 154.201 -263.407C154.922 -263.816 155.76 -264.05 156.625 -264.086C159.528 -263.976 161.847 -261.586 161.847 -258.649C161.847 -256.125 160.134 -254.013 157.815 -253.394L157.815 -253.388ZM156.625 -272.078C156.59 -272.078 156.557 -272.078 156.522 -272.078C154.626 -272.042 152.76 -271.669 151.041 -270.984C150.574 -271.7 150.065 -272.395 149.516 -273.066C151.726 -274.007 154.156 -274.508 156.625 -274.535C166.215 -274.433 173.956 -267.241 173.956 -258.383C173.956 -252.81 170.892 -247.899 166.232 -244.995C165.715 -245.849 165.14 -246.675 164.511 -247.472C168.446 -249.874 171.034 -253.979 171.034 -258.647C171.034 -265.971 164.661 -271.923 156.728 -272.074C156.693 -272.079 156.66 -272.078 156.625 -272.078ZM156.625 -279.354C169.408 -279.255 179.809 -269.786 179.809 -258.248C179.809 -250.861 175.46 -243.947 168.444 -240.143C168.214 -240.865 167.946 -241.576 167.64 -242.276C173.326 -245.7 177.097 -251.651 177.097 -258.422C177.08 -268.943 168 -277.49 156.728 -277.644C156.693 -277.644 156.66 -277.644 156.625 -277.644C156.59 -277.644 156.557 -277.644 156.522 -277.644C153.273 -277.597 150.091 -276.848 147.271 -275.467C147.134 -275.595 146.997 -275.721 146.859 -275.847C146.487 -276.183 146.105 -276.506 145.716 -276.819C149.039 -278.448 152.794 -279.32 156.623 -279.354L156.625 -279.354ZM104.663 -258.952C104.663 -270.493 115.064 -279.963 127.845 -280.057C140.626 -279.959 151.027 -270.489 151.027 -258.952C151.027 -251.148 146.309 -244.044 138.692 -240.352C138.472 -241.055 138.217 -241.759 137.925 -242.452C144.131 -245.767 148.299 -251.99 148.299 -259.122C148.299 -269.647 139.21 -278.193 127.946 -278.348C127.911 -278.348 127.878 -278.348 127.843 -278.348C127.808 -278.348 127.775 -278.348 127.74 -278.348C116.468 -278.193 107.387 -269.647 107.387 -259.122C107.387 -258.579 107.414 -258.04 107.461 -257.509C106.558 -257.341 105.666 -257.131 104.789 -256.881C104.702 -257.571 104.661 -258.266 104.661 -258.948L104.663 -258.952ZM127.843 -267.645C127.808 -267.645 127.775 -267.645 127.74 -267.645C123.04 -267.489 119.28 -263.799 119.28 -259.265C119.281 -258.581 119.371 -257.9 119.548 -257.233C118.601 -257.456 117.64 -257.632 116.669 -257.761C116.606 -258.231 116.574 -258.704 116.573 -259.177C116.573 -265.224 121.603 -270.132 127.849 -270.24C134.095 -270.132 139.125 -265.224 139.125 -259.177C139.125 -255.028 136.755 -251.418 133.25 -249.524C132.806 -249.989 132.343 -250.441 131.856 -250.877C131.601 -251.107 131.342 -251.331 131.077 -251.55C134.212 -252.827 136.422 -255.8 136.422 -259.266C136.422 -263.801 132.662 -267.491 127.962 -267.647C127.911 -267.649 127.878 -267.645 127.843 -267.645ZM142.252 -259.351C142.252 -266.675 135.879 -272.626 127.946 -272.778C127.911 -272.778 127.878 -272.778 127.843 -272.778C127.808 -272.778 127.775 -272.778 127.74 -272.778C119.813 -272.626 113.433 -266.675 113.433 -259.351C113.433 -258.897 113.462 -258.45 113.512 -258.009C113.388 -258.009 113.267 -258.018 113.144 -258.019L112.837 -258.019L112.527 -258.019C111.868 -258.008 111.212 -257.975 110.559 -257.923C110.531 -258.306 110.512 -258.693 110.512 -259.082C110.512 -267.941 118.252 -275.133 127.843 -275.235C137.433 -275.133 145.174 -267.941 145.174 -259.083C145.174 -253.16 141.714 -247.985 136.553 -245.173C136.043 -246.033 135.472 -246.866 134.845 -247.669C139.267 -249.978 142.252 -254.342 142.252 -259.351ZM123.904 -255.833C123.055 -256.861 122.606 -258.092 122.621 -259.351C122.621 -262.288 124.942 -264.678 127.843 -264.787C130.746 -264.678 133.065 -262.288 133.065 -259.351C133.065 -256.414 130.744 -254.022 127.843 -253.912C127.806 -253.912 127.769 -253.912 127.732 -253.912C126.522 -254.646 125.241 -255.291 123.904 -255.84L123.904 -255.833ZM89.6534 -233.966C89.6534 -245.507 100.054 -254.977 112.835 -255.072C125.616 -254.973 136.017 -245.504 136.017 -233.966C136.017 -222.428 125.616 -212.956 112.837 -212.86C100.054 -212.963 89.6534 -222.433 89.6534 -233.973L89.6534 -233.966ZM104.661 -209.518C104.661 -210 104.684 -210.492 104.723 -210.985C105.6 -210.734 106.492 -210.522 107.395 -210.352C107.395 -210.133 107.381 -209.914 107.381 -209.692C107.381 -209.149 107.41 -208.612 107.457 -208.079C106.554 -207.911 105.661 -207.701 104.784 -207.449C104.702 -208.148 104.661 -208.842 104.661 -209.525L104.661 -209.518ZM112.835 -209.833L113.144 -209.833C113.24 -209.833 113.339 -209.833 113.435 -209.841C113.435 -209.416 113.464 -208.995 113.509 -208.58C113.388 -208.58 113.267 -208.58 113.144 -208.591L112.837 -208.591L112.527 -208.591C111.868 -208.578 111.212 -208.546 110.559 -208.494C110.528 -208.878 110.512 -209.264 110.512 -209.653L110.512 -209.933C111.178 -209.878 111.848 -209.844 112.523 -209.833L112.835 -209.833ZM116.567 -209.747C116.567 -209.861 116.567 -209.973 116.567 -210.088C117.491 -210.208 118.407 -210.371 119.311 -210.577C119.288 -210.332 119.272 -210.088 119.272 -209.838C119.274 -209.155 119.363 -208.473 119.537 -207.807C118.59 -208.029 117.629 -208.205 116.659 -208.334C116.597 -208.804 116.566 -209.276 116.567 -209.748L116.567 -209.747ZM123.904 -206.415C123.055 -207.444 122.607 -208.674 122.621 -209.933C122.62 -210.507 122.712 -211.079 122.894 -211.632C125.258 -212.499 127.463 -213.654 129.44 -215.06C131.55 -214.314 133.065 -212.304 133.065 -209.933C133.065 -206.996 130.744 -204.604 127.843 -204.495C127.806 -204.495 127.769 -204.495 127.732 -204.495C126.521 -205.226 125.241 -205.869 123.904 -206.417L123.904 -206.415ZM89.6534 -184.548C89.6534 -196.089 100.054 -205.559 112.835 -205.654C125.616 -205.555 136.017 -196.086 136.017 -184.548C136.017 -173.01 125.616 -163.539 112.837 -163.442C100.054 -163.54 89.6534 -173.01 89.6534 -184.55L89.6534 -184.548ZM104.661 -160.1C104.661 -160.582 104.684 -161.074 104.723 -161.569C105.597 -161.318 106.487 -161.107 107.387 -160.937C107.387 -160.719 107.373 -160.499 107.373 -160.278C107.373 -159.734 107.402 -159.198 107.449 -158.665C106.545 -158.496 105.653 -158.286 104.776 -158.035C104.7 -158.725 104.661 -159.419 104.661 -160.102L104.661 -160.1ZM112.835 -160.41L113.144 -160.41C113.24 -160.41 113.339 -160.41 113.435 -160.418C113.435 -159.993 113.464 -159.572 113.509 -159.157C113.388 -159.157 113.267 -159.166 113.144 -159.168L112.839 -159.168L112.527 -159.168C111.868 -159.155 111.212 -159.123 110.559 -159.071C110.528 -159.455 110.512 -159.841 110.512 -160.23L110.512 -160.51C111.178 -160.455 111.848 -160.421 112.523 -160.41L112.835 -160.41ZM116.567 -160.323C116.567 -160.438 116.567 -160.55 116.567 -160.665C117.491 -160.785 118.407 -160.948 119.311 -161.154C119.288 -160.909 119.272 -160.665 119.272 -160.415C119.274 -159.731 119.363 -159.05 119.537 -158.383C118.59 -158.606 117.629 -158.782 116.659 -158.911C116.597 -159.381 116.566 -159.853 116.567 -160.325L116.567 -160.323ZM123.904 -156.992C123.055 -158.02 122.607 -159.251 122.621 -160.51C122.62 -161.084 122.712 -161.656 122.894 -162.209C125.258 -163.076 127.463 -164.23 129.44 -165.637C131.55 -164.891 133.065 -162.881 133.065 -160.51C133.065 -157.573 130.744 -155.181 127.843 -155.072C127.806 -155.072 127.769 -155.072 127.732 -155.072C126.521 -155.803 125.241 -156.446 123.904 -156.994L123.904 -156.992ZM89.6534 -135.125C89.6534 -146.666 100.054 -156.136 112.835 -156.231C125.616 -156.132 136.017 -146.663 136.017 -135.125C136.017 -123.587 125.616 -114.115 112.837 -114.019C100.054 -114.117 89.6534 -123.587 89.6534 -135.126L89.6534 -135.125ZM104.661 -110.677C104.661 -111.159 104.684 -111.651 104.723 -112.146C105.597 -111.894 106.486 -111.684 107.387 -111.514C107.387 -111.296 107.373 -111.076 107.373 -110.855C107.373 -110.575 107.373 -110.297 107.393 -110.019C107.393 -109.843 107.416 -109.667 107.43 -109.491L107.447 -109.242C106.543 -109.073 105.651 -108.864 104.774 -108.614C104.702 -109.301 104.661 -109.996 104.661 -110.679L104.661 -110.677ZM112.835 -110.986L113.144 -110.986C113.242 -110.986 113.339 -110.986 113.435 -110.995L113.435 -110.927C113.435 -110.74 113.435 -110.554 113.454 -110.369C113.464 -110.156 113.483 -109.943 113.505 -109.734C113.384 -109.734 113.263 -109.743 113.139 -109.745L112.833 -109.745L112.527 -109.745C111.868 -109.732 111.212 -109.7 110.561 -109.648L110.561 -109.725C110.549 -109.878 110.539 -110.031 110.533 -110.184C110.533 -110.392 110.518 -110.6 110.518 -110.807C110.518 -110.902 110.518 -110.993 110.518 -111.087C111.182 -111.032 111.851 -110.998 112.527 -110.986L112.835 -110.986ZM116.591 -110.179L116.591 -110.228L116.575 -110.529C116.575 -110.652 116.575 -110.775 116.575 -110.9C116.575 -111.025 116.575 -111.127 116.585 -111.241C117.503 -111.362 118.413 -111.525 119.311 -111.729C119.288 -111.486 119.276 -111.24 119.276 -110.992C119.276 -110.816 119.276 -110.64 119.295 -110.464C119.328 -109.959 119.41 -109.456 119.539 -108.962C118.592 -109.185 117.632 -109.361 116.661 -109.49C116.638 -109.717 116.608 -109.949 116.591 -110.181L116.591 -110.179ZM123.904 -107.569C123.495 -108.058 123.179 -108.598 122.966 -109.171C122.913 -109.312 122.868 -109.455 122.827 -109.6L122.816 -109.641C122.777 -109.782 122.746 -109.924 122.718 -110.068L122.718 -110.121C122.693 -110.265 122.672 -110.411 122.658 -110.559L122.658 -110.605C122.646 -110.758 122.637 -110.913 122.637 -111.071C122.637 -111.229 122.637 -111.373 122.658 -111.523C122.658 -111.595 122.674 -111.667 122.683 -111.737C122.691 -111.808 122.699 -111.887 122.711 -111.961C122.724 -112.035 122.746 -112.137 122.767 -112.228L122.8 -112.386C122.825 -112.481 122.851 -112.573 122.88 -112.666L122.913 -112.772C124.512 -113.357 126.039 -114.075 127.473 -114.917C129.166 -113.866 130.999 -112.99 132.933 -112.307C132.98 -112.109 133.017 -111.906 133.042 -111.702L133.042 -111.69C133.042 -111.597 133.061 -111.502 133.067 -111.409C133.073 -111.315 133.079 -111.187 133.079 -111.074C133.079 -108.137 130.758 -105.745 127.857 -105.636C127.82 -105.636 127.783 -105.636 127.746 -105.636C126.532 -106.373 125.246 -107.02 123.904 -107.571L123.904 -107.569ZM89.6534 -85.7015C89.6534 -97.243 100.054 -106.712 112.835 -106.807C125.616 -106.709 136.017 -97.2394 136.017 -85.7015C136.017 -74.1636 125.616 -64.6923 112.837 -64.5956C100.054 -64.694 89.6534 -74.1636 89.6534 -85.7033L89.6534 -85.7015ZM104.661 -61.2538C104.661 -61.7357 104.684 -62.2282 104.723 -62.7206C105.6 -62.4697 106.492 -62.2584 107.395 -62.0875C107.395 -61.8694 107.381 -61.6495 107.381 -61.4279C107.381 -60.8844 107.41 -60.348 107.457 -59.8151C106.554 -59.6467 105.661 -59.4365 104.784 -59.1854C104.702 -59.8784 104.661 -60.5731 104.661 -61.2555L104.661 -61.2538ZM112.835 -61.5633L113.144 -61.5633C113.24 -61.5633 113.339 -61.5633 113.435 -61.5633C113.435 -61.1377 113.464 -60.7173 113.509 -60.3022C113.388 -60.3022 113.267 -60.3022 113.144 -60.3128L112.837 -60.3128L112.527 -60.3128C111.868 -60.3011 111.212 -60.2688 110.559 -60.2161C110.528 -60.5995 110.512 -60.9859 110.512 -61.3751L110.512 -61.6548C111.178 -61.6009 111.848 -61.5674 112.523 -61.5545L112.835 -61.5633ZM116.567 -61.4771C116.567 -61.5915 116.567 -61.704 116.567 -61.8183C117.491 -61.9379 118.407 -62.1005 119.311 -62.3055C119.288 -62.0611 119.272 -61.8166 119.272 -61.5669C119.274 -60.8835 119.363 -60.2022 119.537 -59.5354C118.59 -59.7581 117.629 -59.9343 116.659 -60.063C116.597 -60.5331 116.566 -61.0058 116.567 -61.4789L116.567 -61.4771ZM123.904 -58.1459C123.055 -59.1742 122.607 -60.4049 122.621 -61.6636C122.62 -62.238 122.712 -62.8097 122.894 -63.3626C125.258 -64.2296 127.463 -65.3842 129.44 -66.7906C131.55 -66.0448 133.065 -64.0345 133.065 -61.6636C133.065 -58.7263 130.744 -56.3343 127.843 -56.2253C127.806 -56.2253 127.769 -56.2253 127.732 -56.2253C126.521 -56.9566 125.241 -57.5997 123.904 -58.1477L123.904 -58.1459ZM89.6534 -36.2784C89.6534 -47.8198 100.054 -57.2894 112.835 -57.3844C125.616 -57.2859 136.017 -47.8163 136.017 -36.2784C136.017 -24.7405 125.616 -15.2692 112.837 -15.1724C100.054 -15.2709 89.6534 -24.7405 89.6534 -36.2802L89.6534 -36.2784ZM104.661 -11.8307C104.661 -12.3126 104.684 -12.8051 104.723 -13.2993C105.6 -13.047 106.492 -12.8351 107.395 -12.6643C107.395 -12.4463 107.381 -12.2264 107.381 -12.0048C107.381 -11.4613 107.41 -10.9249 107.457 -10.3919C106.554 -10.2236 105.661 -10.0134 104.784 -9.76227C104.7 -10.4553 104.661 -11.15 104.661 -11.8324L104.661 -11.8307ZM112.835 -12.1402L113.144 -12.1402C113.24 -12.1402 113.339 -12.1402 113.435 -12.1402C113.435 -11.7146 113.464 -11.2942 113.509 -10.8791C113.388 -10.8791 113.267 -10.8791 113.144 -10.8897L112.839 -10.8897L112.527 -10.8897C111.868 -10.878 111.212 -10.8457 110.559 -10.7929C110.528 -11.1764 110.512 -11.5627 110.512 -11.952L110.512 -12.2317C111.178 -12.1777 111.848 -12.1443 112.523 -12.1314L112.835 -12.1402ZM116.567 -12.054C116.567 -12.1684 116.567 -12.2809 116.567 -12.3952C117.491 -12.5148 118.407 -12.6774 119.311 -12.8824C119.288 -12.6379 119.272 -12.3935 119.272 -12.1437C119.274 -11.4603 119.363 -10.7791 119.537 -10.1123C118.59 -10.335 117.629 -10.5111 116.659 -10.6399C116.597 -11.11 116.566 -11.5827 116.567 -12.0558L116.567 -12.054ZM123.904 -8.72281C123.055 -9.75113 122.607 -10.9818 122.621 -12.2405C122.62 -12.8149 122.712 -13.3866 122.894 -13.9395C125.258 -14.8065 127.463 -15.9611 129.44 -17.3675C131.55 -16.6217 133.065 -14.6114 133.065 -12.2405C133.065 -9.30322 130.744 -6.91123 127.843 -6.80216C127.806 -6.80216 127.769 -6.80216 127.732 -6.80216C126.521 -7.53354 125.241 -8.17658 123.904 -8.72455L123.904 -8.72281ZM89.6534 13.1447C89.6534 1.6033 100.054 -7.86625 112.835 -7.96125C125.616 -7.86273 136.017 1.60681 136.017 13.1447C136.017 24.6826 125.616 34.154 112.837 34.2507C100.054 34.1522 89.6534 24.6826 89.6534 13.143L89.6534 13.1447ZM89.6534 62.5678C89.6534 51.0264 100.054 41.5569 112.835 41.4619C125.616 41.5604 136.017 51.0299 136.017 62.5678C136.017 74.1058 125.616 83.5771 112.837 83.6738C100.054 83.5753 89.6534 74.1058 89.6534 62.5661L89.6534 62.5678ZM104.661 87.0156C104.661 86.5337 104.684 86.0412 104.723 85.5487C105.6 85.7996 106.492 86.011 107.395 86.1819C107.395 86.4 107.381 86.6198 107.381 86.8415C107.381 87.3849 107.41 87.9214 107.457 88.4543C106.554 88.6226 105.661 88.8329 104.784 89.084C104.702 88.391 104.661 87.6963 104.661 87.0138L104.661 87.0156ZM112.835 86.706L113.144 86.706C113.24 86.706 113.339 86.706 113.435 86.706C113.435 87.1316 113.464 87.552 113.509 87.9671C113.388 87.9671 113.267 87.9583 113.144 87.9566L112.837 87.9566L112.527 87.9566C111.868 87.9683 111.212 88.0005 110.559 88.0533C110.528 87.6699 110.512 87.2835 110.512 86.8942L110.512 86.6146C111.178 86.6685 111.848 86.7019 112.523 86.7148L112.835 86.706ZM116.567 86.7922C116.567 86.6779 116.567 86.5653 116.567 86.451C117.491 86.3315 118.407 86.1688 119.311 85.9638C119.288 86.2083 119.272 86.4528 119.272 86.7025C119.274 87.3859 119.363 88.0671 119.537 88.7339C118.59 88.5113 117.629 88.3351 116.659 88.2063C116.597 87.7362 116.566 87.2635 116.567 86.7904L116.567 86.7922ZM123.904 90.1234C123.055 89.0951 122.607 87.8644 122.621 86.6058C122.62 86.0313 122.712 85.4596 122.894 84.9067C125.258 84.0397 127.463 82.8852 129.44 81.4788C131.55 82.2245 133.065 84.2349 133.065 86.6058C133.065 89.543 130.744 91.935 127.843 92.0441C127.806 92.0441 127.769 92.0441 127.732 92.0441C126.521 91.3127 125.24 90.6696 123.904 90.1216L123.904 90.1234ZM89.6534 111.991C89.6534 100.45 100.054 90.98 112.835 90.885C125.616 90.9835 136.017 100.453 136.017 111.991C136.017 123.529 125.616 133 112.837 133.097C100.054 132.998 89.6534 123.529 89.6534 111.989L89.6534 111.991ZM104.661 136.439C104.661 135.957 104.684 135.464 104.723 134.97C105.6 135.222 106.492 135.434 107.395 135.605C107.395 135.823 107.381 136.043 107.381 136.265C107.381 136.808 107.41 137.344 107.457 137.877C106.554 138.046 105.661 138.256 104.784 138.507C104.7 137.814 104.661 137.119 104.661 136.437L104.661 136.439ZM112.835 136.129L113.144 136.129C113.24 136.129 113.339 136.129 113.435 136.129C113.435 136.555 113.464 136.975 113.509 137.39C113.388 137.39 113.267 137.381 113.144 137.38L112.839 137.38L112.527 137.38C111.868 137.391 111.212 137.424 110.559 137.476C110.528 137.093 110.512 136.707 110.512 136.317L110.512 136.038C111.178 136.092 111.848 136.125 112.523 136.138L112.835 136.129ZM116.567 136.215C116.567 136.101 116.567 135.988 116.567 135.874C117.491 135.755 118.407 135.592 119.311 135.387C119.288 135.631 119.272 135.876 119.272 136.126C119.274 136.809 119.363 137.49 119.537 138.157C118.59 137.934 117.629 137.758 116.659 137.629C116.597 137.159 116.566 136.687 116.567 136.214L116.567 136.215ZM123.904 139.547C123.055 138.518 122.607 137.288 122.621 136.029C122.62 135.454 122.712 134.883 122.894 134.33C125.258 133.463 127.463 132.308 129.44 130.902C131.55 131.648 133.065 133.658 133.065 136.029C133.065 138.966 130.744 141.358 127.843 141.467C127.806 141.467 127.769 141.467 127.732 141.467C126.521 140.736 125.24 140.093 123.904 139.545L123.904 139.547ZM89.6534 161.414C89.6534 149.873 100.054 140.403 112.835 140.308C125.616 140.407 136.017 149.876 136.017 161.414C136.017 172.952 125.616 182.423 112.837 182.52C100.054 182.422 89.6534 172.952 89.6534 161.412L89.6534 161.414ZM127.456 181.612C129.149 182.664 130.982 183.54 132.917 184.223C133.014 184.628 133.064 185.04 133.065 185.454C133.065 188.391 130.744 190.783 127.843 190.892C124.94 190.783 122.621 188.391 122.621 185.454C122.62 184.879 122.712 184.308 122.894 183.755C124.493 183.17 126.021 182.452 127.456 181.611L127.456 181.612ZM112.835 185.552L113.144 185.552C113.242 185.552 113.339 185.552 113.435 185.552C113.483 192.841 119.841 198.743 127.74 198.9C127.775 198.9 127.808 198.9 127.843 198.9C127.878 198.9 127.911 198.9 127.946 198.9C135.715 198.75 141.991 193.031 142.24 185.909C142.273 185.909 142.304 185.909 142.337 185.909L142.641 185.909L142.953 185.909C143.7 185.897 144.44 185.855 145.174 185.79C145.143 194.624 137.413 201.786 127.843 201.888C118.252 201.786 110.512 194.594 110.512 185.737L110.512 185.457C111.178 185.511 111.848 185.545 112.523 185.558L112.835 185.552ZM127.843 196.7C121.597 196.592 116.567 191.684 116.567 185.638C116.567 185.524 116.567 185.412 116.567 185.297C117.491 185.178 118.407 185.015 119.311 184.81C119.288 185.055 119.272 185.299 119.272 185.549C119.272 190.083 123.032 193.773 127.732 193.93C127.767 193.93 127.8 193.93 127.835 193.93C127.87 193.93 127.902 193.93 127.937 193.93C132.637 193.773 136.397 190.083 136.397 185.549C136.397 185.436 136.397 185.324 136.385 185.213C137.283 185.409 138.193 185.563 139.111 185.675C139.099 191.708 134.076 196.592 127.843 196.698L127.843 196.7ZM104.661 185.862C104.661 185.38 104.684 184.887 104.723 184.393C105.6 184.645 106.492 184.857 107.395 185.028C107.395 185.246 107.381 185.466 107.381 185.688C107.381 196.211 116.47 204.759 127.734 204.913C127.769 204.913 127.802 204.913 127.837 204.913C127.872 204.913 127.905 204.913 127.939 204.913C139.212 204.759 148.292 196.211 148.292 185.688C148.292 185.57 148.292 185.454 148.292 185.336C149.2 185.157 150.097 184.937 150.977 184.676C151.002 185.081 151.016 185.471 151.016 185.86C151.016 197.4 140.616 206.869 127.837 206.966C115.062 206.869 104.661 197.4 104.661 185.86L104.661 185.862Z" fill="url(#paint9_linear_522_116)"/>
<path d="M113.333 32.2907C124.652 32.1368 133.771 23.6411 133.771 13.1821C133.771 2.72324 124.644 -5.77256 113.333 -5.92639C113.298 -5.92639 113.265 -5.92639 113.23 -5.92639C113.194 -5.92639 113.161 -5.92639 113.126 -5.92639C101.807 -5.77256 92.6879 2.72149 92.6879 13.1821C92.6879 23.6428 101.815 32.1368 113.126 32.2907C113.161 32.2907 113.194 32.2907 113.23 32.2907C113.265 32.2907 113.298 32.2907 113.333 32.2907ZM95.8259 13.2206C95.8259 4.4154 103.599 -2.7326 113.23 -2.83399C122.86 -2.73259 130.633 4.4154 130.633 13.2188C130.633 22.0223 122.86 29.172 113.23 29.2734C103.599 29.1703 95.8259 22.0223 95.8259 13.2206Z" fill="url(#paint10_linear_522_116)"/>
<path d="M127.083 13.1812C127.083 5.88573 120.745 -0.0431723 112.854 -0.193848C112.819 -0.193848 112.787 -0.193848 112.752 -0.193848C112.717 -0.193848 112.684 -0.193848 112.65 -0.193848C104.765 -0.043173 98.4205 5.88573 98.4205 13.1812C98.4205 20.4767 104.759 26.4057 112.65 26.5581C112.684 26.5581 112.717 26.5581 112.752 26.5581C112.787 26.5581 112.819 26.5581 112.854 26.5581C120.739 26.4057 127.083 20.4785 127.083 13.1812ZM101.537 13.3564C101.537 7.33292 106.54 2.44299 112.752 2.33611C118.964 2.44299 123.967 7.33292 123.967 13.3564C123.967 19.38 118.964 24.2682 112.752 24.375C106.54 24.2717 101.537 19.3817 101.537 13.3599L101.537 13.3564Z" fill="url(#paint11_linear_522_116)"/>
<path d="M121.351 13.1822C121.351 8.53 117.575 4.74398 112.855 4.58337C112.82 4.58337 112.787 4.58337 112.752 4.58337C112.717 4.58337 112.684 4.58337 112.649 4.58337C107.929 4.74398 104.153 8.53 104.153 13.1822C104.153 17.8344 107.929 21.6204 112.649 21.781C112.684 21.781 112.717 21.781 112.752 21.781C112.787 21.781 112.82 21.781 112.855 21.781C117.575 21.615 121.351 17.829 121.351 13.1822ZM107.518 13.0902C107.518 10.0765 109.849 7.62409 112.762 7.51221C115.677 7.62409 118.006 10.0765 118.006 13.0902C118.006 16.1038 115.675 18.5581 112.762 18.67C109.837 18.5527 107.508 16.0984 107.508 13.0848L107.518 13.0902Z" fill="url(#paint12_linear_522_116)"/>
</mask>
<g mask="url(#mask1_522_116)">
<path d="M104.453 4C114.828 4 125.101 6.04339 134.685 10.0135C144.27 13.9836 152.979 19.8027 160.315 27.1386C167.651 34.4744 173.47 43.1833 177.44 52.768C181.41 62.3527 183.453 72.6256 183.453 83C183.453 93.3744 181.41 103.647 177.44 113.232C173.47 122.817 167.651 131.526 160.315 138.861C152.979 146.197 144.27 152.016 134.685 155.986C125.101 159.957 114.828 162 104.453 162L104.453 83L104.453 4Z" fill="#ED5135" fill-opacity="0.2"/>
</g>
<path d="M93.9253 54.1234C92.6891 53.9464 92.6307 53.8881 93.2186 53.8278C94.336 53.6528 96.9251 53.8881 98.7491 54.2984C102.977 55.3041 106.802 57.8846 110.871 62.4101L111.93 63.6451L113.46 63.4097C119.992 62.3518 126.698 63.1744 132.289 65.761C133.817 66.467 136.231 67.8769 136.517 68.2309C136.634 68.3475 136.811 69.1118 136.919 69.8762C137.332 72.6377 137.155 74.7033 136.273 76.2822C135.802 77.1652 135.802 77.4005 136.096 78.1648C136.332 78.7521 137.038 79.1705 137.684 79.1705C139.094 79.1705 140.568 76.9379 141.274 73.8224L141.568 72.5874L142.098 73.1747C145.099 76.5256 147.453 81.1698 147.805 84.4623L147.922 85.3433L147.393 84.579C146.511 83.2273 145.687 82.3464 144.574 81.5821C142.573 80.2285 140.455 79.8181 134.864 79.5245C129.804 79.2308 126.921 78.8185 124.097 77.8772C119.265 76.2903 116.8 74.2347 111.095 66.652C108.564 63.3011 106.976 61.4789 105.387 59.9503C101.926 56.5913 98.4552 54.8274 93.9253 54.1234Z" fill="#381F1F"/>
<path d="M137.773 61.2071C137.889 58.9727 138.167 57.5012 138.81 56.1485C139.039 55.619 139.269 55.142 139.328 55.142C139.387 55.142 139.269 55.5546 139.098 56.0237C138.637 57.318 138.58 59.1418 138.867 61.201C139.261 63.8481 139.442 64.2024 142.214 67.085C143.48 68.4377 144.97 70.1427 145.561 70.8492L146.545 72.1436L145.561 71.2015C144.352 70.0259 141.59 67.7895 140.958 67.4956C140.555 67.2601 140.497 67.2601 140.21 67.554C139.98 67.7895 139.923 68.1438 139.923 69.8488C139.866 72.4959 139.519 74.1445 138.657 75.8495C138.196 76.7332 138.139 76.556 138.541 75.5556C138.83 74.7907 138.887 74.4384 138.887 71.9081C138.887 66.7911 138.31 65.5551 134.802 63.4958C133.938 62.9664 132.44 62.2015 131.579 61.7888C131.045 61.5702 130.526 61.3147 130.026 61.0239C130.142 60.9071 133.536 61.9076 134.859 62.4954C136.873 63.3187 137.222 63.3771 137.448 63.3187C137.601 63.1496 137.716 62.6846 137.773 61.2071Z" fill="#381F1F"/>
<path d="M96.5894 70.1714C94.1343 66.8152 92.5555 61.6056 92.9057 57.7286L93.0217 56.5148L93.608 56.6296C94.9169 56.9086 96.1775 57.3756 97.3498 58.0157C99.6889 59.4017 100.741 61.3145 101.736 66.0608C102.028 67.4468 102.438 69.0685 102.612 69.5893C102.904 70.4585 104.013 72.4842 104.951 73.7574C105.596 74.6821 105.186 75.1434 103.723 75.0306C101.502 74.8009 98.5184 72.7752 96.5894 70.1714Z" fill="#381F1F"/>
<path d="M134.756 95.8822C123.124 91.2027 119.013 87.1507 119.013 80.2957C119.013 79.2933 119.071 78.4792 119.071 78.4792C119.421 78.7137 119.756 78.968 120.076 79.2411C122.426 81.1158 125.07 81.9358 132.413 82.9904C136.7 83.636 139.169 84.1031 141.4 84.865C148.51 87.2088 152.916 92.0147 153.974 98.5187C154.267 100.393 154.09 103.968 153.62 105.843C153.218 107.306 152.034 110.003 151.74 110.053C151.682 110.053 151.563 109.76 151.563 109.291C151.447 106.831 150.213 104.479 148.156 102.675C145.684 100.57 142.512 98.9859 134.756 95.8822Z" fill="#381F1F"/>
<path d="M126.665 97.627C126.543 96.7856 126.342 95.957 126.064 95.1518L125.764 94.2662L126.305 94.9158C127.086 95.7994 127.687 96.8605 128.228 98.3351C128.649 99.4547 128.649 99.8077 128.649 101.635C128.649 103.405 128.59 103.818 128.228 104.819C127.694 106.302 126.832 107.652 125.704 108.771C123.541 110.951 120.715 112.129 116.689 112.66C115.967 112.72 113.925 112.896 112.121 113.015C107.613 113.251 104.608 113.721 101.904 114.665C101.542 114.782 101.182 114.901 101.123 114.843C101.001 114.724 102.864 113.662 104.368 112.956C106.472 111.948 108.635 111.423 113.384 110.598C115.728 110.243 118.132 109.771 118.731 109.535C124.682 107.713 127.627 103.164 126.665 97.627Z" fill="#381F1F"/>
<path d="M131.553 107.056C129.987 103.725 129.625 100.572 130.469 97.5954C130.588 97.3036 130.71 97.0118 130.83 97.0118C131.134 97.0935 131.419 97.229 131.672 97.4115C132.396 97.8792 133.902 98.6966 137.756 100.741C142.635 103.311 145.407 105.296 147.334 107.574C149.019 109.56 150.044 111.839 150.526 114.641C150.827 116.219 150.646 120.015 150.225 121.591C148.9 126.556 145.897 130.529 141.491 132.805C141.087 133.035 140.664 133.231 140.225 133.391C140.166 133.391 140.407 132.805 140.767 132.105C142.21 129.126 142.393 126.264 141.309 123.052C140.648 121.066 139.263 118.672 136.491 114.641C133.179 109.982 132.396 108.757 131.553 107.056Z" fill="#381F1F"/>
<path d="M87.8884 125.032C92.2646 121.301 97.6442 118.648 102.611 117.81C104.74 117.449 108.288 117.569 110.239 118.11C113.373 118.953 116.211 120.759 117.69 122.985C119.106 125.154 119.76 127.02 120.409 131.172C120.646 132.797 120.941 134.481 121 134.844C121.473 137.01 122.416 138.695 123.602 139.599C125.435 140.983 128.627 141.041 131.761 139.838C132.293 139.659 132.773 139.478 132.773 139.537C132.892 139.659 131.294 140.742 130.23 141.284C128.753 142.066 127.569 142.314 125.981 142.314C123.149 142.314 120.721 140.808 118.768 137.799C118.354 137.198 117.526 135.451 116.816 133.826C114.746 128.952 113.682 127.506 111.258 125.881C109.13 124.497 106.403 124.196 104.341 125.22C101.622 126.544 100.912 130.095 102.803 132.261C103.572 133.163 104.99 133.886 106.174 134.067C106.686 134.136 107.206 134.092 107.7 133.939C108.193 133.785 108.649 133.525 109.035 133.177C109.422 132.829 109.731 132.401 109.941 131.921C110.151 131.441 110.257 130.921 110.253 130.395C110.253 128.954 109.721 128.109 108.302 127.446C106.411 126.604 104.341 127.568 104.4 129.433C104.4 130.214 104.754 130.696 105.523 131.058C105.996 131.297 105.996 131.297 105.642 131.238C103.926 130.877 103.514 128.711 104.873 127.325C106.528 125.638 110.016 126.361 111.2 128.709C111.673 129.67 111.732 131.592 111.317 132.801C110.305 135.449 107.473 136.833 104.578 136.051C102.625 135.509 101.798 134.967 99.4327 132.5C95.2933 128.175 93.697 127.325 87.7852 126.42L86.6624 126.241L87.8884 125.032Z" fill="#381F1F"/>
<path fill-rule="evenodd" clip-rule="evenodd" d="M57.007 30.2187C70.6885 46.9733 91.8142 73.0219 92.8645 74.4419C93.7477 75.627 93.3936 76.7513 91.9249 77.5798C91.1 78.0538 89.3958 78.5278 88.5729 78.5278C87.5126 78.4825 86.5076 78.0387 85.7562 77.284C85.227 76.7513 82.9394 73.3764 77.7586 65.2655C73.8191 59.0506 70.4672 53.8992 70.4088 53.8405C70.1734 53.721 70.1734 53.721 77.3481 66.6268C81.8751 74.7296 83.3458 77.6385 83.3458 77.995C83.3458 78.7648 83.1104 79.1781 82.1688 80.2436C80.5814 82.0201 79.8752 84.0337 79.352 88.237C78.7645 92.9124 77.1771 96.2285 72.6502 101.852C70.0044 105.168 69.592 105.759 68.9461 107.119C68.1212 108.778 67.8878 109.724 67.7691 111.855C67.6524 114.105 67.8878 115.525 68.5337 117.656C69.1211 119.552 69.769 120.794 71.3504 123.223C72.7025 125.354 73.5254 126.952 73.5254 127.544C73.5254 128.018 73.6441 128.018 75.7607 127.544C80.8168 126.359 84.9916 124.347 87.2853 121.86C88.6936 120.32 89.0498 119.492 89.0498 117.361C89.0498 115.999 88.9894 115.704 88.6373 114.875C88.0498 113.573 86.9312 112.507 84.5208 110.848C81.3459 108.658 79.9939 106.882 79.6418 104.514C79.346 102.502 79.7001 101.141 81.4646 97.4095C83.2875 93.5606 83.7563 91.9643 84.05 88.0567C84.2271 85.5692 84.5208 84.5644 85.227 83.8028C85.9916 82.9742 86.6354 82.6765 88.4603 82.4394C91.4601 82.0343 93.3997 81.2564 94.9288 79.7756C96.2808 78.5339 96.8703 77.2901 96.9287 75.4548L96.987 74.0935L96.2225 73.265C93.458 70.0664 55.1782 27.6865 55.0031 27.6865C54.9387 27.6724 55.8803 28.7986 57.007 30.2187ZM75.0585 114.403C75.3667 113.865 75.4592 113.228 75.3171 112.623C75.175 112.018 74.8091 111.49 74.2939 111.148C73.288 110.496 71.7649 110.791 71.7649 111.681C71.7652 111.818 71.8119 111.952 71.8975 112.059C71.983 112.167 72.1023 112.242 72.2357 112.272C72.7648 112.568 72.8232 112.864 72.4127 113.516C72.0023 114.168 72.0103 114.758 72.5294 115.173C73.3443 115.823 74.4609 115.469 75.0484 114.403H75.0585Z" fill="#381F1F"/>
<path fill-rule="evenodd" clip-rule="evenodd" d="M98.9074 83.4223C97.498 83.8095 96.143 85.2888 95.7302 86.7604C95.4946 87.6666 95.6134 89.3066 96.0242 89.8159C96.6725 90.6078 97.2604 90.8344 98.9074 90.8344C102.145 90.8344 104.909 89.479 105.203 87.835C105.497 86.4796 104.263 84.6092 102.556 83.7688C101.68 83.308 99.8557 83.1396 98.9074 83.4223ZM102.674 86.2512C103.144 85.5715 102.968 84.8357 102.085 84.3265C100.496 83.3584 98.0839 84.158 98.0839 85.6277C98.0839 86.3635 99.3201 87.1554 100.5 87.1554C101.267 87.1554 102.33 86.6965 102.681 86.2512H102.674Z" fill="#381F1F"/>
<defs>
<linearGradient id="paint0_linear_522_116" x1="133.771" y1="62.8644" x2="92.6879" y2="62.8644" gradientUnits="userSpaceOnUse">
<stop stop-color="#ED5135" stop-opacity="0.56"/>
<stop offset="1" stop-color="#ED5135"/>
</linearGradient>
<linearGradient id="paint1_linear_522_116" x1="127.083" y1="61.9089" x2="98.4205" y2="61.9089" gradientUnits="userSpaceOnUse">
<stop stop-color="#ED5135" stop-opacity="0.56"/>
<stop offset="1" stop-color="#ED5135"/>
</linearGradient>
<linearGradient id="paint2_linear_522_116" x1="121.351" y1="62.3866" x2="104.153" y2="62.3866" gradientUnits="userSpaceOnUse">
<stop stop-color="#ED5135" stop-opacity="0.56"/>
<stop offset="1" stop-color="#ED5135"/>
</linearGradient>
<linearGradient id="paint3_linear_522_116" x1="133.771" y1="112.069" x2="92.6879" y2="112.069" gradientUnits="userSpaceOnUse">
<stop stop-color="#ED5135" stop-opacity="0.56"/>
<stop offset="1" stop-color="#ED5135"/>
</linearGradient>
<linearGradient id="paint4_linear_522_116" x1="127.083" y1="111.591" x2="98.4205" y2="111.591" gradientUnits="userSpaceOnUse">
<stop stop-color="#ED5135" stop-opacity="0.56"/>
<stop offset="1" stop-color="#ED5135"/>
</linearGradient>
<linearGradient id="paint5_linear_522_116" x1="121.351" y1="112.069" x2="104.153" y2="112.069" gradientUnits="userSpaceOnUse">
<stop stop-color="#ED5135" stop-opacity="0.56"/>
<stop offset="1" stop-color="#ED5135"/>
</linearGradient>
<linearGradient id="paint6_linear_522_116" x1="133.771" y1="161.273" x2="92.6879" y2="161.273" gradientUnits="userSpaceOnUse">
<stop stop-color="#ED5135" stop-opacity="0.56"/>
<stop offset="1" stop-color="#ED5135"/>
</linearGradient>
<linearGradient id="paint7_linear_522_116" x1="127.083" y1="161.273" x2="98.4205" y2="161.273" gradientUnits="userSpaceOnUse">
<stop stop-color="#ED5135" stop-opacity="0.56"/>
<stop offset="1" stop-color="#ED5135"/>
</linearGradient>
<linearGradient id="paint8_linear_522_116" x1="121.351" y1="161.273" x2="104.153" y2="161.273" gradientUnits="userSpaceOnUse">
<stop stop-color="#ED5135" stop-opacity="0.56"/>
<stop offset="1" stop-color="#ED5135"/>
</linearGradient>
<linearGradient id="paint9_linear_522_116" x1="183.454" y1="-36.5" x2="86.0001" y2="-36.5" gradientUnits="userSpaceOnUse">
<stop stop-color="#ED5135" stop-opacity="0.56"/>
<stop offset="1" stop-color="#ED5135"/>
</linearGradient>
<linearGradient id="paint10_linear_522_116" x1="133.771" y1="13.1821" x2="92.6879" y2="13.1821" gradientUnits="userSpaceOnUse">
<stop stop-color="#ED5135" stop-opacity="0.56"/>
<stop offset="1" stop-color="#ED5135"/>
</linearGradient>
<linearGradient id="paint11_linear_522_116" x1="127.083" y1="13.1821" x2="98.4205" y2="13.1821" gradientUnits="userSpaceOnUse">
<stop stop-color="#ED5135" stop-opacity="0.56"/>
<stop offset="1" stop-color="#ED5135"/>
</linearGradient>
<linearGradient id="paint12_linear_522_116" x1="121.351" y1="13.1822" x2="104.153" y2="13.1822" gradientUnits="userSpaceOnUse">
<stop stop-color="#ED5135" stop-opacity="0.56"/>
<stop offset="1" stop-color="#ED5135"/>
</linearGradient>
<clipPath id="clip0_522_116">
<rect width="166.53" height="104.31" fill="white" transform="translate(0 166.53) rotate(-90)"/>
</clipPath>
</defs>
</svg>
