<svg width="1720" height="865" viewBox="0 0 1720 865" fill="none" xmlns="http://www.w3.org/2000/svg">
<g clip-path="url(#clip0_574_2)" filter="url(#filter0_f_574_2)">
<path d="M1181.52 580.465C1146.97 570.49 1111.55 587.898 1101.92 619.365C1101.89 619.463 1101.86 619.556 1101.84 619.654C1101.81 619.752 1101.78 619.844 1101.75 619.942C1093.13 651.726 1113.82 685.312 1148.37 695.288C1182.92 705.263 1218.34 687.854 1227.97 656.387C1228 656.289 1228.03 656.197 1228.06 656.099C1228.08 656.001 1228.11 655.908 1228.14 655.81C1236.77 624.027 1216.07 590.439 1181.52 580.465ZM1151.04 686.557C1121.96 678.16 1104.62 649.62 1112.06 622.606C1120.17 595.786 1150.05 580.879 1179.12 589.274C1208.2 597.669 1225.54 626.211 1218.1 653.225C1209.99 680.043 1180.11 694.951 1151.04 686.557Z" fill="url(#paint0_linear_574_2)" fill-opacity="0.1"/>
<path d="M1175.87 597.218C1151.83 590.276 1127.13 602.522 1120.2 624.645C1120.17 624.743 1120.15 624.835 1120.12 624.933C1120.09 625.032 1120.06 625.124 1120.04 625.222C1114.11 647.614 1128.48 671.16 1152.52 678.101C1176.56 685.043 1201.26 672.797 1208.19 650.676C1208.22 650.578 1208.25 650.486 1208.28 650.388C1208.3 650.29 1208.33 650.197 1208.36 650.099C1214.28 627.705 1199.92 604.161 1175.87 597.218ZM1155.63 669.475C1135.78 663.743 1123.75 644.972 1128.46 627.341C1133.87 609.913 1154.06 600.447 1173.91 606.178C1193.76 611.909 1205.79 630.68 1201.08 648.31C1195.68 665.741 1175.49 675.208 1155.65 669.478L1155.63 669.475Z" fill="url(#paint1_linear_574_2)" fill-opacity="0.1"/>
<path d="M1171.45 613.718C1156.56 609.42 1141.4 616.476 1137.08 629.518C1137.05 629.616 1137.02 629.708 1137 629.806C1136.97 629.904 1136.94 629.997 1136.91 630.095C1133.62 643.433 1142.68 657.484 1157.57 661.782C1172.45 666.079 1187.61 659.024 1191.93 645.982C1191.96 645.884 1191.99 645.791 1192.02 645.693C1192.05 645.595 1192.07 645.503 1192.1 645.405C1195.38 632.061 1186.31 618.01 1171.45 613.718ZM1159.99 652.292C1150.35 649.508 1144.38 640.728 1146.37 632.483C1149.08 624.439 1158.81 620.196 1168.45 622.98C1178.09 625.764 1184.06 634.546 1182.07 642.79C1179.34 650.858 1169.6 655.099 1159.96 652.315L1159.99 652.292Z" fill="url(#paint2_linear_574_2)" fill-opacity="0.1"/>
<path d="M1343.76 627.309C1309.21 617.334 1273.79 634.742 1264.15 666.209C1264.13 666.308 1264.1 666.4 1264.07 666.498C1264.04 666.596 1264.02 666.688 1263.99 666.786C1255.36 698.57 1276.05 732.156 1310.6 742.132C1345.15 752.107 1380.57 734.698 1390.21 703.231C1390.24 703.133 1390.26 703.041 1390.29 702.943C1390.32 702.845 1390.35 702.753 1390.37 702.654C1399 670.871 1378.3 637.283 1343.76 627.309ZM1313.27 733.401C1284.19 725.004 1266.86 696.464 1274.3 669.45C1282.4 642.63 1312.28 627.723 1341.36 636.118C1370.43 644.513 1387.77 673.055 1380.34 700.069C1372.22 726.888 1342.34 741.795 1313.27 733.401Z" fill="url(#paint3_linear_574_2)" fill-opacity="0.1"/>
<path d="M1338.11 644.062C1314.07 637.12 1289.36 649.366 1282.44 671.489C1282.41 671.587 1282.38 671.679 1282.36 671.777C1282.33 671.876 1282.3 671.968 1282.27 672.066C1276.34 694.458 1290.71 718.004 1314.75 724.945C1338.79 731.887 1363.5 719.641 1370.43 697.52C1370.46 697.422 1370.48 697.33 1370.51 697.232C1370.54 697.134 1370.57 697.041 1370.59 696.943C1376.52 674.549 1362.15 651.005 1338.11 644.062ZM1317.87 716.319C1298.02 710.587 1285.98 691.816 1290.69 674.185C1296.11 656.757 1316.3 647.291 1336.15 653.022C1355.99 658.753 1368.03 677.524 1363.32 695.155C1357.91 712.585 1337.72 722.052 1317.88 716.322L1317.87 716.319Z" fill="url(#paint4_linear_574_2)" fill-opacity="0.1"/>
<path d="M1333.68 660.562C1318.8 656.264 1303.64 663.32 1299.31 676.362C1299.29 676.46 1299.26 676.552 1299.23 676.65C1299.2 676.748 1299.18 676.841 1299.15 676.939C1295.85 690.277 1304.92 704.328 1319.8 708.626C1334.69 712.923 1349.85 705.867 1354.17 692.826C1354.2 692.728 1354.22 692.635 1354.25 692.537C1354.28 692.439 1354.31 692.347 1354.34 692.249C1357.61 678.905 1348.55 664.854 1333.68 660.562ZM1322.22 699.136C1312.58 696.352 1306.62 687.572 1308.61 679.327C1311.32 671.283 1321.05 667.04 1330.69 669.824C1340.33 672.608 1346.3 681.39 1344.31 689.634C1341.57 697.702 1331.84 701.943 1322.2 699.159L1322.22 699.136Z" fill="url(#paint5_linear_574_2)" fill-opacity="0.1"/>
<path d="M1505.99 674.153C1471.44 664.178 1436.03 681.586 1426.39 713.053C1426.36 713.152 1426.33 713.244 1426.31 713.342C1426.28 713.44 1426.25 713.532 1426.22 713.63C1417.6 745.414 1438.29 779 1472.84 788.976C1507.39 798.951 1542.81 781.542 1552.44 750.075C1552.47 749.977 1552.5 749.885 1552.53 749.787C1552.55 749.689 1552.58 749.597 1552.61 749.498C1561.24 717.715 1540.54 684.127 1505.99 674.153ZM1475.51 780.245C1446.43 771.848 1429.09 743.308 1436.53 716.294C1444.64 689.474 1474.52 674.567 1503.59 682.962C1532.67 691.357 1550.01 719.899 1542.57 746.913C1534.46 773.732 1504.58 788.639 1475.51 780.245Z" fill="url(#paint6_linear_574_2)" fill-opacity="0.1"/>
<path d="M1500.34 690.906C1476.3 683.964 1451.6 696.21 1444.67 718.333C1444.65 718.431 1444.62 718.523 1444.59 718.622C1444.56 718.72 1444.54 718.812 1444.51 718.91C1438.58 741.302 1452.95 764.848 1476.99 771.79C1501.03 778.731 1525.73 766.486 1532.66 744.364C1532.69 744.266 1532.72 744.174 1532.75 744.076C1532.77 743.978 1532.8 743.885 1532.83 743.787C1538.75 721.393 1524.39 697.849 1500.34 690.906ZM1480.1 763.163C1460.26 757.431 1448.22 738.66 1452.93 721.029C1458.34 703.601 1478.53 694.135 1498.38 699.866C1518.23 705.597 1530.26 724.368 1525.55 741.999C1520.15 759.429 1499.96 768.896 1480.12 763.166L1480.1 763.163Z" fill="url(#paint7_linear_574_2)" fill-opacity="0.1"/>
<path d="M1495.92 707.406C1481.03 703.108 1465.87 710.164 1461.55 723.206C1461.52 723.304 1461.49 723.396 1461.47 723.494C1461.44 723.592 1461.41 723.685 1461.38 723.783C1458.09 737.121 1467.15 751.172 1482.04 755.47C1496.92 759.767 1512.08 752.712 1516.4 739.67C1516.43 739.572 1516.46 739.479 1516.49 739.381C1516.52 739.283 1516.54 739.191 1516.57 739.093C1519.85 725.749 1510.78 711.698 1495.92 707.406ZM1484.46 745.98C1474.82 743.196 1468.85 734.416 1470.85 726.171C1473.56 718.127 1483.28 713.884 1492.92 716.668C1502.56 719.452 1508.54 728.234 1506.54 736.478C1503.81 744.546 1494.08 748.787 1484.43 746.003L1484.46 745.98Z" fill="url(#paint8_linear_574_2)" fill-opacity="0.1"/>
<path d="M1661.64 735.672L1661.89 734.795C1667.24 714.806 1664.3 693.778 1653.59 675.514C1642.77 657.069 1625.28 643.586 1604.3 637.529C1601.53 636.733 1598.72 636.078 1595.88 635.565C1594.12 626.954 1590.94 618.695 1586.47 611.126C1575.65 592.681 1558.16 579.198 1537.19 573.142C1533.46 572.067 1529.67 571.247 1525.83 570.689C1519.13 542.017 1496.89 518.999 1467.69 510.567C1438.48 502.135 1407.33 509.768 1386.38 530.509C1379.13 527.231 1371.47 524.988 1363.6 523.845C1356.9 495.174 1334.65 472.155 1305.45 463.723C1276.25 455.291 1245.1 462.924 1224.14 483.665C1216.9 480.387 1209.23 478.144 1201.36 477.001C1194.66 448.33 1172.42 425.311 1143.22 416.879C1122.25 410.826 1100.25 412.913 1081.27 422.746C1074.14 426.423 1067.61 431.156 1061.9 436.783C1058.2 435.128 1054.38 433.734 1050.48 432.61C1046.76 431.535 1042.96 430.715 1039.13 430.157C1032.42 401.485 1010.18 378.467 980.98 370.035C951.777 361.603 920.626 369.236 899.669 389.977C892.427 386.699 884.76 384.456 876.893 383.313C870.191 354.642 847.947 331.623 818.745 323.191C789.542 314.759 758.391 322.392 737.434 343.133C730.192 339.855 722.525 337.612 714.658 336.469C707.956 307.798 685.712 284.779 656.509 276.347C635.546 270.294 613.545 272.38 594.562 282.214C587.436 285.891 580.908 290.624 575.197 296.251C571.491 294.596 567.674 293.202 563.774 292.077C560.05 291.003 556.258 290.183 552.423 289.625C545.715 260.953 523.476 237.935 494.274 229.503C465.072 221.071 433.92 228.704 412.964 249.445C405.722 246.167 398.054 243.923 390.187 242.781C383.485 214.11 361.241 191.091 332.039 182.659C302.836 174.227 271.685 181.86 250.728 202.601C243.486 199.323 235.819 197.079 227.952 195.937C221.25 167.266 199.006 144.247 169.803 135.815C148.84 129.762 126.84 131.848 107.856 141.682C89.0559 151.425 75.3583 167.648 69.2147 187.409L68.9664 188.269L68.7149 189.14C65.1225 202.614 65.2831 216.814 69.1795 230.206C57.0656 239.769 48.1398 252.78 43.5809 267.522V267.522L43.3326 268.381L43.081 269.253C37.7284 289.242 40.67 310.27 51.3836 328.534C62.2016 346.979 79.6937 360.463 100.669 366.519C104.265 367.553 107.924 368.354 111.622 368.919C113.319 377.871 116.552 386.462 121.178 394.313C131.996 412.758 149.488 426.241 170.463 432.298C191.438 438.354 213.427 436.264 232.41 426.431C240.45 422.292 247.72 416.807 253.906 410.215C260.298 412.859 266.988 414.72 273.829 415.755C275.547 424.72 278.805 433.321 283.458 441.176C294.276 459.621 311.768 473.105 332.743 479.161C353.718 485.217 375.707 483.128 394.69 473.294C402.729 469.155 410 463.671 416.185 457.078C419.116 458.286 422.111 459.332 425.157 460.212C428.753 461.246 432.412 462.047 436.11 462.612C437.809 471.563 441.042 480.154 445.666 488.006C456.484 506.451 473.976 519.935 494.951 525.991C515.926 532.047 537.915 529.957 556.898 520.124C564.937 515.985 572.208 510.5 578.393 503.908L579.69 504.42C580.425 504.713 581.165 504.989 581.912 505.261L583.506 505.828L584.59 506.191C585.519 506.459 586.434 506.779 587.363 507.048C588.195 507.288 589.026 507.528 589.869 507.728L590.262 507.841C592.931 508.518 595.621 509.057 598.31 509.471C600.02 518.424 603.263 527.016 607.896 534.868C618.714 553.313 636.206 566.796 657.181 572.852C678.157 578.909 700.145 576.819 719.128 566.985C727.168 562.846 734.438 557.362 740.624 550.769C747.017 553.414 753.706 555.274 760.547 556.309C762.264 565.266 765.518 573.859 770.164 581.709C780.982 600.153 798.474 613.637 819.449 619.693C840.424 625.75 862.413 623.66 881.396 613.826C889.435 609.687 896.705 604.203 902.891 597.61C905.822 598.818 908.817 599.864 911.863 600.744C915.459 601.778 919.117 602.579 922.816 603.144C924.522 612.102 927.764 620.698 932.399 628.553C943.217 646.997 960.709 660.481 981.684 666.537C1002.66 672.594 1024.65 670.504 1043.63 660.67C1051.67 656.531 1058.94 651.047 1065.13 644.454C1065.57 644.638 1066.01 644.804 1066.46 644.982L1067.41 645.358L1068.78 645.859C1069.28 646.04 1069.78 646.218 1070.29 646.387L1071.38 646.754C1072.29 647.017 1073.19 647.332 1074.1 647.594C1075 647.856 1075.76 648.074 1076.6 648.274L1076.99 648.387C1079.66 649.064 1082.35 649.603 1085.04 650.017C1086.75 658.971 1090 667.562 1094.63 675.414C1105.45 693.859 1122.94 707.342 1143.91 713.399C1164.89 719.455 1186.88 717.365 1205.86 707.531C1213.9 703.393 1221.17 697.908 1227.36 691.315C1233.75 693.96 1240.44 695.82 1247.28 696.856C1248.99 705.806 1252.23 714.394 1256.87 722.241C1267.69 740.686 1285.18 754.169 1306.15 760.225C1327.13 766.282 1349.12 764.192 1368.1 754.358C1376.14 750.219 1383.41 744.735 1389.6 738.142C1392.53 739.35 1395.52 740.397 1398.57 741.276C1402.16 742.31 1405.82 743.112 1409.52 743.677C1411.23 752.634 1414.47 761.23 1419.1 769.085C1429.92 787.53 1447.41 801.013 1468.39 807.069C1489.37 813.126 1511.35 811.036 1530.34 801.202C1538.38 797.063 1545.65 791.579 1551.83 784.986C1554.76 786.194 1557.76 787.241 1560.8 788.12C1581.77 794.174 1603.77 792.087 1622.75 782.253C1641.55 772.516 1655.26 756.298 1661.38 736.521L1661.64 735.672ZM1534.09 583.336C1571.97 594.273 1594.62 632.439 1584.58 668.397C1580.92 680.624 1573.76 691.513 1563.98 699.724C1563.11 697.946 1562.16 696.19 1561.13 694.455C1560.87 694.013 1560.61 693.581 1560.34 693.147C1568.53 686.174 1574.56 677.013 1577.73 666.736V666.736C1577.75 666.638 1577.78 666.545 1577.81 666.447C1577.84 666.349 1577.86 666.257 1577.89 666.159C1586.52 634.375 1565.82 600.788 1531.28 590.814C1508.1 584.122 1484.53 589.756 1468.62 603.695C1466.87 602.424 1465.08 601.219 1463.24 600.079C1481.57 582.355 1508.46 575.938 1534.09 583.336ZM1558.06 660.746C1558.09 660.648 1558.12 660.556 1558.15 660.458C1564.07 638.064 1549.71 614.52 1525.66 607.576C1509.76 602.985 1493.57 606.8 1482.43 616.303C1482.06 615.877 1481.69 615.464 1481.31 615.031C1479.82 613.388 1478.26 611.819 1476.65 610.302C1490.05 598.731 1509.65 594.071 1528.91 599.631C1557.99 608.028 1575.32 636.568 1567.88 663.582C1565.42 671.731 1560.83 679.08 1554.59 684.879C1552.53 682.287 1550.32 679.819 1547.97 677.491C1552.6 672.901 1556.03 667.253 1557.99 661.036C1558.02 660.94 1558.04 660.846 1558.06 660.746ZM1541.79 656.048C1541.82 655.95 1541.85 655.858 1541.88 655.76C1545.17 642.421 1536.11 628.371 1521.22 624.073C1510.36 620.936 1499.35 623.858 1492.52 630.736C1491.12 628.185 1489.58 625.711 1487.91 623.325C1496.99 615.702 1510.41 612.701 1523.72 616.542C1543.56 622.271 1555.6 641.043 1550.89 658.674C1549.25 663.909 1546.23 668.605 1542.15 672.265C1539.74 670.306 1537.23 668.482 1534.63 666.801C1537.9 664.024 1540.35 660.408 1541.71 656.343C1541.75 656.242 1541.77 656.146 1541.79 656.048V656.048ZM1531.83 653.171C1530.59 656.693 1528.05 659.608 1524.74 661.318C1517.18 657.763 1509.14 655.319 1500.89 654.063C1500.02 649.496 1498.75 645.015 1497.1 640.673C1500.7 634.081 1509.49 630.843 1518.21 633.361C1527.85 636.145 1533.82 644.926 1531.83 653.171ZM1430.52 625.113C1415.02 620.637 1399.25 624.153 1388.14 633.134C1386.24 631.092 1384.23 629.148 1382.13 627.312C1395.52 616.131 1414.79 611.688 1433.77 617.167C1453.21 622.782 1467.39 637.397 1472.44 654.546C1469.2 655.164 1466.01 655.975 1462.87 656.975C1458.87 642.375 1446.96 629.861 1430.52 625.113ZM1455.49 659.716C1453.61 660.522 1451.75 661.392 1449.92 662.346C1448.96 662.843 1448.02 663.358 1447.08 663.894C1445.43 653.885 1437.46 644.865 1426.09 641.579C1415.85 638.625 1405.51 641.051 1398.63 647.084C1397.16 644.625 1395.57 642.244 1393.86 639.949C1402.88 632.973 1415.8 630.359 1428.58 634.048C1442.19 638.009 1452.12 648.083 1455.49 659.716ZM1436.17 608.36C1413.16 601.715 1389.76 607.225 1373.85 620.953C1372.04 619.729 1370.19 618.569 1368.29 617.471C1386.57 599.907 1413.55 593.541 1438.95 600.874C1464.57 608.271 1484.06 628.246 1490.01 653.123C1487.52 653.074 1485.01 653.122 1482.5 653.285C1476.63 632.714 1459.58 615.12 1436.17 608.36ZM1358.99 577.231C1348.13 574.093 1337.12 577.016 1330.29 583.894C1328.89 581.343 1327.35 578.869 1325.68 576.483C1334.76 568.859 1348.18 565.858 1361.49 569.699C1374.23 573.378 1383.75 582.434 1387.69 593.117C1384.86 594.233 1382.1 595.507 1379.42 596.931C1376.91 587.98 1369.39 580.231 1358.99 577.231ZM1369.98 602.814C1365.9 605.766 1362.11 609.102 1358.66 612.778C1352.24 610.133 1345.53 608.268 1338.67 607.224C1337.8 602.657 1336.54 598.176 1334.88 593.834C1338.48 587.242 1347.27 584.004 1355.99 586.522C1364.25 588.906 1369.81 595.713 1369.97 602.809L1369.98 602.814ZM1268.3 578.274C1252.8 573.798 1237.03 577.314 1225.92 586.295C1224.02 584.253 1222.01 582.309 1219.91 580.473C1233.3 569.292 1252.57 564.849 1271.55 570.328C1290.99 575.943 1305.17 590.558 1310.22 607.706C1306.99 608.325 1303.79 609.136 1300.65 610.136C1296.63 595.531 1284.73 583.017 1268.29 578.269L1268.3 578.274ZM1293.28 612.877C1291.39 613.683 1289.53 614.553 1287.71 615.507C1286.74 616.004 1285.8 616.519 1284.86 617.055C1283.21 607.046 1275.25 598.026 1263.87 594.74C1253.64 591.786 1243.29 594.212 1236.41 600.245C1234.94 597.786 1233.35 595.405 1231.64 593.11C1240.66 586.134 1253.58 583.519 1266.36 587.209C1279.96 591.165 1289.88 601.239 1293.26 612.872L1293.28 612.877ZM1273.94 561.516C1250.92 554.871 1227.53 560.381 1211.62 574.108C1209.81 572.885 1207.95 571.725 1206.05 570.627C1224.33 553.063 1251.32 546.697 1276.72 554.03C1302.33 561.427 1321.83 581.402 1327.78 606.279C1325.29 606.23 1322.77 606.278 1320.26 606.441C1314.4 585.87 1297.35 568.276 1273.94 561.516ZM1083.12 638.81C1082.62 638.71 1082.13 638.612 1081.64 638.501C1081.14 638.39 1080.55 638.262 1080.01 638.13L1079.17 637.919C1078.42 637.704 1077.66 637.527 1076.91 637.311C1075.33 636.854 1073.73 636.324 1072.14 635.746C1073.68 633.523 1075.1 631.22 1076.39 628.846C1077.1 629.053 1077.81 629.302 1078.54 629.512C1080.32 630.027 1082.11 630.469 1083.89 630.839C1083.71 633.534 1083.68 636.236 1083.79 638.935L1083.12 638.81ZM1090.82 458.16C1088.98 456.055 1087.05 454.038 1085.02 452.11C1098.31 441.95 1116.78 438.1 1134.94 443.343C1153.23 448.626 1166.87 461.878 1172.62 477.711C1169.41 478.354 1166.23 479.183 1163.11 480.195C1158.39 466.88 1147.03 455.718 1131.69 451.289C1116.88 447.036 1101.82 450.052 1090.82 458.16V458.16ZM1129.73 460.276C1142.2 463.876 1151.58 472.636 1155.69 483.029C1152.91 484.24 1150.19 485.606 1147.56 487.121C1144.96 478.344 1137.5 470.769 1127.26 467.814C1117.53 465.003 1107.68 467.054 1100.82 472.45C1100.48 471.833 1100.15 471.217 1099.79 470.607C1098.7 468.765 1097.55 466.974 1096.33 465.234C1105.27 458.968 1117.56 456.76 1129.73 460.276ZM1157.97 522.599C1156.15 520.501 1154.22 518.496 1152.2 516.595C1165.6 505.038 1185.19 500.386 1204.43 505.943C1223.21 511.364 1237.07 525.175 1242.55 541.553C1239.58 542.04 1236.64 542.685 1233.74 543.484L1232.93 543.725C1228.42 530.003 1216.87 518.416 1201.19 513.888C1185.29 509.297 1169.11 513.119 1157.97 522.599ZM1124.24 477.098C1132.52 479.489 1138.06 486.297 1138.22 493.393C1135.1 495.83 1132.17 498.502 1129.47 501.386C1126.63 500.096 1123.73 498.962 1120.78 497.99L1120.41 497.883C1119.47 497.581 1118.53 497.284 1117.58 497.009C1116.74 496.769 1115.91 496.527 1115.06 496.332C1114.63 496.209 1114.2 496.103 1113.76 496.014L1112.89 495.813C1111.65 495.529 1110.4 495.268 1109.15 495.039C1108.22 490.458 1106.87 485.969 1105.14 481.628C1109.44 476.956 1116.86 474.968 1124.24 477.098ZM1094.44 556.459C1095.85 556.57 1097.25 556.822 1098.6 557.211C1108.25 559.995 1114.22 568.776 1112.22 577.021C1112.19 577.125 1112.16 577.229 1112.13 577.333C1108.75 580.038 1105.61 583.023 1102.73 586.256C1100.79 586.94 1098.76 587.316 1096.71 587.369V587.369C1096.2 587.385 1095.7 587.377 1095.19 587.354L1095.05 587.345C1094.55 587.321 1094.06 587.272 1093.56 587.216L1093.39 587.166C1092.9 587.099 1092.4 587.018 1091.9 586.919L1091.75 586.875C1091.24 586.765 1090.73 586.641 1090.21 586.491C1089.69 586.341 1089.18 586.196 1088.7 585.994L1088.1 585.752C1087.83 585.641 1087.54 585.527 1087.27 585.407L1086.56 585.056L1085.92 584.735L1085.18 584.309L1084.85 584.1C1084.22 579.06 1083.1 574.094 1081.5 569.274C1086.3 565.525 1090.64 561.222 1094.43 556.454L1094.44 556.459ZM1086.57 615.239L1086.31 616.11C1085.82 617.971 1085.39 619.841 1085.04 621.718L1084.74 621.631C1084.29 621.501 1083.82 621.423 1083.36 621.309C1082.65 621.104 1081.92 620.943 1081.2 620.735L1080.28 620.47C1081 618.651 1081.65 616.802 1082.24 614.922L1082.49 614.056L1082.74 613.202C1082.82 612.925 1082.9 612.654 1082.97 612.383C1083.55 612.549 1084.13 612.716 1084.72 612.837L1085.14 612.957C1085.81 613.114 1086.48 613.263 1087.15 613.388C1087.05 613.735 1086.95 614.075 1086.82 614.405L1086.57 615.239ZM1090.54 604.754C1089.76 604.622 1088.99 604.473 1088.21 604.299L1088.04 604.251L1087.05 604.015L1085.82 603.66C1085.45 603.552 1085.08 603.445 1084.7 603.337C1085.06 600.629 1085.27 597.903 1085.33 595.172C1085.64 595.294 1085.96 595.403 1086.28 595.514C1086.75 595.683 1087.23 595.84 1087.72 595.982C1088.21 596.124 1088.88 596.315 1089.47 596.43L1089.52 596.445C1091.2 596.825 1092.91 597.069 1094.63 597.176C1093.13 599.624 1091.77 602.155 1090.55 604.756L1090.54 604.754ZM1122.61 570.205C1122.58 570.021 1122.54 569.848 1122.5 569.669C1122.5 569.622 1122.49 569.576 1122.48 569.531C1122.42 569.193 1122.34 568.866 1122.26 568.517C1122.09 567.804 1121.88 567.096 1121.62 566.389C1121.52 566.071 1121.4 565.75 1121.28 565.426C1121.26 565.364 1121.23 565.307 1121.2 565.243C1121.1 564.975 1120.99 564.712 1120.88 564.448L1120.78 564.213C1120.67 563.963 1120.55 563.711 1120.42 563.486L1120.32 563.255C1120.18 562.992 1120.05 562.735 1119.91 562.476L1119.82 562.3C1119.48 561.663 1119.1 561.036 1118.71 560.421L1118.64 560.314C1118.46 560.051 1118.29 559.794 1118.11 559.535L1117.93 559.291L1117.49 558.668L1117.27 558.394C1117.12 558.199 1116.96 558.005 1116.81 557.818L1116.59 557.54L1116.08 556.969L1115.86 556.718L1115.24 556.064L1115.1 555.923C1114.85 555.662 1114.58 555.397 1114.31 555.144L1114.17 555.016C1113.95 554.814 1113.72 554.605 1113.49 554.407L1113.21 554.17L1112.64 553.693L1112.31 553.436L1111.75 553.004L1111.4 552.749C1111.21 552.604 1111.01 552.466 1110.81 552.333L1110.47 552.098C1110.25 551.947 1110.02 551.801 1109.79 551.658L1109.52 551.479C1109.19 551.279 1108.87 551.085 1108.53 550.895L1108.39 550.823C1108.11 550.66 1107.82 550.501 1107.53 550.349L1107.17 550.171L1106.49 549.836L1106.08 549.643L1105.42 549.351L1104.99 549.171C1104.76 549.075 1104.53 548.984 1104.3 548.898L1103.91 548.678L1103.15 548.409L1102.78 548.302C1102.4 548.192 1102.01 548.08 1101.62 547.969C1101.24 547.857 1100.88 547.755 1100.51 547.679C1101.88 545.345 1103.13 542.939 1104.24 540.472C1104.72 540.612 1105.2 540.751 1105.67 540.924L1105.85 540.974C1106.26 541.094 1106.66 541.254 1107.07 541.401L1107.33 541.476C1107.71 541.618 1108.09 541.766 1108.45 541.919L1108.69 541.989C1109.1 542.165 1109.51 542.338 1109.91 542.522L1110.02 542.555C1110.92 542.964 1111.79 543.403 1112.64 543.867L1112.84 543.973C1113.18 544.159 1113.51 544.349 1113.85 544.546L1114.19 544.759L1115.01 545.265L1115.42 545.526L1116.17 546.022L1116.58 546.31L1117.3 546.824L1117.7 547.114C1118.03 547.374 1118.36 547.633 1118.72 547.904C1118.91 548.053 1119.09 548.212 1119.28 548.366L1119.72 548.737L1120.33 549.275L1120.68 549.588C1120.89 549.781 1121.1 549.98 1121.31 550.182C1121.4 550.266 1121.49 550.354 1121.58 550.441C1121.8 550.662 1122.03 550.885 1122.25 551.11L1122.38 551.256C1126.43 555.402 1129.41 560.466 1131.06 566.015C1129.18 566.821 1127.32 567.691 1125.5 568.645C1124.49 569.155 1123.55 569.67 1122.61 570.206L1122.61 570.205ZM1138.37 563.278C1138.34 563.183 1138.3 563.085 1138.28 562.985L1138.05 562.213L1137.84 561.526L1137.59 560.78L1137.34 560.081C1137.25 559.843 1137.17 559.607 1137.08 559.381C1136.99 559.154 1136.87 558.845 1136.76 558.582C1136.65 558.318 1136.6 558.181 1136.52 557.981C1136.32 557.525 1136.15 557.076 1135.92 556.62L1135.78 556.337C1135.6 555.967 1135.42 555.608 1135.24 555.231C1135.17 555.086 1135.09 554.945 1135.02 554.805L1134.51 553.852L1134.27 553.419C1134.09 553.105 1133.91 552.797 1133.72 552.485L1133.49 552.086L1132.87 551.115L1132.65 550.784C1132.42 550.428 1132.18 550.077 1131.93 549.725L1131.78 549.513C1125.8 541.166 1117.27 534.976 1107.48 531.869C1107.5 531.782 1107.53 531.696 1107.55 531.609L1107.8 530.755L1108.06 529.872C1108.62 527.766 1109.08 525.649 1109.46 523.528L1109.6 523.568C1110.18 523.734 1110.8 523.913 1111.38 524.125L1111.85 524.26C1112.34 524.401 1112.82 524.589 1113.3 524.766L1113.86 524.979C1114.31 525.145 1114.74 525.315 1115.19 525.493L1115.75 525.723C1116.18 525.907 1116.61 526.093 1117.03 526.281L1117.58 526.529L1118.88 527.14L1119.38 527.384C1119.85 527.621 1120.32 527.863 1120.79 528.117L1121.11 528.285C1122.27 528.913 1123.39 529.569 1124.49 530.268C1124.64 530.353 1124.77 530.448 1124.91 530.539C1125.31 530.791 1125.7 531.047 1126.09 531.309L1126.65 531.705L1127.64 532.4L1128.25 532.86L1129.14 533.535L1129.78 534.044C1130.05 534.268 1130.33 534.491 1130.59 534.717C1130.86 534.944 1131.03 535.074 1131.24 535.26C1131.45 535.445 1131.74 535.703 1132.01 535.939C1132.29 536.175 1132.44 536.313 1132.65 536.51C1132.85 536.707 1133.14 536.966 1133.38 537.196L1134.01 537.797C1134.24 538.027 1134.5 538.27 1134.69 538.496C1135.13 538.933 1135.55 539.368 1135.96 539.83C1136.13 540.011 1136.31 540.192 1136.47 540.378C1136.71 540.647 1136.94 540.925 1137.18 541.208L1137.65 541.756C1137.89 542.037 1138.11 542.321 1138.36 542.586L1138.79 543.122C1139.02 543.42 1139.24 543.716 1139.48 544.022L1139.87 544.54L1140.55 545.493L1140.88 545.963C1141.11 546.305 1141.34 546.647 1141.57 546.994L1141.8 547.368C1142.05 547.746 1142.29 548.133 1142.53 548.521C1143.65 550.382 1144.66 552.31 1145.55 554.295L1145.67 554.547C1145.86 554.971 1146.05 555.4 1146.21 555.829L1146.34 556.162C1146.52 556.586 1146.68 557.009 1146.84 557.436L1146.96 557.777C1147.12 558.21 1147.27 558.643 1147.42 559.078L1147.51 559.374C1147.66 559.83 1147.81 560.292 1147.95 560.75C1144.72 561.405 1141.53 562.252 1138.4 563.287L1138.37 563.278ZM1158 559.571C1157.84 558.998 1157.66 558.423 1157.48 557.857L1157.4 557.598C1157.23 557.073 1157.08 556.554 1156.86 556.023L1156.72 555.633C1156.54 555.131 1156.38 554.647 1156.16 554.139L1155.98 553.694C1155.79 553.206 1155.59 552.723 1155.37 552.268L1155.17 551.809C1154.96 551.329 1154.74 550.855 1154.52 550.371L1154.31 549.929C1154.08 549.45 1153.85 548.977 1153.61 548.477C1153.54 548.345 1153.47 548.218 1153.41 548.088C1153.15 547.6 1152.89 547.113 1152.63 546.612L1152.48 546.358C1151.2 544.074 1149.77 541.87 1148.22 539.757L1148.19 539.71C1147.87 539.28 1147.53 538.846 1147.21 538.42L1146.88 538C1146.58 537.619 1146.27 537.242 1145.96 536.865L1145.49 536.317L1144.58 535.274L1144.06 534.686L1143.15 533.705L1142.57 533.092C1142.27 532.781 1141.96 532.474 1141.66 532.167L1141.02 531.539C1140.72 531.245 1140.41 530.952 1140.11 530.65C1139.88 530.435 1139.65 530.23 1139.42 530.021C1139.11 529.737 1138.8 529.454 1138.49 529.182L1137.75 528.552L1136.81 527.761L1136.03 527.128C1135.71 526.88 1135.4 526.629 1135.08 526.387C1134.76 526.145 1134.4 525.871 1134.05 525.621C1133.54 525.246 1133.07 524.898 1132.56 524.564C1132.21 524.321 1131.87 524.076 1131.51 523.844C1131.16 523.611 1130.94 523.464 1130.65 523.276C1130.37 523.088 1129.96 522.827 1129.59 522.608L1128.7 522.062C1128.35 521.848 1128 521.635 1127.63 521.429L1126.72 520.911L1125.65 520.312L1124.72 519.825C1124.34 519.629 1123.97 519.441 1123.59 519.255C1123.2 519.069 1122.96 518.943 1122.65 518.796C1122.34 518.65 1121.87 518.429 1121.48 518.253C1121.09 518.077 1120.86 517.966 1120.54 517.831C1120.14 517.651 1119.72 517.482 1119.31 517.307L1118.39 516.928C1117.95 516.751 1117.5 516.585 1117.06 516.421L1116.18 516.091C1115.69 515.912 1115.19 515.742 1114.69 515.572C1114.43 515.499 1114.19 515.398 1113.94 515.319C1113.18 515.099 1112.42 514.837 1111.64 514.612C1111.26 514.5 1110.88 514.39 1110.49 514.278C1110.64 511.56 1110.64 508.836 1110.5 506.118C1111.16 506.271 1111.8 506.432 1112.44 506.592L1112.5 506.607C1113.14 506.792 1113.77 506.975 1114.41 507.159C1115.27 507.407 1116.14 507.659 1116.97 507.948L1117.66 508.186C1118.29 508.399 1118.91 508.615 1119.53 508.837L1120.21 509.097C1120.85 509.337 1121.48 509.583 1122.11 509.839L1122.6 510.051C1123.33 510.354 1124.05 510.663 1124.76 510.986L1124.93 511.034C1145.7 520.538 1160.44 538.734 1165.43 559.36C1162.98 559.337 1160.52 559.408 1158.03 559.574L1158 559.571ZM1176.41 560.375C1175.55 555.801 1174.27 551.313 1172.61 546.967C1176.21 540.382 1185 537.155 1193.71 539.67C1201.98 542.059 1207.55 548.867 1207.7 555.956C1203.62 558.911 1199.83 562.25 1196.38 565.927C1193.45 564.718 1190.45 563.669 1187.4 562.785C1183.81 561.746 1180.15 560.942 1176.45 560.377L1176.41 560.375ZM1196.71 530.379C1185.84 527.242 1174.84 530.166 1168 537.037C1167.63 536.347 1167.24 535.659 1166.83 534.98C1165.76 533.145 1164.62 531.357 1163.41 529.615C1172.49 521.998 1185.91 519.003 1199.21 522.842C1211.95 526.521 1221.47 535.577 1225.41 546.26C1222.58 547.376 1219.82 548.649 1217.14 550.073C1214.68 541.136 1207.15 533.387 1196.76 530.386L1196.71 530.379ZM1291.94 507.117C1304.41 510.718 1313.79 519.477 1317.89 529.87C1315.11 531.081 1312.4 532.448 1309.77 533.963C1307.17 525.186 1299.7 517.611 1289.47 514.655C1279.73 511.843 1269.88 513.907 1263.02 519.315C1261.64 516.834 1260.14 514.425 1258.51 512.099C1267.47 505.821 1279.78 503.599 1291.97 507.12L1291.94 507.117ZM1252.96 505.046C1251.13 502.945 1249.19 500.94 1247.15 499.029C1260.44 488.827 1278.94 484.955 1297.13 490.208C1315.43 495.491 1329.07 508.742 1334.82 524.575C1331.6 525.218 1328.43 526.048 1325.3 527.059C1320.59 513.745 1309.23 502.583 1293.89 498.154C1279.08 493.872 1264 496.906 1252.99 505.048L1252.96 505.046ZM1286.44 523.94C1294.72 526.33 1300.27 533.139 1300.42 540.234C1297.31 542.678 1294.39 545.354 1291.68 548.237C1285.2 545.271 1278.37 543.126 1271.36 541.85C1270.43 537.282 1269.09 532.806 1267.36 528.476C1271.67 523.818 1279.09 521.81 1286.47 523.942L1286.44 523.94ZM1314.37 563.452C1327.78 551.883 1347.38 547.223 1366.63 552.782C1385.41 558.204 1399.27 572.014 1404.75 588.393C1401.78 588.88 1398.84 589.524 1395.94 590.323L1395.13 590.565C1390.62 576.843 1379.07 565.256 1363.39 560.728C1347.49 556.137 1331.3 559.952 1320.15 569.453C1319.79 569.029 1319.42 568.616 1319.04 568.183C1317.58 566.542 1316.02 564.973 1314.4 563.455L1314.37 563.452ZM1454.17 553.961C1466.64 557.562 1476.02 566.321 1480.13 576.714C1477.35 577.926 1474.63 579.292 1472 580.807C1469.4 572.03 1461.94 564.455 1451.7 561.499C1441.96 558.687 1432.12 560.751 1425.26 566.165C1423.88 563.68 1422.38 561.27 1420.75 558.943C1429.7 552.665 1442.01 550.443 1454.2 553.964L1454.17 553.961ZM1415.2 551.89C1413.36 549.789 1411.43 547.784 1409.39 545.873C1422.68 535.671 1441.18 531.799 1459.37 537.052C1477.67 542.335 1491.3 555.586 1497.06 571.419C1493.84 572.063 1490.66 572.892 1487.53 573.902C1482.82 560.589 1471.46 549.425 1456.12 544.998C1441.32 540.716 1426.24 543.75 1415.23 551.892L1415.2 551.89ZM1448.68 570.784C1456.96 573.174 1462.5 579.983 1462.66 587.084C1459.54 589.525 1456.62 592.198 1453.92 595.081C1447.43 592.115 1440.61 589.97 1433.59 588.694C1432.66 584.126 1431.33 579.65 1429.6 575.32C1433.9 570.662 1441.32 568.654 1448.71 570.786L1448.68 570.784ZM1464.56 520.759C1488.8 527.761 1507.98 546.517 1514.78 569.816C1512.22 569.776 1509.66 569.854 1507.12 570.05C1500.49 550.844 1484.01 534.623 1461.79 528.204C1439.67 521.82 1417.2 526.657 1401.37 539.222C1399.58 537.926 1397.74 536.696 1395.85 535.532C1414.05 519.422 1440.3 513.748 1464.59 520.761L1464.56 520.759ZM1371.82 536.489C1397.05 543.774 1416.26 563.147 1422.57 587.399C1420.02 587.271 1417.47 587.258 1414.93 587.361C1408.68 567.429 1391.89 550.53 1369.05 543.935C1345.88 537.243 1322.31 542.878 1306.39 556.817C1304.64 555.545 1302.85 554.34 1301.01 553.2C1319.33 535.511 1346.23 529.094 1371.85 536.492L1371.82 536.489ZM1302.32 473.915C1326.57 480.916 1345.74 499.673 1352.54 522.972C1349.98 522.932 1347.43 523.01 1344.89 523.206C1338.26 504 1321.78 487.779 1299.55 481.36C1277.44 474.976 1254.96 479.813 1239.14 492.378C1237.35 491.082 1235.51 489.852 1233.61 488.688C1251.82 472.578 1278.06 466.904 1302.35 473.917L1302.32 473.915ZM1209.58 489.645C1234.81 496.93 1254.02 516.303 1260.34 540.555C1257.78 540.427 1255.23 540.414 1252.69 540.517C1246.44 520.585 1229.66 503.686 1206.82 497.091C1183.65 490.401 1160.09 496.027 1144.17 509.953C1142.43 508.688 1140.64 507.485 1138.79 506.346C1157.1 488.663 1184 482.251 1209.62 489.648L1209.58 489.645ZM1140.08 427.071C1164.33 434.072 1183.51 452.829 1190.31 476.128C1187.75 476.088 1185.19 476.166 1182.65 476.362C1176.02 457.156 1159.54 440.934 1137.32 434.516C1115.23 428.14 1092.79 432.957 1076.96 445.488C1075.19 444.201 1073.36 442.984 1071.48 441.837C1089.21 426.289 1115 419.822 1140.12 427.073L1140.08 427.071ZM1047.35 442.801C1085.23 453.739 1107.89 491.904 1097.85 527.862C1094.18 540.09 1087.02 550.979 1077.25 559.19C1076.37 557.412 1075.42 555.655 1074.39 553.92C1074.14 553.478 1073.87 553.046 1073.61 552.612C1081.79 545.639 1087.82 536.478 1090.99 526.201V526.201C1091.02 526.103 1091.04 526.011 1091.07 525.913C1091.1 525.815 1091.13 525.722 1091.16 525.624C1099.78 493.841 1079.08 460.253 1044.54 450.279C1021.36 443.587 997.796 449.222 981.881 463.161C980.134 461.889 978.341 460.684 976.501 459.544C994.86 441.823 1021.76 435.405 1047.38 442.804L1047.35 442.801ZM1071.33 520.211C1071.36 520.113 1071.38 520.021 1071.41 519.923C1077.33 497.529 1062.97 473.985 1038.92 467.042C1023.02 462.451 1006.84 466.265 995.691 475.768C995.32 475.342 994.952 474.93 994.576 474.496C993.087 472.853 991.526 471.284 989.912 469.768C1003.31 458.196 1022.91 453.536 1042.17 459.096C1071.25 467.493 1088.59 496.033 1081.15 523.047C1078.68 531.196 1074.09 538.545 1067.86 544.344C1065.8 541.752 1063.59 539.285 1061.23 536.956C1065.86 532.366 1069.3 526.718 1071.25 520.502C1071.31 520.408 1071.34 520.314 1071.36 520.214L1071.33 520.211ZM1055.06 515.514C1055.09 515.416 1055.11 515.323 1055.14 515.225C1058.44 501.887 1049.37 487.836 1034.49 483.538C1023.62 480.401 1012.61 483.323 1005.78 490.202C1004.38 487.65 1002.84 485.176 1001.18 482.79C1010.26 475.167 1023.68 472.166 1036.98 476.007C1056.82 481.736 1068.86 500.508 1064.15 518.139C1062.52 523.374 1059.5 528.07 1055.41 531.731C1053.01 529.771 1050.5 527.947 1047.89 526.266C1051.16 523.489 1053.61 519.873 1054.97 515.808V515.808C1055.04 515.71 1055.06 515.614 1055.09 515.516L1055.06 515.514ZM1045.09 512.636C1043.86 516.158 1041.32 519.073 1038 520.783C1030.44 517.228 1022.41 514.784 1014.15 513.528C1013.29 508.961 1012.02 504.48 1010.36 500.138C1013.96 493.546 1022.75 490.309 1031.47 492.826C1041.15 495.613 1047.12 504.394 1045.12 512.639L1045.09 512.636ZM943.784 484.578C928.283 480.102 912.512 483.619 901.4 492.6C899.499 490.557 897.495 488.614 895.394 486.777C908.78 475.596 928.052 471.153 947.029 476.633C966.475 482.247 980.656 496.863 985.706 514.011C982.469 514.63 979.27 515.441 976.129 516.44C972.163 501.843 960.258 489.329 943.815 484.581L943.784 484.578ZM968.758 519.181C966.874 519.987 965.015 520.857 963.188 521.811C962.225 522.308 961.282 522.824 960.346 523.36C958.695 513.35 950.729 504.33 939.349 501.044C929.118 498.09 918.773 500.517 911.89 506.549C910.424 504.09 908.831 501.709 907.119 499.415C916.145 492.438 929.066 489.824 941.843 493.513C955.485 497.477 965.411 507.551 968.788 519.184L968.758 519.181ZM949.465 467.828C926.452 461.183 903.057 466.693 887.146 480.42C885.335 479.197 883.481 478.037 881.584 476.939C899.86 459.375 926.848 453.009 952.246 460.342C977.863 467.739 997.359 487.714 1003.3 512.591C1000.82 512.542 998.301 512.59 995.79 512.753C989.927 492.182 972.877 474.588 949.465 467.828ZM872.287 436.698C861.421 433.561 850.413 436.484 843.58 443.362C842.18 440.811 840.643 438.337 838.977 435.951C848.059 428.327 861.479 425.326 874.781 429.167C887.523 432.846 897.042 441.902 900.982 452.585C898.157 453.701 895.396 454.974 892.713 456.398C890.206 447.448 882.679 439.699 872.287 436.698ZM883.277 462.281C879.193 465.233 875.402 468.57 871.956 472.246C865.537 469.601 858.825 467.736 851.961 466.692C851.099 462.125 849.83 457.644 848.172 453.302C851.776 446.71 860.567 443.472 869.285 445.99C877.541 448.373 883.107 455.181 883.26 462.276L883.277 462.281ZM781.597 437.742C766.095 433.266 750.325 436.782 739.212 445.763C737.312 443.721 735.307 441.777 733.206 439.941C746.593 428.76 765.865 424.317 784.842 429.796C804.287 435.411 818.469 450.026 823.519 467.174C820.281 467.793 817.083 468.604 813.942 469.604C809.928 454.999 798.023 442.485 781.58 437.737L781.597 437.742ZM806.57 472.345C804.686 473.151 802.828 474.021 801.001 474.975C800.038 475.472 799.095 475.987 798.158 476.523C796.507 466.514 788.541 457.494 777.162 454.208C766.931 451.254 756.585 453.68 749.702 459.713C748.236 457.254 746.644 454.872 744.932 452.578C753.958 445.601 766.878 442.987 779.655 446.676C793.249 450.633 803.176 460.706 806.553 472.34L806.57 472.345ZM787.23 420.984C764.217 414.339 740.822 419.849 724.911 433.576C723.1 432.353 721.246 431.193 719.349 430.095C737.624 412.531 764.613 406.165 790.011 413.498C815.628 420.895 835.123 440.87 841.069 465.747C838.582 465.698 836.066 465.746 833.554 465.909C827.691 445.338 810.642 427.744 787.23 420.984ZM710.052 389.854C699.186 386.717 688.184 389.641 681.345 396.518C680.968 395.828 680.581 395.134 680.176 394.455C679.105 392.621 677.957 390.833 676.753 389.091C685.832 381.473 699.251 378.478 712.547 382.317C725.289 385.996 734.809 395.052 738.748 405.735C735.923 406.851 733.162 408.125 730.479 409.549C727.97 400.604 720.444 392.855 710.052 389.854ZM721.043 415.432C716.96 418.387 713.168 421.725 709.72 425.402C706.772 424.189 703.76 423.138 700.697 422.253C697.1 421.214 693.44 420.409 689.739 419.845C688.873 415.269 687.599 410.78 685.932 406.431C689.544 399.854 698.321 396.625 707.033 399.14C715.306 401.529 720.871 408.337 721.026 415.427L721.043 415.432ZM647.647 412.948C647.573 412.814 647.505 412.682 647.429 412.554C647.237 412.224 647.037 411.897 646.837 411.571L646.672 411.298C646.434 410.908 646.189 410.525 645.935 410.147L645.878 410.062C639.874 401.171 631.037 394.572 620.804 391.339C620.829 391.253 620.854 391.166 620.879 391.08L621.126 390.226L621.379 389.349C621.943 387.242 622.405 385.125 622.786 383.004L622.924 383.044C623.502 383.21 624.114 383.387 624.697 383.599L625.159 383.733C625.649 383.874 626.125 384.068 626.6 384.243L627.166 384.45L628.486 384.968L629.045 385.199C629.469 385.377 629.887 385.554 630.307 385.744L630.861 385.992L632.116 386.585L632.665 386.85C633.108 387.072 633.549 387.299 633.982 387.531L634.4 387.751C634.941 388.045 635.48 388.344 636.015 388.655L636.085 388.675C636.652 389.008 637.21 389.35 637.76 389.697L638.114 389.924C638.526 390.186 638.942 390.457 639.343 390.735L639.916 391.132C640.245 391.358 640.568 391.583 640.882 391.817L641.527 392.291L642.377 392.943C642.609 393.116 642.833 393.293 643.055 393.476L643.824 394.104L644.519 394.686L645.218 395.3C645.457 395.513 645.72 395.727 645.923 395.935C646.125 396.144 646.342 396.325 646.548 396.522C646.753 396.719 647.04 396.983 647.278 397.221L647.764 397.705C648.771 398.721 649.74 399.763 650.661 400.842L650.894 401.115C651.178 401.454 651.451 401.788 651.727 402.131C651.822 402.258 651.924 402.381 652.026 402.505C652.291 402.844 652.55 403.181 652.811 403.532L653.101 403.915L653.859 404.972L654.11 405.338C654.366 405.706 654.621 406.08 654.863 406.456L655.058 406.756C655.316 407.161 655.57 407.56 655.821 407.97L655.909 408.12C657.621 410.957 659.061 413.949 660.209 417.057L660.24 417.141C660.424 417.632 660.581 418.127 660.756 418.628L660.805 418.761C660.968 419.258 661.142 419.758 661.269 420.251L661.259 420.286C658.021 420.904 654.823 421.716 651.682 422.715L651.644 422.585L651.408 421.779L651.225 421.177L650.972 420.409L650.759 419.779C650.673 419.536 650.586 419.298 650.487 419.076C650.389 418.853 650.323 418.628 650.23 418.408C650.137 418.187 650.054 417.957 649.961 417.736L649.66 417.024L649.387 416.408L649.029 415.679L648.763 415.127L648.37 414.32L648.117 413.834C647.961 413.527 647.797 413.229 647.629 412.943L647.647 412.948ZM644.335 425.501C642.451 426.307 640.592 427.177 638.766 428.131C637.803 428.628 636.86 429.143 635.923 429.679L635.906 429.587C635.869 429.37 635.829 429.158 635.79 428.928L635.711 428.53L635.571 427.865L635.476 427.5C635.283 426.762 635.057 426.028 634.803 425.305C634.758 425.179 634.713 425.054 634.66 424.932C634.608 424.811 634.503 424.524 634.424 424.32L634.262 423.93L633.998 423.328C633.945 423.207 633.885 423.09 633.827 422.967C633.652 422.597 633.468 422.238 633.274 421.869L633.085 421.508L632.773 420.962L632.528 420.554L632.204 420.029L631.932 419.607L631.536 419.161L631.193 418.68C631.008 418.433 630.828 418.188 630.636 417.944C630.513 417.784 630.387 417.616 630.257 417.46C630.127 417.304 630.02 417.173 629.899 417.032L629.519 416.591L629.151 416.178L628.715 415.715L628.369 415.352C628.118 415.098 627.86 414.843 627.593 414.597L627.297 414.324L626.73 413.816L626.358 413.502L625.813 413.051L625.435 412.755L624.794 412.269L624.494 412.052C624.178 411.823 623.865 411.608 623.539 411.395L623.238 411.201L622.518 410.75L622.132 410.526L621.429 410.123L621.077 409.89C620.78 409.729 620.479 409.58 620.178 409.43L619.988 409.331C619.619 409.156 619.249 408.987 618.883 408.825L618.548 408.685C618.275 408.568 617.991 408.449 617.72 408.346L617.322 408.187L616.483 407.888L616.107 407.78C615.703 407.663 615.302 407.516 614.892 407.398C614.482 407.279 614.153 407.184 613.789 407.079C615.159 404.747 616.402 402.344 617.513 399.878C617.987 400.015 618.46 400.151 618.928 400.287L619.072 400.328C619.488 400.448 619.886 400.607 620.287 400.754L620.536 400.826L621.662 401.257L621.925 401.365L623.038 401.842L623.265 401.945C623.658 402.121 624.044 402.301 624.426 402.493L624.542 402.526C625.402 402.95 626.234 403.403 627.054 403.877L627.147 403.904C627.505 404.113 627.862 404.329 628.211 404.549L628.512 404.742C628.796 404.915 629.069 405.094 629.333 405.279L629.709 405.537C629.955 405.702 630.188 405.869 630.425 406.044L630.833 406.343L631.485 406.838L631.903 407.165L632.511 407.659L632.934 408.013L633.512 408.523C633.816 408.792 634.118 409.067 634.407 409.344L634.797 409.707L635.36 410.27L635.689 410.602L636.254 411.203L636.54 411.511L637.105 412.155L637.344 412.43L637.925 413.129L638.089 413.339L638.696 414.14L638.736 414.151C641.271 417.563 643.162 421.407 644.318 425.496L644.335 425.501ZM664.961 404.433L664.873 404.283C664.573 403.783 664.265 403.288 663.953 402.767L663.746 402.444C663.449 401.977 663.138 401.519 662.826 401.06L662.557 400.67C662.248 400.224 661.931 399.783 661.613 399.347L661.321 398.95L660.322 397.643L660.06 397.317C659.701 396.87 659.338 396.415 658.965 395.976C657.745 394.523 656.462 393.111 655.116 391.739C654.973 391.604 654.84 391.459 654.703 391.326C654.38 390.999 654.042 390.676 653.688 390.357L653.084 389.783L652.088 388.902L651.384 388.286L650.424 387.471L649.615 386.875C649.302 386.616 648.98 386.366 648.659 386.111L647.812 385.473C647.499 385.233 647.185 384.998 646.864 384.768C646.543 384.538 646.236 384.324 645.924 384.103L645.014 383.465C644.621 383.201 644.224 382.949 643.83 382.691L642.814 382.048C642.285 381.714 641.755 381.386 641.221 381.069L640.424 380.621C640.016 380.39 639.609 380.154 639.191 379.933L638.312 379.467C637.916 379.258 637.513 379.049 637.108 378.85L636.198 378.406C635.792 378.208 635.385 378.015 634.97 377.827L634.044 377.416C633.624 377.225 633.194 377.045 632.77 376.866L631.848 376.488C631.399 376.308 630.949 376.134 630.491 375.965C630.191 375.878 629.929 375.746 629.611 375.635C629.107 375.452 628.596 375.273 628.088 375.102L627.327 374.813C626.554 374.59 625.786 374.325 625.03 374.106C624.643 373.995 624.262 373.885 623.875 373.773C624.01 371.063 624 368.348 623.847 365.638C624.521 365.796 625.176 365.953 625.822 366.121C626.467 366.289 627.109 366.493 627.756 366.68C628.622 366.93 629.488 367.18 630.327 367.478L631.033 367.72C631.668 367.903 632.287 368.144 632.903 368.372L633.59 368.633C634.233 368.875 634.875 369.123 635.507 369.38L635.999 369.585C636.74 369.899 637.474 370.217 638.222 370.552L638.354 370.59C659.09 380.097 673.792 398.282 678.782 418.888C676.296 418.833 673.812 418.886 671.33 419.049C671.333 419.033 671.338 419.018 671.343 419.003C671.175 418.417 670.995 417.827 670.806 417.247L670.74 417.041C670.551 416.461 670.356 415.88 670.146 415.307L670.088 415.14C668.725 411.416 667.008 407.83 664.961 404.433V404.433ZM643.028 319.743C655.499 323.344 664.879 332.104 668.984 342.497C666.201 343.708 663.488 345.074 660.859 346.589C658.258 337.812 650.794 330.237 640.558 327.281C630.824 324.471 620.98 326.523 614.116 331.924C613.776 331.307 613.442 330.685 613.081 330.074C611.999 328.233 610.848 326.442 609.628 324.702C618.556 318.434 630.852 316.228 643.028 319.743ZM604.115 317.628C602.281 315.525 600.344 313.516 598.31 311.607C611.597 301.441 630.066 297.591 648.235 302.838C666.531 308.12 680.168 321.372 685.923 337.205C682.705 337.848 679.527 338.677 676.406 339.689C671.687 326.374 660.33 315.213 644.99 310.783C630.169 306.504 615.112 309.52 604.115 317.628V317.628ZM637.533 336.566C645.812 338.957 651.358 345.765 651.511 352.86C648.394 355.298 645.469 357.97 642.761 360.854C639.928 359.564 637.028 358.43 634.071 357.458L633.702 357.351C632.763 357.049 631.823 356.752 630.87 356.477C630.027 356.234 629.179 355.989 628.317 355.79C627.895 355.668 627.464 355.581 627.037 355.477C626.743 355.392 626.452 355.339 626.145 355.275C624.913 354.99 623.68 354.734 622.445 354.507C621.509 349.921 620.165 345.428 618.427 341.082C622.729 336.43 630.154 334.435 637.533 336.566V336.566ZM665.484 376.061C678.892 364.504 698.48 359.852 717.723 365.409C736.499 370.83 750.362 384.641 755.841 401.019C752.871 401.506 749.929 402.151 747.027 402.95L746.219 403.192C741.712 389.469 730.159 377.882 714.478 373.354C698.584 368.765 682.403 372.576 671.262 382.067C669.44 379.968 667.512 377.963 665.484 376.061V376.061ZM805.263 366.587C817.734 370.188 827.114 378.948 831.219 389.341C828.436 390.552 825.724 391.918 823.094 393.433C820.493 384.656 813.029 377.081 802.793 374.126C793.053 371.313 783.206 373.377 776.347 378.785C774.969 376.304 773.464 373.896 771.838 371.57C780.763 365.289 793.07 363.067 805.263 366.587V366.587ZM766.287 364.516C764.454 362.416 762.517 360.41 760.475 358.5C773.766 348.298 792.266 344.425 810.459 349.678C828.755 354.961 842.392 368.213 848.147 384.046C844.929 384.689 841.751 385.518 838.629 386.53C833.911 373.215 822.554 362.053 807.214 357.624C792.376 353.34 777.295 356.374 766.287 364.516V364.516ZM799.768 383.41C808.047 385.801 813.593 392.609 813.746 399.704C810.625 402.147 807.693 404.821 804.975 407.705C798.493 404.739 791.666 402.593 784.652 401.318C783.722 396.75 782.385 392.274 780.658 387.944C784.961 383.285 792.384 381.278 799.768 383.41V383.41ZM827.696 422.923C841.1 411.353 860.704 406.693 879.958 412.253C898.734 417.674 912.597 431.485 918.076 447.863C915.106 448.35 912.164 448.995 909.262 449.794L908.455 450.036C903.948 436.313 892.394 424.726 876.713 420.199C860.813 415.607 844.625 419.422 833.475 428.924C833.11 428.499 832.741 428.087 832.366 427.653C830.876 426.01 829.315 424.441 827.696 422.923V422.923ZM967.499 413.432C979.969 417.032 989.349 425.792 993.454 436.185C990.671 437.396 987.959 438.762 985.33 440.277C982.729 431.5 975.265 423.925 965.028 420.97C955.288 418.157 945.441 420.221 938.58 425.635C937.205 423.151 935.701 420.74 934.073 418.414C942.998 412.133 955.305 409.911 967.499 413.432V413.432ZM928.522 411.36C926.689 409.26 924.752 407.254 922.71 405.344C936.001 395.142 954.502 391.269 972.694 396.522C990.99 401.805 1004.63 415.057 1010.38 430.89C1007.16 431.534 1003.98 432.362 1000.86 433.372C996.146 420.059 984.783 408.896 969.449 404.468C954.611 400.184 939.53 403.218 928.522 411.36V411.36ZM962.003 430.254C970.283 432.645 975.829 439.453 975.98 446.554C972.859 448.993 969.927 451.666 967.21 454.549C960.728 451.583 953.901 449.437 946.887 448.162C945.958 443.594 944.621 439.118 942.893 434.788C947.197 430.129 954.619 428.122 962.003 430.254V430.254ZM977.88 380.229C1002.13 387.231 1021.3 405.988 1028.1 429.286C1025.54 429.247 1022.99 429.325 1020.45 429.52C1013.82 410.315 997.339 394.093 975.111 387.675C952.998 381.29 930.523 386.127 914.698 398.692C912.908 397.396 911.066 396.166 909.171 395.002C927.346 378.89 953.591 373.216 977.88 380.229V380.229ZM885.145 395.96C910.375 403.245 929.581 422.618 935.895 446.87C933.343 446.741 930.795 446.728 928.251 446.831C922.003 426.899 905.215 410 882.376 403.405C859.201 396.714 835.632 402.348 819.717 416.287C817.97 415.016 816.176 413.81 814.337 412.671C832.625 394.979 859.522 388.561 885.145 395.96V395.96ZM815.645 333.385C839.893 340.387 859.065 359.144 865.867 382.442C863.306 382.403 860.754 382.481 858.213 382.676C851.58 363.471 835.104 347.249 812.876 340.831C790.763 334.446 768.288 339.283 752.463 351.848C750.673 350.552 748.83 349.322 746.935 348.158C765.111 332.046 791.356 326.372 815.645 333.385V333.385ZM722.909 349.116C748.139 356.401 767.346 375.774 773.66 400.026C771.108 399.897 768.56 399.884 766.015 399.987C759.767 380.055 742.98 363.156 720.14 356.561C696.971 349.871 673.417 355.497 657.5 369.423C655.759 368.158 653.963 366.956 652.111 365.817C670.397 348.13 697.292 341.719 722.909 349.116V349.116ZM653.409 286.541C677.658 293.543 696.83 312.299 703.632 335.598C701.07 335.559 698.519 335.637 695.977 335.832C689.345 316.627 672.868 300.405 650.64 293.987C628.545 287.651 606.113 292.425 590.274 304.974C588.498 303.686 586.675 302.47 584.803 301.325C602.502 285.757 628.295 279.29 653.409 286.541V286.541ZM560.674 302.272C598.554 313.209 621.21 351.375 611.172 387.333C607.509 399.56 600.349 410.449 590.573 418.66C589.698 416.882 588.746 415.126 587.716 413.391C587.463 412.949 587.2 412.516 586.931 412.082C595.129 405.116 601.169 395.957 604.343 385.68V385.68C604.371 385.582 604.398 385.489 604.426 385.391C604.455 385.293 604.481 385.201 604.51 385.103C613.136 353.319 592.436 319.732 557.893 309.758C534.718 303.066 511.15 308.7 495.234 322.639C493.487 321.368 491.694 320.163 489.855 319.023C508.154 301.291 535.051 294.873 560.674 302.272V302.272ZM584.652 379.682C584.68 379.584 584.707 379.491 584.735 379.393C590.657 356.999 576.295 333.455 552.249 326.512C536.348 321.921 520.16 325.736 509.016 335.239C508.645 334.813 508.276 334.4 507.901 333.967C506.411 332.324 504.851 330.754 503.237 329.238C516.636 317.667 536.239 313.007 555.494 318.566C584.575 326.963 601.91 355.504 594.473 382.517C592.004 390.667 587.417 398.015 581.18 403.815C579.122 401.222 576.91 398.755 574.557 396.426C579.18 391.834 582.614 386.186 584.563 379.969V379.969C584.609 379.875 584.63 379.782 584.652 379.682ZM568.382 374.984C568.411 374.886 568.437 374.794 568.466 374.696C571.76 361.357 562.695 347.306 547.811 343.009C536.945 339.871 525.937 342.794 519.103 349.672C517.703 347.112 516.165 344.629 514.496 342.234C523.577 334.611 536.997 331.61 550.299 335.451C570.143 341.18 582.18 359.952 577.471 377.583C575.836 382.818 572.816 387.514 568.73 391.175C566.326 389.221 563.815 387.402 561.209 385.727C564.477 382.95 566.924 379.335 568.288 375.269C568.339 375.178 568.354 375.082 568.382 374.984V374.984ZM558.417 372.107C557.181 375.629 554.643 378.544 551.324 380.254C543.765 376.699 535.732 374.255 527.474 372.999C526.611 368.432 525.342 363.951 523.684 359.609C527.289 353.017 536.079 349.779 544.797 352.296C554.439 355.08 560.41 363.862 558.417 372.107V372.107ZM457.109 344.049C441.607 339.573 425.837 343.089 414.725 352.07C412.824 350.027 410.819 348.084 408.718 346.248C422.105 335.067 441.377 330.623 460.354 336.103C479.799 341.718 493.981 356.333 499.031 373.481C495.793 374.1 492.595 374.911 489.454 375.911C485.457 361.31 473.552 348.797 457.109 344.049V344.049ZM482.082 378.652C480.198 379.458 478.34 380.328 476.513 381.282C475.55 381.779 474.607 382.294 473.67 382.83C472.02 372.821 464.053 363.8 452.674 360.515C442.443 357.561 432.098 359.987 425.214 366.019C423.748 363.561 422.156 361.179 420.444 358.885C429.47 351.908 442.391 349.294 455.167 352.983C468.779 356.945 478.705 367.018 482.082 378.652V378.652ZM462.76 327.296C439.746 320.651 416.351 326.16 400.441 339.888C398.63 338.665 396.776 337.505 394.878 336.407C413.154 318.842 440.143 312.477 465.54 319.81C491.157 327.207 510.653 347.182 516.599 372.059C514.111 372.009 511.595 372.058 509.084 372.221C503.221 351.65 486.171 334.056 462.76 327.296ZM385.581 296.166C374.716 293.029 363.708 295.951 356.874 302.83C355.471 300.269 353.931 297.785 352.261 295.39C361.342 287.767 374.762 284.766 388.064 288.607C400.806 292.286 410.326 301.342 414.265 312.025C411.44 313.141 408.679 314.414 405.996 315.838C403.5 306.916 395.974 299.167 385.581 296.166ZM396.571 321.749C392.487 324.701 388.696 328.038 385.25 331.714C378.832 329.069 372.119 327.204 365.256 326.159C364.393 321.593 363.124 317.112 361.466 312.769C365.071 306.178 373.862 302.94 382.579 305.457C390.836 307.841 396.401 314.649 396.554 321.744L396.571 321.749ZM294.891 297.21C279.389 292.734 263.619 296.25 252.507 305.231C250.606 303.188 248.601 301.245 246.501 299.409C259.887 288.228 279.159 283.784 298.136 289.264C317.581 294.879 331.763 309.494 336.813 326.642C333.575 327.261 330.377 328.072 327.236 329.071C323.222 314.466 311.317 301.952 294.874 297.205L294.891 297.21ZM319.865 331.813C317.98 332.619 316.122 333.489 314.295 334.443C313.332 334.94 312.389 335.455 311.452 335.991C309.802 325.981 301.835 316.961 290.456 313.676C280.225 310.722 269.88 313.148 262.996 319.18C261.53 316.722 259.938 314.34 258.226 312.046C267.252 305.069 280.173 302.455 292.949 306.144C306.543 310.101 316.47 320.174 319.847 331.808L319.865 331.813ZM300.524 280.452C277.511 273.807 254.116 279.316 238.205 293.044C236.394 291.821 234.54 290.661 232.643 289.563C250.919 271.998 277.907 265.633 303.305 272.966C328.922 280.363 348.418 300.338 354.364 325.215C351.876 325.165 349.36 325.214 346.849 325.377C340.985 304.806 323.936 287.212 300.524 280.452ZM223.346 249.322C212.48 246.185 201.472 249.107 194.639 255.986C193.236 253.425 191.696 250.941 190.025 248.546C199.107 240.923 212.527 237.922 225.829 241.763C238.571 245.442 248.091 254.498 252.03 265.181C249.205 266.297 246.444 267.57 243.761 268.994C241.265 260.072 233.738 252.323 223.346 249.322ZM234.337 274.9C230.254 277.855 226.462 281.193 223.015 284.87C216.596 282.224 209.883 280.36 203.02 279.315C202.157 274.749 200.889 270.268 199.231 265.925C202.835 259.334 211.626 256.096 220.344 258.613C228.6 260.997 234.165 267.805 234.32 274.895L234.337 274.9ZM184.546 241.551C184.18 241.126 183.812 240.714 183.436 240.28C181.947 238.637 180.386 237.068 178.772 235.552C192.171 223.98 211.774 219.32 231.029 224.88C249.804 230.301 263.668 244.112 269.147 260.49C266.177 260.977 263.235 261.622 260.333 262.421L259.525 262.663C255.018 248.941 243.465 237.353 227.784 232.826C211.872 228.231 195.682 232.052 184.534 241.547L184.546 241.551ZM318.558 226.055C331.028 229.656 340.408 238.416 344.513 248.808C341.73 250.02 339.018 251.386 336.388 252.901C333.788 244.124 326.323 236.549 316.087 233.593C306.347 230.781 296.5 232.845 289.641 238.253C288.263 235.772 286.758 233.363 285.132 231.038C294.057 224.757 306.364 222.535 318.558 226.055ZM279.581 223.984C277.748 221.884 275.811 219.878 273.769 217.968C287.06 207.765 305.56 203.893 323.764 209.149C342.06 214.432 355.698 227.684 361.453 243.517C358.225 244.156 355.038 244.983 351.906 245.992C347.208 232.671 335.831 221.516 320.508 217.092C305.67 212.808 290.589 215.842 279.581 223.984V223.984ZM313.062 242.878C321.341 245.268 326.888 252.077 327.041 259.172C323.92 261.615 320.988 264.289 318.269 267.173C311.787 264.207 304.96 262.061 297.946 260.786C297.016 256.218 295.68 251.742 293.952 247.412C298.255 242.753 305.678 240.746 313.062 242.878V242.878ZM340.996 282.392C354.395 270.821 373.998 266.161 393.253 271.721C412.028 277.142 425.892 290.953 431.37 307.331C428.4 307.818 425.458 308.463 422.557 309.262L421.749 309.503C417.242 295.781 405.689 284.194 390.008 279.666C374.107 275.075 357.919 278.89 346.769 288.391C346.404 287.967 346.035 287.554 345.66 287.121C344.17 285.478 342.61 283.908 340.996 282.392V282.392ZM480.793 272.899C493.264 276.5 502.644 285.26 506.748 295.653C503.966 296.864 501.253 298.23 498.624 299.745C496.023 290.968 488.559 283.393 478.322 280.437C468.582 277.625 458.736 279.689 451.875 285.103C450.499 282.619 448.995 280.208 447.367 277.882C456.292 271.601 468.599 269.379 480.793 272.899ZM441.817 270.828C439.984 268.728 438.046 266.722 436.004 264.812C449.295 254.61 467.796 250.737 486 255.993C504.296 261.276 517.933 274.528 523.688 290.361C520.461 291.002 517.273 291.828 514.141 292.836C509.444 279.516 498.066 268.36 482.743 263.936C467.905 259.652 452.824 262.686 441.817 270.828ZM475.298 289.722C483.577 292.112 489.123 298.921 489.274 306.022C486.153 308.461 483.221 311.134 480.505 314.017C474.022 311.051 467.195 308.905 460.182 307.63C459.252 303.062 457.915 298.586 456.187 294.256C460.491 289.597 467.913 287.59 475.298 289.722V289.722ZM491.174 239.697C515.423 246.699 534.595 265.455 541.397 288.754C538.839 288.716 536.288 288.794 533.742 288.988C527.109 269.783 510.633 253.561 488.405 247.143C466.293 240.758 443.817 245.595 427.992 258.16C426.202 256.864 424.36 255.634 422.465 254.47C440.64 238.358 466.885 232.684 491.174 239.697V239.697ZM398.439 255.428C423.669 262.713 442.876 282.086 449.19 306.337C446.637 306.209 444.089 306.196 441.545 306.299C435.307 286.42 418.498 269.508 395.658 262.914C372.483 256.222 348.914 261.856 332.999 275.795C331.252 274.524 329.459 273.319 327.62 272.179C345.919 254.446 372.816 248.029 398.439 255.428V255.428ZM328.939 192.853C353.187 199.855 372.359 218.611 379.161 241.91C376.604 241.872 374.052 241.95 371.507 242.144C364.874 222.939 348.398 206.717 326.17 200.299C304.057 193.914 281.582 198.751 265.757 211.316C263.967 210.02 262.124 208.79 260.23 207.626C278.405 191.514 304.65 185.84 328.939 192.853V192.853ZM236.203 208.584C261.434 215.869 280.64 235.242 286.954 259.493C284.402 259.365 281.854 259.352 279.309 259.455C273.071 239.576 256.263 222.664 233.423 216.07C210.248 209.378 186.679 215.012 170.764 228.951C169.017 227.68 167.224 226.475 165.384 225.335C183.683 207.602 210.581 201.185 236.203 208.584V208.584ZM153.846 186.748C138.962 182.45 123.802 189.506 119.48 202.548C119.451 202.646 119.425 202.738 119.396 202.836C119.368 202.934 119.341 203.027 119.313 203.125C118.556 206.211 118.441 209.42 118.974 212.553C116.073 212.601 113.177 212.798 110.297 213.142C109.573 208.893 109.764 204.539 110.857 200.371C116.271 182.943 136.461 173.477 156.311 179.208C168.782 182.809 178.162 191.568 182.266 201.961C179.483 203.172 176.771 204.539 174.142 206.054C171.529 197.273 164.065 189.698 153.846 186.748ZM164.823 212.333C161.696 214.773 158.758 217.446 156.034 220.329C147.486 216.422 138.357 213.94 129.008 212.981C128.249 210.568 128.158 207.995 128.744 205.535C131.454 197.491 141.179 193.248 150.821 196.032C159.106 198.424 164.652 205.233 164.805 212.328L164.823 212.333ZM102.509 197.96C102.48 198.058 102.454 198.15 102.426 198.248C101.007 203.603 100.717 209.195 101.575 214.668C98.8468 215.3 96.1526 216.07 93.503 216.976C92.2076 209.88 92.5289 202.584 94.4432 195.631C102.55 168.811 132.431 153.903 161.506 162.299C179.802 167.582 193.439 180.833 199.194 196.666C195.974 197.308 192.795 198.137 189.671 199.148C184.973 185.827 173.595 174.672 158.272 170.248C134.232 163.306 109.529 175.552 102.604 197.675C102.558 197.768 102.537 197.862 102.509 197.96ZM78.6238 191.063C89.3065 155.279 128.82 135.064 166.694 146C190.942 153.002 210.114 171.758 216.916 195.057C214.359 195.019 211.807 195.097 209.262 195.291C202.629 176.085 186.153 159.864 163.925 153.446C129.374 143.519 93.9619 160.905 84.319 192.395C84.2907 192.493 84.264 192.586 84.2357 192.684C84.2074 192.782 84.1807 192.874 84.1524 192.972C81.6735 202.136 81.5532 211.777 83.8028 221.001C83.2722 221.264 82.7455 221.529 82.2225 221.795C80.8183 222.521 79.4461 223.287 78.1035 224.081C75.4517 213.213 75.6302 201.847 78.6222 191.069L78.6238 191.063ZM103.487 356.237C65.6018 345.298 42.9457 307.132 52.9917 271.17C63.6727 235.392 103.186 215.177 141.06 226.113C166.677 233.509 186.172 253.485 192.118 278.362C189.631 278.312 187.115 278.361 184.603 278.523C178.75 257.961 161.7 240.368 138.289 233.608C103.74 223.632 68.3214 241.041 58.6851 272.508C58.6568 272.606 58.6302 272.699 58.6018 272.797C58.5735 272.895 58.5469 272.987 58.5185 273.085C49.8918 304.869 70.5863 338.455 105.135 348.43C106.919 348.945 108.707 349.381 110.489 349.751C110.31 352.446 110.275 355.149 110.385 357.847C108.051 357.436 105.737 356.893 103.497 356.246L103.487 356.237ZM93.7336 282.941C93.7053 283.039 93.6786 283.131 93.6503 283.229C90.3556 296.568 99.4212 310.618 114.305 314.916C116.55 315.56 118.859 315.955 121.19 316.091C119.693 318.538 118.336 321.068 117.126 323.669C115.531 323.402 113.954 323.044 112.4 322.598C92.5505 316.867 80.5134 298.095 85.2227 280.464C90.6363 263.037 110.827 253.57 130.676 259.302C144.296 263.234 154.222 273.308 157.6 284.941C155.716 285.747 153.857 286.617 152.03 287.571C151.067 288.068 150.124 288.584 149.188 289.12C147.537 279.11 139.57 270.09 128.191 266.804C113.307 262.507 98.1468 269.562 93.8244 282.604C93.777 282.747 93.7619 282.843 93.7336 282.941ZM132.639 250.361C108.598 243.419 83.8956 255.665 76.9698 277.788C76.9415 277.886 76.9148 277.978 76.8865 278.076C76.8582 278.174 76.8315 278.267 76.8032 278.365C70.8755 300.757 85.2433 324.303 109.284 331.244C110.774 331.674 112.264 332.017 113.753 332.297C113.653 332.643 113.526 332.975 113.42 333.32L113.172 334.179L112.92 335.051C112.424 336.912 111.999 338.783 111.643 340.664C110.361 340.382 109.076 340.067 107.8 339.698C78.719 331.301 61.3838 302.761 68.8209 275.747C76.9278 248.927 106.808 234.02 135.884 242.415C155.329 248.03 169.51 262.645 174.561 279.793C171.323 280.412 168.125 281.223 164.983 282.222C160.986 267.622 149.082 255.108 132.639 250.361V250.361ZM129.316 305.192C125.253 306.599 120.85 306.692 116.73 305.458C107.088 302.674 101.123 293.894 103.116 285.65C105.826 277.606 115.551 273.363 125.193 276.147C134.835 278.931 140.806 287.712 138.813 295.957C138.783 296.061 138.753 296.165 138.723 296.268C135.334 298.97 132.18 301.953 129.293 305.185L129.316 305.192ZM173.342 422.046C135.456 411.107 112.8 372.941 122.846 336.979C133.527 301.201 173.04 280.986 210.914 291.921C248.789 302.857 271.45 341.025 261.412 376.983C250.712 412.762 211.199 432.977 173.319 422.039L173.342 422.046ZM265.756 403.097C264.174 402.64 262.576 402.11 260.991 401.534C262.525 399.309 263.942 397.006 265.235 394.633C265.951 394.84 266.661 395.088 267.388 395.298C269.172 395.814 270.957 396.241 272.744 396.614C272.565 399.309 272.532 402.012 272.645 404.711C270.287 404.28 267.973 403.737 265.733 403.09L265.756 403.097ZM271.346 379.857L271.596 378.992C271.675 378.721 271.755 378.444 271.804 378.164C273.201 378.568 274.604 378.885 276.004 379.152C275.905 379.492 275.807 379.833 275.672 380.169L275.424 381.028L275.173 381.9C274.681 383.762 274.255 385.633 273.896 387.513C272.612 387.238 271.331 386.916 270.053 386.547L269.135 386.282C269.855 384.465 270.508 382.616 271.093 380.734L271.346 379.857ZM274.653 369.466C274.278 369.358 273.908 369.251 273.533 369.143C273.888 366.434 274.095 363.708 274.152 360.977C274.936 361.272 275.726 361.55 276.545 361.787C278.79 362.43 281.098 362.826 283.429 362.968C281.93 365.414 280.573 367.944 279.364 370.545C277.773 370.274 276.198 369.914 274.647 369.465L274.653 369.466ZM291.534 352.031C287.471 353.438 283.068 353.531 278.948 352.297C277.062 351.755 275.259 350.954 273.592 349.919C272.661 342.464 270.658 335.182 267.644 328.299C271.801 323.086 279.628 320.739 287.411 322.986C297.053 325.77 303.024 334.551 301.031 342.796C301.001 342.9 300.971 343.004 300.941 343.108C297.559 345.813 294.41 348.797 291.528 352.029L291.534 352.031ZM335.56 468.885C297.674 457.946 275.018 419.78 285.064 383.818C295.745 348.04 335.258 327.825 373.132 338.761C411.007 349.696 433.668 387.864 423.63 423.822C412.947 459.606 373.434 479.821 335.554 468.883L335.56 468.885ZM427.974 449.936C426.392 449.479 424.793 448.949 423.203 448.371C424.735 446.155 426.147 443.858 427.435 441.492C428.151 441.698 428.861 441.947 429.588 442.157C431.372 442.672 433.156 443.1 434.944 443.472C434.764 446.168 434.731 448.871 434.845 451.57C432.52 451.13 430.208 450.581 427.968 449.935L427.974 449.936ZM433.582 426.701L433.832 425.836C433.91 425.565 433.99 425.288 434.039 425.008C435.436 425.412 436.84 425.729 438.239 425.996C438.141 426.336 438.013 426.668 437.908 427.013L437.661 427.867L437.408 428.744C436.916 430.606 436.49 432.477 436.131 434.357C434.847 434.082 433.566 433.76 432.288 433.391L431.37 433.126C432.091 431.309 432.744 429.46 433.328 427.578L433.582 426.701ZM436.888 416.311C436.513 416.202 436.144 416.095 435.768 415.987C436.123 413.278 436.33 410.552 436.388 407.821C437.172 408.116 437.961 408.394 438.781 408.631C441.025 409.274 443.333 409.67 445.664 409.812C444.166 412.258 442.809 414.788 441.6 417.39C440.008 417.119 438.433 416.758 436.883 416.309L436.888 416.311ZM453.77 398.875C449.706 400.282 445.303 400.375 441.183 399.141C439.297 398.599 437.495 397.799 435.827 396.763C434.897 389.308 432.893 382.026 429.879 375.143C434.037 369.93 441.864 367.583 449.646 369.83C459.288 372.614 465.259 381.395 463.266 389.64C463.236 389.744 463.206 389.848 463.176 389.952C459.794 392.657 456.646 395.641 453.764 398.873L453.77 398.875ZM497.795 515.729C459.91 504.79 437.254 466.624 447.3 430.662C457.981 394.884 497.494 374.669 535.368 385.605C573.242 396.54 595.904 434.708 585.865 470.666C575.182 506.45 535.669 526.665 497.79 515.727L497.795 515.729ZM590.209 496.78C588.627 496.323 587.029 495.793 585.438 495.215C586.971 492.999 588.383 490.703 589.67 488.336C590.386 488.542 591.096 488.791 591.823 489.001C592.741 489.266 593.654 489.53 594.582 489.735C595.16 489.902 595.755 490.005 596.344 490.132L597.178 490.322C596.999 493.017 596.964 495.72 597.073 498.418C594.757 497.968 592.443 497.425 590.203 496.779L590.209 496.78ZM595.817 473.545L596.067 472.68C596.147 472.403 596.225 472.132 596.275 471.852L596.5 471.917C597.112 472.094 597.724 472.271 598.345 472.394C599.052 472.567 599.765 472.716 600.471 472.851C600.373 473.192 600.245 473.524 600.14 473.868L599.891 474.728L599.643 475.588C599.151 477.45 598.726 479.32 598.368 481.196L598.114 481.122C597.602 481.012 597.091 480.896 596.584 480.768C595.902 480.571 595.21 480.415 594.528 480.218C594.216 480.128 593.916 480.041 593.61 479.953C594.329 478.144 594.981 476.296 595.567 474.411L595.817 473.545ZM601.511 463.769L601.349 463.722L600.349 463.483C599.944 463.367 599.54 463.25 599.13 463.132C598.72 463.013 598.386 462.916 598.019 462.779C598.366 460.088 598.569 457.38 598.629 454.666C599.407 454.96 600.205 455.228 601.019 455.463C601.597 455.63 602.174 455.796 602.766 455.911C604.453 456.296 606.168 456.542 607.895 456.648C606.396 459.094 605.039 461.624 603.831 464.226C603.068 464.075 602.281 463.941 601.505 463.767L601.511 463.769ZM616.005 445.719C614.069 446.403 612.038 446.779 609.985 446.831V446.831C609.48 446.848 608.976 446.84 608.463 446.817L608.322 446.807C607.829 446.784 607.336 446.735 606.839 446.679L606.666 446.629C606.173 446.562 605.677 446.481 605.18 446.382L605.03 446.338C604.518 446.228 604.003 446.104 603.483 445.954C602.964 445.804 602.49 445.667 602.016 445.468C601.78 445.4 601.556 445.285 601.332 445.195C601.108 445.106 600.855 445.008 600.622 444.903C600.39 444.798 600.073 444.638 599.789 444.494L599.297 444.251C599.005 444.092 598.726 443.93 598.444 443.761L598.124 443.569C597.5 438.527 596.378 433.559 594.775 428.737C599.6 424.982 603.961 420.669 607.768 415.886C608.459 415.942 609.153 416.03 609.843 416.154L609.883 416.165C610.189 416.254 610.516 416.292 610.827 416.363C611.138 416.434 611.564 416.538 611.934 416.645C621.575 419.429 627.546 428.211 625.554 436.455C625.524 436.559 625.494 436.663 625.464 436.767C622.061 439.478 618.895 442.472 615.999 445.717L616.005 445.719ZM660.031 562.573C622.145 551.634 599.489 513.468 609.535 477.506C620.216 441.728 659.729 421.513 697.603 432.449C735.477 443.384 758.139 481.552 748.1 517.51C737.418 553.294 697.905 573.509 660.025 562.571L660.031 562.573ZM752.444 543.624C750.862 543.168 749.264 542.637 747.679 542.061C749.214 539.836 750.63 537.533 751.923 535.16C752.639 535.367 753.349 535.616 754.077 535.826C755.861 536.341 757.645 536.768 759.433 537.141C759.253 539.836 759.22 542.539 759.334 545.239C756.992 544.813 754.679 544.269 752.438 543.623L752.444 543.624ZM758.052 520.389L758.302 519.524C758.38 519.253 758.46 518.976 758.539 518.705C759.936 519.108 761.339 519.426 762.738 519.692C762.64 520.033 762.542 520.373 762.407 520.709L762.159 521.569L761.907 522.44C761.412 524.302 760.986 526.173 760.63 528.054C759.346 527.779 758.065 527.457 756.787 527.088L755.869 526.823C756.586 525.004 757.239 523.155 757.828 521.275L758.052 520.389ZM761.359 509.999C760.984 509.89 760.614 509.784 760.239 509.675C760.596 506.967 760.804 504.241 760.864 501.511C761.648 501.806 762.437 502.084 763.257 502.32C765.502 502.964 767.81 503.36 770.14 503.501C768.642 505.948 767.285 508.478 766.076 511.079C764.482 510.808 762.906 510.447 761.353 509.997L761.359 509.999ZM778.24 492.563C774.177 493.97 769.773 494.063 765.653 492.829C763.767 492.287 761.965 491.487 760.298 490.452C759.367 482.996 757.364 475.714 754.35 468.831C758.507 463.618 766.334 461.271 774.117 463.518C783.759 466.302 789.73 475.083 787.737 483.328C787.707 483.432 787.677 483.536 787.647 483.64C784.265 486.345 781.116 489.329 778.234 492.561L778.24 492.563ZM822.266 609.417C784.38 598.478 761.724 560.312 771.77 524.35C782.451 488.572 821.964 468.357 859.838 479.293C897.712 490.229 920.374 528.396 910.336 564.354C899.653 600.138 860.14 620.353 822.26 609.416L822.266 609.417ZM914.68 590.468C913.098 590.012 911.499 589.481 909.909 588.903C911.447 586.681 912.866 584.378 914.159 582.004C914.875 582.211 915.585 582.46 916.312 582.67C918.096 583.185 919.88 583.612 921.668 583.985C921.488 586.68 921.455 589.383 921.569 592.083C919.226 591.662 916.914 591.113 914.674 590.467L914.68 590.468ZM920.288 567.234L920.537 566.368C920.616 566.097 920.696 565.82 920.774 565.549C922.171 565.952 923.574 566.27 924.974 566.536C924.875 566.877 924.777 567.217 924.642 567.553L924.396 568.407L924.143 569.284C923.647 571.146 923.221 573.017 922.866 574.898C921.582 574.623 920.301 574.301 919.023 573.932L918.105 573.667C918.822 571.849 919.474 569.999 920.063 568.119L920.288 567.234ZM923.594 556.843C923.219 556.734 922.85 556.628 922.474 556.519C922.831 553.811 923.04 551.086 923.099 548.355C923.883 548.65 924.672 548.928 925.492 549.164C927.737 549.808 930.045 550.204 932.376 550.345C930.877 552.792 929.52 555.322 928.311 557.923C926.718 557.652 925.141 557.291 923.588 556.841L923.594 556.843ZM940.475 539.407C936.412 540.814 932.009 540.907 927.889 539.673C926.003 539.131 924.2 538.331 922.533 537.296C921.602 529.84 919.599 522.558 916.585 515.675C920.743 510.462 928.57 508.115 936.352 510.362C945.994 513.146 951.965 521.927 949.972 530.172C949.942 530.276 949.912 530.38 949.882 530.484C946.5 533.189 943.352 536.173 940.47 539.405L940.475 539.407ZM984.501 656.261C946.615 645.322 923.959 607.156 934.005 571.194C944.686 535.416 984.199 515.201 1022.07 526.137C1059.95 537.073 1082.61 575.24 1072.57 611.198C1061.89 646.982 1022.38 667.197 984.495 656.26L984.501 656.261ZM1146.74 703.105C1108.85 692.166 1086.19 654 1096.24 618.038C1106.92 582.26 1146.43 562.045 1184.31 572.981C1222.18 583.917 1244.84 622.084 1234.81 658.042C1224.12 693.826 1184.61 714.041 1146.73 703.104L1146.74 703.105ZM1239.15 684.156C1237.57 683.7 1235.97 683.169 1234.38 682.593C1235.92 680.369 1237.34 678.065 1238.63 675.692C1239.35 675.899 1240.06 676.148 1240.78 676.358C1242.57 676.873 1244.35 677.301 1246.14 677.673C1245.96 680.368 1245.93 683.072 1246.04 685.771C1243.7 685.345 1241.38 684.802 1239.14 684.155L1239.15 684.156ZM1244.76 660.922L1245.01 660.056C1245.09 659.785 1245.17 659.508 1245.24 659.237C1246.64 659.64 1248.04 659.958 1249.44 660.224C1249.35 660.565 1249.22 660.897 1249.11 661.241L1248.86 662.101L1248.61 662.972C1248.12 664.834 1247.69 666.705 1247.34 668.586C1246.05 668.311 1244.77 667.989 1243.49 667.62L1242.58 667.355C1243.29 665.537 1243.94 663.687 1244.53 661.807L1244.76 660.922ZM1248.06 650.531C1247.69 650.422 1247.32 650.316 1246.94 650.207C1247.3 647.499 1247.51 644.774 1247.57 642.043C1248.35 642.338 1249.14 642.616 1249.96 642.852C1252.21 643.496 1254.52 643.892 1256.85 644.034C1255.35 646.48 1253.99 649.01 1252.78 651.611C1251.19 651.34 1249.61 650.979 1248.06 650.529L1248.06 650.531ZM1264.95 633.095C1260.88 634.502 1256.48 634.595 1252.36 633.361C1250.47 632.819 1248.67 632.019 1247 630.984C1246.07 623.529 1244.07 616.246 1241.06 609.363C1245.21 604.15 1253.04 601.803 1260.82 604.05C1270.46 606.834 1276.44 615.616 1274.44 623.86C1274.41 623.964 1274.38 624.068 1274.35 624.172C1270.97 626.877 1267.82 629.861 1264.94 633.093L1264.95 633.095ZM1308.97 749.949C1271.09 739.01 1248.43 700.844 1258.48 664.883C1269.16 629.104 1308.67 608.889 1346.54 619.825C1384.42 630.761 1407.08 668.928 1397.04 704.886C1386.36 740.67 1346.85 760.885 1308.97 749.948L1308.97 749.949ZM1401.39 731C1399.8 730.544 1398.21 730.013 1396.61 729.435C1398.15 727.213 1399.57 724.91 1400.86 722.536C1401.58 722.743 1402.29 722.992 1403.02 723.202C1404.8 723.717 1406.59 724.145 1408.37 724.517C1408.19 727.212 1408.16 729.916 1408.27 732.615C1405.93 732.194 1403.62 731.646 1401.38 730.999L1401.39 731ZM1406.99 707.766L1407.24 706.9C1407.32 706.629 1407.4 706.352 1407.48 706.081C1408.88 706.484 1410.28 706.802 1411.68 707.068C1411.58 707.409 1411.45 707.741 1411.35 708.085L1411.1 708.939L1410.85 709.816C1410.35 711.678 1409.93 713.549 1409.57 715.43C1408.29 715.155 1407.01 714.833 1405.73 714.464L1404.81 714.199C1405.53 712.381 1406.18 710.531 1406.77 708.651L1406.99 707.766ZM1410.3 697.375C1409.92 697.266 1409.56 697.16 1409.18 697.051C1409.54 694.343 1409.75 691.618 1409.8 688.887C1410.59 689.182 1411.38 689.46 1412.2 689.697C1414.44 690.34 1416.75 690.736 1419.08 690.878C1417.58 693.324 1416.23 695.854 1415.02 698.456C1413.42 698.184 1411.85 697.823 1410.29 697.373L1410.3 697.375ZM1427.18 679.939C1423.12 681.346 1418.71 681.439 1414.59 680.206C1412.71 679.663 1410.91 678.863 1409.24 677.828C1408.31 670.373 1406.3 663.09 1403.29 656.207C1407.45 650.994 1415.28 648.647 1423.06 650.894C1432.7 653.678 1438.67 662.46 1436.68 670.704C1436.65 670.808 1436.62 670.912 1436.59 671.016C1433.21 673.721 1430.06 676.705 1427.18 679.938L1427.18 679.939ZM1471.21 796.793C1433.32 785.854 1410.67 747.689 1420.71 711.727C1431.39 675.948 1470.91 655.733 1508.78 666.669C1546.65 677.605 1569.32 715.772 1559.28 751.73C1548.59 787.514 1509.08 807.729 1471.2 796.792L1471.21 796.793ZM1568.14 709.839C1572.97 706.085 1577.33 701.771 1581.14 696.988C1582.55 697.099 1583.94 697.351 1585.3 697.74C1594.94 700.524 1600.91 709.305 1598.92 717.55C1596.21 725.594 1586.48 729.835 1576.84 727.051C1574.95 726.509 1573.15 725.709 1571.48 724.674C1570.86 719.631 1569.74 714.662 1568.14 709.838L1568.14 709.839ZM1569.23 754.61L1569.48 753.744C1569.56 753.467 1569.64 753.196 1569.72 752.925C1593.68 759.7 1618.21 747.448 1625.12 725.429C1625.15 725.331 1625.18 725.238 1625.21 725.14C1625.23 725.042 1625.26 724.95 1625.29 724.852C1631.09 702.905 1617.41 679.868 1594.23 672.42C1594.26 672.328 1594.28 672.241 1594.31 672.149L1594.55 671.295L1594.81 670.418C1595.37 668.312 1595.83 666.195 1596.21 664.073C1625.19 672.533 1642.44 701.016 1635.01 727.972C1626.91 754.793 1597.03 769.7 1567.95 761.305L1567.03 761.04C1567.75 759.221 1568.4 757.372 1568.99 755.492L1569.23 754.61ZM1617.98 723.055C1612.57 740.482 1592.38 749.949 1572.54 744.219C1572.16 744.111 1571.79 744.004 1571.42 743.896C1571.77 741.187 1571.98 738.462 1572.04 735.731C1572.82 736.026 1573.61 736.304 1574.43 736.541C1589.32 740.838 1604.48 733.782 1608.8 720.741C1608.83 720.643 1608.85 720.55 1608.88 720.452C1608.91 720.354 1608.94 720.262 1608.97 720.164C1612.26 706.825 1603.2 692.774 1588.31 688.477C1587.94 688.37 1587.57 688.263 1587.2 688.193C1588.57 685.857 1589.81 683.45 1590.93 680.98C1610.72 686.733 1622.68 705.458 1617.98 723.053L1617.98 723.055ZM1563.62 777.845C1562.04 777.388 1560.44 776.858 1558.85 776.279C1560.39 774.057 1561.81 771.754 1563.1 769.38C1563.82 769.587 1564.53 769.836 1565.25 770.046C1599.8 780.02 1635.22 762.613 1644.86 731.146C1644.89 731.047 1644.91 730.955 1644.94 730.857C1644.97 730.759 1645 730.667 1645.02 730.569C1653.65 698.785 1632.95 665.197 1598.41 655.223C1598.02 655.112 1597.64 655.002 1597.25 654.89C1597.4 652.172 1597.41 649.448 1597.26 646.729C1598.61 647.043 1599.9 647.373 1601.18 647.741C1639.06 658.679 1661.72 696.845 1651.68 732.803C1641.01 768.565 1601.49 788.78 1563.61 777.843L1563.62 777.845Z" fill="url(#paint9_linear_574_2)" fill-opacity="0.1"/>
<path d="M208.111 299.401C173.562 289.425 138.143 306.834 128.507 338.301C128.478 338.399 128.452 338.491 128.423 338.59C128.395 338.688 128.368 338.78 128.34 338.878C119.713 370.662 140.408 404.248 174.957 414.223C209.505 424.199 244.924 406.79 254.56 375.323C254.589 375.225 254.615 375.133 254.644 375.035C254.672 374.936 254.699 374.844 254.727 374.746C263.354 342.963 242.653 309.375 208.111 299.401ZM177.628 405.493C148.546 397.096 131.211 368.556 138.648 341.542C146.755 314.722 176.636 299.814 205.711 308.21C234.786 316.605 252.127 345.147 244.69 372.161C236.578 398.979 206.697 413.887 177.628 405.493Z" fill="url(#paint10_linear_574_2)" fill-opacity="0.1"/>
<path d="M202.46 316.154C178.419 309.212 153.717 321.458 146.791 343.581C146.763 343.679 146.736 343.771 146.708 343.869C146.68 343.967 146.653 344.06 146.625 344.158C140.697 366.55 155.065 390.096 179.106 397.037C203.147 403.979 227.849 391.733 234.78 369.612C234.809 369.514 234.835 369.421 234.864 369.323C234.892 369.225 234.919 369.133 234.947 369.035C240.869 346.641 226.507 323.097 202.46 316.154ZM182.222 388.41C162.373 382.679 150.336 363.907 155.045 346.276C160.459 328.849 180.649 319.382 200.499 325.114C220.348 330.845 232.379 349.615 227.67 367.246C222.268 384.677 202.077 394.143 182.234 388.414L182.222 388.41Z" fill="url(#paint11_linear_574_2)" fill-opacity="0.1"/>
<path d="M198.034 332.653C183.15 328.356 167.99 335.412 163.667 348.453C163.639 348.551 163.612 348.644 163.584 348.742C163.556 348.84 163.529 348.932 163.501 349.03C160.206 362.369 169.272 376.42 184.156 380.717C199.04 385.015 214.2 377.959 218.522 364.917C218.551 364.819 218.577 364.727 218.605 364.629C218.634 364.531 218.66 364.438 218.689 364.34C221.966 350.997 212.901 336.946 198.034 332.653ZM186.577 371.227C176.935 368.443 170.97 359.663 172.963 351.419C175.673 343.375 185.399 339.132 195.04 341.916C204.682 344.7 210.653 353.481 208.66 361.726C205.924 369.794 196.193 374.035 186.551 371.251L186.577 371.227Z" fill="url(#paint12_linear_574_2)" fill-opacity="0.1"/>
<path d="M370.346 346.245C335.797 336.269 300.378 353.678 290.742 385.145C290.714 385.243 290.687 385.336 290.659 385.434C290.63 385.532 290.604 385.624 290.575 385.722C281.949 417.506 302.643 451.092 337.192 461.067C371.74 471.043 407.159 453.634 416.796 422.167C416.824 422.069 416.851 421.977 416.879 421.879C416.907 421.781 416.934 421.688 416.962 421.59C425.589 389.807 404.889 356.219 370.346 346.245ZM339.863 452.337C310.782 443.94 293.446 415.4 300.884 388.386C308.991 361.566 338.871 346.658 367.946 355.054C397.022 363.449 414.363 391.991 406.925 419.005C398.813 445.823 368.932 460.731 339.863 452.337Z" fill="url(#paint13_linear_574_2)" fill-opacity="0.1"/>
<path d="M364.696 362.998C340.655 356.056 315.952 368.302 309.027 390.425C308.998 390.523 308.972 390.615 308.943 390.713C308.915 390.811 308.888 390.904 308.86 391.002C302.932 413.394 317.3 436.94 341.341 443.881C365.382 450.823 390.084 438.577 397.016 416.456C397.044 416.358 397.071 416.265 397.099 416.167C397.127 416.069 397.154 415.977 397.182 415.879C403.104 393.485 388.742 369.941 364.696 362.998ZM344.458 435.254C324.608 429.523 312.571 410.751 317.28 393.12C322.694 375.693 342.885 366.226 362.734 371.958C382.583 377.689 394.614 396.459 389.905 414.09C384.503 431.521 364.313 440.987 344.469 435.258L344.458 435.254Z" fill="url(#paint14_linear_574_2)" fill-opacity="0.1"/>
<path d="M360.269 379.497C345.385 375.2 330.225 382.256 325.903 395.297C325.874 395.396 325.848 395.488 325.819 395.586C325.791 395.684 325.764 395.776 325.736 395.874C322.441 409.213 331.507 423.264 346.391 427.561C361.275 431.859 376.435 424.803 380.758 411.761C380.786 411.663 380.812 411.571 380.841 411.473C380.869 411.375 380.896 411.282 380.924 411.184C384.201 397.841 375.136 383.79 360.269 379.497ZM348.812 418.071C339.17 415.287 333.205 406.508 335.198 398.263C337.908 390.219 347.634 385.976 357.276 388.76C366.917 391.544 372.888 400.325 370.896 408.57C368.16 416.638 358.428 420.879 348.787 418.095L348.812 418.071Z" fill="url(#paint15_linear_574_2)" fill-opacity="0.1"/>
<path d="M532.581 393.089C498.033 383.113 462.614 400.522 452.977 431.989C452.949 432.087 452.922 432.18 452.894 432.278C452.866 432.376 452.839 432.468 452.811 432.566C444.184 464.35 464.878 497.936 499.427 507.911C533.976 517.887 569.395 500.478 579.031 469.011C579.059 468.913 579.086 468.821 579.114 468.723C579.143 468.625 579.169 468.532 579.198 468.434C587.824 436.651 567.124 403.063 532.581 393.089ZM502.098 499.181C473.017 490.784 455.682 462.244 463.119 435.23C471.226 408.41 501.106 393.502 530.182 401.898C559.257 410.293 576.598 438.835 569.161 465.849C561.048 492.667 531.168 507.575 502.098 499.181Z" fill="url(#paint16_linear_574_2)" fill-opacity="0.1"/>
<path d="M526.931 409.842C502.89 402.9 478.188 415.146 471.262 437.269C471.234 437.367 471.207 437.459 471.179 437.557C471.15 437.655 471.124 437.748 471.095 437.846C465.168 460.238 479.536 483.784 503.576 490.725C527.617 497.667 552.319 485.421 559.251 463.3C559.279 463.202 559.306 463.109 559.334 463.011C559.363 462.913 559.389 462.821 559.418 462.723C565.339 440.329 550.977 416.785 526.931 409.842ZM506.693 482.098C486.843 476.367 474.806 457.595 479.516 439.964C484.929 422.537 505.12 413.071 524.969 418.802C544.818 424.533 556.85 443.303 552.14 460.934C546.738 478.365 526.548 487.831 506.704 482.102L506.693 482.098Z" fill="url(#paint17_linear_574_2)" fill-opacity="0.1"/>
<path d="M522.504 426.342C507.62 422.044 492.46 429.1 488.138 442.141C488.11 442.24 488.083 442.332 488.055 442.43C488.026 442.528 488 442.62 487.971 442.718C484.677 456.057 493.742 470.108 508.626 474.405C523.51 478.703 538.67 471.647 542.993 458.605C543.021 458.507 543.048 458.415 543.076 458.317C543.104 458.219 543.131 458.127 543.159 458.028C546.437 444.685 537.371 430.634 522.504 426.342ZM511.048 464.915C501.406 462.131 495.441 453.352 497.433 445.107C500.144 437.063 509.869 432.82 519.511 435.604C529.153 438.388 535.124 447.169 533.131 455.414C530.395 463.482 520.664 467.723 511.022 464.939L511.048 464.915Z" fill="url(#paint18_linear_574_2)" fill-opacity="0.1"/>
<path d="M694.816 439.933C660.268 429.957 624.849 447.366 615.213 478.833C615.184 478.931 615.158 479.024 615.129 479.122C615.101 479.22 615.074 479.312 615.046 479.41C606.419 511.194 627.114 544.78 661.662 554.755C696.211 564.731 731.63 547.322 741.266 515.855C741.295 515.757 741.321 515.665 741.349 515.567C741.378 515.469 741.404 515.376 741.433 515.278C750.06 483.495 729.359 449.907 694.816 439.933ZM664.333 546.025C635.252 537.628 617.917 509.088 625.354 482.074C633.461 455.254 663.342 440.346 692.417 448.742C721.492 457.137 738.833 485.679 731.396 512.693C723.283 539.511 693.403 554.419 664.333 546.025Z" fill="url(#paint19_linear_574_2)" fill-opacity="0.1"/>
<path d="M689.166 456.686C665.125 449.744 640.423 461.99 633.497 484.113C633.469 484.211 633.442 484.303 633.414 484.401C633.386 484.499 633.359 484.592 633.331 484.69C627.403 507.082 641.771 530.628 665.812 537.569C689.852 544.511 714.555 532.265 721.486 510.144C721.514 510.046 721.541 509.953 721.569 509.855C721.598 509.757 721.624 509.665 721.653 509.567C727.575 487.173 713.213 463.629 689.166 456.686ZM668.928 528.943C649.079 523.211 637.042 504.439 641.751 486.808C647.165 469.381 667.355 459.915 687.204 465.646C707.054 471.377 719.085 490.147 714.376 507.778C708.974 525.209 688.783 534.675 668.94 528.946L668.928 528.943Z" fill="url(#paint20_linear_574_2)" fill-opacity="0.1"/>
<path d="M684.74 473.186C669.856 468.888 654.696 475.944 650.373 488.986C650.345 489.084 650.318 489.176 650.29 489.274C650.262 489.372 650.235 489.464 650.207 489.563C646.912 502.901 655.978 516.952 670.862 521.249C685.746 525.547 700.906 518.491 705.228 505.45C705.256 505.351 705.283 505.259 705.311 505.161C705.34 505.063 705.366 504.971 705.395 504.873C708.672 491.529 699.606 477.478 684.74 473.186ZM673.283 511.759C663.641 508.975 657.676 500.196 659.669 491.951C662.379 483.907 672.104 479.664 681.746 482.448C691.388 485.232 697.359 494.013 695.366 502.258C692.63 510.326 682.899 514.567 673.257 511.783L673.283 511.759Z" fill="url(#paint21_linear_574_2)" fill-opacity="0.1"/>
<path d="M857.052 486.777C822.503 476.801 787.084 494.21 777.448 525.677C777.419 525.775 777.393 525.868 777.365 525.966C777.336 526.064 777.31 526.156 777.281 526.254C768.654 558.038 789.349 591.624 823.898 601.6C858.446 611.575 893.865 594.166 903.502 562.699C903.53 562.601 903.557 562.509 903.585 562.411C903.613 562.313 903.64 562.22 903.668 562.122C912.295 530.339 891.595 496.751 857.052 486.777ZM826.569 592.869C797.488 584.472 780.152 555.932 787.589 528.918C795.696 502.098 825.577 487.19 854.652 495.586C883.728 503.981 901.069 532.523 893.631 559.537C885.519 586.355 855.638 601.263 826.569 592.869Z" fill="url(#paint22_linear_574_2)" fill-opacity="0.1"/>
<path d="M851.401 503.53C827.36 496.588 802.658 508.834 795.733 530.957C795.704 531.055 795.678 531.147 795.649 531.245C795.621 531.343 795.594 531.436 795.566 531.534C789.638 553.926 804.006 577.472 828.047 584.413C852.088 591.355 876.79 579.109 883.722 556.988C883.75 556.89 883.777 556.798 883.805 556.699C883.833 556.601 883.86 556.509 883.888 556.411C889.81 534.017 875.448 510.473 851.401 503.53ZM831.163 575.787C811.314 570.055 799.277 551.283 803.986 533.653C809.4 516.225 829.59 506.759 849.44 512.49C869.289 518.221 881.32 536.991 876.611 554.622C871.209 572.053 851.018 581.52 831.175 575.79L831.163 575.787Z" fill="url(#paint23_linear_574_2)" fill-opacity="0.1"/>
<path d="M846.975 520.03C832.091 515.732 816.931 522.788 812.609 535.83C812.58 535.928 812.554 536.02 812.525 536.118C812.497 536.216 812.47 536.309 812.442 536.407C809.147 549.745 818.213 563.796 833.097 568.094C847.981 572.391 863.141 565.335 867.463 552.294C867.492 552.195 867.518 552.103 867.547 552.005C867.575 551.907 867.602 551.815 867.63 551.717C870.907 538.373 861.842 524.322 846.975 520.03ZM835.518 558.603C825.876 555.82 819.911 547.04 821.904 538.795C824.614 530.751 834.34 526.508 843.982 529.292C853.623 532.076 859.594 540.857 857.602 549.102C854.865 557.17 845.134 561.411 835.492 558.627L835.518 558.603Z" fill="url(#paint24_linear_574_2)" fill-opacity="0.1"/>
<path d="M1065.91 608.97C1074.54 577.186 1053.84 543.598 1019.3 533.624C984.756 523.65 949.331 541.058 939.695 572.525C939.667 572.623 939.64 572.715 939.612 572.813C939.583 572.911 939.557 573.004 939.528 573.102C930.901 604.885 951.596 638.471 986.145 648.447C1020.69 658.423 1056.11 641.014 1065.75 609.547C1065.78 609.449 1065.8 609.356 1065.83 609.258C1065.86 609.16 1065.89 609.068 1065.91 608.97ZM988.804 639.713C959.723 631.316 942.388 602.776 949.825 575.762C957.932 548.942 987.812 534.035 1016.89 542.43C1045.96 550.825 1063.3 579.367 1055.87 606.381C1047.75 633.199 1017.87 648.107 988.804 639.713Z" fill="url(#paint25_linear_574_2)" fill-opacity="0.1"/>
<path d="M1013.64 550.374C989.596 543.432 964.894 555.678 957.968 577.801C957.94 577.899 957.913 577.991 957.885 578.089C957.856 578.187 957.83 578.28 957.801 578.378C951.874 600.77 966.241 624.316 990.282 631.257C1014.32 638.199 1039.03 625.953 1045.96 603.832C1045.99 603.734 1046.01 603.642 1046.04 603.544C1046.07 603.445 1046.1 603.353 1046.12 603.255C1052.05 580.861 1037.68 557.317 1013.64 550.374ZM993.399 622.631C973.549 616.899 961.512 598.127 966.222 580.497C971.635 563.069 991.826 553.603 1011.67 559.334C1031.52 565.065 1043.56 583.836 1038.85 601.466C1033.44 618.897 1013.25 628.364 993.41 622.634L993.399 622.631Z" fill="url(#paint26_linear_574_2)" fill-opacity="0.1"/>
<path d="M1009.21 566.874C994.326 562.576 979.166 569.632 974.844 582.674C974.815 582.772 974.789 582.864 974.76 582.962C974.732 583.06 974.705 583.153 974.677 583.251C971.382 596.589 980.448 610.64 995.332 614.938C1010.22 619.235 1025.38 612.179 1029.7 599.138C1029.73 599.04 1029.75 598.947 1029.78 598.849C1029.81 598.751 1029.84 598.659 1029.87 598.561C1033.14 585.217 1024.08 571.166 1009.21 566.874ZM997.753 605.447C988.112 602.664 982.146 593.884 984.139 585.639C986.85 577.595 996.575 573.352 1006.22 576.136C1015.86 578.92 1021.83 587.701 1019.84 595.946C1017.1 604.014 1007.37 608.255 997.728 605.471L997.753 605.447Z" fill="url(#paint27_linear_574_2)" fill-opacity="0.1"/>
</g>
<g style="mix-blend-mode:multiply" opacity="0.6" filter="url(#filter1_f_574_2)">
<g style="mix-blend-mode:multiply" opacity="0.15">
<path d="M1237.5 388.458L1224 398.693L1201.5 391.869L1196 376.761L1213.73 95.6055H1239.92L1237.5 388.458Z" fill="#ED5135"/>
</g>
<g style="mix-blend-mode:multiply" opacity="0.15">
<path d="M1425 423.549C1425 423.549 1430.5 421.112 1444.5 421.112C1458.5 421.112 1469.5 425.011 1469.5 425.011L1444.7 95.6055H1418.54L1425 423.549Z" fill="#ED5135"/>
</g>
<g style="mix-blend-mode:multiply" opacity="0.15">
<path d="M1523.24 147.061H1144.43V177.933H1523.24V147.061Z" fill="#ED5135"/>
</g>
<g style="mix-blend-mode:multiply" opacity="0.15">
<path d="M1341.8 95.3047H1322.42V147.088H1341.8V95.3047Z" fill="#ED5135"/>
</g>
<g style="mix-blend-mode:multiply" opacity="0.15">
<path d="M1535.54 60.6514H1133.65V95.6406H1535.54V60.6514Z" fill="#ED5135"/>
</g>
<g style="mix-blend-mode:multiply" opacity="0.15">
<path d="M1089 1L1133.65 60.6521H1535.51L1574 1C1574 1 1332.3 110.013 1089 1Z" fill="#ED5135"/>
</g>
</g>
<defs>
<filter id="filter0_f_574_2" x="-1" y="99.5" width="1721.93" height="766.236" filterUnits="userSpaceOnUse" color-interpolation-filters="sRGB">
<feFlood flood-opacity="0" result="BackgroundImageFix"/>
<feBlend mode="normal" in="SourceGraphic" in2="BackgroundImageFix" result="shape"/>
<feGaussianBlur stdDeviation="0.5" result="effect1_foregroundBlur_574_2"/>
</filter>
<filter id="filter1_f_574_2" x="1088" y="0" width="487" height="426.011" filterUnits="userSpaceOnUse" color-interpolation-filters="sRGB">
<feFlood flood-opacity="0" result="BackgroundImageFix"/>
<feBlend mode="normal" in="SourceGraphic" in2="BackgroundImageFix" result="shape"/>
<feGaussianBlur stdDeviation="0.5" result="effect1_foregroundBlur_574_2"/>
</filter>
<linearGradient id="paint0_linear_574_2" x1="1181.52" y1="580.465" x2="1148.37" y2="695.288" gradientUnits="userSpaceOnUse">
<stop stop-color="#ED5135" stop-opacity="0.56"/>
<stop offset="1" stop-color="#ED5135"/>
</linearGradient>
<linearGradient id="paint1_linear_574_2" x1="1175.87" y1="597.219" x2="1152.52" y2="678.102" gradientUnits="userSpaceOnUse">
<stop stop-color="#ED5135" stop-opacity="0.56"/>
<stop offset="1" stop-color="#ED5135"/>
</linearGradient>
<linearGradient id="paint2_linear_574_2" x1="1171.45" y1="613.718" x2="1157.57" y2="661.782" gradientUnits="userSpaceOnUse">
<stop stop-color="#ED5135" stop-opacity="0.56"/>
<stop offset="1" stop-color="#ED5135"/>
</linearGradient>
<linearGradient id="paint3_linear_574_2" x1="1343.76" y1="627.309" x2="1310.6" y2="742.132" gradientUnits="userSpaceOnUse">
<stop stop-color="#ED5135" stop-opacity="0.56"/>
<stop offset="1" stop-color="#ED5135"/>
</linearGradient>
<linearGradient id="paint4_linear_574_2" x1="1338.11" y1="644.063" x2="1314.76" y2="724.946" gradientUnits="userSpaceOnUse">
<stop stop-color="#ED5135" stop-opacity="0.56"/>
<stop offset="1" stop-color="#ED5135"/>
</linearGradient>
<linearGradient id="paint5_linear_574_2" x1="1333.68" y1="660.562" x2="1319.8" y2="708.626" gradientUnits="userSpaceOnUse">
<stop stop-color="#ED5135" stop-opacity="0.56"/>
<stop offset="1" stop-color="#ED5135"/>
</linearGradient>
<linearGradient id="paint6_linear_574_2" x1="1505.99" y1="674.153" x2="1472.84" y2="788.976" gradientUnits="userSpaceOnUse">
<stop stop-color="#ED5135" stop-opacity="0.56"/>
<stop offset="1" stop-color="#ED5135"/>
</linearGradient>
<linearGradient id="paint7_linear_574_2" x1="1500.35" y1="690.907" x2="1476.99" y2="771.79" gradientUnits="userSpaceOnUse">
<stop stop-color="#ED5135" stop-opacity="0.56"/>
<stop offset="1" stop-color="#ED5135"/>
</linearGradient>
<linearGradient id="paint8_linear_574_2" x1="1495.92" y1="707.406" x2="1482.04" y2="755.47" gradientUnits="userSpaceOnUse">
<stop stop-color="#ED5135" stop-opacity="0.56"/>
<stop offset="1" stop-color="#ED5135"/>
</linearGradient>
<linearGradient id="paint9_linear_574_2" x1="897.553" y1="345.946" x2="818.578" y2="619.46" gradientUnits="userSpaceOnUse">
<stop stop-color="#ED5135" stop-opacity="0.56"/>
<stop offset="1" stop-color="#ED5135"/>
</linearGradient>
<linearGradient id="paint10_linear_574_2" x1="208.111" y1="299.401" x2="174.957" y2="414.223" gradientUnits="userSpaceOnUse">
<stop stop-color="#ED5135" stop-opacity="0.56"/>
<stop offset="1" stop-color="#ED5135"/>
</linearGradient>
<linearGradient id="paint11_linear_574_2" x1="202.463" y1="316.154" x2="179.109" y2="397.038" gradientUnits="userSpaceOnUse">
<stop stop-color="#ED5135" stop-opacity="0.56"/>
<stop offset="1" stop-color="#ED5135"/>
</linearGradient>
<linearGradient id="paint12_linear_574_2" x1="198.034" y1="332.653" x2="184.156" y2="380.717" gradientUnits="userSpaceOnUse">
<stop stop-color="#ED5135" stop-opacity="0.56"/>
<stop offset="1" stop-color="#ED5135"/>
</linearGradient>
<linearGradient id="paint13_linear_574_2" x1="370.346" y1="346.245" x2="337.192" y2="461.067" gradientUnits="userSpaceOnUse">
<stop stop-color="#ED5135" stop-opacity="0.56"/>
<stop offset="1" stop-color="#ED5135"/>
</linearGradient>
<linearGradient id="paint14_linear_574_2" x1="364.698" y1="362.998" x2="341.344" y2="443.882" gradientUnits="userSpaceOnUse">
<stop stop-color="#ED5135" stop-opacity="0.56"/>
<stop offset="1" stop-color="#ED5135"/>
</linearGradient>
<linearGradient id="paint15_linear_574_2" x1="360.269" y1="379.497" x2="346.391" y2="427.561" gradientUnits="userSpaceOnUse">
<stop stop-color="#ED5135" stop-opacity="0.56"/>
<stop offset="1" stop-color="#ED5135"/>
</linearGradient>
<linearGradient id="paint16_linear_574_2" x1="532.581" y1="393.089" x2="499.427" y2="507.911" gradientUnits="userSpaceOnUse">
<stop stop-color="#ED5135" stop-opacity="0.56"/>
<stop offset="1" stop-color="#ED5135"/>
</linearGradient>
<linearGradient id="paint17_linear_574_2" x1="526.934" y1="409.843" x2="503.579" y2="490.726" gradientUnits="userSpaceOnUse">
<stop stop-color="#ED5135" stop-opacity="0.56"/>
<stop offset="1" stop-color="#ED5135"/>
</linearGradient>
<linearGradient id="paint18_linear_574_2" x1="522.504" y1="426.342" x2="508.626" y2="474.405" gradientUnits="userSpaceOnUse">
<stop stop-color="#ED5135" stop-opacity="0.56"/>
<stop offset="1" stop-color="#ED5135"/>
</linearGradient>
<linearGradient id="paint19_linear_574_2" x1="694.816" y1="439.933" x2="661.662" y2="554.755" gradientUnits="userSpaceOnUse">
<stop stop-color="#ED5135" stop-opacity="0.56"/>
<stop offset="1" stop-color="#ED5135"/>
</linearGradient>
<linearGradient id="paint20_linear_574_2" x1="689.169" y1="456.687" x2="665.815" y2="537.57" gradientUnits="userSpaceOnUse">
<stop stop-color="#ED5135" stop-opacity="0.56"/>
<stop offset="1" stop-color="#ED5135"/>
</linearGradient>
<linearGradient id="paint21_linear_574_2" x1="684.74" y1="473.186" x2="670.862" y2="521.249" gradientUnits="userSpaceOnUse">
<stop stop-color="#ED5135" stop-opacity="0.56"/>
<stop offset="1" stop-color="#ED5135"/>
</linearGradient>
<linearGradient id="paint22_linear_574_2" x1="857.052" y1="486.777" x2="823.898" y2="601.6" gradientUnits="userSpaceOnUse">
<stop stop-color="#ED5135" stop-opacity="0.56"/>
<stop offset="1" stop-color="#ED5135"/>
</linearGradient>
<linearGradient id="paint23_linear_574_2" x1="851.404" y1="503.531" x2="828.05" y2="584.414" gradientUnits="userSpaceOnUse">
<stop stop-color="#ED5135" stop-opacity="0.56"/>
<stop offset="1" stop-color="#ED5135"/>
</linearGradient>
<linearGradient id="paint24_linear_574_2" x1="846.975" y1="520.03" x2="833.097" y2="568.094" gradientUnits="userSpaceOnUse">
<stop stop-color="#ED5135" stop-opacity="0.56"/>
<stop offset="1" stop-color="#ED5135"/>
</linearGradient>
<linearGradient id="paint25_linear_574_2" x1="1019.3" y1="533.624" x2="986.145" y2="648.447" gradientUnits="userSpaceOnUse">
<stop stop-color="#ED5135" stop-opacity="0.56"/>
<stop offset="1" stop-color="#ED5135"/>
</linearGradient>
<linearGradient id="paint26_linear_574_2" x1="1013.64" y1="550.375" x2="990.285" y2="631.258" gradientUnits="userSpaceOnUse">
<stop stop-color="#ED5135" stop-opacity="0.56"/>
<stop offset="1" stop-color="#ED5135"/>
</linearGradient>
<linearGradient id="paint27_linear_574_2" x1="1009.21" y1="566.874" x2="995.332" y2="614.938" gradientUnits="userSpaceOnUse">
<stop stop-color="#ED5135" stop-opacity="0.56"/>
<stop offset="1" stop-color="#ED5135"/>
</linearGradient>
<clipPath id="clip0_574_2">
<rect width="1702.45" height="303.888" fill="white" transform="translate(84.3011 100.5) rotate(16.1056)"/>
</clipPath>
</defs>
</svg>
