<svg width="550" height="226" viewBox="0 0 550 226" fill="none" xmlns="http://www.w3.org/2000/svg">
<path d="M442.091 177.255C442.091 177.255 443.085 183.601 433.148 183.601C424.573 183.601 421.595 181.786 420.61 180.242V177.255H413.099V179.775C412.551 181.392 410.651 183.601 404.342 183.601C397.136 183.601 395.682 180.718 395.426 179.131V177.255H387.915V179.823C387.031 181.392 384.703 183.489 378.518 183.601C371.294 183.735 368.219 183.169 366.708 180.973V177.255H359.197V181.911C358.481 183.251 356.604 183.601 351.686 183.601C346.769 183.601 344.869 181.474 344.175 179.87V177.255H336.664V180.83C335.37 183.074 332.405 183.601 324.877 183.601C315.908 183.601 312.899 181.617 311.923 180.035V177.255H304.412V179.14C303.793 182.828 302.154 183.601 292.094 183.601C287.093 183.601 283.492 182.637 280.995 181.513V177.255H273.485V181.513C270.988 182.637 267.388 183.601 262.386 183.601C252.326 183.601 250.687 182.828 250.068 179.14V177.255H242.557V180.035C241.581 181.617 238.581 183.601 229.603 183.601C221.054 183.601 218.394 182.923 217.374 179.819V177.255H209.863V180.675C208.918 182.106 206.934 183.601 202.794 183.601C195.455 183.601 194.894 182.823 194.841 179.105V177.255H187.33V181.518C185.682 183.247 182.545 183.723 175.962 183.601C168.116 183.459 166.468 180.121 166.123 178.725V177.255H158.612V180.415C157.79 181.915 155.643 183.601 150.138 183.601C143.829 183.601 141.929 181.392 141.381 179.775V177.255H133.871V180.242C132.885 181.786 129.894 183.601 121.332 183.601C111.395 183.601 112.389 177.255 112.389 177.255H102.943V215.961C102.943 218.884 105.634 221.253 108.952 221.253L217.171 219.091C217.427 219.091 240.145 220.851 262.863 209.035C272.486 204.029 275.994 202.053 277.222 201.284C278.451 202.053 281.959 204.029 291.581 209.035C314.428 220.916 337.274 219.091 337.274 219.091L445.519 221.253C448.837 221.253 451.528 218.884 451.528 215.961V177.255H442.091Z" fill="#ED5135"/>
<path d="M113.326 107.192L278.243 60.5261L441.154 108.627V169.966H113.326V107.192Z" fill="#CC7D48"/>
<path d="M437.001 118.683V137.974H286.576V55.3381H267.904V137.974H117.479V118.683H102.943V175.452H451.537V118.683H437.001ZM117.479 154.428H267.904V168.137H117.479V154.428ZM437.001 168.137H286.576V154.428H437.001V168.137Z" fill="#AC612F"/>
<path d="M274.62 152.984L267.409 147.857C265.965 146.832 265.965 145.167 267.409 144.138L274.62 139.02C275.398 138.518 276.309 138.251 277.24 138.251C278.171 138.251 279.082 138.518 279.86 139.02L287.07 144.138C288.515 145.167 288.515 146.832 287.07 147.857L279.86 152.98C279.083 153.482 278.172 153.75 277.241 153.75C276.309 153.751 275.398 153.485 274.62 152.984Z" fill="#FB9B26"/>
<path d="M122.662 137.973H102.952V154.428H122.662V137.973Z" fill="#FB9B26"/>
<path d="M451.523 137.973H431.814V154.428H451.523V137.973Z" fill="#FB9B26"/>
<path d="M127.849 165.396H102.952V175.452H127.849V165.396Z" fill="#FB9B26"/>
<path d="M451.523 165.396H426.627V175.452H451.523V165.396Z" fill="#FB9B26"/>
<path d="M452.12 175.452H102.356C102.112 175.452 101.914 175.646 101.914 175.884V176.849C101.914 177.087 102.112 177.281 102.356 177.281H452.12C452.364 177.281 452.562 177.087 452.562 176.849V175.884C452.562 175.646 452.364 175.452 452.12 175.452Z" fill="#784421"/>
<path d="M499.253 147.07L546.969 147.044L322.045 61.062L405.217 42.2601C406.013 42.0591 406.76 41.7066 407.417 41.2228C408.074 40.7389 408.626 40.1332 409.044 39.4402C409.461 38.7472 409.735 37.9805 409.849 37.184C409.963 36.3875 409.916 35.5767 409.71 34.7981L405.941 20.5009C405.525 18.9286 404.489 17.5823 403.059 16.7578C401.629 15.9333 399.923 15.6982 398.316 16.1042L276.882 50.31L156.103 16.5365C154.496 16.1305 152.79 16.3656 151.36 17.1901C149.93 18.0146 148.893 19.361 148.477 20.9333L144.708 35.2304C144.293 36.8029 144.534 38.4723 145.376 39.8716C146.219 41.2709 147.595 42.2855 149.202 42.6924L232.144 61.1744L216.543 67.1363L7.51099 147.044H55.267L220.546 83.9798V84.0057L277.169 71.2045L333.13 83.6772L499.253 147.07Z" fill="#784421"/>
<path d="M310.595 48.8533H243.885C240.712 48.8533 238.139 51.8535 238.139 55.5544C238.139 59.2553 240.712 62.2555 243.885 62.2555H310.595C313.768 62.2555 316.341 59.2553 316.341 55.5544C316.341 51.8535 313.768 48.8533 310.595 48.8533Z" fill="#FB9B26"/>
</svg>
