<svg width="1659" height="798" viewBox="0 0 1659 798" fill="none" xmlns="http://www.w3.org/2000/svg">
<g clip-path="url(#clip0_422_244)">
<path d="M346.626 338.541L345.029 330.207L343.633 338.578C343.337 340.355 342.502 341.998 341.241 343.285C339.98 344.572 338.354 345.441 336.583 345.774L328.248 347.371L336.62 348.766C338.396 349.062 340.039 349.895 341.329 351.151C342.618 352.408 343.493 354.029 343.835 355.797L345.414 364.149L346.809 355.778C347.105 353.999 347.939 352.353 349.2 351.063C350.461 349.772 352.087 348.9 353.859 348.564L362.195 346.985L353.823 345.59C352.046 345.291 350.404 344.455 349.118 343.195C347.831 341.935 346.961 340.31 346.626 338.541Z" fill="white" fill-opacity="0.2"/>
<path d="M1464.97 433.392L1463.37 425.058L1461.98 433.429C1461.68 435.203 1460.85 436.845 1459.59 438.132C1458.34 439.418 1456.71 440.288 1454.95 440.625L1446.59 442.222L1454.97 443.617C1456.75 443.912 1458.39 444.746 1459.68 446.007C1460.97 447.268 1461.84 448.894 1462.18 450.666L1463.76 459L1465.16 450.629C1465.46 448.852 1466.29 447.209 1467.55 445.919C1468.81 444.63 1470.44 443.756 1472.21 443.415L1480.54 441.836L1472.17 440.441C1470.39 440.145 1468.75 439.31 1467.46 438.049C1466.17 436.788 1465.3 435.163 1464.97 433.392Z" fill="white" fill-opacity="0.2"/>
<path d="M899.116 20.9088L897.537 12.5747L896.142 20.9455C895.844 22.7239 895.008 24.3686 893.748 25.6583C892.488 26.948 890.863 27.821 889.092 28.1599L880.756 29.7386L889.128 31.1337C890.906 31.4299 892.549 32.2649 893.836 33.5257C895.123 34.7865 895.992 36.4121 896.325 38.1828L897.922 46.5169L899.318 38.1461C899.614 36.3689 900.449 34.7257 901.71 33.4387C902.971 32.1516 904.597 31.2829 906.368 30.9501L914.703 29.3531L906.331 27.9579C904.552 27.6602 902.907 26.8251 901.618 25.5649C900.328 24.3047 899.455 22.6799 899.116 20.9088Z" fill="white" fill-opacity="0.2"/>
<path d="M1196.43 182.965L1194.83 174.631L1193.42 183.002C1193.12 184.778 1192.29 186.42 1191.03 187.71C1189.77 188.999 1188.15 189.874 1186.39 190.216L1178.05 191.795L1186.42 193.19C1188.2 193.489 1189.84 194.324 1191.13 195.585C1192.41 196.845 1193.28 198.469 1193.62 200.239L1195.2 208.573L1196.61 200.202C1196.91 198.428 1197.74 196.786 1199 195.499C1200.25 194.213 1201.88 193.342 1203.64 193.006L1211.98 191.409L1203.61 190.014C1201.83 189.712 1200.2 188.875 1198.91 187.615C1197.63 186.354 1196.76 184.732 1196.43 182.965Z" fill="white" fill-opacity="0.2"/>
<path d="M992.877 248.793L991.28 240.459L989.885 248.83C989.588 250.607 988.753 252.25 987.492 253.537C986.232 254.825 984.606 255.693 982.835 256.026L974.5 257.605L982.871 259.018C984.648 259.315 986.291 260.147 987.58 261.404C988.87 262.66 989.744 264.281 990.087 266.049L991.666 274.383L993.061 266.031C993.367 264.239 994.219 262.586 995.501 261.298C996.782 260.01 998.431 259.149 1000.22 258.835L1008.56 257.256L1000.18 255.861C998.387 255.579 996.72 254.749 995.412 253.484C994.104 252.219 993.219 250.581 992.877 248.793Z" fill="white" fill-opacity="0.2"/>
<path d="M677.646 182.965L676.049 174.631L674.654 183.002C674.356 184.78 673.521 186.425 672.26 187.714C671 189.004 669.375 189.877 667.604 190.216L659.269 191.795L667.64 193.19C669.419 193.488 671.064 194.323 672.354 195.583C673.644 196.843 674.517 198.468 674.856 200.239L676.435 208.573L677.83 200.202C678.126 198.425 678.961 196.782 680.222 195.495C681.483 194.208 683.109 193.339 684.88 193.006L693.215 191.409L684.843 190.014C683.066 189.718 681.422 188.883 680.135 187.622C678.848 186.361 677.979 184.736 677.646 182.965Z" fill="white" fill-opacity="0.2"/>
<g filter="url(#filter0_f_422_244)">
<path d="M303.71 61.3861C296.008 58.665 288.66 55.0288 281.826 50.5554C281.258 55.3441 278.976 59.7654 275.4 63.0015C278.925 52.2259 275.4 46.6453 275.4 46.6453C273.324 42.8107 270.195 39.6487 266.383 37.5314C262.57 35.4142 258.232 34.4297 253.879 34.6939C249.526 34.9581 245.339 36.4599 241.811 39.0227C238.283 41.5855 235.56 45.1026 233.963 49.1603C232.815 51.5221 232.225 54.1158 232.237 56.7417C232.235 57.3559 232.278 57.9694 232.365 58.5774C232.365 58.5774 232.365 58.6876 232.365 58.7243C232.344 59.2477 232.387 59.7718 232.494 60.2846C231.767 59.5448 231.109 58.7398 230.529 57.8799C225.022 50.0414 228.308 40.8629 240.26 29.4264C234.44 17.8982 228.161 14.0065 216.686 14.8509C214.043 31.6843 207.911 40.0184 198.107 39.6513C195.808 39.5999 193.56 38.9684 191.571 37.8156C199.741 36.9712 205.065 30.0322 206.148 21.6981C208.113 7.01243 184.117 -12.0055 163.187 12.8867C158.349 19.984 156.231 28.5863 157.22 37.118C152.973 31.3517 151.011 24.2174 151.712 17.0905C139.558 14.392 128.781 18.045 119.381 26.4526C127.955 36.8977 129.442 45.2869 123.861 51.3998C120.189 55.5302 116.058 57.1639 112.607 53.2355L112.974 52.9235C115.98 52.1843 118.612 50.3716 120.374 47.8269C122.137 45.2822 122.908 42.1811 122.542 39.1075C122.176 36.034 120.699 33.2002 118.389 31.1398C116.079 29.0794 113.095 27.9347 110 27.9211C110 27.9211 101.022 26.9482 86.9587 42.0561C86.6833 42.3865 86.3528 42.6251 86.0775 42.9923C77.7423 52.8867 67.718 54.649 56.3719 48.5912C53.7649 47.2878 51.2863 45.4705 48 43.3594C58.8137 74.7684 82.1485 88.2792 113.36 82.6068C117.089 82.2708 120.826 83.1741 123.99 85.1768C128.078 87.7585 132.641 89.499 137.411 90.2965C142.18 91.0939 147.061 90.9323 151.767 89.8211L161.296 87.141C161.296 87.141 155.458 81.6339 153.952 70.3076C152.3 57.6045 161.002 45.3053 173.78 44.6077C177.339 44.368 180.897 45.0909 184.08 46.7004C187.17 48.0815 189.742 50.4085 191.424 53.3457C188.613 51.795 185.455 50.9804 182.244 50.9776C177.367 50.978 172.668 52.8074 169.075 56.1043C165.482 59.4012 163.256 63.9258 162.838 68.784C160.69 82.203 171.467 96.705 186.21 98.2654C198.713 99.5871 207.452 93.5843 214.832 83.8367C217.072 85.4155 218.871 86.7739 220.762 87.9671C233.614 96.1543 248.889 94.2268 257.481 82.001C257.922 81.3585 258.399 80.8078 258.84 80.2755C259.977 78.8768 261.447 77.7847 263.114 77.0986C264.781 76.4125 266.594 76.1541 268.387 76.3471C269.774 76.3995 271.155 76.559 272.517 76.8243C281.532 78.348 290.657 80.4958 299.689 80.1103C312.394 79.7982 323.648 75.264 329.505 64.0845C320.729 63.2768 311.715 63.956 303.71 61.3861Z" fill="white" fill-opacity="0.15"/>
</g>
<g filter="url(#filter1_f_422_244)">
<path d="M1073.47 58.6693C1078.71 56.7962 1083.71 54.2921 1088.36 51.2112C1088.75 54.5088 1090.3 57.5533 1092.74 59.7817C1090.34 52.3615 1092.74 48.5187 1092.74 48.5187C1094.16 45.8782 1096.29 43.7008 1098.89 42.2429C1101.49 40.7849 1104.45 40.107 1107.42 40.2889C1110.39 40.4709 1113.25 41.505 1115.65 43.2698C1118.06 45.0345 1119.92 47.4564 1121.01 50.2505C1121.79 51.8769 1122.19 53.663 1122.18 55.4712C1122.18 55.8936 1122.16 56.3157 1122.11 56.7352C1122.11 56.7352 1122.11 56.8111 1122.11 56.8364C1122.13 57.1963 1122.1 57.5572 1122.03 57.9108C1122.54 57.4089 1123 56.8679 1123.42 56.2928C1127.18 50.8952 1124.93 44.5748 1116.77 36.6996C1120.74 28.7612 1125.04 26.0814 1132.85 26.6629C1134.66 38.2544 1138.84 43.9934 1145.54 43.7405C1147.11 43.7051 1148.64 43.2703 1150 42.4765C1144.41 41.895 1140.78 37.1168 1140.04 31.3779C1138.7 21.2653 1155.07 8.16944 1169.34 25.3103C1172.65 30.1949 1174.1 36.1195 1173.43 41.9961C1176.32 38.0222 1177.65 33.1121 1177.18 28.205C1185.54 26.2836 1192.9 28.7992 1199.29 34.5254C1193.44 41.718 1192.42 47.4948 1196.23 51.7421C1198.74 54.5863 1201.57 55.7113 1203.91 53.0062L1203.67 52.7913C1201.62 52.2826 1199.83 51.0355 1198.62 49.2845C1197.42 47.5335 1196.89 45.3994 1197.14 43.2838C1197.39 41.1682 1198.39 39.217 1199.97 37.7972C1201.54 36.3774 1203.57 35.5869 1205.69 35.5746C1205.69 35.5746 1211.81 34.9046 1221.4 45.308C1221.6 45.5355 1221.81 45.6999 1222 45.9527C1227.69 52.766 1234.53 53.9796 1242.26 49.7449C1244.07 48.7589 1245.76 47.5075 1248 46.0538C1240.62 67.6821 1224.71 76.9857 1203.42 73.0924C1200.87 72.862 1198.33 73.4839 1196.17 74.8621C1193.38 76.6389 1190.27 77.8368 1187.02 78.386C1183.77 78.9351 1180.44 78.8243 1177.23 78.0602L1170.72 76.2147C1170.72 76.2147 1174.72 72.4224 1175.73 64.6231C1176.86 55.8757 1170.92 47.4064 1162.21 46.926C1159.78 46.7622 1157.35 47.2599 1155.18 48.3671C1153.07 49.3121 1151.31 50.916 1150.17 52.943C1152.09 51.8716 1154.24 51.3104 1156.43 51.3124C1159.76 51.3126 1162.96 52.5724 1165.42 54.8426C1167.87 57.1129 1169.38 60.2285 1169.67 63.5739C1171.15 72.8143 1163.78 82.8005 1153.73 83.875C1145.2 84.7851 1139.24 80.6516 1134.21 73.9393C1132.68 75.0264 1131.45 75.9618 1130.16 76.7835C1121.39 82.4213 1110.98 81.094 1105.11 72.6752C1104.81 72.2328 1104.49 71.8536 1104.19 71.487C1103.41 70.5249 1102.41 69.7734 1101.28 69.3009C1100.14 68.8285 1098.91 68.6501 1097.69 68.7819C1096.74 68.818 1095.8 68.9279 1094.87 69.1105C1088.72 70.1597 1082.49 71.6387 1076.34 71.3732C1067.67 71.1583 1059.98 68.0361 1056 60.3379C1061.85 59.9713 1068 60.439 1073.47 58.6693Z" fill="white" fill-opacity="0.15"/>
</g>
<g filter="url(#filter2_f_422_244)">
<path d="M1366.31 262.763C1374 260.044 1381.34 256.414 1388.17 251.951C1388.74 256.735 1391.02 261.152 1394.6 264.379C1391.08 253.621 1394.6 248.022 1394.6 248.022C1396.68 244.188 1399.81 241.027 1403.62 238.912C1407.43 236.796 1411.77 235.813 1416.13 236.079C1420.48 236.345 1424.67 237.849 1428.19 240.414C1431.72 242.978 1434.44 246.497 1436.04 250.556C1437.19 252.911 1437.78 255.499 1437.76 258.119C1437.76 258.733 1437.72 259.346 1437.63 259.954C1437.63 259.954 1437.63 260.065 1437.63 260.101C1437.65 260.63 1437.62 261.159 1437.52 261.68C1438.24 260.927 1438.89 260.123 1439.49 259.275C1445 251.418 1441.69 242.24 1429.74 230.822C1435.56 219.275 1441.84 215.383 1453.31 216.136C1455.96 232.97 1462.09 241.304 1471.91 240.937C1474.2 240.888 1476.45 240.257 1478.43 239.101C1470.26 238.256 1464.94 231.336 1463.85 223.002C1461.89 208.316 1485.88 189.298 1506.81 214.172C1511.66 221.265 1513.79 229.869 1512.8 238.403C1517.05 232.637 1519.01 225.503 1518.31 218.376C1530.55 215.585 1541.37 219.238 1550.73 227.554C1542.15 238.018 1540.67 246.389 1546.25 252.557C1549.92 256.687 1554.05 258.321 1557.5 254.392C1557.39 254.264 1557.26 254.19 1557.15 254.062C1554.43 253.115 1552.11 251.268 1550.57 248.824C1549.04 246.381 1548.38 243.488 1548.72 240.622C1549.05 237.756 1550.35 235.089 1552.4 233.06C1554.45 231.032 1557.13 229.763 1560 229.463C1560 229.463 1568.98 228.509 1583.04 243.598C1583.32 243.91 1583.65 244.149 1583.92 244.516C1592.26 254.411 1602.28 256.173 1613.63 250.133C1616.27 248.683 1618.75 246.884 1622.04 244.755C1611.22 276.164 1587.89 289.675 1556.68 284.021C1552.95 283.693 1549.21 284.595 1546.05 286.591C1541.96 289.176 1537.4 290.919 1532.63 291.716C1527.86 292.514 1522.98 292.35 1518.27 291.235L1508.78 288.536C1508.78 288.536 1514.63 283.029 1516.12 271.703C1517.77 259 1509.07 246.701 1496.29 246.003C1492.73 245.774 1489.18 246.497 1485.99 248.096C1482.91 249.482 1480.34 251.808 1478.65 254.741C1481.47 253.204 1484.62 252.396 1487.83 252.391C1492.7 252.387 1497.4 254.213 1501 257.506C1504.59 260.8 1506.82 265.323 1507.24 270.179C1509.4 283.598 1498.61 298.1 1483.86 299.679C1471.36 301.001 1462.62 294.98 1455.24 285.25C1453 286.811 1451.2 288.169 1449.31 289.362C1436.46 297.55 1421.18 295.622 1412.59 283.396C1412.15 282.754 1411.67 282.203 1411.23 281.671C1410.1 280.272 1408.63 279.18 1406.96 278.494C1405.29 277.808 1403.48 277.55 1401.69 277.742C1400.31 277.802 1398.93 277.967 1397.57 278.238C1388.54 279.762 1379.42 281.799 1370.4 281.524C1357.7 281.194 1346.43 276.659 1340.57 265.48C1349.27 264.654 1358.23 265.333 1366.31 262.763Z" fill="white" fill-opacity="0.15"/>
</g>
<g opacity="0.5" filter="url(#filter3_f_422_244)">
<path d="M556 166C601.287 166 638 129.287 638 84C638 38.7127 601.287 2 556 2C510.713 2 474 38.7127 474 84C474 129.287 510.713 166 556 166Z" fill="white" fill-opacity="0.5"/>
</g>
<g filter="url(#filter4_f_422_244)">
<path d="M782.342 140.6C777.668 138.96 773.209 136.769 769.059 134.075C768.717 136.963 767.33 139.628 765.156 141.575C767.297 135.083 765.156 131.704 765.156 131.704C763.894 129.39 761.993 127.483 759.676 126.206C757.36 124.929 754.724 124.336 752.08 124.497C749.436 124.657 746.893 125.565 744.75 127.112C742.607 128.66 740.954 130.784 739.985 133.233C739.288 134.655 738.929 136.216 738.937 137.798C738.936 138.168 738.962 138.538 739.015 138.905C739.015 138.905 739.015 138.972 739.015 138.994C739.004 139.313 739.026 139.632 739.082 139.947C738.649 139.492 738.25 139.007 737.888 138.496C734.543 133.754 736.55 128.215 743.81 121.324C740.275 114.355 736.461 112.006 729.491 112.461C727.885 122.62 724.16 127.65 718.193 127.428C716.8 127.399 715.438 127.018 714.234 126.32C719.197 125.81 722.431 121.634 723.089 116.604C724.283 107.741 709.706 96.2637 696.993 111.275C694.022 115.598 692.737 120.848 693.379 126.043C690.799 122.563 689.607 118.257 690.033 113.956C682.595 112.272 676.026 114.477 670.338 119.496C675.546 125.81 676.45 130.862 673.059 134.585C670.829 137.077 668.32 138.063 666.223 135.693C666.29 135.615 666.368 135.571 666.435 135.493C668.179 134.985 669.686 133.88 670.69 132.374C671.693 130.869 672.129 129.059 671.919 127.265C671.71 125.472 670.869 123.809 669.545 122.572C668.221 121.335 666.499 120.602 664.684 120.504C664.684 120.504 659.23 119.928 650.688 129.034C650.52 129.223 650.32 129.367 650.152 129.588C645.089 135.56 639 136.623 632.108 132.978C630.502 132.103 628.996 131.017 627 129.732C633.569 148.688 647.743 156.842 666.703 153.43C668.968 153.233 671.235 153.778 673.16 154.981C675.643 156.541 678.414 157.593 681.312 158.074C684.21 158.555 687.175 158.457 690.033 157.783L695.822 156.166C695.822 156.166 692.264 152.842 691.361 146.007C690.357 138.34 695.643 130.918 703.405 130.497C705.567 130.359 707.726 130.795 709.662 131.76C711.537 132.596 713.098 134 714.123 135.77C712.412 134.843 710.495 134.355 708.546 134.352C705.585 134.35 702.731 135.451 700.548 137.439C698.365 139.427 697.013 142.156 696.758 145.087C695.442 153.186 702 161.938 710.955 162.891C718.55 163.688 723.859 160.055 728.342 154.183C729.703 155.125 730.796 155.944 731.944 156.664C739.751 161.606 749.03 160.442 754.249 153.064C754.517 152.676 754.807 152.344 755.074 152.023C755.765 151.178 756.658 150.519 757.671 150.105C758.684 149.691 759.785 149.535 760.874 149.652C761.713 149.687 762.548 149.787 763.372 149.951C768.859 150.87 774.402 152.1 779.877 151.934C787.595 151.734 794.442 148.998 798 142.251C792.691 141.742 787.216 142.151 782.342 140.6Z" fill="white" fill-opacity="0.15"/>
</g>
</g>
<g opacity="0.6">
<path opacity="0.15" d="M1068.51 524.039H1063.46V529.096H1068.51V524.039Z" fill="#73200D"/>
<path opacity="0.15" d="M1057.33 524.039H1052.27V529.096H1057.33V524.039Z" fill="#73200D"/>
<path opacity="0.15" d="M1079.7 524.039H1074.64V529.096H1079.7V524.039Z" fill="#73200D"/>
<path opacity="0.15" d="M1090.87 524.039H1085.81V529.096H1090.87V524.039Z" fill="#73200D"/>
<path opacity="0.15" d="M1124.41 524.039H1119.35V529.096H1124.41V524.039Z" fill="#73200D"/>
<path opacity="0.15" d="M1113.24 524.039H1108.18V529.096H1113.24V524.039Z" fill="#73200D"/>
<path opacity="0.15" d="M1102.05 524.039H1097V529.096H1102.05V524.039Z" fill="#73200D"/>
<path opacity="0.15" d="M1124.91 537.964H995.861V539.759H1124.91V537.964Z" fill="#73200D"/>
<path opacity="0.15" d="M1001.43 524.039H996.368V529.096H1001.43V524.039Z" fill="#73200D"/>
<path opacity="0.15" d="M1012.61 524.039H1007.55V529.096H1012.61V524.039Z" fill="#73200D"/>
<path opacity="0.15" d="M1046.15 524.039H1041.09V529.096H1046.15V524.039Z" fill="#73200D"/>
<path opacity="0.15" d="M1034.98 524.039H1029.92V529.096H1034.98V524.039Z" fill="#73200D"/>
<path opacity="0.15" d="M1023.79 524.039H1018.74V529.096H1023.79V524.039Z" fill="#73200D"/>
<g style="mix-blend-mode:multiply" opacity="0.15">
<g style="mix-blend-mode:multiply" opacity="0.15">
<path d="M1106.92 496.065L1117.2 473.382C1133.14 467.311 1139.33 458.306 1139.33 458.306C1089.32 469.367 1067.71 424.042 1062 408.966L1061.47 403.991L1060.39 394.15L1059.32 403.991L1058.78 408.966C1053.08 424.042 1031.45 469.367 981.456 458.306C981.456 458.306 987.651 467.325 1003.59 473.382L1013.87 496.065L1009.4 500.574C1003.67 506.975 988.844 517.446 954.758 512.773C954.758 512.773 966.421 519.735 989.022 523.737V538.128H993.654V543.364H997.766V557.658H1002.58V543.364H1023.75V557.658H1028.55V543.364H1092.24V557.658H1097.04V543.364H1118.21V557.658H1123.01V543.364H1127.12V538.128H1131.78V523.984C1154.61 520.037 1166.04 512.773 1166.04 512.773C1118.24 519.324 1106.92 496.065 1106.92 496.065ZM1119.35 524.039H1124.41V529.096H1119.35V524.039ZM1108.18 524.039H1113.24V529.096H1108.18V524.039ZM1074.09 473.807H1082.85V487.856H1074.09V473.807ZM1062.03 473.807H1070.8V487.856H1062.03V473.807ZM1049.98 473.807H1058.74V487.856H1049.98V473.807ZM1037.94 473.807H1046.7V487.856H1037.94V473.807ZM1020 495.27H1100.79V497.765H1020V495.27ZM1102.05 524.052V529.11H1096.99V524.052H1102.05ZM1090.87 524.052V529.11H1085.81V524.052H1090.87ZM1079.68 524.052V529.11H1074.64V524.052H1079.68ZM1068.51 524.052V529.11H1063.46V524.052H1068.51ZM1057.33 524.052V529.11H1052.29V524.052H1057.33ZM1046.15 524.052V529.11H1041.09V524.052H1046.15ZM1034.98 524.052V529.11H1029.92V524.052H1034.98ZM1018.74 524.052H1023.79V529.11H1018.74V524.052ZM1007.55 524.052H1012.61V529.11H1007.55V524.052ZM996.368 524.052H1001.43V529.11H996.368V524.052ZM1124.93 539.773H995.861V537.963H1124.93V539.773Z" fill="#73200D"/>
</g>
</g>
</g>
<g opacity="0.6">
<g style="mix-blend-mode:multiply" opacity="0.15">
<g style="mix-blend-mode:multiply" opacity="0.6">
<path d="M961.266 413.927L976.479 380.348C1000.08 371.357 1009.25 358.008 1009.25 358.008C935.239 374.372 903.195 307.187 894.766 284.943L893.958 277.569L892.34 263L890.75 277.569L889.969 284.929C881.54 307.173 849.524 374.358 775.486 357.994C775.486 357.994 784.655 371.343 808.256 380.334L823.469 413.913L816.863 420.615C808.366 430.099 786.368 445.587 736 438.693C736 438.693 753.283 448.999 786.711 454.92V476.219H793.564V483.976H799.731V573.063H806.831V483.976H838.189V573.063H845.303V483.976H939.597V573.063H946.711V483.976H978.069V573.063H985.169V483.976H991.336V476.219H998.189V455.29C1031.99 449.438 1048.9 438.693 1048.9 438.693C978.014 448.369 961.266 413.927 961.266 413.927ZM956.949 414.146H958.566V420.999H956.949V414.146ZM952.111 414.146H953.714V420.999H952.111V414.146ZM947.259 414.146H948.876V420.999H947.259V414.146ZM942.421 414.146H944.038V420.999H942.421V414.146ZM937.569 414.146H939.186V420.999H937.569V414.146ZM932.731 414.146H934.348V420.999H932.731V414.146ZM927.893 414.146H929.496V420.999H927.893V414.146ZM923.041 414.146H924.658V420.999H923.041V414.146ZM918.203 414.146H919.82V420.999H918.203V414.146ZM902.318 383.473H915.777V406.608H902.318V383.473ZM914.968 414.146V420.999H913.351V414.146H914.968ZM910.13 414.146V420.999H908.513V414.146H910.13ZM905.278 414.146V420.999H903.675V414.146H905.278ZM898.823 414.146H900.44V420.999H898.823V414.146ZM884.021 383.473H897.48V406.608H884.021V383.473ZM895.602 414.146V420.999H893.985V414.146H895.602ZM890.75 414.146V420.999H889.133V414.146H890.75ZM885.912 414.146V420.999H884.295V414.146H885.912ZM879.457 414.146H881.061V420.999H879.457V414.146ZM865.751 383.473H879.21V406.608H865.751V383.473ZM876.25 414.146V420.999H874.633V414.146H876.25ZM871.412 414.146V420.999H869.795V414.146H871.412ZM864.943 414.146H866.56V420.999H864.929L864.943 414.146ZM860.105 414.146H861.722V420.999H860.105V414.146ZM855.267 414.146H856.87V420.999H855.267V414.146ZM850.415 414.146H852.032V420.999H850.415V414.146ZM845.577 414.146H847.112V420.999H845.494L845.577 414.146ZM840.725 414.146H842.342V420.999H840.725V414.146ZM835.887 414.146H837.518V420.999H835.9L835.887 414.146ZM831.049 414.146H832.652V420.999H831.049V414.146ZM826.197 414.146H827.814V420.999H826.197V414.146ZM985.333 479.001H799.402V475.766H985.333V479.001ZM992.871 457.743H791.864V455.002H992.871V457.743Z" fill="#73200D"/>
</g>
</g>
</g>
<g opacity="0.6">
<path opacity="0.15" d="M641.104 524.038H636.047V529.096H641.104V524.038Z" fill="#73200D"/>
<path opacity="0.15" d="M652.275 524.038H647.217V529.096H652.275V524.038Z" fill="#73200D"/>
<path opacity="0.15" d="M629.92 524.038H624.863V529.096H629.92V524.038Z" fill="#73200D"/>
<path opacity="0.15" d="M618.737 524.038H613.679V529.096H618.737V524.038Z" fill="#73200D"/>
<path opacity="0.15" d="M585.199 524.038H580.142V529.096H585.199V524.038Z" fill="#73200D"/>
<path opacity="0.15" d="M596.383 524.038H591.326V529.096H596.383V524.038Z" fill="#73200D"/>
<path opacity="0.15" d="M607.553 524.038H602.496V529.096H607.553V524.038Z" fill="#73200D"/>
<path opacity="0.15" d="M708.687 537.963H579.635V539.759H708.687V537.963Z" fill="#73200D"/>
<path opacity="0.15" d="M708.18 524.038H703.123V529.096H708.18V524.038Z" fill="#73200D"/>
<path opacity="0.15" d="M696.996 524.038H691.938V529.096H696.996V524.038Z" fill="#73200D"/>
<path opacity="0.15" d="M663.458 524.038H658.401V529.096H663.458V524.038Z" fill="#73200D"/>
<path opacity="0.15" d="M674.642 524.038H669.584V529.096H674.642V524.038Z" fill="#73200D"/>
<path opacity="0.15" d="M685.812 524.038H680.755V529.096H685.812V524.038Z" fill="#73200D"/>
<g style="mix-blend-mode:multiply" opacity="0.15">
<g style="mix-blend-mode:multiply" opacity="0.15">
<path d="M538.518 512.841C538.518 512.841 549.907 520.105 572.782 524.052V538.196H577.414V543.432H581.526V557.658H586.295V543.363H607.471V557.658H612.336V543.363H676.013V557.658H680.864V543.363H702.053V557.658H706.85V543.363H710.962V538.128H715.594V523.805C738.14 519.803 749.859 512.841 749.859 512.841C715.8 517.515 700.943 507.043 695.2 500.643L690.746 496.134L701.025 473.451C716.951 467.379 723.146 458.375 723.146 458.375C673.148 469.435 651.534 424.111 645.833 409.034L645.285 404.059L644.216 394.219L643.146 404.059L642.598 409.034C636.897 424.111 615.283 469.435 565.285 458.375C565.285 458.375 571.48 467.393 587.406 473.451L597.685 496.134C597.685 496.134 586.295 519.324 538.518 512.841ZM585.199 529.164H580.142V524.107H585.199V529.164ZM596.383 529.164H591.325V524.107H596.383V529.164ZM630.469 487.924H621.697V473.807H630.469V487.924ZM642.516 487.924H633.744V473.807H642.489L642.516 487.924ZM654.563 487.924H645.805V473.807H654.563V487.924ZM666.624 487.924H657.853V473.807H666.624V487.924ZM684.551 497.765H603.77V495.298H684.551V497.765ZM607.553 524.066V529.123H602.496V524.066H607.553ZM618.737 524.066V529.123H613.707V524.066H618.737ZM629.92 524.066V529.123H624.863V524.066H629.92ZM641.091 524.066V529.123H636.047V524.066H641.091ZM652.274 524.066V529.123H647.217V524.066H652.274ZM663.458 524.066V529.123H658.401V524.066H663.458ZM674.642 524.066V529.123H669.585V524.066H674.642ZM685.812 529.123H680.755V524.066H685.812V529.123ZM696.996 529.123H691.939V524.066H696.996V529.123ZM708.18 529.123H703.122V524.066H708.18V529.123ZM579.635 537.991H708.687V539.8H579.635V537.991Z" fill="#73200D"/>
</g>
</g>
</g>
<g style="mix-blend-mode:multiply" opacity="0.6">
<g style="mix-blend-mode:multiply" opacity="0.15">
<path d="M1505.15 548.174C1512.42 548.174 1519.39 551.062 1524.53 556.203C1529.67 561.343 1532.56 568.315 1532.56 575.585C1532.55 577.027 1532.42 578.466 1532.19 579.889H1600.83L1580.39 569.349H1577.36V567.773L1560.23 558.933C1556.58 557.105 1553 555.196 1549.49 553.204V553.656H1544.14V550.202C1534.61 544.72 1525.32 538.909 1516.26 532.769V537.963H1510.93V529.055C1501.33 522.257 1492.04 515.025 1483.06 507.359V522.27H1477.72V502.726C1471.57 497.311 1465.11 492.254 1458.37 487.581V498.738H1453.04V484.059C1444.22 478.336 1434.88 473.449 1425.15 469.462V483.086H1419.82V467.365C1412.15 464.578 1404.25 462.491 1396.2 461.129V477.576H1390.87V460.348C1383.04 459.372 1375.13 459.174 1367.26 459.759V477.576H1361.92V460.28C1353.9 461.24 1345.99 462.98 1338.31 465.474V480.55H1332.98V467.338C1325.78 470.016 1318.8 473.256 1312.1 477.028V489.24H1306.77V480.153C1299.49 484.634 1292.52 489.602 1285.91 495.023V510.456H1280.58V499.491L1280.28 499.738C1272.75 506.271 1264.98 512.489 1256.98 518.392V527.533H1251.64V522.257C1243.04 528.388 1234.2 534.162 1225.13 539.58V548.722H1219.8V542.719C1211.14 547.726 1202.3 552.414 1193.29 556.781V561.51H1187.97V559.303L1144.7 579.861H1223.31C1222.3 575.821 1222.22 571.603 1223.09 567.53C1223.95 563.456 1225.74 559.633 1228.3 556.351C1230.86 553.069 1234.14 550.414 1237.88 548.588C1241.63 546.763 1245.74 545.814 1249.9 545.814C1254.07 545.814 1258.18 546.763 1261.92 548.588C1265.66 550.414 1268.94 553.069 1271.5 556.351C1274.07 559.633 1275.85 563.456 1276.71 567.53C1277.58 571.603 1277.51 575.821 1276.5 579.861H1298.02C1297.8 577.477 1297.67 575.064 1297.67 572.639C1297.67 531.152 1331.29 487.979 1372.78 487.979C1414.27 487.979 1447.9 531.152 1447.9 572.639C1447.9 575.064 1447.78 577.477 1447.54 579.861H1478.13C1477.89 578.439 1477.77 577 1477.76 575.558C1477.77 568.297 1480.66 561.336 1485.79 556.202C1490.93 551.069 1497.89 548.181 1505.15 548.174Z" fill="#73200D"/>
</g>
<g style="mix-blend-mode:multiply" opacity="0.15">
<path d="M1532.2 562.934H1532.33C1532.33 562.784 1532.33 562.633 1532.33 562.483C1532.23 562.633 1532.23 562.784 1532.2 562.934Z" fill="#73200D"/>
</g>
<g style="mix-blend-mode:multiply" opacity="0.15">
<path d="M1447.52 562.935H1447.86C1447.86 561.784 1447.86 560.646 1447.76 559.509C1447.71 560.66 1447.63 561.797 1447.52 562.935Z" fill="#73200D"/>
</g>
<g style="mix-blend-mode:multiply" opacity="0.15">
<path d="M1219.78 533.468C1219.78 533.468 1243.08 519.118 1251.62 512.992L1256.97 509.127C1264.97 503.215 1272.74 497.002 1280.27 490.487L1280.57 490.227L1285.9 485.772C1292.52 480.373 1299.49 475.424 1306.77 470.957L1312.1 467.818C1318.8 464.051 1325.78 460.811 1332.98 458.128L1338.31 456.278C1345.99 453.777 1353.9 452.037 1361.92 451.083L1367.26 450.563C1375.13 449.978 1383.04 450.175 1390.87 451.152L1396.2 451.933C1404.25 453.288 1412.15 455.376 1419.82 458.169L1425.15 460.211C1434.88 464.208 1444.22 469.099 1453.04 474.822L1458.37 478.371C1465.11 483.049 1471.57 488.11 1477.72 493.53L1483.06 498.176C1492.01 505.851 1501.3 513.083 1510.93 519.872L1516.26 523.586C1525.31 529.763 1534.6 535.574 1544.14 541.02L1549.49 544.46V544.008C1553.03 545.981 1556.61 547.895 1560.23 549.75L1577.36 558.59L1580.39 560.153L1585.77 562.894H1600.84L1580.41 552.354L1577.38 550.778L1560.25 541.952C1556.59 540.124 1553.01 538.21 1549.5 536.209V536.661L1544.16 533.208C1534.63 527.725 1525.33 521.914 1516.28 515.774L1510.95 512.06C1501.34 505.262 1492.05 498.03 1483.07 490.364L1477.74 485.718C1471.58 480.302 1465.12 475.246 1458.39 470.573L1453.05 467.009C1444.23 461.286 1434.89 456.4 1425.16 452.413L1419.83 450.371C1412.17 447.573 1404.26 445.481 1396.22 444.121L1390.88 443.34C1383.05 442.37 1375.14 442.173 1367.27 442.75L1361.94 443.271C1353.92 444.231 1346.01 445.971 1338.32 448.466L1332.99 450.33C1325.79 453.007 1318.81 456.247 1312.12 460.019L1306.79 463.144C1299.5 467.612 1292.53 472.566 1285.91 477.974L1280.58 482.428L1280.28 482.675C1272.75 489.208 1264.98 495.426 1256.98 501.328L1251.64 505.193C1243.04 511.32 1219.8 525.656 1219.8 525.656C1211.14 530.658 1144.69 562.894 1144.69 562.894H1160.64C1180.87 553.067 1213.86 536.894 1219.78 533.468Z" fill="#73200D"/>
</g>
<g style="mix-blend-mode:multiply" opacity="0.15">
<path d="M1477.97 562.934H1478.11C1478.11 562.784 1478.11 562.633 1478.11 562.483C1478.03 562.633 1478 562.77 1477.97 562.934Z" fill="#73200D"/>
</g>
<g style="mix-blend-mode:multiply" opacity="0.15">
<path d="M1297.62 562.935H1297.95C1297.85 561.797 1297.77 560.66 1297.7 559.509C1297.69 560.646 1297.62 561.784 1297.62 562.935Z" fill="#73200D"/>
</g>
<g style="mix-blend-mode:multiply" opacity="0.15">
<path d="M1276.47 562.935H1277.22C1277.22 562.03 1277.11 561.14 1276.99 560.194C1276.85 561.167 1276.68 562.058 1276.47 562.935Z" fill="#73200D"/>
</g>
<g style="mix-blend-mode:multiply" opacity="0.15">
<path d="M1222.51 562.935H1223.28C1223.06 562.058 1222.89 561.167 1222.76 560.194C1222.63 561.117 1222.55 562.03 1222.51 562.935Z" fill="#73200D"/>
</g>
<g style="mix-blend-mode:multiply" opacity="0.15">
<path d="M1193.28 561.455V556.699L1189.89 558.357L1187.95 559.276V561.427L1193.28 561.455Z" fill="#73200D"/>
</g>
<g style="mix-blend-mode:multiply" opacity="0.15">
<path d="M1225.12 548.667V539.526C1223.35 540.581 1221.57 541.636 1219.78 542.664V548.667H1225.12Z" fill="#73200D"/>
</g>
<g style="mix-blend-mode:multiply" opacity="0.15">
<path d="M1256.97 527.479V518.323C1255.19 519.63 1253.41 520.918 1251.62 522.188V527.465L1256.97 527.479Z" fill="#73200D"/>
</g>
<g style="mix-blend-mode:multiply" opacity="0.15">
<path d="M1285.91 510.415V495.023C1284.13 496.463 1282.36 497.929 1280.58 499.478V510.442L1285.91 510.415Z" fill="#73200D"/>
</g>
<g style="mix-blend-mode:multiply" opacity="0.15">
<path d="M1312.12 489.24V477.028C1310.35 478.015 1308.57 479.057 1306.79 480.153V489.24H1312.12Z" fill="#73200D"/>
</g>
<g style="mix-blend-mode:multiply" opacity="0.15">
<path d="M1338.32 480.605V465.529C1336.56 466.104 1334.77 466.735 1332.99 467.393V480.66L1338.32 480.605Z" fill="#73200D"/>
</g>
<g style="mix-blend-mode:multiply" opacity="0.15">
<path d="M1367.27 477.563V459.745C1365.5 459.869 1363.72 460.061 1361.94 460.266V477.549L1367.27 477.563Z" fill="#73200D"/>
</g>
<g style="mix-blend-mode:multiply" opacity="0.15">
<path d="M1396.22 477.562V461.116C1394.46 460.814 1392.68 460.554 1390.89 460.334V477.549L1396.22 477.562Z" fill="#73200D"/>
</g>
<g style="mix-blend-mode:multiply" opacity="0.15">
<path d="M1425.16 483.045V469.421C1423.41 468.709 1421.64 468.051 1419.83 467.365V483.045H1425.16Z" fill="#73200D"/>
</g>
<g style="mix-blend-mode:multiply" opacity="0.15">
<path d="M1458.39 498.738V487.581C1456.65 486.375 1454.87 485.187 1453.05 484.018V498.738H1458.39Z" fill="#73200D"/>
</g>
<g style="mix-blend-mode:multiply" opacity="0.15">
<path d="M1483.07 522.284V507.359C1481.51 505.988 1479.97 504.686 1478.44 503.329L1477.74 502.712V522.27L1483.07 522.284Z" fill="#73200D"/>
</g>
<g style="mix-blend-mode:multiply" opacity="0.15">
<path d="M1516.28 537.977V532.783C1514.5 531.558 1512.72 530.32 1510.95 529.068V537.977H1516.28Z" fill="#73200D"/>
</g>
<g style="mix-blend-mode:multiply" opacity="0.15">
<path d="M1549.5 553.67V553.218C1547.71 552.231 1545.94 551.23 1544.16 550.216V553.67H1549.5Z" fill="#73200D"/>
</g>
<g style="mix-blend-mode:multiply" opacity="0.15">
<path d="M1195.94 571.446V530.548H1190.6V574.242L1192.55 573.228C1193.69 572.652 1194.83 572.035 1195.94 571.446Z" fill="#73200D"/>
</g>
<g style="mix-blend-mode:multiply" opacity="0.15">
<path d="M1225.69 512.704H1220.36V563.415C1222.14 561.971 1223.92 560.509 1225.69 559.029V512.704Z" fill="#73200D"/>
</g>
<g style="mix-blend-mode:multiply" opacity="0.15">
<path d="M1255.45 492.968H1250.11V540.17C1251.9 538.553 1253.67 536.913 1255.45 535.25V492.968Z" fill="#73200D"/>
</g>
<g style="mix-blend-mode:multiply" opacity="0.15">
<path d="M1285.2 471.23H1279.8V511.182C1281.63 509.227 1283.41 507.336 1285.15 505.508L1285.2 471.23Z" fill="#73200D"/>
</g>
<g style="mix-blend-mode:multiply" opacity="0.15">
<path d="M1314.94 447.862H1309.61V489.432C1311.39 488.079 1313.17 486.777 1314.94 485.525V447.862Z" fill="#73200D"/>
</g>
<g style="mix-blend-mode:multiply" opacity="0.15">
<path d="M1344.7 436.459H1339.37V471.395C1341.15 470.6 1342.93 469.846 1344.7 469.161V436.459Z" fill="#73200D"/>
</g>
<g style="mix-blend-mode:multiply" opacity="0.15">
<path d="M1374.45 432.8H1369.12V462.952C1370.9 462.692 1372.68 462.473 1374.45 462.322V432.8Z" fill="#73200D"/>
</g>
<g style="mix-blend-mode:multiply" opacity="0.15">
<path d="M1404.19 435.198H1398.86V465.543C1400.66 465.803 1402.44 466.132 1404.19 466.488V435.198Z" fill="#73200D"/>
</g>
<g style="mix-blend-mode:multiply" opacity="0.15">
<path d="M1433.95 441.818H1428.62V474.013C1430.41 474.808 1432.19 475.63 1433.95 476.493V441.818Z" fill="#73200D"/>
</g>
<g style="mix-blend-mode:multiply" opacity="0.15">
<path d="M1463.7 455.277H1458.37V490.624C1460.19 492.118 1461.96 493.639 1463.7 495.174V455.277Z" fill="#73200D"/>
</g>
<g style="mix-blend-mode:multiply" opacity="0.15">
<path d="M1493.46 520.461V480.605H1488.13V513.704L1488.83 514.609C1490.36 516.569 1491.9 518.529 1493.46 520.461Z" fill="#73200D"/>
</g>
<g style="mix-blend-mode:multiply" opacity="0.15">
<path d="M1523.2 505.426H1517.87V548.201C1519.63 549.8 1521.41 551.381 1523.2 552.943V505.426Z" fill="#73200D"/>
</g>
<g style="mix-blend-mode:multiply" opacity="0.15">
<path d="M1552.95 527.04H1547.62V573.982C1549.39 575.197 1551.16 576.403 1552.95 577.6V527.04Z" fill="#73200D"/>
</g>
<g style="mix-blend-mode:multiply" opacity="0.15">
<path d="M1582.71 577.6V545.967H1577.38V576.435L1580.42 577.6H1582.71Z" fill="#73200D"/>
</g>
<g style="mix-blend-mode:multiply" opacity="0.15">
<path d="M1580.42 569.363L1577.38 567.787V569.363H1580.42Z" fill="#73200D"/>
</g>
</g>
<g style="mix-blend-mode:multiply" opacity="0.6">
<g style="mix-blend-mode:multiply" opacity="0.15">
<path d="M450.901 583.161H429.438L441.362 438.539H454.876L450.901 583.161Z" fill="#73200D"/>
</g>
<g style="mix-blend-mode:multiply" opacity="0.15">
<path d="M551.021 583.161H572.47L560.546 438.539H547.046L551.021 583.161Z" fill="#73200D"/>
</g>
<g style="mix-blend-mode:multiply" opacity="0.15">
<path d="M601.074 458.413H405.604V470.337H601.074V458.413Z" fill="#73200D"/>
</g>
<g style="mix-blend-mode:multiply" opacity="0.15">
<path d="M507.446 438.423H497.446V458.423H507.446V438.423Z" fill="#73200D"/>
</g>
<g style="mix-blend-mode:multiply" opacity="0.15">
<path d="M607.42 425.039H400.04V438.553H607.42V425.039Z" fill="#73200D"/>
</g>
<g style="mix-blend-mode:multiply" opacity="0.15">
<path d="M377 402L400.039 425.039H607.406L627.265 402C627.265 402 502.544 444.104 377 402Z" fill="#73200D"/>
</g>
</g>
<g opacity="0.15">
<path opacity="0.15" d="M1387.02 746.44V643.483L314.005 683.984V686.464H1295.41L862.957 746.44H1387.02Z" fill="#73200D"/>
<path opacity="0.15" d="M314.005 608.493H1098.68L314.005 636.397V640.386H1387.02V585.892L314.005 604.669V608.493Z" fill="#73200D"/>
</g>
<path d="M703 586C702.309 581.19 700.463 576.62 697.62 572.681C694.778 568.741 691.024 565.549 686.68 563.379C682.335 561.208 677.53 560.124 672.675 560.218C667.82 560.312 663.06 561.582 658.803 563.919C654.12 553.468 645.607 545.214 635.021 540.859C624.434 536.504 612.581 536.381 601.906 540.515C595.613 528.707 586.23 518.833 574.762 511.948C563.295 505.063 550.172 501.426 536.799 501.426C523.425 501.426 510.303 505.063 498.835 511.948C487.367 518.833 477.985 528.707 471.691 540.515C465.469 535.336 457.967 531.931 449.975 530.658C441.983 529.384 433.795 530.289 426.273 533.277C423.561 522.574 418.356 512.665 411.083 504.36C403.809 496.056 394.675 489.592 384.426 485.498C374.178 481.404 363.106 479.796 352.117 480.805C341.128 481.813 330.534 485.411 321.201 491.303C313.316 474.828 300.624 461.132 284.8 452.025C268.975 442.918 250.763 438.826 232.566 440.291C214.37 441.755 197.045 448.707 182.879 460.229C168.713 471.75 158.372 487.299 153.22 504.824C144.388 506.189 135.99 509.576 128.679 514.719C121.368 519.863 115.342 526.625 111.069 534.479C106.797 542.334 104.393 551.069 104.044 560.005C103.696 568.941 105.413 577.836 109.061 586H703Z" fill="#FF9785" fill-opacity="0.9"/>
<path d="M1007.66 585.892C1007.3 583.405 1006.09 581.12 1004.24 579.423C1002.38 577.727 1000 576.725 997.491 576.586C995.459 576.483 993.439 576.958 991.667 577.956C990.389 575.104 988.315 572.682 985.694 570.98C983.073 569.278 980.017 568.369 976.892 568.363C974.904 568.365 972.933 568.737 971.081 569.459C968.804 565.188 965.409 561.616 961.259 559.126C957.109 556.635 952.36 555.32 947.521 555.32C942.681 555.32 937.932 556.635 933.782 559.126C929.632 561.616 926.237 565.188 923.961 569.459C921.704 567.592 918.987 566.364 916.095 565.904C913.202 565.443 910.239 565.767 907.514 566.841C906.537 562.969 904.657 559.383 902.028 556.378C899.398 553.373 896.094 551.034 892.385 549.552C888.677 548.07 884.67 547.488 880.694 547.854C876.717 548.22 872.884 549.522 869.508 551.655C866.66 545.693 862.069 540.735 856.343 537.437C850.617 534.139 844.024 532.656 837.437 533.185C830.85 533.714 824.579 536.229 819.452 540.398C814.325 544.567 810.584 550.194 808.724 556.535C805.529 557.031 802.492 558.258 799.848 560.119C797.204 561.98 795.024 564.425 793.479 567.264C791.933 570.104 791.063 573.262 790.935 576.492C790.807 579.723 791.426 582.939 792.743 585.892H1007.66Z" fill="#FF9785"/>
<path d="M819.538 574.119L857.352 561.386C857.036 560.413 856.707 559.454 856.365 558.494L836.848 560.276L854.24 553.149C850.616 544.953 845.666 537.41 839.589 530.823L812.616 547.42L836.067 527.232C835.244 526.437 834.395 525.669 833.545 524.916L817.098 534.057L829.132 521.284C820.761 514.878 811.215 510.175 801.035 507.441L789.399 524.669L793.511 505.81C792.346 505.604 791.167 505.426 789.975 505.289L779.846 529.617L782.587 504.713C781.669 504.713 780.751 504.713 779.846 504.713C768.764 504.7 757.797 506.962 747.624 511.361C746.418 520.955 745.335 529.767 745.335 530.658C745.335 531.549 743.595 523.148 741.786 514.211C740.895 514.677 740.018 515.171 739.154 515.678L740.881 545.364L733.453 519.324C724.917 525.282 717.595 532.813 711.88 541.513L716.156 560.386L708.358 547.407C706.72 550.427 705.278 553.549 704.04 556.754L719.624 574.228L701.669 563.853C699.67 571.028 698.665 578.444 698.681 585.892H861.107C861.111 579.565 860.38 573.259 858.928 567.102L819.538 574.119Z" fill="#ED5135"/>
<path d="M705.863 578.231L730.465 569.939C730.259 569.308 730.053 568.678 729.834 568.061L717.129 569.212L728.436 564.58C726.065 559.239 722.823 554.329 718.842 550.052L701.422 560.811L716.677 547.667C716.142 547.146 715.594 546.653 715.032 546.159L704.314 552.121L712.154 543.788C706.678 539.615 700.439 536.551 693.788 534.77L686.223 545.981L688.964 533.715C688.196 533.578 687.429 533.468 686.661 533.372L680.069 549.202L681.864 533.002C681.275 533.002 680.672 533.002 680.069 533.002C672.852 532.995 665.71 534.47 659.086 537.333C658.304 543.542 657.605 549.312 657.605 549.887C657.605 550.463 656.468 544.994 655.289 539.156C654.713 539.471 654.138 539.786 653.576 540.115L654.7 559.44L649.862 542.473C644.308 546.353 639.545 551.255 635.827 556.918L638.568 569.253L633.497 560.811C632.428 562.775 631.49 564.808 630.687 566.896L640.83 578.272L629.139 571.515C627.818 576.207 627.15 581.059 627.151 585.933H732.945C732.966 581.819 732.506 577.716 731.575 573.708L705.863 578.231Z" fill="#ED5135"/>
<path d="M1005.34 578.231L1030.01 569.939C1029.82 569.308 1029.6 568.678 1029.38 568.061L1016.68 569.212L1028 564.58C1025.63 559.239 1022.39 554.329 1018.41 550.052L1000.84 560.811L1016.1 547.667C1015.57 547.146 1015.02 546.653 1014.46 546.159L1003.74 552.121L1011.57 543.788C1006.14 539.631 999.951 536.568 993.352 534.77L985.773 545.981L988.514 533.715C987.76 533.578 986.993 533.468 986.212 533.372L979.619 549.202L981.428 533.002C980.825 533.002 980.222 533.002 979.619 533.002C972.407 532.995 965.269 534.469 958.65 537.333C957.868 543.542 957.156 549.312 957.156 549.887C957.156 550.463 956.018 544.994 954.853 539.156L953.126 540.115L954.264 559.44L949.426 542.473C943.872 546.353 939.109 551.255 935.391 556.918L938.132 569.253L933.047 560.811C931.984 562.778 931.046 564.811 930.238 566.896L940.38 578.272L928.703 571.515C927.376 576.206 926.707 581.058 926.715 585.933H1032.45C1032.48 581.819 1032.02 577.716 1031.08 573.708L1005.34 578.231Z" fill="#ED5135"/>
<path d="M1115.08 575.032L1148.89 563.642C1148.62 562.783 1148.33 561.92 1148.03 561.052L1130.57 562.642L1146.11 556.269C1142.88 548.934 1138.45 542.186 1133.01 536.3L1108.89 551.143L1129.86 533.065C1129.13 532.366 1128.38 531.695 1127.61 530.996L1112.88 539.219L1123.65 527.775C1116.15 522.072 1107.61 517.882 1098.51 515.44L1088.1 530.845L1091.82 513.987C1090.78 513.809 1089.73 513.644 1088.66 513.521L1079.61 535.272L1082.08 513H1079.61C1069.71 512.996 1059.92 515.02 1050.83 518.948C1049.76 527.487 1048.79 535.395 1048.79 536.204C1048.79 537.012 1047.23 529.474 1045.62 521.456C1044.83 521.881 1044.03 522.306 1043.27 522.758L1044.81 549.32L1038.17 526.02C1030.53 531.342 1023.97 538.078 1018.87 545.866L1022.69 562.752L1015.72 551.143C1014.25 553.848 1012.97 556.646 1011.87 559.517L1025.79 575.141L1009.74 565.863C1007.92 572.306 1007 578.971 1007 585.667H1152.28C1152.29 579.954 1151.63 574.259 1150.31 568.7L1115.08 575.032Z" fill="#ED5135"/>
<path d="M585.289 586.577C584.919 583.952 583.915 581.456 582.366 579.305C580.816 577.154 578.767 575.412 576.395 574.23C574.022 573.047 571.398 572.459 568.748 572.516C566.097 572.573 563.5 573.273 561.181 574.557C558.633 568.862 553.995 564.364 548.226 561.992C542.456 559.62 535.995 559.555 530.179 561.811C526.75 555.382 521.639 550.005 515.391 546.256C509.144 542.508 501.995 540.527 494.709 540.527C487.423 540.527 480.274 542.508 474.026 546.256C467.778 550.005 462.667 555.382 459.238 561.811C455.854 559.009 451.779 557.167 447.441 556.475C443.102 555.783 438.657 556.267 434.568 557.877C433.093 552.047 430.259 546.65 426.297 542.125C422.336 537.601 417.36 534.079 411.776 531.846C406.192 529.614 400.159 528.735 394.171 529.281C388.182 529.827 382.408 531.783 377.32 534.989C373.036 526.005 366.126 518.533 357.503 513.564C348.879 508.594 338.95 506.36 329.029 507.158C319.109 507.956 309.664 511.748 301.946 518.032C294.228 524.316 288.6 532.796 285.807 542.349C280.997 543.095 276.423 544.94 272.441 547.742C268.46 550.543 265.178 554.225 262.851 558.501C260.524 562.777 259.214 567.532 259.024 572.397C258.834 577.262 259.768 582.104 261.754 586.549L585.289 586.577Z" fill="#ED5135"/>
<path d="M1115 587.57C1115.38 584.95 1116.38 582.461 1117.93 580.315C1119.48 578.17 1121.52 576.431 1123.89 575.25C1126.26 574.068 1128.88 573.478 1131.52 573.53C1134.17 573.582 1136.76 574.276 1139.08 575.55C1141.63 569.856 1146.27 565.358 1152.04 562.985C1157.81 560.613 1164.27 560.548 1170.08 562.804C1173.51 556.375 1178.62 550.998 1184.87 547.25C1191.12 543.501 1198.27 541.521 1205.55 541.521C1212.84 541.521 1219.99 543.501 1226.24 547.25C1232.48 550.998 1237.59 556.375 1241.02 562.804C1244.42 559.99 1248.5 558.14 1252.85 557.448C1257.21 556.756 1261.66 557.247 1265.76 558.87C1267.24 553.041 1270.07 547.643 1274.03 543.119C1277.99 538.594 1282.96 535.072 1288.55 532.839C1294.13 530.607 1300.16 529.727 1306.15 530.274C1312.14 530.82 1317.91 532.776 1323 535.982C1327.28 526.999 1334.2 519.53 1342.82 514.562C1351.44 509.593 1361.37 507.36 1371.29 508.158C1381.21 508.956 1390.66 512.747 1398.38 519.029C1406.1 525.312 1411.73 533.79 1414.52 543.342C1419.33 544.088 1423.91 545.933 1427.89 548.735C1431.87 551.536 1435.15 555.218 1437.48 559.494C1439.81 563.77 1441.12 568.526 1441.31 573.39C1441.5 578.255 1440.56 583.098 1438.58 587.542L1115 587.57Z" fill="#ED5135"/>
<path d="M1550.92 571.904L1594.99 557.075C1594.63 555.937 1594.24 554.814 1593.85 553.69L1571.1 555.759L1591.35 547.454C1587.14 537.89 1581.38 529.091 1574.29 521.413L1542.85 540.752L1570.18 517.219C1569.22 516.301 1568.23 515.396 1567.24 514.478L1548.06 525.141L1562.09 510.243C1552.33 502.786 1541.2 497.31 1529.34 494.125L1515.78 514.19L1520.63 492.261C1519.26 492.028 1517.89 491.822 1516.52 491.644L1504.72 520.001L1507.89 491C1506.82 491 1505.75 491 1504.66 491C1491.74 490.985 1478.96 493.625 1467.1 498.757C1465.73 509.873 1464.44 520.207 1464.44 521.235C1464.44 522.263 1462.41 512.477 1460.33 502.047C1459.29 502.595 1458.26 503.171 1457.24 503.76L1459.27 538.367L1450.6 507.995C1440.65 514.931 1432.12 523.705 1425.46 533.844L1430.45 555.773L1421.35 540.697C1419.45 544.243 1417.77 547.905 1416.33 551.661L1434.48 572.028L1413.56 559.939C1411.19 568.337 1409.99 577.022 1410 585.747H1599.37C1599.37 578.363 1598.52 571.004 1596.82 563.818L1550.92 571.904Z" fill="#ED5135"/>
<path d="M265.645 573.002L309.623 557.976C309.267 556.824 308.898 555.685 308.487 554.546L285.781 556.643L306.012 548.228C301.8 538.54 296.041 529.625 288.968 521.843L257.602 541.437L284.864 517.593C283.907 516.663 282.935 515.746 281.937 514.816L262.787 525.62L276.794 510.525C267.049 502.969 255.943 497.422 244.101 494.194L230.573 514.524L235.415 492.305C234.047 492.069 232.68 491.861 231.312 491.681L219.548 520.412L222.749 491C221.682 491 220.615 491 219.548 491C206.651 490.984 193.889 493.659 182.054 498.86C180.686 510.122 179.319 520.593 179.319 521.635C179.319 522.676 177.294 512.761 175.215 502.193C174.175 502.748 173.149 503.332 172.137 503.929L174.162 538.993L165.517 508.22C155.584 515.244 147.068 524.134 140.43 534.41L145.395 556.629L136.326 541.354C134.419 544.943 132.742 548.654 131.306 552.463L149.43 573.099L128.557 560.851C126.185 569.358 124.988 578.159 125 587H314C314.009 579.518 313.155 572.061 311.456 564.781L265.645 573.002Z" fill="#ED5135"/>
<path d="M975.371 589.963C971.635 586.422 967.36 583.498 962.707 581.301C966.615 581.336 970.494 581.979 974.206 583.206L967.449 575.078C971.389 576.593 975.131 578.581 978.591 580.999C976.929 576.661 974.568 572.623 971.601 569.048C976.739 571.05 981.159 574.544 984.293 579.081C984.095 574.563 984.823 570.053 986.431 565.827L988.651 576.367C990.35 573.297 992.857 570.751 995.902 569.007C994.942 572.899 993.992 576.801 993.051 580.711C995.786 578.026 999.26 576.218 1003.03 575.517L997.642 584.7C1001.22 582.819 1005.28 582.046 1009.31 582.479C1004.39 585.03 1000.11 588.645 996.779 593.06C989.57 591.84 982.593 591.196 975.371 589.963Z" fill="#FB9B26"/>
<path d="M582.293 591.1C579.928 588.865 577.227 587.015 574.289 585.618C576.759 585.645 579.209 586.057 581.553 586.838L577.276 581.698C579.772 582.645 582.139 583.902 584.321 585.44C583.279 582.695 581.788 580.143 579.908 577.888C583.156 579.151 585.95 581.362 587.926 584.234C587.808 581.378 588.275 578.528 589.296 575.859L590.667 582.507C591.743 580.571 593.326 578.965 595.245 577.86C594.651 580.327 594.052 582.794 593.449 585.261C595.176 583.562 597.372 582.416 599.754 581.972L596.355 587.77C598.624 586.597 601.189 586.12 603.728 586.399C600.622 588.01 597.915 590.295 595.806 593.087C591.27 592.334 586.857 591.881 582.293 591.1Z" fill="#FB9B26"/>
<path d="M1552 589.241C1549.64 587.006 1546.94 585.156 1544 583.758C1546.47 583.786 1548.92 584.197 1551.26 584.978L1546.99 579.839C1549.48 580.786 1551.85 582.043 1554.03 583.58C1552.99 580.836 1551.5 578.283 1549.62 576.028C1552.87 577.292 1555.66 579.503 1557.64 582.374C1557.52 579.519 1557.99 576.669 1559.01 574L1560.38 580.647C1561.45 578.712 1563.04 577.106 1564.96 576.001C1564.36 578.468 1563.76 580.935 1563.16 583.402C1564.89 581.702 1567.08 580.557 1569.47 580.113L1566.07 585.91C1568.34 584.738 1570.9 584.261 1573.44 584.54C1570.33 586.151 1567.63 588.436 1565.52 591.228C1560.98 590.474 1556.57 590.022 1552 589.241Z" fill="#FB9B26"/>
<path d="M1243.6 590.744C1238.45 585.87 1232.56 581.841 1226.14 578.806C1231.52 578.86 1236.87 579.753 1241.97 581.451L1232.68 570.24C1238.11 572.348 1243.26 575.109 1248.02 578.464C1245.75 572.49 1242.51 566.932 1238.42 562.017C1245.5 564.772 1251.59 569.584 1255.91 575.832C1255.63 569.615 1256.63 563.406 1258.84 557.59C1259.86 562.423 1260.88 567.257 1261.9 572.09C1264.24 567.865 1267.69 564.359 1271.88 561.948C1270.57 567.321 1269.27 572.698 1267.96 578.08C1271.71 574.385 1276.49 571.895 1281.66 570.925L1274.32 583.494C1279.26 580.914 1284.85 579.851 1290.39 580.437C1283.6 583.959 1277.68 588.961 1273.07 595.075C1263.13 593.32 1253.53 592.443 1243.6 590.744Z" fill="#FB9B26"/>
<path d="M668.611 694.633C663.711 689.989 658.104 686.154 652 683.271C657.126 683.315 662.212 684.161 667.076 685.779L658.263 675.116C663.436 677.093 668.343 679.703 672.874 682.887C670.716 677.188 667.617 671.893 663.705 667.221C670.45 669.829 676.253 674.41 680.357 680.365C680.084 674.451 681.017 668.543 683.098 663L686.017 676.802C688.255 672.802 691.538 669.486 695.515 667.208L691.774 682.558C695.362 679.028 699.918 676.643 704.863 675.705L697.804 687.739C702.499 685.281 707.816 684.265 713.086 684.819C706.639 688.16 701.02 692.899 696.639 698.69C687.224 697.086 678.068 696.236 668.611 694.633Z" fill="#FB9B26"/>
<path d="M1125.72 634.821C1120.82 630.178 1115.21 626.343 1109.11 623.459C1114.24 623.501 1119.32 624.347 1124.19 625.968L1115.33 615.332C1120.5 617.319 1125.41 619.934 1129.94 623.117C1127.79 617.412 1124.71 612.104 1120.81 607.41C1127.56 610.018 1133.36 614.598 1137.47 620.554C1137.19 614.639 1138.12 608.73 1140.21 603.189L1143.13 617.004C1145.36 613.001 1148.65 609.684 1152.63 607.41L1148.88 622.76C1152.47 619.231 1157.03 616.846 1161.97 615.908C1159.62 619.928 1157.26 623.939 1154.91 627.941C1159.6 625.501 1164.9 624.495 1170.16 625.049C1163.71 628.387 1158.09 633.126 1153.71 638.919C1144.32 637.316 1135.18 636.466 1125.72 634.821Z" fill="#FB9B26"/>
<path d="M1081 701.102C1075.1 695.499 1068.35 690.873 1061 687.396C1067.17 687.454 1073.28 688.476 1079.13 690.425L1068.48 677.569C1074.7 679.957 1080.61 683.106 1086.05 686.944C1083.47 680.089 1079.77 673.711 1075.09 668.071C1083.2 671.227 1090.18 676.741 1095.13 683.901C1094.8 676.778 1095.95 669.664 1098.48 663C1099.65 668.537 1100.82 674.074 1101.99 679.611C1104.68 674.773 1108.63 670.759 1113.42 668.003C1111.85 674.152 1110.34 680.319 1108.87 686.505C1113.19 682.255 1118.67 679.391 1124.62 678.282L1116.12 692.769C1121.78 689.802 1128.18 688.58 1134.53 689.26C1126.78 693.299 1120.02 699.022 1114.77 706.008C1103.39 704.048 1092.37 703.034 1081 701.102Z" fill="#FB9B26"/>
<path d="M229.24 651.151C225.048 647.158 220.24 643.868 215 641.406C219.394 641.448 223.754 642.174 227.924 643.558L220.331 634.403C224.761 636.105 228.964 638.347 232.845 641.077C230.993 636.194 228.339 631.654 224.991 627.646C230.772 629.887 235.747 633.812 239.273 638.912C239.041 633.83 239.852 628.756 241.657 624L244.166 635.828C246.082 632.398 248.897 629.555 252.307 627.605L249.1 640.762C252.179 637.744 256.086 635.712 260.325 634.923C258.296 638.368 256.277 641.808 254.267 645.244C258.289 643.129 262.851 642.261 267.369 642.749C261.848 645.609 257.038 649.669 253.294 654.632C245.194 653.248 237.354 652.521 229.24 651.151Z" fill="#FB9B26"/>
<path d="M3.99988 744.047C4.60083 739.829 6.21637 735.82 8.70782 732.364C11.1993 728.908 14.4922 726.108 18.304 724.205C22.1158 722.302 26.3324 721.352 30.592 721.437C34.8516 721.523 39.0269 722.64 42.7594 724.694C46.8685 715.531 54.3345 708.292 63.6203 704.467C72.9061 700.643 83.3047 700.524 92.6754 704.136C98.1972 693.786 106.428 685.132 116.487 679.097C126.546 673.063 138.056 669.875 149.787 669.875C161.517 669.875 173.027 673.063 183.087 679.097C193.146 685.132 201.376 693.786 206.898 704.136C212.357 699.596 218.938 696.612 225.95 695.498C232.961 694.383 240.144 695.18 246.741 697.804C249.115 688.418 253.68 679.729 260.06 672.447C266.441 665.165 274.455 659.498 283.447 655.911C292.44 652.323 302.154 650.917 311.795 651.807C321.435 652.697 330.728 655.858 338.911 661.032C345.814 646.575 356.942 634.553 370.825 626.558C384.707 618.563 400.69 614.97 416.659 616.255C432.628 617.54 447.83 623.642 460.256 633.754C472.681 643.866 481.745 657.512 486.247 672.887C493.994 674.085 501.36 677.054 507.772 681.563C514.184 686.072 519.47 692 523.217 698.885C526.965 705.77 529.073 713.427 529.379 721.26C529.684 729.093 528.179 736.891 524.979 744.047H3.99988Z" fill="#ED5135"/>
<path d="M1133 727.07C1133.6 722.852 1135.22 718.843 1137.71 715.387C1140.2 711.931 1143.49 709.131 1147.3 707.228C1151.12 705.325 1155.33 704.375 1159.59 704.46C1163.85 704.546 1168.03 705.663 1171.76 707.717C1175.87 698.554 1183.33 691.315 1192.62 687.49C1201.91 683.666 1212.3 683.547 1221.68 687.159C1227.2 676.809 1235.42 668.154 1245.48 662.119C1255.54 656.084 1267.05 652.896 1278.78 652.896C1290.51 652.896 1302.02 656.084 1312.08 662.119C1322.14 668.154 1330.36 676.809 1335.88 687.159C1341.35 682.619 1347.93 679.635 1354.94 678.521C1361.96 677.407 1369.14 678.203 1375.74 680.827C1378.12 671.443 1382.68 662.756 1389.06 655.476C1395.44 648.195 1403.45 642.53 1412.44 638.942C1421.43 635.355 1431.15 633.948 1440.78 634.837C1450.42 635.725 1459.71 638.884 1467.9 644.055C1474.8 629.593 1485.92 617.566 1499.81 609.566C1513.69 601.567 1529.68 597.971 1545.65 599.254C1561.62 600.538 1576.83 606.641 1589.25 616.755C1601.68 626.869 1610.75 640.518 1615.25 655.896C1622.99 657.094 1630.36 660.063 1636.77 664.572C1643.18 669.081 1648.47 675.009 1652.22 681.894C1655.96 688.779 1658.07 696.436 1658.38 704.269C1658.68 712.102 1657.18 719.9 1653.98 727.056L1133 727.07Z" fill="#ED5135"/>
<g filter="url(#filter5_d_422_244)">
<path d="M1654 726C1653.4 727.91 1651.79 729.726 1649.3 731.291C1646.81 732.856 1643.52 734.124 1639.71 734.986C1635.9 735.848 1631.69 736.278 1627.43 736.239C1623.17 736.201 1619 735.695 1615.27 734.764C1611.17 738.914 1603.71 742.193 1594.43 743.925C1585.15 745.657 1597.36 760.059 1588 758.423C1582.48 763.111 1574.26 767.031 1564.21 769.764C1554.16 772.497 1542.66 773.941 1530.94 773.941C1519.22 773.941 1507.72 772.497 1497.67 769.764C1487.62 767.031 1467.06 759.199 1461.54 754.512C1456.09 756.567 1449.51 757.919 1442.5 758.423C1435.49 758.928 1428.31 758.567 1421.72 757.379C1419.35 761.629 1404.52 755.126 1398.14 758.423C1391.77 761.72 1383.76 764.286 1374.78 765.911C1365.8 767.536 1356.09 768.173 1346.46 767.77C1336.83 767.368 1327.55 765.937 1319.37 763.596C1312.48 770.145 1301.36 775.592 1287.48 779.215C1273.61 782.838 1257.64 784.466 1241.68 783.885C1225.72 783.304 1210.53 780.54 1198.11 775.959C1185.69 771.379 1176.63 765.197 1172.14 758.233C1164.4 757.69 1157.04 756.346 1150.63 754.304C1144.22 752.262 1138.94 749.577 1135.2 746.459C1131.45 743.341 1129.34 739.873 1129.04 736.326C1128.73 732.779 1130.24 729.247 1133.44 726.006L1654 726Z" fill="#ED5135"/>
</g>
<g filter="url(#filter6_d_422_244)">
<path d="M4 743.617C4.60047 745.132 6.21473 746.572 8.70423 747.814C11.1937 749.055 14.4841 750.061 18.2928 750.745C22.1015 751.428 26.3148 751.77 30.571 751.739C34.8272 751.708 38.9992 751.307 42.7288 750.569C46.8346 753.861 54.2947 756.461 63.5731 757.835C72.8514 759.209 83.2419 759.252 92.605 757.954C98.1225 761.672 106.346 764.782 116.398 766.949C126.449 769.117 137.95 770.262 149.671 770.262C161.392 770.262 172.893 769.117 182.944 766.949C192.996 764.782 201.22 761.672 206.737 757.954C212.191 759.585 218.767 760.657 225.773 761.058C232.779 761.458 239.956 761.172 246.548 760.229C248.921 763.601 253.482 766.723 259.857 769.339C266.232 771.954 274.24 773.99 283.225 775.279C292.211 776.568 301.917 777.073 311.55 776.753C321.183 776.433 330.468 775.298 338.645 773.439C345.542 778.633 356.662 782.951 370.533 785.824C384.405 788.696 400.375 789.987 416.331 789.525C432.287 789.063 447.477 786.871 459.893 783.239C472.309 779.606 481.365 774.704 485.864 769.18C493.604 768.75 500.964 767.683 507.372 766.064C513.779 764.444 519.06 762.314 522.805 759.841C526.549 757.367 528.656 754.617 528.961 751.803C529.267 748.989 527.762 746.188 524.565 743.617L4 743.617Z" fill="#ED5135"/>
</g>
<defs>
<filter id="filter0_f_422_244" x="46" y="-1.18164" width="285.505" height="101.629" filterUnits="userSpaceOnUse" color-interpolation-filters="sRGB">
<feFlood flood-opacity="0" result="BackgroundImageFix"/>
<feBlend mode="normal" in="SourceGraphic" in2="BackgroundImageFix" result="shape"/>
<feGaussianBlur stdDeviation="1" result="effect1_foregroundBlur_422_244"/>
</filter>
<filter id="filter1_f_422_244" x="1054" y="15" width="196" height="71" filterUnits="userSpaceOnUse" color-interpolation-filters="sRGB">
<feFlood flood-opacity="0" result="BackgroundImageFix"/>
<feBlend mode="normal" in="SourceGraphic" in2="BackgroundImageFix" result="shape"/>
<feGaussianBlur stdDeviation="1" result="effect1_foregroundBlur_422_244"/>
</filter>
<filter id="filter2_f_422_244" x="1338.57" y="200.117" width="285.468" height="101.743" filterUnits="userSpaceOnUse" color-interpolation-filters="sRGB">
<feFlood flood-opacity="0" result="BackgroundImageFix"/>
<feBlend mode="normal" in="SourceGraphic" in2="BackgroundImageFix" result="shape"/>
<feGaussianBlur stdDeviation="1" result="effect1_foregroundBlur_422_244"/>
</filter>
<filter id="filter3_f_422_244" x="468" y="-4" width="176" height="176" filterUnits="userSpaceOnUse" color-interpolation-filters="sRGB">
<feFlood flood-opacity="0" result="BackgroundImageFix"/>
<feBlend mode="normal" in="SourceGraphic" in2="BackgroundImageFix" result="shape"/>
<feGaussianBlur stdDeviation="3" result="effect1_foregroundBlur_422_244"/>
</filter>
<filter id="filter4_f_422_244" x="623" y="100" width="179" height="67" filterUnits="userSpaceOnUse" color-interpolation-filters="sRGB">
<feFlood flood-opacity="0" result="BackgroundImageFix"/>
<feBlend mode="normal" in="SourceGraphic" in2="BackgroundImageFix" result="shape"/>
<feGaussianBlur stdDeviation="2" result="effect1_foregroundBlur_422_244"/>
</filter>
<filter id="filter5_d_422_244" x="1125" y="726" width="533" height="66" filterUnits="userSpaceOnUse" color-interpolation-filters="sRGB">
<feFlood flood-opacity="0" result="BackgroundImageFix"/>
<feColorMatrix in="SourceAlpha" type="matrix" values="0 0 0 0 0 0 0 0 0 0 0 0 0 0 0 0 0 0 127 0" result="hardAlpha"/>
<feOffset dy="4"/>
<feGaussianBlur stdDeviation="2"/>
<feComposite in2="hardAlpha" operator="out"/>
<feColorMatrix type="matrix" values="0 0 0 0 0.929412 0 0 0 0 0.317647 0 0 0 0 0.207843 0 0 0 1 0"/>
<feBlend mode="normal" in2="BackgroundImageFix" result="effect1_dropShadow_422_244"/>
<feBlend mode="normal" in="SourceGraphic" in2="effect1_dropShadow_422_244" result="shape"/>
</filter>
<filter id="filter6_d_422_244" x="0" y="743.617" width="533" height="54" filterUnits="userSpaceOnUse" color-interpolation-filters="sRGB">
<feFlood flood-opacity="0" result="BackgroundImageFix"/>
<feColorMatrix in="SourceAlpha" type="matrix" values="0 0 0 0 0 0 0 0 0 0 0 0 0 0 0 0 0 0 127 0" result="hardAlpha"/>
<feOffset dy="4"/>
<feGaussianBlur stdDeviation="2"/>
<feComposite in2="hardAlpha" operator="out"/>
<feColorMatrix type="matrix" values="0 0 0 0 0.929412 0 0 0 0 0.317647 0 0 0 0 0.207843 0 0 0 1 0"/>
<feBlend mode="normal" in2="BackgroundImageFix" result="effect1_dropShadow_422_244"/>
<feBlend mode="normal" in="SourceGraphic" in2="effect1_dropShadow_422_244" result="shape"/>
</filter>
<clipPath id="clip0_422_244">
<rect width="1481" height="459" fill="white" transform="translate(141)"/>
</clipPath>
</defs>
</svg>
