<svg width="1507" height="269" viewBox="0 0 1507 269" fill="none" xmlns="http://www.w3.org/2000/svg">
<g filter="url(#filter0_f_524_82)">
<path d="M1051 138.753C1019.16 138.753 993.317 162.256 992.849 191.383C992.849 191.474 992.849 191.559 992.849 191.649C992.849 191.74 992.849 191.825 992.849 191.915C993.317 221.064 1019.16 244.545 1051 244.545C1082.83 244.545 1108.67 221.042 1109.14 191.915C1109.14 191.825 1109.14 191.74 1109.14 191.649C1109.14 191.559 1109.14 191.474 1109.14 191.383C1108.67 162.235 1082.82 138.753 1051 138.753ZM1051.12 236.465C1024.33 236.465 1002.58 216.449 1002.27 191.649C1002.58 166.849 1024.33 146.834 1051.12 146.834C1077.91 146.834 1099.66 166.849 1099.97 191.649C1099.66 216.449 1077.91 236.465 1051.12 236.465Z" fill="url(#paint0_linear_524_82)"/>
<path d="M1050.3 154.388C1028.15 154.388 1010.15 170.868 1009.7 191.383C1009.7 191.474 1009.7 191.559 1009.7 191.649C1009.7 191.74 1009.7 191.825 1009.7 191.915C1010.15 212.414 1028.15 228.911 1050.3 228.911C1072.45 228.911 1090.46 212.43 1090.92 191.915C1090.92 191.825 1090.92 191.74 1090.92 191.649C1090.92 191.559 1090.92 191.474 1090.92 191.383C1090.46 170.884 1072.46 154.388 1050.3 154.388ZM1050.84 220.809C1032.55 220.809 1017.7 207.8 1017.38 191.649C1017.7 175.499 1032.55 162.49 1050.84 162.49C1069.12 162.49 1083.97 175.499 1084.29 191.649C1083.98 207.8 1069.13 220.809 1050.85 220.809H1050.84Z" fill="url(#paint1_linear_524_82)"/>
<path d="M1050.59 169.507C1036.88 169.507 1025.72 179.231 1025.24 191.384C1025.24 191.474 1025.24 191.559 1025.24 191.649C1025.24 191.74 1025.24 191.825 1025.24 191.915C1025.72 204.068 1036.88 213.791 1050.59 213.791C1064.3 213.791 1075.47 204.068 1075.94 191.915C1075.94 191.825 1075.94 191.74 1075.94 191.649C1075.94 191.559 1075.94 191.474 1075.94 191.384C1075.45 179.231 1064.29 169.507 1050.59 169.507ZM1050.32 205.126C1041.44 205.126 1034.21 199.124 1033.88 191.623C1034.21 184.116 1041.44 178.12 1050.32 178.12C1059.2 178.12 1066.44 184.122 1066.77 191.623C1066.42 199.156 1059.19 205.152 1050.3 205.152L1050.32 205.126Z" fill="url(#paint2_linear_524_82)"/>
<path d="M1200.47 138.753C1168.64 138.753 1142.79 162.256 1142.33 191.383C1142.33 191.474 1142.33 191.559 1142.33 191.649C1142.33 191.74 1142.33 191.825 1142.33 191.915C1142.79 221.064 1168.64 244.545 1200.47 244.545C1232.3 244.545 1258.15 221.042 1258.62 191.915C1258.62 191.825 1258.62 191.74 1258.62 191.649C1258.62 191.559 1258.62 191.474 1258.62 191.383C1258.15 162.235 1232.3 138.753 1200.47 138.753ZM1200.6 236.465C1173.81 236.465 1152.05 216.449 1151.75 191.649C1152.05 166.849 1173.81 146.834 1200.59 146.834C1227.38 146.834 1249.14 166.849 1249.45 191.649C1249.13 216.449 1227.38 236.465 1200.6 236.465Z" fill="url(#paint3_linear_524_82)"/>
<path d="M1199.78 154.388C1177.63 154.388 1159.63 170.868 1159.17 191.383C1159.17 191.474 1159.17 191.559 1159.17 191.649C1159.17 191.74 1159.17 191.825 1159.17 191.915C1159.63 212.414 1177.63 228.911 1199.78 228.911C1221.93 228.911 1239.93 212.43 1240.39 191.915C1240.39 191.825 1240.39 191.74 1240.39 191.649C1240.39 191.559 1240.39 191.474 1240.39 191.383C1239.93 170.884 1221.94 154.388 1199.78 154.388ZM1200.31 220.809C1182.02 220.809 1167.18 207.8 1166.85 191.649C1167.18 175.499 1182.02 162.49 1200.31 162.49C1218.6 162.49 1233.44 175.499 1233.77 191.649C1233.45 207.8 1218.61 220.809 1200.32 220.809H1200.31Z" fill="url(#paint4_linear_524_82)"/>
<path d="M1200.07 169.507C1186.35 169.507 1175.19 179.231 1174.72 191.384C1174.72 191.474 1174.72 191.559 1174.72 191.649C1174.72 191.74 1174.72 191.825 1174.72 191.915C1175.19 204.068 1186.35 213.791 1200.07 213.791C1213.78 213.791 1224.94 204.068 1225.41 191.915C1225.41 191.825 1225.41 191.74 1225.41 191.649C1225.41 191.559 1225.41 191.474 1225.41 191.384C1224.93 179.231 1213.77 169.507 1200.07 169.507ZM1199.8 205.126C1190.91 205.126 1183.68 199.124 1183.35 191.623C1183.68 184.116 1190.91 178.12 1199.8 178.12C1208.68 178.12 1215.91 184.122 1216.24 191.623C1215.9 199.156 1208.66 205.152 1199.78 205.152L1199.8 205.126Z" fill="url(#paint5_linear_524_82)"/>
<path d="M1349.95 138.753C1318.12 138.753 1292.27 162.256 1291.8 191.383C1291.8 191.474 1291.8 191.559 1291.8 191.649C1291.8 191.74 1291.8 191.825 1291.8 191.915C1292.27 221.064 1318.12 244.545 1349.95 244.545C1381.78 244.545 1407.63 221.042 1408.1 191.915C1408.1 191.825 1408.1 191.74 1408.1 191.649C1408.1 191.559 1408.1 191.474 1408.1 191.383C1407.63 162.235 1381.77 138.753 1349.95 138.753ZM1350.08 236.465C1323.28 236.465 1301.53 216.449 1301.22 191.649C1301.53 166.849 1323.28 146.834 1350.07 146.834C1376.86 146.834 1398.62 166.849 1398.92 191.649C1398.61 216.449 1376.86 236.465 1350.08 236.465Z" fill="url(#paint6_linear_524_82)"/>
<path d="M1349.26 154.388C1327.11 154.388 1309.11 170.868 1308.65 191.383C1308.65 191.474 1308.65 191.559 1308.65 191.649C1308.65 191.74 1308.65 191.825 1308.65 191.915C1309.11 212.414 1327.11 228.911 1349.26 228.911C1371.41 228.911 1389.41 212.43 1389.87 191.915C1389.87 191.825 1389.87 191.74 1389.87 191.649C1389.87 191.559 1389.87 191.474 1389.87 191.383C1389.41 170.884 1371.41 154.388 1349.26 154.388ZM1349.79 220.809C1331.5 220.809 1316.65 207.8 1316.33 191.649C1316.65 175.499 1331.5 162.49 1349.79 162.49C1368.08 162.49 1382.92 175.499 1383.24 191.649C1382.93 207.8 1368.08 220.809 1349.8 220.809H1349.79Z" fill="url(#paint7_linear_524_82)"/>
<path d="M1349.54 169.507C1335.83 169.507 1324.67 179.231 1324.2 191.384C1324.2 191.474 1324.2 191.559 1324.2 191.649C1324.2 191.74 1324.2 191.825 1324.2 191.915C1324.67 204.068 1335.83 213.791 1349.54 213.791C1363.26 213.791 1374.42 204.068 1374.89 191.915C1374.89 191.825 1374.89 191.74 1374.89 191.649C1374.89 191.559 1374.89 191.474 1374.89 191.384C1374.4 179.231 1363.24 169.507 1349.54 169.507ZM1349.27 205.126C1340.39 205.126 1333.16 199.124 1332.83 191.623C1333.16 184.116 1340.39 178.12 1349.27 178.12C1358.16 178.12 1365.39 184.122 1365.72 191.623C1365.37 199.156 1358.14 205.152 1349.26 205.152L1349.27 205.126Z" fill="url(#paint8_linear_524_82)"/>
<path d="M1497.43 152.852V152.044C1497.07 133.729 1489.4 116.568 1475.81 103.666C1462.08 90.636 1443.89 83.4645 1424.56 83.4645C1422.01 83.469 1419.46 83.6021 1416.92 83.8632C1413.31 76.9718 1408.57 70.7286 1402.91 65.3894C1389.18 52.3594 1371 45.1878 1351.67 45.1878C1348.24 45.188 1344.81 45.4224 1341.42 45.8895C1328.67 23.1521 1304.11 9.0376 1277.2 9.0376C1250.29 9.0376 1225.68 23.1787 1212.95 45.964C1205.98 44.9545 1198.91 44.9294 1191.94 45.8895C1179.2 23.1521 1154.63 9.0376 1127.72 9.0376C1100.82 9.0376 1076.2 23.1787 1063.47 45.964C1056.51 44.9545 1049.43 44.9294 1042.46 45.8895C1029.72 23.1521 1005.15 9.0376 978.247 9.0376C958.932 9.0376 940.734 16.2145 927.005 29.2392C921.847 34.1161 917.457 39.744 913.982 45.9321C910.424 45.4348 906.836 45.1861 903.243 45.1878C899.812 45.188 896.385 45.4224 892.987 45.8895C880.241 23.1521 855.676 9.0376 828.77 9.0376C801.864 9.0376 777.246 23.1787 764.517 45.964C757.553 44.9545 750.481 44.9294 743.51 45.8895C730.77 23.1521 706.199 9.0376 679.294 9.0376C652.388 9.0376 627.77 23.1787 615.04 45.964C608.076 44.9545 601.005 44.9294 594.034 45.8895C581.293 23.1521 556.723 9.0376 529.817 9.0376C510.502 9.0376 492.304 16.2145 478.575 29.2392C473.418 34.1161 469.027 39.744 465.553 45.9321C461.995 45.4348 458.406 45.1861 454.813 45.1878C451.382 45.188 447.956 45.4224 444.557 45.8895C431.812 23.1521 407.246 9.0376 380.341 9.0376C353.435 9.0376 328.816 23.1787 316.087 45.964C309.123 44.9545 302.051 44.9294 295.08 45.8895C282.34 23.1521 257.77 9.0376 230.864 9.0376C203.958 9.0376 179.34 23.1787 166.61 45.964C159.646 44.9545 152.575 44.9294 145.604 45.8895C132.864 23.1521 108.293 9.0376 81.3875 9.0376C62.0726 9.0376 43.8748 16.2145 30.1453 29.2392C16.5488 42.1416 8.88344 59.3023 8.51108 77.6166V78.4088V79.2115C8.76457 91.5526 12.3882 103.59 18.9904 114.022C11.0364 125.13 6.64055 138.387 6.3833 152.044V152.044V152.836V153.638C6.7397 171.953 14.405 189.113 28.0015 202.016C41.731 215.046 59.9182 222.217 79.2438 222.217C82.5559 222.213 85.8643 221.997 89.1486 221.569C92.7896 228.765 97.6488 235.278 103.511 240.819C117.241 253.849 135.428 261.02 154.753 261.02C174.079 261.02 192.266 253.844 205.996 240.819C211.816 235.325 216.653 228.875 220.294 221.75C226.381 222.429 232.527 222.368 238.599 221.569C242.262 228.771 247.144 235.286 253.03 240.824C266.76 253.854 284.947 261.026 304.272 261.026C323.598 261.026 341.785 253.849 355.515 240.824C361.336 235.33 366.172 228.881 369.813 221.755C372.603 222.063 375.407 222.217 378.213 222.217C381.525 222.213 384.833 221.997 388.118 221.569C391.76 228.764 396.619 235.276 402.48 240.819C416.21 253.849 434.397 261.02 453.722 261.02C473.048 261.02 491.235 253.844 504.965 240.819C510.785 235.325 515.622 228.875 519.263 221.75L520.492 221.867C521.189 221.936 521.886 221.989 522.588 222.037L524.083 222.127L525.093 222.17C525.95 222.17 526.806 222.217 527.663 222.217C528.429 222.217 529.195 222.217 529.961 222.18H530.323C532.759 222.1 535.179 221.898 537.568 221.59C541.22 228.785 546.088 235.295 551.957 240.835C565.686 253.865 583.873 261.036 603.199 261.036C622.525 261.036 640.712 253.859 654.441 240.835C660.262 235.341 665.098 228.891 668.74 221.766C674.826 222.445 680.972 222.384 687.044 221.585C690.704 228.78 695.581 235.289 701.46 240.824C715.189 253.854 733.377 261.026 752.702 261.026C772.028 261.026 790.215 253.849 803.944 240.824C809.765 235.33 814.601 228.881 818.243 221.755C821.032 222.063 823.836 222.217 826.642 222.217C829.955 222.213 833.263 221.997 836.547 221.569C840.198 228.768 845.066 235.282 850.936 240.824C864.666 253.854 882.853 261.026 902.179 261.026C921.504 261.026 939.691 253.849 953.421 240.824C959.242 235.33 964.078 228.881 967.72 221.755C968.14 221.803 968.56 221.835 968.98 221.877L969.885 221.962L971.172 222.053C971.64 222.085 972.113 222.111 972.582 222.132L973.603 222.175C974.443 222.175 975.284 222.223 976.119 222.223C976.954 222.223 977.651 222.223 978.417 222.186H978.779C981.215 222.106 983.635 221.904 986.024 221.595C989.677 228.79 994.544 235.3 1000.41 240.84C1014.14 253.87 1032.33 261.042 1051.66 261.042C1070.98 261.042 1089.17 253.865 1102.9 240.84C1108.72 235.346 1113.55 228.897 1117.2 221.771C1123.28 222.45 1129.43 222.389 1135.5 221.59C1139.15 228.782 1144.02 235.289 1149.89 240.824C1163.62 253.854 1181.81 261.026 1201.13 261.026C1220.46 261.026 1238.64 253.849 1252.37 240.824C1258.19 235.33 1263.03 228.881 1266.67 221.755C1269.46 222.063 1272.27 222.217 1275.07 222.217C1278.38 222.213 1281.69 221.997 1284.98 221.569C1288.63 228.768 1293.5 235.282 1299.37 240.824C1313.1 253.854 1331.28 261.026 1350.61 261.026C1369.93 261.026 1388.12 253.849 1401.85 240.824C1407.67 235.33 1412.51 228.881 1416.15 221.755C1418.94 222.063 1421.74 222.217 1424.55 222.217C1443.86 222.217 1462.06 215.041 1475.79 202.016C1489.39 189.119 1497.07 171.958 1497.41 153.638L1497.43 152.852ZM1351.54 54.6187C1386.44 54.6187 1415.08 81.5134 1415.37 114.559C1415.26 125.857 1411.84 136.876 1405.55 146.259C1404.37 144.962 1403.13 143.702 1401.82 142.48C1401.5 142.166 1401.17 141.863 1400.83 141.56C1406.09 133.619 1408.96 124.347 1409.13 114.83V114.83C1409.13 114.74 1409.13 114.655 1409.13 114.564C1409.13 114.474 1409.13 114.389 1409.13 114.298C1408.66 85.1497 1382.81 61.668 1350.99 61.668C1329.63 61.668 1310.97 72.2473 1300.86 88.0098C1299.06 87.3577 1297.24 86.7729 1295.4 86.2555C1306.63 66.6812 1327.93 54.6187 1351.54 54.6187ZM1390.94 114.564C1390.94 114.474 1390.94 114.389 1390.94 114.298C1390.48 93.7992 1372.48 77.303 1350.33 77.303C1335.68 77.303 1322.85 84.5224 1315.7 95.3409C1315.28 95.0697 1314.87 94.8093 1314.44 94.5328C1312.77 93.5015 1311.06 92.5499 1309.31 91.6567C1317.87 78.5257 1333.39 69.7487 1351.13 69.7487C1377.93 69.7487 1399.68 89.7642 1399.99 114.564C1399.89 122.101 1397.79 129.477 1393.91 135.941C1391.53 134.242 1389.04 132.687 1386.47 131.284C1389.27 126.244 1390.81 120.597 1390.95 114.83C1390.95 114.74 1390.95 114.655 1390.94 114.564ZM1375.95 114.564C1375.95 114.474 1375.95 114.389 1375.95 114.298C1375.48 102.146 1364.32 92.4223 1350.6 92.4223C1340.59 92.4223 1331.95 97.6109 1327.83 105.139C1326.01 103.313 1324.09 101.586 1322.09 99.966C1327.94 91.2527 1338.62 85.4049 1350.87 85.4049C1369.16 85.4049 1384 98.4136 1384.33 114.564C1384.22 119.418 1382.81 124.153 1380.23 128.269C1377.71 127.193 1375.13 126.258 1372.5 125.468C1374.6 122.304 1375.79 118.628 1375.95 114.835C1375.96 114.74 1375.95 114.655 1375.95 114.564V114.564ZM1366.77 114.564C1366.58 117.863 1365.14 120.966 1362.74 123.235C1355.44 122.067 1348 121.962 1340.67 122.921C1338.82 119.249 1336.64 115.75 1334.16 112.464C1335.61 105.973 1342.29 101.061 1350.32 101.061C1359.2 101.061 1366.44 107.063 1366.77 114.564ZM1273.72 115.58C1259.44 115.58 1246.89 122.443 1239.64 132.809C1237.53 131.539 1235.34 130.378 1233.11 129.333C1241.75 116.537 1257.04 108.025 1274.53 108.025C1292.45 108.025 1308.1 116.973 1316.6 130.316C1314 131.638 1311.48 133.113 1309.05 134.734C1302.07 123.299 1288.87 115.58 1273.72 115.58ZM1303.46 138.875C1302.05 140.024 1300.69 141.22 1299.37 142.48C1298.67 143.139 1297.99 143.809 1297.33 144.494C1293.47 136.387 1284.48 130.672 1273.99 130.672C1264.57 130.672 1256.36 135.276 1251.99 142.097C1250.14 140.366 1248.2 138.732 1246.18 137.201C1252.15 129.051 1262.49 123.655 1274.26 123.655C1286.81 123.682 1297.73 129.811 1303.46 138.875ZM1274.41 99.9447C1253.21 99.9447 1234.67 110.375 1224.51 125.957C1222.66 125.361 1220.8 124.83 1218.92 124.362C1230.15 104.937 1251.54 92.8954 1274.94 92.8954C1298.54 92.8954 1320.03 105.096 1331.19 124.793C1329.06 125.361 1326.94 126.021 1324.84 126.776C1314.8 110.721 1295.98 99.9447 1274.41 99.9447ZM1201.13 92.4223C1191.12 92.4223 1182.48 97.6109 1178.35 105.139C1176.54 103.313 1174.62 101.586 1172.62 99.966C1178.47 91.2527 1189.15 85.4049 1201.4 85.4049C1213.14 85.4049 1223.46 90.7689 1229.44 98.8868C1227.31 100.53 1225.27 102.291 1223.34 104.16C1219.01 97.1643 1210.71 92.4223 1201.13 92.4223ZM1216.76 111.481C1214.01 114.994 1211.61 118.763 1209.58 122.735C1203.47 122.062 1197.3 122.124 1191.21 122.921C1189.36 119.249 1187.18 115.75 1184.7 112.464C1186.15 105.973 1192.83 101.061 1200.86 101.061C1208.47 101.061 1214.87 105.484 1216.74 111.481H1216.76ZM1124.26 115.58C1109.98 115.58 1097.43 122.443 1090.18 132.809C1088.07 131.539 1085.88 130.378 1083.65 129.333C1092.29 116.537 1107.58 108.025 1125.07 108.025C1142.98 108.025 1158.63 116.973 1167.14 130.316C1164.54 131.638 1162.02 133.113 1159.59 134.734C1152.59 123.299 1139.39 115.58 1124.24 115.58H1124.26ZM1154 138.875C1152.59 140.024 1151.22 141.22 1149.91 142.48C1149.21 143.139 1148.53 143.809 1147.87 144.494C1144.01 136.387 1135.02 130.672 1124.53 130.672C1115.11 130.672 1106.9 135.276 1102.53 142.097C1100.68 140.366 1098.74 138.732 1096.72 137.201C1102.68 129.051 1113.03 123.655 1124.8 123.655C1137.34 123.682 1148.25 129.811 1153.98 138.875H1154ZM1124.94 99.9447C1103.73 99.9447 1085.19 110.375 1075.03 125.957C1073.19 125.361 1071.33 124.83 1069.44 124.362C1080.67 104.937 1102.06 92.8954 1125.46 92.8954C1149.06 92.8954 1170.55 105.096 1181.72 124.793C1179.59 125.361 1177.46 126.021 1175.36 126.776C1165.33 110.721 1146.51 99.9447 1124.94 99.9447ZM981.635 212.537C981.188 212.574 980.747 212.611 980.3 212.638C979.853 212.664 979.316 212.701 978.821 212.723L978.055 212.749C977.369 212.749 976.678 212.786 975.986 212.786C974.529 212.786 973.039 212.728 971.544 212.627C972.307 210.359 972.948 208.052 973.465 205.716C974.124 205.716 974.789 205.753 975.459 205.753C977.101 205.753 978.727 205.691 980.337 205.567C980.847 207.903 981.481 210.21 982.236 212.478L981.635 212.537ZM943.825 57.011C941.747 55.6713 939.608 54.4309 937.409 53.2897C946.213 41.3867 960.975 33.5772 977.704 33.5772C994.562 33.5772 1009.41 41.4983 1018.2 53.5502C1015.62 54.8872 1013.12 56.3729 1010.71 57.9998C1003.43 47.8353 991.029 41.1315 976.896 41.1315C963.251 41.1528 951.187 47.4153 943.825 57.011V57.011ZM977.438 49.2547C988.928 49.2547 999.056 54.4008 1005.1 62.2315C1003.03 63.945 1001.06 65.7731 999.195 67.7072C994.828 60.8812 986.62 56.2721 977.188 56.2721C968.22 56.2721 960.347 60.4347 955.841 66.7078C955.4 66.2665 954.964 65.8253 954.506 65.3947C953.134 64.094 951.715 62.8535 950.251 61.6733C956.309 54.1509 966.22 49.2547 977.438 49.2547ZM1016.75 95.3249C1014.69 93.987 1012.56 92.7556 1010.37 91.6355C1018.94 78.5151 1034.45 69.7487 1052.18 69.7487C1069.48 69.7487 1084.66 78.0898 1093.34 90.6732C1090.94 91.8169 1088.59 93.0875 1086.32 94.4796L1085.69 94.8837C1078.49 84.3204 1065.82 77.303 1051.37 77.303C1036.72 77.303 1023.9 84.5277 1016.75 95.3249ZM976.896 64.9109C984.524 64.9109 990.912 69.3393 992.785 75.336C990.733 78.1742 988.901 81.1653 987.306 84.2832C984.58 83.8812 981.835 83.6292 979.082 83.5283H978.742C977.869 83.5017 976.997 83.4804 976.119 83.4804C975.353 83.4804 974.582 83.4804 973.81 83.5229C973.417 83.5229 973.023 83.5389 972.629 83.5708L971.842 83.6133C970.714 83.6771 969.587 83.7622 968.47 83.8738C966.55 80.207 964.305 76.7198 961.762 73.4541C964.273 68.4249 970.097 64.9109 976.896 64.9109ZM971.044 139.721C972.27 139.469 973.517 139.341 974.768 139.338C983.651 139.338 990.886 145.34 991.216 152.841C991.216 152.937 991.216 153.032 991.216 153.128C989.004 156.259 987.061 159.57 985.407 163.027C983.929 164.084 982.293 164.902 980.561 165.451V165.451C980.135 165.589 979.704 165.706 979.263 165.812L979.14 165.839C978.715 165.94 978.284 166.02 977.848 166.094H977.688C977.252 166.158 976.811 166.211 976.364 166.248H976.225C975.763 166.28 975.295 166.302 974.816 166.302C974.337 166.302 973.874 166.302 973.411 166.248L972.842 166.19C972.582 166.163 972.31 166.137 972.055 166.1L971.358 165.977L970.741 165.86L970.007 165.68L969.672 165.584C967.902 161.451 965.728 157.504 963.182 153.798C966.343 149.431 968.977 144.706 971.028 139.721H971.044ZM978.779 191.644V192.447C978.814 194.151 978.912 195.845 979.071 197.529H978.795C978.38 197.529 977.965 197.577 977.545 197.593C976.89 197.593 976.231 197.635 975.566 197.635H974.72C974.883 195.913 974.984 194.18 975.023 192.436V191.639V190.852C975.023 190.597 975.023 190.347 975.023 190.097C975.555 190.097 976.087 190.097 976.619 190.054H977.002C977.614 190.022 978.22 189.985 978.821 189.927C978.821 190.246 978.821 190.559 978.789 190.873L978.779 191.644ZM979.587 181.75C978.89 181.83 978.194 181.894 977.491 181.937H977.337L976.438 181.979H975.305C974.959 181.979 974.619 181.979 974.273 181.979C973.911 179.588 973.419 177.219 972.8 174.882C973.098 174.909 973.39 174.924 973.688 174.94C974.135 174.967 974.582 174.983 975.034 174.983C975.486 174.983 976.098 174.983 976.63 174.935H976.678C978.199 174.846 979.711 174.634 981.199 174.302C980.524 176.753 979.988 179.24 979.593 181.75H979.587ZM998.37 144.494C998.301 144.346 998.227 144.207 998.152 144.064C998.137 144.026 998.119 143.988 998.099 143.952C997.961 143.681 997.817 143.421 997.663 143.144C997.338 142.581 996.993 142.028 996.599 141.491C996.429 141.246 996.253 141.002 996.067 140.757C996.035 140.709 995.998 140.667 995.961 140.619C995.806 140.417 995.647 140.22 995.487 140.024L995.344 139.848C995.189 139.662 995.03 139.476 994.865 139.317L994.716 139.146C994.54 138.955 994.365 138.769 994.184 138.583L994.062 138.455C993.615 137.998 993.141 137.557 992.652 137.132L992.567 137.057C992.354 136.876 992.141 136.701 991.923 136.526L991.716 136.361L991.184 135.941L990.934 135.76C990.753 135.632 990.577 135.505 990.402 135.383L990.141 135.202L989.572 134.84L989.322 134.681L988.636 134.277L988.481 134.192C988.199 134.032 987.907 133.873 987.614 133.724L987.465 133.649C987.226 133.532 986.981 133.41 986.737 133.299L986.439 133.166L985.838 132.9L985.497 132.762L984.912 132.533L984.556 132.4C984.354 132.326 984.151 132.257 983.949 132.193L983.603 132.076C983.38 132.001 983.151 131.932 982.917 131.869L982.641 131.783C982.316 131.693 981.992 131.608 981.662 131.528L981.524 131.502C981.242 131.433 980.954 131.369 980.672 131.31L980.327 131.247L979.662 131.13L979.268 131.066L978.63 130.981L978.22 130.933C978.007 130.906 977.789 130.885 977.571 130.869L977.183 130.779L976.47 130.736H976.13C975.779 130.736 975.422 130.736 975.066 130.736C974.709 130.736 974.385 130.736 974.05 130.763C974.642 128.441 975.109 126.09 975.449 123.719C975.896 123.719 976.337 123.719 976.779 123.751H976.938C977.321 123.751 977.704 123.788 978.082 123.814H978.321C978.683 123.841 979.045 123.873 979.385 123.915H979.609C980.002 123.963 980.391 124.011 980.774 124.07H980.88C981.742 124.197 982.593 124.357 983.428 124.543L983.619 124.585C983.955 124.66 984.284 124.739 984.619 124.825L984.965 124.92L985.79 125.149L986.199 125.271L986.955 125.51L987.375 125.654L988.114 125.914L988.524 126.063C988.875 126.201 989.221 126.34 989.588 126.483C989.79 126.563 989.982 126.653 990.178 126.738L990.646 126.946L991.295 127.254L991.668 127.435C991.896 127.546 992.125 127.663 992.349 127.786C992.45 127.834 992.546 127.887 992.641 127.94C992.886 128.073 993.136 128.206 993.375 128.344L993.53 128.434C997.988 130.966 1001.76 134.542 1004.54 138.854C1003.13 140.002 1001.76 141.198 1000.44 142.458C999.716 143.139 999.041 143.809 998.376 144.494H998.37ZM1010.07 134.734C1010.03 134.66 1009.97 134.585 1009.93 134.505L1009.55 133.905L1009.2 133.373L1008.8 132.799L1008.41 132.267C1008.28 132.086 1008.15 131.906 1008.02 131.736C1007.89 131.565 1007.71 131.332 1007.55 131.135C1007.39 130.938 1007.32 130.832 1007.2 130.683C1006.92 130.343 1006.67 130.003 1006.35 129.673L1006.17 129.466C1005.93 129.194 1005.68 128.934 1005.44 128.658C1005.34 128.551 1005.24 128.45 1005.15 128.349L1004.48 127.663L1004.17 127.355C1003.94 127.132 1003.71 126.914 1003.47 126.696L1003.17 126.414L1002.41 125.739L1002.15 125.51C1001.86 125.266 1001.57 125.027 1001.27 124.787L1001.09 124.644C993.954 119.015 985.184 115.844 976.092 115.606C976.092 115.527 976.092 115.447 976.092 115.367V114.58V113.767C976.055 111.837 975.928 109.923 975.731 108.025H975.858C976.39 108.025 976.959 108.025 977.507 108.063H977.938C978.39 108.063 978.843 108.105 979.295 108.137L979.827 108.18C980.247 108.211 980.662 108.249 981.082 108.291L981.614 108.35C982.029 108.399 982.439 108.452 982.843 108.509L983.375 108.584L984.625 108.786L985.109 108.871C985.572 108.956 986.029 109.046 986.492 109.147L986.806 109.211C987.944 109.461 989.061 109.742 990.168 110.067C990.311 110.104 990.45 110.152 990.593 110.194C990.992 110.311 991.386 110.434 991.779 110.561L992.359 110.758L993.365 111.109L994.003 111.348L994.923 111.704L995.588 111.981C995.881 112.103 996.168 112.225 996.45 112.353C996.732 112.48 996.907 112.549 997.131 112.656C997.354 112.762 997.663 112.911 997.955 113.044C998.248 113.177 998.413 113.256 998.636 113.373C998.86 113.49 999.168 113.639 999.424 113.777L1000.11 114.134C1000.37 114.272 1000.64 114.415 1000.87 114.559C1001.34 114.825 1001.81 115.091 1002.27 115.383C1002.46 115.495 1002.65 115.606 1002.84 115.723C1003.11 115.893 1003.37 116.074 1003.65 116.255L1004.18 116.606C1004.45 116.786 1004.71 116.973 1004.99 117.137L1005.48 117.488C1005.75 117.685 1006.01 117.882 1006.29 118.084L1006.75 118.429L1007.56 119.072L1007.96 119.391C1008.24 119.625 1008.52 119.859 1008.8 120.098L1009.09 120.359C1009.39 120.619 1009.69 120.891 1009.99 121.162C1011.4 122.468 1012.73 123.86 1013.98 125.33L1014.14 125.516C1014.4 125.829 1014.67 126.148 1014.91 126.473L1015.11 126.722C1015.36 127.041 1015.61 127.36 1015.84 127.685L1016.03 127.945C1016.27 128.275 1016.51 128.604 1016.74 128.939L1016.89 129.168C1017.13 129.519 1017.37 129.875 1017.6 130.231C1015.01 131.582 1012.51 133.085 1010.1 134.734H1010.07ZM1025.86 126.76C1025.58 126.313 1025.29 125.867 1024.99 125.431L1024.87 125.229C1024.59 124.825 1024.33 124.421 1024.02 124.022L1023.81 123.724C1023.53 123.341 1023.28 122.969 1022.96 122.592L1022.7 122.257C1022.41 121.89 1022.13 121.528 1021.83 121.194L1021.55 120.853C1021.25 120.497 1020.95 120.146 1020.64 119.79L1020.36 119.466C1020.04 119.115 1019.73 118.769 1019.4 118.403C1019.31 118.307 1019.22 118.217 1019.14 118.121C1018.8 117.77 1018.46 117.419 1018.11 117.058L1017.92 116.877C1016.27 115.25 1014.52 113.725 1012.68 112.31L1012.64 112.278C1012.26 111.991 1011.87 111.704 1011.49 111.422L1011.11 111.146C1010.75 110.896 1010.4 110.652 1010.04 110.407L1009.51 110.056L1008.48 109.392L1007.89 109.019L1006.88 108.408L1006.23 108.031C1005.9 107.839 1005.57 107.653 1005.23 107.467L1004.54 107.09C1004.21 106.914 1003.88 106.739 1003.54 106.558C1003.3 106.43 1003.05 106.314 1002.8 106.191C1002.47 106.026 1002.14 105.862 1001.8 105.707L1001.02 105.351L1000.03 104.91L999.205 104.564C998.876 104.432 998.551 104.293 998.221 104.166C997.892 104.038 997.514 103.895 997.157 103.767C996.626 103.576 996.141 103.395 995.625 103.235C995.274 103.113 994.918 102.991 994.562 102.879C994.205 102.768 993.976 102.698 993.689 102.608C993.402 102.518 992.992 102.395 992.625 102.3L991.732 102.055C991.381 101.96 991.029 101.864 990.668 101.779L989.769 101.561L988.705 101.316L987.795 101.13C987.428 101.056 987.066 100.987 986.694 100.923C986.322 100.859 986.088 100.811 985.784 100.763C985.481 100.716 985.034 100.641 984.657 100.588C984.279 100.535 984.056 100.498 983.752 100.46C983.364 100.407 982.97 100.365 982.577 100.317L981.699 100.221C981.284 100.179 980.864 100.147 980.449 100.115L979.619 100.051C979.156 100.019 978.688 99.9979 978.22 99.9766C977.986 99.9766 977.757 99.95 977.523 99.9447C976.821 99.9447 976.114 99.9075 975.396 99.9075C975.039 99.9075 974.688 99.9075 974.332 99.9075C973.791 97.5593 973.125 95.2417 972.337 92.9645C972.938 92.9326 973.523 92.9114 974.108 92.8901H974.156C974.747 92.8901 975.332 92.8901 975.917 92.8901C976.709 92.8901 977.513 92.8901 978.289 92.9326L978.938 92.9645C979.523 92.9911 980.103 93.023 980.683 93.0602L981.327 93.1134C981.928 93.1612 982.529 93.2144 983.125 93.2782L983.598 93.3367C984.29 93.4164 984.981 93.5015 985.662 93.6025H985.816C1005.81 96.5849 1022.82 108.44 1032.13 124.755C1030.04 125.337 1027.96 126.003 1025.89 126.754L1025.86 126.76ZM1041.72 122.921C1039.86 119.244 1037.67 115.741 1035.19 112.454C1036.64 105.968 1043.31 101.066 1051.34 101.066C1058.96 101.066 1065.37 105.49 1067.24 111.481C1064.49 114.997 1062.09 118.767 1060.06 122.741C1057.27 122.433 1054.46 122.277 1051.66 122.273C1048.34 122.272 1045.03 122.487 1041.75 122.916L1041.72 122.921ZM1051.61 92.4276C1041.6 92.4276 1032.96 97.6162 1028.83 105.139C1028.35 104.644 1027.85 104.155 1027.33 103.677C1025.97 102.38 1024.56 101.141 1023.11 99.9553C1028.96 91.2474 1039.63 85.4049 1051.88 85.4049C1063.62 85.4049 1073.94 90.7689 1079.92 98.8868C1077.79 100.53 1075.75 102.291 1073.82 104.16C1069.53 97.1643 1061.23 92.4223 1051.66 92.4223L1051.61 92.4276ZM1126.89 49.26C1138.38 49.26 1148.51 54.4061 1154.55 62.2369C1152.48 63.9503 1150.51 65.7784 1148.64 67.7126C1144.28 60.8865 1136.07 56.2774 1126.64 56.2774C1117.66 56.2774 1109.8 60.4506 1105.29 66.7344C1103.51 64.9625 1101.64 63.2839 1099.68 61.7052C1105.76 54.1669 1115.68 49.2547 1126.91 49.2547L1126.89 49.26ZM1093.23 57.0695C1091.16 55.7334 1089.02 54.5036 1086.81 53.3801C1095.61 41.4399 1110.39 33.6038 1127.15 33.6038C1144.01 33.6038 1158.86 41.5249 1167.65 53.5768C1165.07 54.9138 1162.57 56.3995 1160.16 58.0264C1152.88 47.8618 1140.48 41.1581 1126.35 41.1581C1112.7 41.1528 1100.62 47.4365 1093.26 57.0642L1093.23 57.0695ZM1126.35 64.9162C1133.97 64.9162 1140.36 69.3446 1142.23 75.3413C1140.19 78.184 1138.36 81.1767 1136.77 84.2938C1130.53 83.3634 1124.19 83.2151 1117.91 83.8525C1116 80.196 1113.77 76.7178 1111.23 73.4594C1113.75 68.4409 1119.57 64.9109 1126.37 64.9109L1126.35 64.9162ZM1159.8 91.6621C1168.36 78.531 1183.89 69.754 1201.63 69.754C1218.93 69.754 1234.11 78.0951 1242.79 90.6786C1240.38 91.8223 1238.04 93.0928 1235.77 94.485L1235.14 94.889C1227.94 84.3257 1215.27 77.3083 1200.82 77.3083C1186.17 77.3083 1173.34 84.5277 1166.19 95.3462C1165.77 95.0751 1165.36 94.8146 1164.93 94.5381C1163.29 93.5015 1161.58 92.5499 1159.83 91.6567L1159.8 91.6621ZM1276.36 49.26C1287.85 49.26 1297.98 54.4061 1304.03 62.2369C1301.96 63.9503 1299.99 65.7784 1298.12 67.7126C1293.75 60.8865 1285.55 56.2774 1276.11 56.2774C1267.14 56.2774 1259.27 60.4506 1254.77 66.7397C1252.99 64.9647 1251.12 63.2842 1249.16 61.7052C1255.24 54.1669 1265.16 49.2547 1276.39 49.2547L1276.36 49.26ZM1242.71 57.0695C1240.63 55.7334 1238.49 54.5036 1236.29 53.3801C1245.09 41.4399 1259.87 33.6038 1276.63 33.6038C1293.49 33.6038 1308.34 41.5249 1317.12 53.5768C1314.54 54.915 1312.04 56.4006 1309.63 58.0264C1302.36 47.8618 1289.95 41.1581 1275.82 41.1581C1262.18 41.1528 1250.1 47.4365 1242.74 57.0642L1242.71 57.0695ZM1275.82 64.9162C1283.45 64.9162 1289.84 69.3446 1291.71 75.3466C1289.67 78.1867 1287.84 81.1777 1286.24 84.2938C1280 83.3634 1273.67 83.2151 1267.39 83.8525C1265.48 80.196 1263.24 76.7178 1260.71 73.4594C1263.23 68.4409 1269.05 64.9109 1275.85 64.9109L1275.82 64.9162ZM1277.04 18.4739C1299.38 18.4739 1320.29 29.7176 1331.8 47.8618C1329.61 48.4573 1327.46 49.1501 1325.35 49.9405C1314.99 35.2359 1296.99 25.4859 1276.51 25.4859C1256.14 25.4859 1238.21 35.1189 1227.84 49.6906C1226 49.0279 1224.13 48.4342 1222.23 47.9097C1233.76 29.7389 1254.69 18.4685 1277.07 18.4685L1277.04 18.4739ZM1202.04 54.6241C1225.28 54.6241 1246.37 66.3835 1257.7 85.458C1255.5 85.9755 1253.33 86.5904 1251.19 87.3028C1240.98 71.8858 1222.55 61.6361 1201.51 61.6361C1180.16 61.6361 1161.5 72.2154 1151.38 87.9779C1149.59 87.3258 1147.77 86.741 1145.92 86.2236C1157.16 66.6812 1178.45 54.6187 1202.06 54.6187L1202.04 54.6241ZM1127.56 18.4739C1149.91 18.4739 1170.82 29.7176 1182.32 47.8618C1180.13 48.4573 1177.98 49.1501 1175.87 49.9405C1165.51 35.2359 1147.52 25.4859 1127.04 25.4859C1106.66 25.4859 1088.74 35.1189 1078.36 49.6906C1076.52 49.0279 1074.65 48.4342 1072.76 47.9097C1084.28 29.7389 1105.21 18.4685 1127.59 18.4685L1127.56 18.4739ZM1052.56 54.6241C1075.81 54.6241 1096.9 66.3835 1108.22 85.458C1106.02 85.9755 1103.85 86.5904 1101.71 87.3028C1091.5 71.8858 1073.08 61.6361 1052.03 61.6361C1030.69 61.6361 1012.04 72.2047 1001.92 87.9567C1000.13 87.3081 998.305 86.7268 996.45 86.2129C1007.68 66.6759 1028.98 54.6187 1052.59 54.6187L1052.56 54.6241ZM978.087 18.4739C1000.43 18.4739 1021.34 29.7176 1032.85 47.8618C1030.66 48.4573 1028.51 49.1501 1026.39 49.9405C1016.04 35.2359 998.04 25.4859 977.561 25.4859C957.214 25.4859 939.314 35.0923 928.925 49.6375C927.102 48.9782 925.251 48.3917 923.371 47.8778C934.627 30.3024 954.974 18.4685 978.114 18.4685L978.087 18.4739ZM903.083 54.6241C937.984 54.6241 966.624 81.5187 966.916 114.564C966.804 125.862 963.389 136.881 957.091 146.265C955.91 144.968 954.669 143.708 953.368 142.485C953.043 142.171 952.713 141.868 952.378 141.565C957.63 133.625 960.509 124.352 960.677 114.835V114.835C960.677 114.745 960.677 114.66 960.677 114.57C960.677 114.479 960.677 114.394 960.677 114.304C960.209 85.155 934.356 61.6733 902.53 61.6733C881.177 61.6733 862.517 72.2526 852.405 88.0151C850.607 87.363 848.786 86.7782 846.942 86.2608C858.203 66.6812 879.502 54.6187 903.11 54.6187L903.083 54.6241ZM942.484 114.57C942.484 114.479 942.484 114.394 942.484 114.304C942.021 93.8045 924.026 77.3083 901.87 77.3083C887.22 77.3083 874.39 84.5277 867.246 95.3462C866.826 95.0751 866.411 94.8146 865.985 94.5381C864.315 93.5068 862.602 92.5552 860.857 91.6621C869.411 78.531 884.938 69.754 902.679 69.754C929.473 69.754 951.224 89.7695 951.533 114.57C951.434 122.106 949.338 129.482 945.458 135.946C943.07 134.247 940.583 132.692 938.01 131.289C940.818 126.249 942.356 120.602 942.489 114.835C942.521 114.74 942.516 114.655 942.511 114.564L942.484 114.57ZM927.494 114.57C927.494 114.479 927.494 114.394 927.494 114.304C927.02 102.151 915.86 92.4276 902.147 92.4276C892.136 92.4276 883.491 97.6162 879.369 105.144C877.552 103.318 875.638 101.591 873.634 99.9713C879.486 91.258 890.162 85.4102 902.418 85.4102C920.701 85.4102 935.548 98.419 935.872 114.57C935.767 119.423 934.352 124.159 931.776 128.275C929.252 127.198 926.67 126.263 924.042 125.473C926.139 122.309 927.333 118.633 927.494 114.841V114.841C927.531 114.74 927.521 114.655 927.521 114.564L927.494 114.57ZM918.313 114.57C918.126 117.868 916.683 120.971 914.28 123.24C906.979 122.073 899.547 121.967 892.215 122.927C890.36 119.255 888.181 115.755 885.704 112.47C887.151 105.979 893.832 101.066 901.865 101.066C910.775 101.061 918.009 107.063 918.339 114.564L918.313 114.57ZM825.265 115.585C810.982 115.585 798.433 122.448 791.188 132.815C789.07 131.544 786.888 130.384 784.651 129.338C793.29 116.542 808.588 108.031 826.073 108.031C843.989 108.031 859.639 116.978 868.145 130.321C865.543 131.643 863.022 133.118 860.597 134.739C853.639 123.299 840.441 115.58 825.291 115.58L825.265 115.585ZM855 138.881C853.596 140.029 852.229 141.225 850.91 142.485C850.213 143.144 849.537 143.814 848.872 144.5C845.011 136.393 836.021 130.678 825.536 130.678C816.11 130.678 807.907 135.282 803.535 142.102C801.684 140.371 799.745 138.737 797.726 137.206C803.689 129.056 814.035 123.66 825.807 123.66C838.383 123.682 849.298 129.811 855.027 138.875L855 138.881ZM825.983 99.9447C804.78 99.9447 786.236 110.375 776.076 125.957C774.235 125.361 772.373 124.83 770.49 124.362C781.72 104.937 803.109 92.8954 826.509 92.8954C850.112 92.8954 871.597 105.096 882.763 124.793C880.635 125.361 878.507 126.021 876.411 126.776C866.373 110.721 847.553 99.9447 825.983 99.9447ZM752.702 92.4223C742.691 92.4223 734.047 97.6109 729.924 105.139C728.107 103.313 726.193 101.586 724.19 99.966C730.041 91.2527 740.717 85.4049 752.973 85.4049C764.713 85.4049 775.033 90.7689 781.007 98.8868C778.878 100.53 776.843 102.291 774.911 104.16C770.581 97.1643 762.277 92.4223 752.702 92.4223ZM768.331 111.481C765.582 114.994 763.178 118.763 761.149 122.735C755.041 122.062 748.874 122.124 742.781 122.921C740.926 119.249 738.747 115.75 736.27 112.464C737.717 105.973 744.398 101.061 752.431 101.061C760.038 101.061 766.442 105.484 768.315 111.481H768.331ZM675.831 115.58C661.548 115.58 648.999 122.443 641.754 132.809C639.636 131.539 637.454 130.378 635.217 129.333C643.856 116.537 659.154 108.025 676.639 108.025C694.555 108.025 710.205 116.973 718.711 130.316C716.109 131.638 713.589 133.113 711.163 134.734C704.162 123.299 690.965 115.58 675.815 115.58H675.831ZM705.566 138.875C704.162 140.024 702.795 141.22 701.476 142.48C700.779 143.139 700.103 143.809 699.438 144.494C695.577 136.387 686.587 130.672 676.102 130.672C666.676 130.672 658.473 135.276 654.101 142.097C652.25 140.366 650.311 138.732 648.292 137.201C654.255 129.051 664.601 123.655 676.373 123.655C688.906 123.682 699.821 129.811 705.551 138.875H705.566ZM676.506 99.9447C655.303 99.9447 636.759 110.375 626.599 125.957C624.759 125.361 622.897 124.83 621.014 124.362C632.243 104.937 653.633 92.8954 677.033 92.8954C700.635 92.8954 722.121 105.096 733.286 124.793C731.158 125.361 729.031 126.021 726.935 126.776C716.897 110.721 698.077 99.9447 676.506 99.9447ZM603.226 92.4223C593.214 92.4223 584.576 97.6109 580.448 105.139C579.958 104.644 579.458 104.15 578.948 103.671C577.586 102.374 576.171 101.136 574.719 99.95C580.57 91.2421 591.246 85.3996 603.497 85.3996C615.237 85.3996 625.557 90.7636 631.53 98.8815C629.402 100.525 627.367 102.285 625.434 104.155C621.104 97.1643 612.801 92.4223 603.226 92.4223ZM618.854 111.476C616.107 114.992 613.702 118.762 611.673 122.735C608.868 122.428 606.048 122.273 603.226 122.273C599.912 122.272 596.601 122.487 593.315 122.916C591.455 119.237 589.269 115.732 586.783 112.443C588.241 105.963 594.911 101.061 602.938 101.061C610.561 101.061 616.966 105.484 618.838 111.476H618.854ZM555.824 127.387C555.728 127.291 555.638 127.196 555.542 127.105C555.297 126.871 555.047 126.643 554.797 126.414L554.59 126.223C554.292 125.95 553.989 125.684 553.68 125.425L553.611 125.367C546.322 119.28 537.185 115.838 527.689 115.601C527.689 115.521 527.689 115.441 527.689 115.362V114.575V113.767C527.652 111.837 527.524 109.923 527.328 108.025H527.455C527.987 108.025 528.551 108.025 529.099 108.063H529.525C529.977 108.063 530.429 108.11 530.876 108.142L531.408 108.18L532.658 108.296L533.19 108.355C533.594 108.403 533.993 108.451 534.397 108.509L534.929 108.584L536.142 108.78L536.674 108.871C537.105 108.95 537.536 109.035 537.961 109.126L538.371 109.211C538.903 109.328 539.435 109.45 539.967 109.583H540.031C540.594 109.727 541.153 109.881 541.706 110.04L542.063 110.147C542.477 110.269 542.898 110.396 543.307 110.535L543.892 110.731C544.228 110.843 544.557 110.955 544.882 111.077L545.547 111.321L546.43 111.667C546.669 111.757 546.903 111.853 547.137 111.954L547.946 112.3L548.68 112.624L549.425 112.975C549.68 113.097 549.957 113.214 550.18 113.342C550.403 113.469 550.632 113.57 550.856 113.687C551.079 113.804 551.388 113.958 551.648 114.102L552.18 114.394C553.287 115.011 554.366 115.659 555.414 116.351L555.68 116.526C556.005 116.744 556.319 116.962 556.638 117.185C556.75 117.27 556.867 117.35 556.984 117.43C557.292 117.653 557.595 117.876 557.904 118.11L558.244 118.365L559.149 119.078L559.452 119.328C559.76 119.577 560.069 119.833 560.367 120.093L560.606 120.3C560.925 120.582 561.239 120.859 561.553 121.146L561.665 121.252C563.818 123.244 565.777 125.435 567.516 127.796L567.564 127.86C567.841 128.232 568.096 128.615 568.367 128.998L568.442 129.099C568.702 129.482 568.974 129.864 569.202 130.252V130.284C566.601 131.606 564.08 133.081 561.654 134.702L561.59 134.601L561.191 133.974L560.888 133.506L560.484 132.916L560.149 132.432C560.016 132.246 559.883 132.065 559.744 131.9C559.606 131.736 559.494 131.56 559.361 131.395C559.228 131.231 559.101 131.055 558.968 130.89L558.537 130.359L558.154 129.902L557.67 129.37L557.308 128.966L556.776 128.376L556.441 128.025C556.234 127.802 556.021 127.589 555.808 127.387H555.824ZM556.09 138.875C554.686 140.024 553.318 141.22 551.999 142.48C551.302 143.139 550.627 143.809 549.962 144.494L549.925 144.42C549.84 144.245 549.755 144.075 549.664 143.888L549.499 143.569L549.217 143.038L549.047 142.751C548.701 142.171 548.329 141.602 547.935 141.05C547.866 140.954 547.797 140.858 547.722 140.768C547.648 140.677 547.488 140.46 547.371 140.305L547.137 140.013L546.765 139.566C546.69 139.476 546.611 139.391 546.531 139.301C546.292 139.029 546.047 138.769 545.791 138.503L545.541 138.243L545.143 137.855L544.834 137.567L544.43 137.201L544.095 136.908L543.648 136.627L543.238 136.302C543.02 136.137 542.807 135.973 542.584 135.813C542.44 135.707 542.291 135.595 542.142 135.494C541.993 135.393 541.871 135.308 541.733 135.218L541.302 134.936L540.887 134.675L540.403 134.388L540.02 134.165C539.743 134.011 539.461 133.857 539.174 133.713L538.855 133.554L538.248 133.261L537.855 133.086L537.28 132.836L536.887 132.677L536.222 132.421L535.913 132.31C535.589 132.193 535.27 132.086 534.94 131.985L534.637 131.895L533.913 131.688L533.53 131.592L532.833 131.422L532.477 131.31C532.184 131.247 531.892 131.193 531.599 131.14L531.413 131.103C531.057 131.045 530.7 130.991 530.349 130.943L530.03 130.906C529.769 130.874 529.498 130.842 529.243 130.821L528.865 130.784L528.078 130.736H527.732C527.36 130.736 526.982 130.71 526.604 130.71C526.227 130.71 525.923 130.71 525.588 130.71C526.181 128.39 526.648 126.041 526.987 123.671C527.423 123.671 527.86 123.671 528.29 123.671H528.423C528.806 123.671 529.184 123.708 529.562 123.735H529.791L530.854 123.825L531.104 123.852L532.168 123.985L532.386 124.016C532.764 124.07 533.137 124.128 533.509 124.197H533.615C534.45 124.346 535.27 124.527 536.083 124.729H536.169C536.525 124.819 536.881 124.915 537.232 125.016L537.536 125.106C537.819 125.184 538.096 125.269 538.366 125.361L538.749 125.489C538.999 125.569 539.238 125.654 539.483 125.744L539.903 125.898L540.578 126.159L541.015 126.334L541.653 126.605L542.1 126.802L542.717 127.095C543.041 127.249 543.366 127.408 543.68 127.573L544.1 127.786L544.717 128.126L545.079 128.328L545.706 128.7L546.026 128.891L546.664 129.301L546.935 129.476L547.6 129.928L547.792 130.066L548.504 130.598H548.542C551.535 132.877 554.087 135.682 556.074 138.875H556.09ZM568.458 115.893L568.346 115.787C567.968 115.436 567.585 115.091 567.192 114.724L566.936 114.5C566.569 114.176 566.192 113.863 565.814 113.549L565.489 113.283C565.117 112.98 564.739 112.682 564.362 112.39L564.016 112.124L562.846 111.258L562.542 111.045C562.128 110.753 561.707 110.455 561.282 110.173C559.888 109.237 558.45 108.351 556.968 107.515C556.813 107.435 556.664 107.345 556.515 107.265C556.161 107.067 555.794 106.875 555.414 106.691L554.76 106.351L553.696 105.846L552.946 105.495L551.93 105.038L551.095 104.729C550.765 104.586 550.43 104.453 550.095 104.315L549.217 103.98C548.893 103.852 548.568 103.73 548.238 103.613C547.909 103.496 547.595 103.39 547.276 103.278L546.345 102.959C545.946 102.831 545.547 102.714 545.148 102.592L544.127 102.294C543.595 102.14 543.063 101.991 542.531 101.853L541.743 101.667C541.339 101.571 540.935 101.47 540.525 101.385L539.663 101.205C539.275 101.125 538.882 101.045 538.488 100.976L537.605 100.822C537.211 100.753 536.818 100.689 536.419 100.63L535.53 100.508C535.126 100.45 534.716 100.402 534.312 100.354L533.434 100.258C533.009 100.216 532.583 100.179 532.152 100.147C531.876 100.147 531.62 100.099 531.323 100.083C530.849 100.051 530.37 100.024 529.897 100.003L529.179 99.9447C528.466 99.9447 527.748 99.9075 527.051 99.9075C526.695 99.9075 526.344 99.9075 525.987 99.9075C525.436 97.5696 524.762 95.2627 523.966 92.9964C524.578 92.9645 525.173 92.9379 525.764 92.922C526.354 92.906 526.95 92.922 527.546 92.922C528.344 92.922 529.142 92.922 529.929 92.9698L530.588 93.0017C531.174 93.0017 531.759 93.0549 532.339 93.0974L532.988 93.1506C533.594 93.1984 534.2 93.2516 534.801 93.3154L535.27 93.3686C535.977 93.4536 536.679 93.544 537.397 93.645H537.52C557.489 96.638 574.458 108.493 583.762 124.793C581.634 125.356 579.534 126.012 577.463 126.76C577.462 126.745 577.462 126.731 577.463 126.717C577.176 126.26 576.878 125.803 576.575 125.356L576.469 125.197C576.166 124.75 575.857 124.304 575.538 123.868L575.447 123.74C573.374 120.907 571.033 118.28 568.458 115.893V115.893ZM529.009 49.2547C540.499 49.2547 550.627 54.4008 556.67 62.2315C554.601 63.945 552.629 65.7731 550.765 67.7072C546.398 60.8812 538.19 56.2721 528.759 56.2721C519.79 56.2721 511.923 60.4347 507.412 66.7131C506.97 66.2719 506.534 65.8253 506.076 65.3947C504.704 64.094 503.286 62.8535 501.821 61.6733C507.874 54.1509 517.79 49.2547 529.009 49.2547ZM495.395 57.011C493.32 55.6731 491.179 54.44 488.98 53.3163C497.783 41.408 512.545 33.5985 529.285 33.5985C546.143 33.5985 560.994 41.5196 569.777 53.5714C567.198 54.9085 564.699 56.3942 562.292 58.0211C555.01 47.8565 542.61 41.1528 528.477 41.1528C514.822 41.1528 502.757 47.4153 495.395 57.011V57.011ZM528.466 64.9109C536.094 64.9109 542.483 69.3393 544.355 75.336C542.303 78.1742 540.471 81.1653 538.876 84.2832C536.151 83.8812 533.405 83.6292 530.652 83.5283H530.312C529.439 83.5017 528.567 83.4804 527.689 83.4804C526.913 83.4804 526.131 83.4804 525.349 83.5229C524.961 83.5229 524.572 83.5548 524.184 83.5708C523.913 83.5708 523.652 83.5974 523.375 83.6186C522.258 83.6789 521.146 83.7639 520.04 83.8738C518.118 80.2037 515.872 76.713 513.327 73.4434C515.843 68.4302 521.668 64.9109 528.466 64.9109V64.9109ZM561.936 91.6355C570.5 78.5151 586.017 69.7487 603.747 69.7487C621.046 69.7487 636.227 78.0898 644.909 90.6732C642.502 91.8169 640.159 93.0875 637.887 94.4796L637.259 94.8837C630.057 84.3204 617.386 77.303 602.938 77.303C588.294 77.303 575.469 84.5171 568.325 95.3249C566.26 93.9869 564.127 92.7555 561.936 91.6355V91.6355ZM678.485 49.2547C689.975 49.2547 700.103 54.4008 706.146 62.2315C704.077 63.945 702.106 65.7731 700.242 67.7072C695.874 60.8812 687.667 56.2721 678.235 56.2721C669.261 56.2721 661.394 60.4453 656.888 66.7291C655.107 64.9572 653.236 63.2786 651.281 61.6999C657.33 54.1669 667.25 49.2547 678.485 49.2547V49.2547ZM644.829 57.0642C642.754 55.7281 640.614 54.4982 638.408 53.3747C647.207 41.4346 661.99 33.5985 678.751 33.5985C695.608 33.5985 710.46 41.5196 719.243 53.5714C716.664 54.9085 714.165 56.3942 711.758 58.0211C704.476 47.8565 692.076 41.1528 677.943 41.1528C664.272 41.1528 652.191 47.4365 644.829 57.0642V57.0642ZM677.943 64.9109C685.571 64.9109 691.959 69.3393 693.832 75.336C691.777 78.1796 689.94 81.174 688.337 84.2938C682.096 83.3634 675.763 83.2151 669.485 83.8525C667.572 80.196 665.336 76.7178 662.803 73.4594C665.32 68.4409 671.139 64.9109 677.943 64.9109V64.9109ZM711.397 91.6567C719.956 78.5257 735.483 69.7487 753.223 69.7487C770.522 69.7487 785.704 78.0898 794.385 90.6732C791.979 91.8169 789.635 93.0875 787.364 94.4796L786.736 94.8837C779.533 84.3204 766.862 77.303 752.415 77.303C737.765 77.303 724.935 84.5224 717.785 95.3409C717.37 95.0697 716.955 94.8093 716.53 94.5328C714.86 93.5015 713.147 92.5499 711.397 91.6567V91.6567ZM827.962 49.2547C839.452 49.2547 849.58 54.4008 855.623 62.2315C853.554 63.945 851.582 65.7731 849.718 67.7072C845.351 60.8812 837.143 56.2721 827.712 56.2721C818.738 56.2721 810.87 60.4453 806.365 66.7344C804.585 64.9593 802.714 63.2789 800.758 61.6999C806.806 54.1669 816.727 49.2547 827.962 49.2547V49.2547ZM794.306 57.0642C792.231 55.7281 790.091 54.4982 787.885 53.3747C796.683 41.4346 811.466 33.5985 828.228 33.5985C845.085 33.5985 859.937 41.5196 868.719 53.5714C866.139 54.9096 863.639 56.3953 861.23 58.0211C853.953 47.8565 841.548 41.1528 827.419 41.1528C813.748 41.1528 801.668 47.4365 794.306 57.0642V57.0642ZM827.419 64.9109C835.047 64.9109 841.436 69.3393 843.308 75.3413C841.253 78.1823 839.416 81.175 837.813 84.2938C831.572 83.3634 825.239 83.2151 818.961 83.8525C817.049 80.196 814.813 76.7178 812.28 73.4594C814.796 68.4409 820.616 64.9109 827.419 64.9109V64.9109ZM828.637 18.4685C850.979 18.4685 871.89 29.7123 883.396 47.8565C881.208 48.4519 879.057 49.1448 876.943 49.9352C866.586 35.2305 848.591 25.4806 828.111 25.4806C807.737 25.4806 789.811 35.1136 779.438 49.6853C777.597 49.0225 775.728 48.4289 773.831 47.9044C785.332 29.7389 806.258 18.4685 828.637 18.4685V18.4685ZM753.633 54.6187C776.879 54.6187 797.971 66.3782 809.296 85.4527C807.094 85.9702 804.923 86.5851 802.785 87.2975C792.577 71.8805 774.15 61.6308 753.106 61.6308C731.754 61.6308 713.094 72.2101 702.981 87.9726C701.183 87.3205 699.362 86.7357 697.518 86.2183C708.726 66.6812 730.025 54.6187 753.633 54.6187V54.6187ZM679.161 18.4685C701.502 18.4685 722.413 29.7123 733.919 47.8565C731.731 48.4519 729.58 49.1448 727.467 49.9352C717.11 35.2305 699.114 25.4806 678.634 25.4806C658.261 25.4806 640.334 35.1136 629.961 49.6853C628.121 49.0225 626.252 48.4289 624.354 47.9044C635.855 29.7389 656.782 18.4685 679.161 18.4685V18.4685ZM604.156 54.6187C627.402 54.6187 648.494 66.3782 659.819 85.4527C657.617 85.9702 655.447 86.5851 653.308 87.2975C643.1 71.8805 624.674 61.6308 603.63 61.6308C582.283 61.6308 563.633 72.1994 553.515 87.9513C551.724 87.3028 549.902 86.7215 548.047 86.2076C559.255 66.6759 580.554 54.6187 604.156 54.6187V54.6187ZM529.684 18.4685C552.026 18.4685 572.937 29.7123 584.443 47.8565C582.255 48.4519 580.104 49.1448 577.99 49.9352C567.633 35.2305 549.637 25.4806 529.158 25.4806C508.811 25.5178 490.905 35.087 480.517 49.6481C478.69 48.9889 476.841 48.4023 474.968 47.8884C486.198 30.3024 506.545 18.4685 529.684 18.4685V18.4685ZM454.68 54.6187C489.581 54.6187 518.221 81.5134 518.513 114.559C518.401 125.857 514.986 136.876 508.688 146.259C507.507 144.962 506.266 143.702 504.965 142.48C504.64 142.166 504.31 141.863 503.975 141.56C509.236 133.622 512.124 124.35 512.3 114.83V114.83C512.3 114.74 512.3 114.655 512.3 114.564C512.3 114.474 512.3 114.389 512.3 114.298C511.832 85.1497 485.98 61.668 454.153 61.668C432.801 61.668 414.14 72.2473 404.028 88.0098C402.23 87.3577 400.409 86.7729 398.565 86.2555C409.773 66.6812 431.072 54.6187 454.68 54.6187V54.6187ZM494.081 114.564C494.081 114.474 494.081 114.389 494.081 114.298C493.618 93.7992 475.623 77.303 453.467 77.303C438.817 77.303 425.987 84.5224 418.843 95.3409C418.423 95.0697 418.008 94.8093 417.582 94.5328C415.912 93.5015 414.199 92.5499 412.454 91.6567C421.008 78.5257 436.535 69.7487 454.276 69.7487C481.07 69.7487 502.821 89.7642 503.13 114.564C503.031 122.101 500.934 129.477 497.055 135.941C494.667 134.242 492.18 132.687 489.607 131.284C492.411 126.243 493.945 120.596 494.076 114.83V114.83C494.092 114.74 494.086 114.655 494.081 114.564ZM479.091 114.564C479.091 114.474 479.091 114.389 479.091 114.298C478.617 102.146 467.457 92.4223 453.744 92.4223C443.733 92.4223 435.088 97.6109 430.966 105.139C429.146 103.305 427.228 101.571 425.221 99.9447C431.072 91.2314 441.748 85.3836 454.004 85.3836C472.287 85.3836 487.134 98.3924 487.458 114.543C487.353 119.397 485.938 124.132 483.362 128.248C480.838 127.177 478.256 126.247 475.628 125.462C477.726 122.298 478.919 118.622 479.08 114.83C479.102 114.74 479.091 114.655 479.091 114.564V114.564ZM469.91 114.564C469.723 117.863 468.28 120.966 465.877 123.235C458.576 122.067 451.144 121.962 443.812 122.921C441.957 119.249 439.778 115.75 437.301 112.464C438.748 105.973 445.429 101.061 453.462 101.061C462.345 101.061 469.58 107.063 469.91 114.564V114.564ZM376.862 115.58C362.579 115.58 350.03 122.443 342.785 132.809C340.667 131.539 338.485 130.378 336.248 129.333C344.886 116.537 360.185 108.025 377.67 108.025C395.586 108.025 411.236 116.973 419.742 130.316C417.14 131.638 414.619 133.113 412.193 134.734C405.209 123.299 392.012 115.58 376.862 115.58V115.58ZM406.597 138.875C405.193 140.024 403.826 141.22 402.507 142.48C401.81 143.139 401.134 143.809 400.469 144.494C396.608 136.387 387.618 130.672 377.133 130.672C367.707 130.672 359.504 135.276 355.132 142.097C353.281 140.366 351.342 138.732 349.323 137.201C355.286 129.051 365.632 123.655 377.404 123.655C389.953 123.682 400.868 129.811 406.597 138.875V138.875ZM377.553 99.9447C356.35 99.9447 337.806 110.375 327.646 125.957C325.806 125.361 323.944 124.83 322.061 124.362C333.29 104.937 354.68 92.8954 378.08 92.8954C401.682 92.8954 423.168 105.096 434.333 124.793C432.205 125.361 430.077 126.021 427.982 126.776C417.944 110.721 399.124 99.9447 377.553 99.9447ZM304.272 92.4223C294.261 92.4223 285.617 97.6109 281.495 105.139C279.673 103.305 277.753 101.571 275.744 99.9447C281.596 91.2314 292.272 85.3836 304.528 85.3836C316.268 85.3836 326.588 90.7477 332.561 98.8655C330.433 100.509 328.397 102.269 326.465 104.139C322.151 97.1643 313.848 92.4223 304.272 92.4223ZM319.901 111.481C317.153 114.994 314.748 118.763 312.72 122.735C306.612 122.062 300.445 122.124 294.352 122.921C292.496 119.249 290.317 115.75 287.841 112.464C289.288 105.973 295.969 101.061 304.001 101.061C311.608 101.061 318.013 105.484 319.885 111.481H319.901ZM227.401 115.58C213.118 115.58 200.57 122.443 193.325 132.809C191.207 131.539 189.025 130.378 186.787 129.333C195.426 116.537 210.725 108.025 228.21 108.025C246.126 108.025 261.775 116.973 270.281 130.316C267.679 131.638 265.159 133.113 262.733 134.734C255.733 123.299 242.535 115.58 227.385 115.58H227.401ZM257.137 138.875C255.733 140.024 254.365 141.22 253.046 142.48C252.349 143.139 251.674 143.809 251.009 144.494C247.147 136.387 238.157 130.672 227.672 130.672C218.246 130.672 210.044 135.276 205.671 142.097C203.821 140.366 201.882 138.732 199.862 137.201C205.825 129.051 216.172 123.655 227.944 123.655C240.476 123.682 251.392 129.811 257.121 138.875H257.137ZM228.077 99.9447C206.873 99.9447 188.33 110.375 178.17 125.957C176.329 125.361 174.467 124.83 172.584 124.362C183.814 104.937 205.203 92.8954 228.603 92.8954C252.206 92.8954 273.691 105.096 284.857 124.793C282.729 125.361 280.601 126.021 278.505 126.776C268.467 110.721 249.647 99.9447 228.077 99.9447ZM154.796 92.4223C144.785 92.4223 136.141 97.6109 132.018 105.139C130.196 103.305 128.277 101.571 126.268 99.9447C132.119 91.2314 142.795 85.3836 155.051 85.3836C166.791 85.3836 177.111 90.7477 183.085 98.8655C180.956 100.509 178.921 102.269 176.989 104.139C172.675 97.1643 164.371 92.4223 154.796 92.4223ZM170.424 111.476C167.677 114.992 165.273 118.762 163.243 122.735C157.135 122.062 150.968 122.124 144.875 122.921C143.02 119.249 140.841 115.75 138.364 112.464C139.811 105.973 146.492 101.061 154.525 101.061C162.131 101.061 168.536 105.484 170.409 111.476H170.424ZM119.89 95.3409C119.475 95.0697 119.06 94.8093 118.634 94.5328C116.964 93.5015 115.251 92.5499 113.506 91.6567C122.06 78.5257 137.588 69.7487 155.328 69.7487C172.627 69.7487 187.808 78.0898 196.49 90.6732C194.083 91.8169 191.74 93.0875 189.468 94.4796L188.84 94.8837C181.638 84.3204 168.967 77.303 154.519 77.303C139.859 77.303 127.028 84.5277 119.879 95.3409H119.89ZM230.056 49.2547C241.546 49.2547 251.674 54.4008 257.717 62.2315C255.648 63.945 253.676 65.7731 251.812 67.7072C247.445 60.8812 239.237 56.2721 229.806 56.2721C220.832 56.2721 212.964 60.4453 208.459 66.7291C206.678 64.9572 204.806 63.2786 202.852 61.6999C208.9 54.1669 218.821 49.2547 230.056 49.2547ZM196.399 57.0642C194.325 55.7281 192.185 54.4982 189.979 53.3747C198.777 41.4346 213.56 33.5985 230.332 33.5985C247.189 33.5985 262.041 41.5196 270.824 53.5714C268.236 54.9076 265.728 56.3933 263.313 58.0211C256.046 47.8459 243.631 41.1528 229.513 41.1528C215.842 41.1528 203.761 47.4365 196.399 57.0642V57.0642ZM229.513 64.9109C237.141 64.9109 243.53 69.3393 245.402 75.336C243.348 78.1796 241.511 81.174 239.907 84.2938C233.666 83.3634 227.333 83.2151 221.055 83.8525C219.142 80.196 216.906 76.7178 214.374 73.4594C216.89 68.4409 222.709 64.9109 229.513 64.9109V64.9109ZM262.972 91.6567C271.526 78.5257 287.053 69.7487 304.794 69.7487C322.093 69.7487 337.274 78.0898 345.956 90.6732C343.549 91.8169 341.206 93.0875 338.934 94.4796L338.306 94.8837C331.104 84.3204 318.433 77.303 303.985 77.303C289.335 77.303 276.505 84.5224 269.356 95.3409C268.941 95.0697 268.526 94.8093 268.1 94.5328C266.43 93.5015 264.717 92.5499 262.972 91.6567V91.6567ZM379.532 49.2547C391.022 49.2547 401.15 54.4008 407.193 62.2315C405.124 63.945 403.153 65.7731 401.289 67.7072C396.921 60.8812 388.713 56.2721 379.282 56.2721C370.308 56.2721 362.441 60.4453 357.935 66.7344C356.156 64.9593 354.284 63.2789 352.328 61.6999C358.377 54.1669 368.297 49.2547 379.532 49.2547ZM345.876 57.0642C343.801 55.7281 341.661 54.4982 339.455 53.3747C348.254 41.4346 363.036 33.5985 379.809 33.5985C396.666 33.5985 411.518 41.5196 420.3 53.5714C417.713 54.9089 415.205 56.3946 412.789 58.0211C405.523 47.8459 393.107 41.1528 378.99 41.1528C365.319 41.1528 353.238 47.4365 345.876 57.0642ZM378.99 64.9109C386.618 64.9109 393.006 69.3393 394.879 75.3413C392.823 78.1823 390.986 81.175 389.384 84.2938C383.142 83.3634 376.809 83.2151 370.532 83.8525C368.619 80.196 366.383 76.7178 363.85 73.4594C366.366 68.4409 372.186 64.9109 378.99 64.9109V64.9109ZM380.208 18.4685C402.549 18.4685 423.46 29.7123 434.966 47.8565C432.782 48.4519 430.631 49.1448 428.514 49.9352C418.157 35.2305 400.161 25.4806 379.681 25.4806C359.308 25.4806 341.381 35.1136 331.008 49.6853C329.168 49.0225 327.299 48.4289 325.401 47.9044C336.902 29.7389 357.829 18.4685 380.208 18.4685V18.4685ZM305.203 54.6187C328.449 54.6187 349.541 66.3782 360.866 85.4527C358.664 85.9702 356.494 86.5851 354.355 87.2975C344.168 71.923 325.721 61.668 304.677 61.668C283.325 61.668 264.664 72.2473 254.552 88.0098C252.754 87.3577 250.933 86.7729 249.089 86.2555C260.297 66.6812 281.596 54.6187 305.203 54.6187V54.6187ZM230.731 18.4685C253.073 18.4685 273.984 29.7123 285.49 47.8565C283.305 48.4519 281.154 49.1448 279.037 49.9352C268.68 35.2305 250.684 25.4806 230.204 25.4806C209.831 25.4806 191.904 35.1136 181.532 49.6853C179.691 49.0225 177.822 48.4289 175.925 47.9044C187.425 29.7389 208.352 18.4685 230.731 18.4685V18.4685ZM155.727 54.6187C178.973 54.6187 200.064 66.3782 211.39 85.4527C209.187 85.9702 207.017 86.5851 204.879 87.2975C194.692 71.923 176.244 61.668 155.2 61.668C133.848 61.668 115.187 72.2473 105.075 88.0098C103.277 87.3577 101.456 86.7729 99.612 86.2555C110.82 66.6812 132.119 54.6187 155.727 54.6187V54.6187ZM80.3237 56.2721C66.6101 56.2721 55.4499 65.9954 54.9765 78.1483C54.9765 78.2386 54.9765 78.3237 54.9765 78.4141C54.9765 78.5044 54.9765 78.5895 54.9765 78.6799C55.091 81.4905 55.7808 84.2479 57.0032 86.7818C54.5484 87.535 52.1337 88.4134 49.7687 89.4133C48.11 85.9775 47.2032 82.2277 47.109 78.4141C47.4335 62.2634 62.2801 49.2547 80.5684 49.2547C92.0584 49.2547 102.187 54.4008 108.229 62.2315C106.16 63.945 104.189 65.7731 102.325 67.7072C97.947 60.8812 89.7391 56.2721 80.3237 56.2721ZM95.9416 75.336C93.8816 78.179 92.0394 81.1735 90.4306 84.2938C82.2019 83.0702 73.8283 83.2013 65.642 84.6819C64.4043 82.816 63.6948 80.6502 63.5887 78.4141C63.9185 70.9076 71.1476 64.9109 80.0311 64.9109C87.6645 64.9109 94.0532 69.3393 95.9256 75.336H95.9416ZM39.4171 78.4141C39.4171 78.5044 39.4171 78.5895 39.4171 78.6799C39.5257 83.5823 40.6524 88.4086 42.7258 92.8529C40.5607 94.06 38.4585 95.3765 36.4276 96.7975C33.5835 91.0811 32.0653 84.7976 31.9858 78.4141C32.2943 53.614 54.0456 33.5985 80.8343 33.5985C97.6917 33.5985 112.544 41.5196 121.326 53.5714C118.745 54.9083 116.244 56.394 113.836 58.0211C106.57 47.8459 94.1542 41.1528 80.0364 41.1528C57.8862 41.1528 39.8852 57.633 39.4277 78.1483C39.4118 78.2386 39.4171 78.3237 39.4171 78.4141ZM17.4105 78.4141C17.7084 45.3579 46.3483 18.4632 81.2439 18.4632C103.586 18.4632 124.496 29.707 136.002 47.8512C133.818 48.4466 131.667 49.1395 129.55 49.9298C119.193 35.2252 101.197 25.4753 80.7173 25.4753C48.8963 25.5178 23.0491 48.9995 22.581 78.1483C22.581 78.2386 22.581 78.3237 22.581 78.4141C22.581 78.5044 22.581 78.5895 22.581 78.6799C22.723 87.0815 24.9883 95.3109 29.1665 102.603C28.78 102.957 28.397 103.312 28.0175 103.666C27.0015 104.628 26.0227 105.617 25.0758 106.622C20.1517 98.0299 17.5127 88.3203 17.4105 78.4194V78.4141ZM79.1161 212.781C44.2099 212.781 15.57 185.886 15.2827 152.836C15.5806 119.785 44.2205 92.8901 79.1161 92.8901C102.719 92.8901 124.204 105.091 135.369 124.787C133.242 125.356 131.114 126.015 129.018 126.77C118.991 110.721 100.171 99.9447 78.6001 99.9447C46.7686 99.9447 20.9214 123.448 20.4532 152.575C20.4532 152.666 20.4532 152.751 20.4532 152.841C20.4532 152.931 20.4532 153.016 20.4532 153.107C20.9214 182.256 46.7686 205.737 78.6001 205.737C80.2439 205.737 81.8716 205.668 83.4781 205.546C83.9877 207.882 84.6216 210.189 85.3771 212.457C83.2919 212.68 81.1907 212.786 79.1268 212.786L79.1161 212.781ZM52.8221 152.841C52.8221 152.931 52.8221 153.016 52.8221 153.107C53.2955 165.26 64.4557 174.983 78.1693 174.983C80.2365 174.98 82.297 174.748 84.3132 174.292C83.6404 176.74 83.1076 179.225 82.7174 181.735C81.2959 181.899 79.8662 181.982 78.4352 181.984C60.147 181.984 45.3004 168.976 44.9759 152.825C45.3004 136.674 60.147 123.666 78.4352 123.666C90.9838 123.666 101.899 129.795 107.628 138.859C106.224 140.008 104.857 141.204 103.538 142.464C102.841 143.123 102.165 143.793 101.5 144.479C97.6385 136.371 88.6486 130.656 78.164 130.656C64.4504 130.656 53.2902 140.38 52.8168 152.533C52.8115 152.666 52.8221 152.751 52.8221 152.841ZM77.9086 115.58C55.7584 115.58 37.7574 132.06 37.2999 152.575C37.2999 152.666 37.2999 152.751 37.2999 152.841C37.2999 152.931 37.2999 153.016 37.2999 153.107C37.7574 173.606 55.7584 190.102 77.9086 190.102C79.281 190.102 80.6322 190.028 81.9674 189.9C81.9674 190.219 81.9408 190.533 81.9354 190.852V191.644V192.447C81.9709 194.151 82.0684 195.847 82.228 197.534C81.0684 197.609 79.8981 197.657 78.7225 197.657C51.9284 197.657 30.1772 177.641 29.8687 152.841C30.1772 128.041 51.9284 108.025 78.7172 108.025C96.6331 108.025 112.283 116.973 120.789 130.316C118.187 131.638 115.666 133.113 113.24 134.734C106.256 123.299 93.0584 115.58 77.9086 115.58V115.58ZM88.5475 163.027C85.4377 165.222 81.7155 166.382 77.9086 166.344C69.0251 166.344 61.796 160.342 61.4662 152.841C61.796 145.334 69.0251 139.338 77.9086 139.338C86.7921 139.338 94.0266 145.34 94.3564 152.841C94.3564 152.937 94.3564 153.032 94.3564 153.128C92.1378 156.258 90.1875 159.569 88.5262 163.027H88.5475ZM154.684 251.595C119.778 251.595 91.1381 224.7 90.8508 191.649C91.1487 158.598 119.789 131.704 154.684 131.704C189.58 131.704 218.225 158.598 218.518 191.644C218.204 224.7 189.564 251.595 154.663 251.595H154.684ZM228.625 212.786C227.167 212.786 225.678 212.728 224.188 212.627C224.947 210.358 225.586 208.051 226.103 205.716C226.763 205.716 227.428 205.753 228.098 205.753C229.742 205.753 231.364 205.679 232.976 205.556C233.485 207.893 234.121 210.2 234.88 212.468C232.768 212.68 230.667 212.786 228.603 212.786H228.625ZM227.672 191.649V190.852C227.672 190.602 227.672 190.347 227.646 190.097C228.933 190.097 230.204 190.022 231.46 189.906C231.46 190.219 231.46 190.533 231.428 190.852V191.644V192.447C231.467 194.151 231.564 195.847 231.721 197.534C230.561 197.616 229.392 197.657 228.215 197.657H227.369C227.536 195.934 227.637 194.201 227.672 192.457V191.649ZM227.933 182C227.587 182 227.247 182 226.901 182C226.538 179.609 226.044 177.24 225.422 174.903C226.162 174.962 226.901 175.004 227.656 175.004C229.723 175 231.784 174.77 233.8 174.318C233.127 176.767 232.594 179.252 232.205 181.761C230.785 181.921 229.357 182.001 227.928 182H227.933ZM238.008 163.027C234.898 165.221 231.176 166.381 227.369 166.344C225.632 166.346 223.903 166.108 222.231 165.637C219.608 159.525 216.116 153.824 211.863 148.71C214.118 143.256 220.199 139.338 227.369 139.338C236.253 139.338 243.487 145.34 243.817 152.841C243.817 152.937 243.817 153.032 243.817 153.128C241.605 156.259 239.66 159.57 238.003 163.027H238.008ZM304.145 251.595C269.239 251.595 240.599 224.7 240.311 191.649C240.609 158.598 269.249 131.704 304.145 131.704C339.04 131.704 367.686 158.598 367.978 191.644C367.68 224.7 339.04 251.595 304.14 251.595H304.145ZM378.085 212.786C376.628 212.786 375.138 212.728 373.643 212.627C374.402 210.366 375.04 208.066 375.553 205.737C376.213 205.737 376.878 205.774 377.548 205.774C379.192 205.774 380.814 205.7 382.426 205.578C382.935 207.914 383.571 210.221 384.33 212.489C382.245 212.685 380.144 212.786 378.08 212.786H378.085ZM377.149 191.649V190.852C377.149 190.602 377.149 190.347 377.122 190.097C378.41 190.097 379.681 190.022 380.936 189.906C380.936 190.219 380.91 190.533 380.904 190.852V191.639V192.447C380.943 194.151 381.041 195.847 381.197 197.534C380.037 197.616 378.869 197.657 377.692 197.657H376.846C377.012 195.934 377.113 194.201 377.149 192.457V191.649ZM377.41 182C377.064 182 376.723 182 376.378 182C376.014 179.609 375.521 177.24 374.899 174.903C375.638 174.962 376.378 175.004 377.133 175.004C379.2 175 381.26 174.77 383.277 174.318C382.603 176.767 382.071 179.252 381.681 181.761C380.261 181.921 378.833 182.001 377.404 182H377.41ZM387.485 163.027C384.375 165.221 380.653 166.381 376.846 166.344C375.108 166.346 373.379 166.108 371.707 165.637C369.085 159.525 365.593 153.824 361.34 148.71C363.595 143.256 369.675 139.338 376.846 139.338C385.729 139.338 392.964 145.34 393.293 152.841C393.293 152.937 393.293 153.032 393.293 153.128C391.082 156.259 389.137 159.57 387.479 163.027H387.485ZM453.621 251.595C418.715 251.595 390.075 224.7 389.788 191.649C390.086 158.598 418.726 131.704 453.621 131.704C488.517 131.704 517.162 158.598 517.455 191.644C517.157 224.7 488.517 251.595 453.616 251.595H453.621ZM527.562 212.786C526.104 212.786 524.615 212.728 523.12 212.627C523.879 210.366 524.517 208.066 525.03 205.737C525.689 205.737 526.354 205.774 527.024 205.774C527.87 205.774 528.711 205.774 529.551 205.721C530.083 205.721 530.615 205.663 531.147 205.626L531.902 205.583C532.412 207.919 533.046 210.226 533.801 212.494C531.722 212.68 529.62 212.786 527.556 212.786H527.562ZM526.626 191.649V190.852C526.626 190.597 526.626 190.347 526.599 190.097H526.806C527.37 190.097 527.934 190.097 528.493 190.049C529.136 190.022 529.78 189.975 530.413 189.916C530.413 190.23 530.386 190.543 530.381 190.862V191.655V192.447C530.42 194.151 530.518 195.845 530.674 197.529H530.44C529.977 197.561 529.514 197.587 529.051 197.603C528.423 197.603 527.796 197.641 527.168 197.641C526.881 197.641 526.604 197.641 526.322 197.641C526.489 195.925 526.59 194.194 526.626 192.447V191.649ZM529.067 181.937H528.918L528.009 181.979C527.636 181.979 527.264 181.979 526.886 181.979C526.508 181.979 526.2 181.979 525.854 181.952C525.488 179.578 524.997 177.225 524.381 174.903C525.115 174.962 525.859 174.994 526.61 174.994C527.141 174.994 527.673 174.994 528.205 174.946C529.734 174.859 531.254 174.647 532.748 174.313C532.074 176.761 531.541 179.246 531.152 181.756C530.466 181.814 529.764 181.894 529.062 181.937H529.067ZM536.961 163.027C535.483 164.084 533.848 164.902 532.115 165.451V165.451C531.69 165.589 531.259 165.706 530.817 165.812L530.695 165.839C530.269 165.94 529.838 166.02 529.402 166.094H529.243C528.806 166.158 528.365 166.211 527.918 166.248H527.78C527.317 166.28 526.849 166.302 526.37 166.302C525.891 166.302 525.455 166.302 525.003 166.248C524.785 166.248 524.567 166.206 524.354 166.185C524.141 166.163 523.902 166.142 523.679 166.11C523.455 166.078 523.147 166.02 522.87 165.967L522.391 165.882C522.104 165.818 521.827 165.749 521.545 165.674L521.226 165.589C519.457 161.455 517.283 157.505 514.737 153.798C517.917 149.42 520.567 144.68 522.631 139.678C523.232 139.556 523.843 139.46 524.46 139.396H524.498C524.78 139.396 525.067 139.348 525.349 139.332C525.631 139.317 526.019 139.301 526.36 139.301C535.243 139.301 542.477 145.303 542.807 152.804C542.807 152.899 542.807 152.995 542.807 153.091C540.58 156.232 538.622 159.556 536.956 163.027H536.961ZM603.098 251.595C568.192 251.595 539.552 224.7 539.265 191.649C539.562 158.598 568.202 131.704 603.098 131.704C637.994 131.704 666.639 158.598 666.931 191.644C666.633 224.7 637.994 251.595 603.093 251.595H603.098ZM677.038 212.786C675.581 212.786 674.091 212.728 672.602 212.627C673.361 210.358 674 208.051 674.517 205.716C675.176 205.716 675.841 205.753 676.512 205.753C678.155 205.753 679.778 205.679 681.39 205.556C681.899 207.893 682.534 210.2 683.294 212.468C681.198 212.68 679.097 212.786 677.033 212.786H677.038ZM676.102 191.649V190.852C676.102 190.602 676.102 190.347 676.102 190.097C677.389 190.097 678.661 190.022 679.916 189.906C679.916 190.219 679.916 190.533 679.884 190.852V191.644V192.447C679.92 194.151 680.017 195.847 680.177 197.534C679.017 197.616 677.849 197.657 676.671 197.657H675.825C675.989 195.934 676.09 194.201 676.129 192.457L676.102 191.649ZM676.363 182C676.017 182 675.677 182 675.331 182C674.969 179.61 674.477 177.24 673.857 174.903C674.597 174.962 675.336 175.004 676.091 175.004C678.158 175 680.219 174.77 682.235 174.318C681.562 176.767 681.029 179.252 680.64 181.761C679.218 181.922 677.788 182.002 676.357 182H676.363ZM686.438 163.027C683.328 165.221 679.606 166.381 675.799 166.344C674.062 166.346 672.332 166.108 670.66 165.637C668.038 159.525 664.546 153.824 660.293 148.71C662.548 143.256 668.628 139.338 675.799 139.338C684.682 139.338 691.917 145.34 692.247 152.841C692.247 152.937 692.247 153.032 692.247 153.128C690.035 156.259 688.09 159.57 686.432 163.027H686.438ZM752.574 251.595C717.668 251.595 689.028 224.7 688.741 191.649C689.039 158.598 717.679 131.704 752.574 131.704C787.47 131.704 816.115 158.598 816.408 191.644C816.11 224.7 787.47 251.595 752.569 251.595H752.574ZM826.515 212.786C825.057 212.786 823.568 212.728 822.073 212.627C822.836 210.359 823.477 208.052 823.993 205.716C824.653 205.716 825.318 205.753 825.988 205.753C827.632 205.753 829.254 205.679 830.866 205.556C831.375 207.893 832.011 210.2 832.77 212.468C830.675 212.685 828.573 212.786 826.509 212.786H826.515ZM825.579 191.649V190.852C825.579 190.602 825.579 190.347 825.579 190.097C826.866 190.097 828.137 190.022 829.393 189.906C829.393 190.219 829.393 190.533 829.361 190.852V191.639V192.447C829.396 194.151 829.494 195.847 829.653 197.534C828.494 197.616 827.325 197.657 826.148 197.657H825.302C825.465 195.934 825.566 194.201 825.605 192.457L825.579 191.649ZM825.839 182C825.493 182 825.153 182 824.807 182C824.446 179.61 823.954 177.24 823.334 174.903C824.073 174.962 824.813 175.004 825.568 175.004C827.635 175 829.695 174.77 831.712 174.318C831.038 176.767 830.506 179.252 830.116 181.761C828.694 181.922 827.265 182.002 825.834 182H825.839ZM835.914 163.027C832.804 165.221 829.082 166.381 825.275 166.344C823.538 166.346 821.809 166.108 820.137 165.637C817.515 159.525 814.023 153.824 809.769 148.71C812.025 143.256 818.105 139.338 825.275 139.338C834.159 139.338 841.393 145.34 841.723 152.841C841.723 152.937 841.723 153.032 841.723 153.128C839.511 156.259 837.566 159.57 835.909 163.027H835.914ZM902.051 251.595C867.145 251.595 838.505 224.7 838.218 191.649C838.515 158.598 867.155 131.704 902.051 131.704C936.947 131.704 965.592 158.598 965.884 191.644C965.587 224.7 936.947 251.595 902.046 251.595H902.051ZM1051.53 251.595C1016.62 251.595 987.981 224.7 987.694 191.649C987.992 158.598 1016.63 131.704 1051.53 131.704C1086.42 131.704 1115.07 158.598 1115.36 191.644C1115.06 224.7 1086.42 251.595 1051.52 251.595H1051.53ZM1125.47 212.786C1124.01 212.786 1122.52 212.728 1121.03 212.627C1121.79 210.358 1122.43 208.051 1122.95 205.716C1123.61 205.716 1124.27 205.753 1124.94 205.753C1126.58 205.753 1128.21 205.679 1129.82 205.556C1130.33 207.893 1130.96 210.2 1131.72 212.468C1129.63 212.68 1127.53 212.786 1125.46 212.786H1125.47ZM1124.53 191.649V190.852C1124.53 190.602 1124.53 190.347 1124.53 190.097C1125.82 190.097 1127.09 190.022 1128.35 189.906C1128.35 190.219 1128.32 190.533 1128.31 190.852V191.644V192.447C1128.35 194.151 1128.45 195.847 1128.61 197.534C1127.45 197.616 1126.28 197.657 1125.1 197.657H1124.26C1124.42 195.934 1124.52 194.201 1124.56 192.457L1124.53 191.649ZM1124.79 182C1124.45 182 1124.11 182 1123.76 182C1123.4 179.61 1122.91 177.24 1122.29 174.903C1123.03 174.962 1123.77 175.004 1124.52 175.004C1126.59 175 1128.65 174.77 1130.67 174.318C1129.99 176.767 1129.46 179.252 1129.07 181.761C1127.65 181.922 1126.22 182.002 1124.79 182H1124.79ZM1134.87 163.027C1131.76 165.221 1128.04 166.381 1124.23 166.344C1122.49 166.346 1120.76 166.108 1119.09 165.637C1116.47 159.525 1112.98 153.824 1108.72 148.71C1110.98 143.256 1117.06 139.338 1124.23 139.338C1133.11 139.338 1140.35 145.34 1140.68 152.841C1140.68 152.937 1140.68 153.032 1140.68 153.128C1138.46 156.259 1136.52 159.57 1134.86 163.027H1134.87ZM1201 251.595C1166.1 251.595 1137.46 224.7 1137.17 191.649C1137.47 158.598 1166.11 131.704 1201 131.704C1235.9 131.704 1264.54 158.598 1264.84 191.644C1264.54 224.7 1235.9 251.595 1201 251.595H1201ZM1274.94 212.786C1273.49 212.786 1272 212.728 1270.5 212.627C1271.27 210.359 1271.91 208.052 1272.42 205.716C1273.08 205.716 1273.75 205.753 1274.42 205.753C1276.06 205.753 1277.68 205.679 1279.3 205.556C1279.8 207.893 1280.44 210.2 1281.2 212.468C1279.1 212.685 1277 212.786 1274.94 212.786H1274.94ZM1274.01 191.649V190.852C1274.01 190.602 1274.01 190.347 1274.01 190.097C1275.3 190.097 1276.57 190.022 1277.82 189.906C1277.82 190.219 1277.8 190.533 1277.79 190.852V191.639V192.447C1277.83 194.151 1277.92 195.847 1278.08 197.534C1276.92 197.616 1275.75 197.657 1274.58 197.657H1273.73C1273.89 195.934 1274 194.201 1274.03 192.457L1274.01 191.649ZM1274.27 182C1273.92 182 1273.58 182 1273.24 182C1272.88 179.61 1272.38 177.24 1271.76 174.903C1272.5 174.962 1273.24 175.004 1274 175.004C1276.06 175 1278.12 174.77 1280.14 174.318C1279.47 176.767 1278.94 179.252 1278.55 181.761C1277.12 181.922 1275.69 182.002 1274.26 182H1274.27ZM1284.34 163.027C1281.23 165.221 1277.51 166.381 1273.7 166.344C1271.97 166.346 1270.24 166.108 1268.57 165.637C1265.94 159.525 1262.45 153.824 1258.2 148.71C1260.45 143.256 1266.53 139.338 1273.7 139.338C1282.59 139.338 1289.82 145.34 1290.15 152.841C1290.15 152.937 1290.15 153.032 1290.15 153.128C1287.94 156.259 1286 159.57 1284.34 163.027H1284.34ZM1350.48 251.595C1315.57 251.595 1286.93 224.7 1286.65 191.649C1286.95 158.598 1315.59 131.704 1350.48 131.704C1385.38 131.704 1414.02 158.598 1414.31 191.644C1414.02 224.7 1385.38 251.595 1350.48 251.595H1350.48ZM1411.57 153.84C1414.75 149.462 1417.4 144.723 1419.46 139.721C1420.69 139.469 1421.94 139.341 1423.19 139.338C1432.07 139.338 1439.3 145.34 1439.63 152.841C1439.3 160.347 1432.07 166.344 1423.19 166.344C1421.45 166.346 1419.72 166.108 1418.05 165.637C1416.28 161.502 1414.11 157.551 1411.56 153.84H1411.57ZM1423.48 191.649V190.852C1423.48 190.597 1423.48 190.347 1423.48 190.097C1445.53 189.975 1463.38 173.532 1463.85 153.107C1463.85 153.016 1463.85 152.931 1463.85 152.841C1463.85 152.751 1463.85 152.666 1463.85 152.575C1463.4 132.485 1446.1 116.255 1424.56 115.612C1424.56 115.527 1424.56 115.447 1424.56 115.362V114.575V113.767C1424.53 111.837 1424.4 109.923 1424.2 108.025C1450.92 108.105 1472.58 128.094 1472.89 152.841C1472.58 177.641 1450.83 197.657 1424.04 197.657H1423.2C1423.36 195.934 1423.46 194.201 1423.5 192.457L1423.48 191.649ZM1457.2 152.841C1456.87 168.992 1442.03 182 1423.75 182C1423.4 182 1423.06 182 1422.71 182C1422.35 179.61 1421.86 177.24 1421.24 174.903C1421.98 174.962 1422.72 175.004 1423.47 175.004C1437.19 175.004 1448.35 165.281 1448.82 153.128C1448.82 153.038 1448.82 152.953 1448.82 152.862C1448.82 152.772 1448.82 152.687 1448.82 152.596C1448.35 140.444 1437.19 130.72 1423.47 130.72C1423.13 130.72 1422.79 130.72 1422.46 130.752C1423.05 128.429 1423.52 126.076 1423.86 123.703C1442.1 123.735 1456.88 136.722 1457.19 152.841H1457.2ZM1424.42 212.786C1422.96 212.786 1421.47 212.728 1419.98 212.627C1420.74 210.359 1421.38 208.052 1421.9 205.716C1422.56 205.716 1423.22 205.753 1423.89 205.753C1455.72 205.753 1481.57 182.25 1482.04 153.123C1482.04 153.032 1482.04 152.947 1482.04 152.857C1482.04 152.767 1482.04 152.681 1482.04 152.591C1481.57 123.442 1455.72 99.9607 1423.89 99.9607C1423.54 99.9607 1423.19 99.9607 1422.83 99.9607C1422.29 97.6125 1421.62 95.2949 1420.84 93.0177C1422.06 92.9539 1423.24 92.9167 1424.42 92.9167C1459.32 92.9167 1487.96 119.811 1488.25 152.857C1487.96 185.892 1459.32 212.786 1424.42 212.786H1424.42Z" fill="url(#paint9_linear_524_82)"/>
<path d="M154.136 138.753C122.305 138.753 96.4576 162.256 95.9895 191.383C95.9895 191.474 95.9895 191.559 95.9895 191.649C95.9895 191.74 95.9895 191.825 95.9895 191.915C96.4576 221.064 122.305 244.545 154.136 244.545C185.968 244.545 211.815 221.042 212.283 191.915C212.283 191.825 212.283 191.74 212.283 191.649C212.283 191.559 212.283 191.474 212.283 191.383C211.815 162.235 185.963 138.753 154.136 138.753ZM154.264 236.465C127.47 236.465 105.719 216.449 105.41 191.649C105.719 166.849 127.47 146.834 154.259 146.834C181.048 146.834 202.804 166.849 203.113 191.649C202.799 216.449 181.048 236.465 154.264 236.465Z" fill="url(#paint10_linear_524_82)"/>
<path d="M153.445 154.388C131.295 154.388 113.294 170.868 112.836 191.383C112.836 191.474 112.836 191.559 112.836 191.649C112.836 191.74 112.836 191.825 112.836 191.915C113.294 212.414 131.295 228.911 153.445 228.911C175.595 228.911 193.596 212.43 194.059 191.915C194.059 191.825 194.059 191.74 194.059 191.649C194.059 191.559 194.059 191.474 194.059 191.383C193.596 170.884 175.6 154.388 153.445 154.388ZM153.977 220.809C135.689 220.809 120.842 207.8 120.517 191.649C120.842 175.499 135.689 162.49 153.977 162.49C172.265 162.49 187.106 175.499 187.431 191.649C187.117 207.8 172.27 220.809 153.987 220.809H153.977Z" fill="url(#paint11_linear_524_82)"/>
<path d="M153.732 169.507C140.019 169.507 128.858 179.231 128.385 191.384C128.385 191.474 128.385 191.559 128.385 191.649C128.385 191.74 128.385 191.825 128.385 191.915C128.858 204.068 140.019 213.791 153.732 213.791C167.446 213.791 178.606 204.068 179.079 191.915C179.079 191.825 179.079 191.74 179.079 191.649C179.079 191.559 179.079 191.474 179.079 191.384C178.59 179.231 167.43 169.507 153.732 169.507ZM153.461 205.126C144.577 205.126 137.348 199.124 137.018 191.623C137.348 184.116 144.577 178.12 153.461 178.12C162.344 178.12 169.579 184.122 169.909 191.623C169.563 199.156 162.328 205.152 153.445 205.152L153.461 205.126Z" fill="url(#paint12_linear_524_82)"/>
<path d="M303.613 138.753C271.781 138.753 245.934 162.256 245.466 191.383C245.466 191.474 245.466 191.559 245.466 191.649C245.466 191.74 245.466 191.825 245.466 191.915C245.934 221.064 271.781 244.545 303.613 244.545C335.445 244.545 361.292 221.042 361.76 191.915C361.76 191.825 361.76 191.74 361.76 191.649C361.76 191.559 361.76 191.474 361.76 191.383C361.292 162.235 335.439 138.753 303.613 138.753ZM303.741 236.465C276.947 236.465 255.195 216.449 254.887 191.649C255.195 166.849 276.947 146.834 303.735 146.834C330.524 146.834 352.281 166.849 352.589 191.649C352.275 216.449 330.524 236.465 303.741 236.465Z" fill="url(#paint13_linear_524_82)"/>
<path d="M302.921 154.388C280.771 154.388 262.77 170.868 262.313 191.383C262.313 191.474 262.313 191.559 262.313 191.649C262.313 191.74 262.313 191.825 262.313 191.915C262.77 212.414 280.771 228.911 302.921 228.911C325.072 228.911 343.073 212.43 343.535 191.915C343.535 191.825 343.535 191.74 343.535 191.649C343.535 191.559 343.535 191.474 343.535 191.383C343.073 170.884 325.077 154.388 302.921 154.388ZM303.453 220.809C285.165 220.809 270.319 207.8 269.994 191.649C270.319 175.499 285.165 162.49 303.453 162.49C321.742 162.49 336.583 175.499 336.907 191.649C336.594 207.8 321.747 220.809 303.464 220.809H303.453Z" fill="url(#paint14_linear_524_82)"/>
<path d="M303.209 169.507C289.495 169.507 278.335 179.231 277.861 191.384C277.861 191.474 277.861 191.559 277.861 191.649C277.861 191.74 277.861 191.825 277.861 191.915C278.335 204.068 289.495 213.791 303.209 213.791C316.922 213.791 328.082 204.068 328.556 191.915C328.556 191.825 328.556 191.74 328.556 191.649C328.556 191.559 328.556 191.474 328.556 191.384C328.066 179.231 316.906 169.507 303.209 169.507ZM302.937 205.126C294.054 205.126 286.825 199.124 286.495 191.623C286.825 184.116 294.054 178.12 302.937 178.12C311.821 178.12 319.055 184.122 319.385 191.623C319.039 199.156 311.805 205.152 302.921 205.152L302.937 205.126Z" fill="url(#paint15_linear_524_82)"/>
<path d="M453.089 138.753C421.258 138.753 395.411 162.256 394.943 191.383C394.943 191.474 394.943 191.559 394.943 191.649C394.943 191.74 394.943 191.825 394.943 191.915C395.411 221.064 421.258 244.545 453.089 244.545C484.921 244.545 510.768 221.042 511.236 191.915C511.236 191.825 511.236 191.74 511.236 191.649C511.236 191.559 511.236 191.474 511.236 191.383C510.768 162.235 484.916 138.753 453.089 138.753ZM453.217 236.465C426.423 236.465 404.672 216.449 404.363 191.649C404.672 166.849 426.423 146.834 453.212 146.834C480.001 146.834 501.757 166.849 502.066 191.649C501.752 216.449 480.001 236.465 453.217 236.465Z" fill="url(#paint16_linear_524_82)"/>
<path d="M452.398 154.388C430.248 154.388 412.247 170.868 411.789 191.383C411.789 191.474 411.789 191.559 411.789 191.649C411.789 191.74 411.789 191.825 411.789 191.915C412.247 212.414 430.248 228.911 452.398 228.911C474.548 228.911 492.549 212.43 493.012 191.915C493.012 191.825 493.012 191.74 493.012 191.649C493.012 191.559 493.012 191.474 493.012 191.383C492.549 170.884 474.553 154.388 452.398 154.388ZM452.93 220.809C434.642 220.809 419.795 207.8 419.47 191.649C419.795 175.499 434.642 162.49 452.93 162.49C471.218 162.49 486.059 175.499 486.384 191.649C486.07 207.8 471.223 220.809 452.94 220.809H452.93Z" fill="url(#paint17_linear_524_82)"/>
<path d="M452.685 169.507C438.972 169.507 427.811 179.231 427.338 191.384C427.338 191.474 427.338 191.559 427.338 191.649C427.338 191.74 427.338 191.825 427.338 191.915C427.811 204.068 438.972 213.791 452.685 213.791C466.399 213.791 477.559 204.068 478.032 191.915C478.032 191.825 478.032 191.74 478.032 191.649C478.032 191.559 478.032 191.474 478.032 191.384C477.543 179.231 466.383 169.507 452.685 169.507ZM452.414 205.126C443.53 205.126 436.301 199.124 435.971 191.623C436.301 184.116 443.53 178.12 452.414 178.12C461.297 178.12 468.532 184.122 468.862 191.623C468.516 199.156 461.281 205.152 452.398 205.152L452.414 205.126Z" fill="url(#paint18_linear_524_82)"/>
<path d="M602.566 138.753C570.734 138.753 544.887 162.256 544.419 191.383C544.419 191.474 544.419 191.559 544.419 191.649C544.419 191.74 544.419 191.825 544.419 191.915C544.887 221.064 570.734 244.545 602.566 244.545C634.398 244.545 660.245 221.042 660.713 191.915C660.713 191.825 660.713 191.74 660.713 191.649C660.713 191.559 660.713 191.474 660.713 191.383C660.245 162.235 634.392 138.753 602.566 138.753ZM602.694 236.465C575.9 236.465 554.148 216.449 553.84 191.649C554.148 166.849 575.9 146.834 602.688 146.834C629.477 146.834 651.234 166.849 651.542 191.649C651.228 216.449 629.477 236.465 602.694 236.465Z" fill="url(#paint19_linear_524_82)"/>
<path d="M601.874 154.388C579.724 154.388 561.723 170.868 561.266 191.383C561.266 191.474 561.266 191.559 561.266 191.649C561.266 191.74 561.266 191.825 561.266 191.915C561.723 212.414 579.724 228.911 601.874 228.911C624.025 228.911 642.026 212.43 642.488 191.915C642.488 191.825 642.488 191.74 642.488 191.649C642.488 191.559 642.488 191.474 642.488 191.383C642.026 170.884 624.03 154.388 601.874 154.388ZM602.406 220.809C584.118 220.809 569.272 207.8 568.947 191.649C569.272 175.499 584.118 162.49 602.406 162.49C620.695 162.49 635.536 175.499 635.86 191.649C635.546 207.8 620.7 220.809 602.417 220.809H602.406Z" fill="url(#paint20_linear_524_82)"/>
<path d="M602.162 169.507C588.448 169.507 577.288 179.231 576.815 191.384C576.815 191.474 576.815 191.559 576.815 191.649C576.815 191.74 576.815 191.825 576.815 191.915C577.288 204.068 588.448 213.791 602.162 213.791C615.875 213.791 627.035 204.068 627.509 191.915C627.509 191.825 627.509 191.74 627.509 191.649C627.509 191.559 627.509 191.474 627.509 191.384C627.019 179.231 615.859 169.507 602.162 169.507ZM601.89 205.126C593.007 205.126 585.778 199.124 585.448 191.623C585.778 184.116 593.007 178.12 601.89 178.12C610.774 178.12 618.008 184.122 618.338 191.623C617.992 199.156 610.758 205.152 601.874 205.152L601.89 205.126Z" fill="url(#paint21_linear_524_82)"/>
<path d="M752.043 138.753C720.211 138.753 694.364 162.256 693.896 191.383C693.896 191.474 693.896 191.559 693.896 191.649C693.896 191.74 693.896 191.825 693.896 191.915C694.364 221.064 720.211 244.545 752.043 244.545C783.874 244.545 809.721 221.042 810.189 191.915C810.189 191.825 810.189 191.74 810.189 191.649C810.189 191.559 810.189 191.474 810.189 191.383C809.721 162.235 783.869 138.753 752.043 138.753ZM752.17 236.465C725.376 236.465 703.625 216.449 703.316 191.649C703.625 166.849 725.376 146.834 752.165 146.834C778.954 146.834 800.71 166.849 801.019 191.649C800.705 216.449 778.954 236.465 752.17 236.465Z" fill="url(#paint22_linear_524_82)"/>
<path d="M751.351 154.388C729.201 154.388 711.2 170.868 710.742 191.383C710.742 191.474 710.742 191.559 710.742 191.649C710.742 191.74 710.742 191.825 710.742 191.915C711.2 212.414 729.201 228.911 751.351 228.911C773.501 228.911 791.502 212.43 791.965 191.915C791.965 191.825 791.965 191.74 791.965 191.649C791.965 191.559 791.965 191.474 791.965 191.383C791.502 170.884 773.506 154.388 751.351 154.388ZM751.883 220.809C733.595 220.809 718.748 207.8 718.424 191.649C718.748 175.499 733.595 162.49 751.883 162.49C770.171 162.49 785.012 175.499 785.337 191.649C785.023 207.8 770.176 220.809 751.894 220.809H751.883Z" fill="url(#paint23_linear_524_82)"/>
<path d="M751.638 169.507C737.925 169.507 726.764 179.231 726.291 191.384C726.291 191.474 726.291 191.559 726.291 191.649C726.291 191.74 726.291 191.825 726.291 191.915C726.764 204.068 737.925 213.791 751.638 213.791C765.352 213.791 776.512 204.068 776.985 191.915C776.985 191.825 776.985 191.74 776.985 191.649C776.985 191.559 776.985 191.474 776.985 191.384C776.496 179.231 765.336 169.507 751.638 169.507ZM751.367 205.126C742.483 205.126 735.254 199.124 734.924 191.623C735.254 184.116 742.483 178.12 751.367 178.12C760.25 178.12 767.485 184.122 767.815 191.623C767.469 199.156 760.234 205.152 751.351 205.152L751.367 205.126Z" fill="url(#paint24_linear_524_82)"/>
<path d="M959.677 191.383C959.208 162.235 933.356 138.753 901.53 138.753C869.703 138.753 843.851 162.256 843.383 191.383C843.383 191.474 843.383 191.559 843.383 191.649C843.383 191.74 843.383 191.825 843.383 191.915C843.851 221.064 869.698 244.545 901.53 244.545C933.361 244.545 959.208 221.042 959.677 191.915C959.677 191.825 959.677 191.74 959.677 191.649C959.677 191.559 959.677 191.474 959.677 191.383ZM901.647 236.465C874.853 236.465 853.101 216.449 852.793 191.649C853.101 166.849 874.853 146.834 901.641 146.834C928.43 146.834 950.187 166.849 950.495 191.649C950.181 216.449 928.43 236.465 901.647 236.465Z" fill="url(#paint25_linear_524_82)"/>
<path d="M900.827 154.388C878.677 154.388 860.676 170.868 860.219 191.383C860.219 191.474 860.219 191.559 860.219 191.649C860.219 191.74 860.219 191.825 860.219 191.915C860.676 212.414 878.677 228.911 900.827 228.911C922.978 228.911 940.979 212.43 941.442 191.915C941.442 191.825 941.442 191.74 941.442 191.649C941.442 191.559 941.442 191.474 941.442 191.383C940.979 170.884 922.983 154.388 900.827 154.388ZM901.359 220.809C883.071 220.809 868.225 207.8 867.9 191.649C868.225 175.499 883.071 162.49 901.359 162.49C919.648 162.49 934.489 175.499 934.813 191.649C934.5 207.8 919.653 220.809 901.37 220.809H901.359Z" fill="url(#paint26_linear_524_82)"/>
<path d="M901.115 169.507C887.401 169.507 876.241 179.231 875.768 191.384C875.768 191.474 875.768 191.559 875.768 191.649C875.768 191.74 875.768 191.825 875.768 191.915C876.241 204.068 887.401 213.791 901.115 213.791C914.828 213.791 925.988 204.068 926.462 191.915C926.462 191.825 926.462 191.74 926.462 191.649C926.462 191.559 926.462 191.474 926.462 191.384C925.973 179.231 914.812 169.507 901.115 169.507ZM900.843 205.126C891.96 205.126 884.731 199.124 884.401 191.623C884.731 184.116 891.96 178.12 900.843 178.12C909.727 178.12 916.961 184.122 917.291 191.623C916.945 199.156 909.711 205.152 900.827 205.152L900.843 205.126Z" fill="url(#paint27_linear_524_82)"/>
</g>
<defs>
<filter id="filter0_f_524_82" x="-1" y="-1" width="1509" height="271" filterUnits="userSpaceOnUse" color-interpolation-filters="sRGB">
<feFlood flood-opacity="0" result="BackgroundImageFix"/>
<feBlend mode="normal" in="SourceGraphic" in2="BackgroundImageFix" result="shape"/>
<feGaussianBlur stdDeviation="0.5" result="effect1_foregroundBlur_524_82"/>
</filter>
<linearGradient id="paint0_linear_524_82" x1="1051" y1="138.753" x2="1051" y2="244.545" gradientUnits="userSpaceOnUse">
<stop stop-color="#ED5135" stop-opacity="0.56"/>
<stop offset="1" stop-color="#ED5135"/>
</linearGradient>
<linearGradient id="paint1_linear_524_82" x1="1050.31" y1="154.388" x2="1050.31" y2="228.911" gradientUnits="userSpaceOnUse">
<stop stop-color="#ED5135" stop-opacity="0.56"/>
<stop offset="1" stop-color="#ED5135"/>
</linearGradient>
<linearGradient id="paint2_linear_524_82" x1="1050.59" y1="169.507" x2="1050.59" y2="213.791" gradientUnits="userSpaceOnUse">
<stop stop-color="#ED5135" stop-opacity="0.56"/>
<stop offset="1" stop-color="#ED5135"/>
</linearGradient>
<linearGradient id="paint3_linear_524_82" x1="1200.47" y1="138.753" x2="1200.47" y2="244.545" gradientUnits="userSpaceOnUse">
<stop stop-color="#ED5135" stop-opacity="0.56"/>
<stop offset="1" stop-color="#ED5135"/>
</linearGradient>
<linearGradient id="paint4_linear_524_82" x1="1199.78" y1="154.388" x2="1199.78" y2="228.911" gradientUnits="userSpaceOnUse">
<stop stop-color="#ED5135" stop-opacity="0.56"/>
<stop offset="1" stop-color="#ED5135"/>
</linearGradient>
<linearGradient id="paint5_linear_524_82" x1="1200.07" y1="169.507" x2="1200.07" y2="213.791" gradientUnits="userSpaceOnUse">
<stop stop-color="#ED5135" stop-opacity="0.56"/>
<stop offset="1" stop-color="#ED5135"/>
</linearGradient>
<linearGradient id="paint6_linear_524_82" x1="1349.95" y1="138.753" x2="1349.95" y2="244.545" gradientUnits="userSpaceOnUse">
<stop stop-color="#ED5135" stop-opacity="0.56"/>
<stop offset="1" stop-color="#ED5135"/>
</linearGradient>
<linearGradient id="paint7_linear_524_82" x1="1349.26" y1="154.388" x2="1349.26" y2="228.911" gradientUnits="userSpaceOnUse">
<stop stop-color="#ED5135" stop-opacity="0.56"/>
<stop offset="1" stop-color="#ED5135"/>
</linearGradient>
<linearGradient id="paint8_linear_524_82" x1="1349.54" y1="169.507" x2="1349.54" y2="213.791" gradientUnits="userSpaceOnUse">
<stop stop-color="#ED5135" stop-opacity="0.56"/>
<stop offset="1" stop-color="#ED5135"/>
</linearGradient>
<linearGradient id="paint9_linear_524_82" x1="751.904" y1="9.0376" x2="751.904" y2="261.042" gradientUnits="userSpaceOnUse">
<stop stop-color="#ED5135" stop-opacity="0.56"/>
<stop offset="1" stop-color="#ED5135"/>
</linearGradient>
<linearGradient id="paint10_linear_524_82" x1="154.136" y1="138.753" x2="154.136" y2="244.545" gradientUnits="userSpaceOnUse">
<stop stop-color="#ED5135" stop-opacity="0.56"/>
<stop offset="1" stop-color="#ED5135"/>
</linearGradient>
<linearGradient id="paint11_linear_524_82" x1="153.448" y1="154.388" x2="153.448" y2="228.911" gradientUnits="userSpaceOnUse">
<stop stop-color="#ED5135" stop-opacity="0.56"/>
<stop offset="1" stop-color="#ED5135"/>
</linearGradient>
<linearGradient id="paint12_linear_524_82" x1="153.732" y1="169.507" x2="153.732" y2="213.791" gradientUnits="userSpaceOnUse">
<stop stop-color="#ED5135" stop-opacity="0.56"/>
<stop offset="1" stop-color="#ED5135"/>
</linearGradient>
<linearGradient id="paint13_linear_524_82" x1="303.613" y1="138.753" x2="303.613" y2="244.545" gradientUnits="userSpaceOnUse">
<stop stop-color="#ED5135" stop-opacity="0.56"/>
<stop offset="1" stop-color="#ED5135"/>
</linearGradient>
<linearGradient id="paint14_linear_524_82" x1="302.924" y1="154.388" x2="302.924" y2="228.911" gradientUnits="userSpaceOnUse">
<stop stop-color="#ED5135" stop-opacity="0.56"/>
<stop offset="1" stop-color="#ED5135"/>
</linearGradient>
<linearGradient id="paint15_linear_524_82" x1="303.209" y1="169.507" x2="303.209" y2="213.791" gradientUnits="userSpaceOnUse">
<stop stop-color="#ED5135" stop-opacity="0.56"/>
<stop offset="1" stop-color="#ED5135"/>
</linearGradient>
<linearGradient id="paint16_linear_524_82" x1="453.089" y1="138.753" x2="453.089" y2="244.545" gradientUnits="userSpaceOnUse">
<stop stop-color="#ED5135" stop-opacity="0.56"/>
<stop offset="1" stop-color="#ED5135"/>
</linearGradient>
<linearGradient id="paint17_linear_524_82" x1="452.401" y1="154.388" x2="452.401" y2="228.911" gradientUnits="userSpaceOnUse">
<stop stop-color="#ED5135" stop-opacity="0.56"/>
<stop offset="1" stop-color="#ED5135"/>
</linearGradient>
<linearGradient id="paint18_linear_524_82" x1="452.685" y1="169.507" x2="452.685" y2="213.791" gradientUnits="userSpaceOnUse">
<stop stop-color="#ED5135" stop-opacity="0.56"/>
<stop offset="1" stop-color="#ED5135"/>
</linearGradient>
<linearGradient id="paint19_linear_524_82" x1="602.566" y1="138.753" x2="602.566" y2="244.545" gradientUnits="userSpaceOnUse">
<stop stop-color="#ED5135" stop-opacity="0.56"/>
<stop offset="1" stop-color="#ED5135"/>
</linearGradient>
<linearGradient id="paint20_linear_524_82" x1="601.877" y1="154.388" x2="601.877" y2="228.911" gradientUnits="userSpaceOnUse">
<stop stop-color="#ED5135" stop-opacity="0.56"/>
<stop offset="1" stop-color="#ED5135"/>
</linearGradient>
<linearGradient id="paint21_linear_524_82" x1="602.162" y1="169.507" x2="602.162" y2="213.791" gradientUnits="userSpaceOnUse">
<stop stop-color="#ED5135" stop-opacity="0.56"/>
<stop offset="1" stop-color="#ED5135"/>
</linearGradient>
<linearGradient id="paint22_linear_524_82" x1="752.042" y1="138.753" x2="752.042" y2="244.545" gradientUnits="userSpaceOnUse">
<stop stop-color="#ED5135" stop-opacity="0.56"/>
<stop offset="1" stop-color="#ED5135"/>
</linearGradient>
<linearGradient id="paint23_linear_524_82" x1="751.354" y1="154.388" x2="751.354" y2="228.911" gradientUnits="userSpaceOnUse">
<stop stop-color="#ED5135" stop-opacity="0.56"/>
<stop offset="1" stop-color="#ED5135"/>
</linearGradient>
<linearGradient id="paint24_linear_524_82" x1="751.638" y1="169.507" x2="751.638" y2="213.791" gradientUnits="userSpaceOnUse">
<stop stop-color="#ED5135" stop-opacity="0.56"/>
<stop offset="1" stop-color="#ED5135"/>
</linearGradient>
<linearGradient id="paint25_linear_524_82" x1="901.53" y1="138.753" x2="901.53" y2="244.545" gradientUnits="userSpaceOnUse">
<stop stop-color="#ED5135" stop-opacity="0.56"/>
<stop offset="1" stop-color="#ED5135"/>
</linearGradient>
<linearGradient id="paint26_linear_524_82" x1="900.83" y1="154.388" x2="900.83" y2="228.911" gradientUnits="userSpaceOnUse">
<stop stop-color="#ED5135" stop-opacity="0.56"/>
<stop offset="1" stop-color="#ED5135"/>
</linearGradient>
<linearGradient id="paint27_linear_524_82" x1="901.115" y1="169.507" x2="901.115" y2="213.791" gradientUnits="userSpaceOnUse">
<stop stop-color="#ED5135" stop-opacity="0.56"/>
<stop offset="1" stop-color="#ED5135"/>
</linearGradient>
</defs>
</svg>
