<svg width="232" height="65" viewBox="0 0 232 65" fill="none" xmlns="http://www.w3.org/2000/svg">
<g filter="url(#filter0_d_326_2790)">
<g clip-path="url(#clip0_326_2790)">
<g opacity="0.4">
<path opacity="0.4" d="M56.5815 50.175C56.2286 50.353 55.4364 50.6811 55.0122 50.8498L56.5815 50.175Z" fill="white"/>
</g>
<path d="M37.4491 16.7897L28.3582 20.6417L15.8227 26.0768C13.163 22.6301 11.6822 12.1529 14.1783 8.50128C14.9322 7.40017 16.0685 6.89875 17.6779 7.37192C21.7314 8.55779 28.2115 15.2125 37.4491 16.7897Z" fill="#F9A429"/>
<g opacity="0.5">
<path opacity="0.5" d="M37.4385 16.8209L35.8051 17.5138C27.3361 15.536 21.3237 9.51173 17.4872 8.38995C15.8774 7.91974 14.7399 8.41821 13.9877 9.51932C13.5947 10.095 13.3055 10.8368 13.1064 11.6886C13.2844 10.4193 13.6255 9.3228 14.1656 8.53376C14.919 7.43308 16.0558 6.93123 17.6651 7.40482C21.7208 8.58901 28.2018 15.2437 37.4385 16.8209Z" fill="white"/>
</g>
<g opacity="0.3">
<path opacity="0.3" d="M28.2085 20.7189L15.9044 25.9301C13.2443 22.483 11.5325 12.2302 14.0277 8.57978C14.5796 8.36639 15.2665 8.40646 16.0794 8.99855C18.1593 10.515 23.2058 18.7099 28.2085 20.7189Z" fill="#000072"/>
</g>
<path d="M16.0452 26.4268C15.9623 26.4269 15.8806 26.408 15.8062 26.3714C15.7319 26.3348 15.6669 26.2817 15.6164 26.216C14.2604 24.4574 13.2 21.0832 12.7177 17.3768C12.194 13.3514 12.6005 10.0498 13.811 8.27396C14.7588 6.88482 16.4369 6.6845 17.7912 7.01724C19.358 7.39973 21.1221 8.71465 23.261 10.0899C27.0038 12.497 31.6857 15.7156 37.4595 16.7028C37.7546 16.7535 38.0245 16.6185 37.9739 16.9137C37.9496 17.0547 37.8704 17.1803 37.7536 17.2629C37.6369 17.3456 37.4922 17.3787 37.3511 17.3548C31.3593 16.3313 26.7159 12.6885 22.8891 10.2299C20.8206 8.90105 19.0329 7.7506 17.6356 7.34069C16.3597 6.96663 14.7217 7.51402 14.0454 8.50548C12.9968 10.0426 12.608 13.9457 13.09 17.6568C13.5424 21.1317 14.8187 24.295 16.0452 25.8841C16.2278 26.1215 16.6119 26.1308 16.3762 26.3147C16.281 26.3872 16.1648 26.4266 16.0452 26.4268Z" fill="#4B2600"/>
<path d="M16.3598 23.9949C16.492 24.2379 16.6453 24.4689 16.8177 24.6852L25.7083 15.8713C20.5247 12.4731 16.8367 9.50335 15.7953 9.98327C15.6321 10.0592 15.466 10.2637 15.3116 10.5889C14.8963 11.4614 14.5582 13.2035 14.5717 15.6575C14.5869 18.6091 15.3167 22.1182 16.3598 23.9949Z" fill="#FFF3E9"/>
<g opacity="0.3">
<path opacity="0.3" d="M16.4221 23.9429C16.5539 24.1852 16.7067 24.4155 16.8787 24.6312L25.8287 15.8729C20.6456 12.4747 16.9019 9.26543 15.8596 9.74745C15.6964 9.82336 15.5291 10.2134 15.373 10.5399C15.7618 10.7085 16.2914 11.1277 17.0174 11.9868C19.2942 14.6946 19.3714 17.5686 18.4442 20.2605C18.1769 21.0377 17.2421 22.6225 16.4221 23.9429Z" fill="#000072"/>
</g>
<path d="M16.9411 25.166H16.9145C16.8494 25.1622 16.7858 25.1449 16.7277 25.1152C16.6697 25.0855 16.6184 25.0441 16.5772 24.9935C15.1264 23.2159 14.2422 18.8583 14.2258 15.6735C14.2072 12.3947 14.7937 9.99761 15.7213 9.57125C16.5966 9.16598 17.8653 10.0592 20.9002 12.2985C22.3409 13.3608 23.9739 14.5657 25.8717 15.8106C25.9757 15.8789 26.0482 15.9858 26.0735 16.1076C26.0988 16.2294 26.0748 16.3563 26.0066 16.4604C25.9878 16.4889 25.9659 16.5152 25.9413 16.5389L17.2704 25.0306C17.1826 25.1171 17.0643 25.1657 16.9411 25.166ZM16.2408 9.78675C15.2288 9.99761 14.5837 12.1581 14.6031 15.6997C14.6196 18.7963 15.6994 22.8727 16.7214 24.546L25.3805 15.9101C23.6585 14.7584 21.7313 13.349 20.4702 12.4187C19.3052 11.558 18.3013 10.8191 17.5343 10.3426C16.7244 9.8441 16.2454 9.78675 16.2408 9.78675Z" fill="#4B2600"/>
<path d="M35.7402 15.5494L44.8311 19.4018L57.3662 24.8369C60.0263 21.3902 61.5084 10.913 59.0106 7.26307C58.2572 6.16196 57.1209 5.66054 55.5111 6.13413C51.4575 7.31705 44.9791 13.9705 35.7402 15.5494Z" fill="#F9A429"/>
<g opacity="0.5">
<path opacity="0.5" d="M35.749 15.5803L37.3824 16.2736C45.8518 14.2953 51.8643 8.27148 55.7007 7.14971C57.3118 6.67907 58.4481 7.17797 59.2002 8.27865C59.5936 8.85429 59.8829 9.59652 60.0815 10.448C59.9018 9.17775 59.5607 8.08297 59.0211 7.29352C58.2672 6.19241 57.1309 5.69099 55.5215 6.16416C51.4679 7.34707 44.9895 14.0039 35.749 15.5803Z" fill="white"/>
</g>
<g opacity="0.3">
<path opacity="0.3" d="M44.9827 19.4781L57.2867 24.6893C59.9481 21.2426 61.6599 10.9893 59.1647 7.33937C58.6128 7.12556 57.9259 7.16562 57.113 7.75771C55.0297 9.27295 49.9828 17.4678 44.9827 19.4781Z" fill="#000072"/>
</g>
<path d="M57.1451 25.1848C57.2279 25.1849 57.3097 25.166 57.384 25.1294C57.4584 25.0928 57.5233 25.0397 57.5739 24.974C58.9298 23.2171 59.9907 19.8429 60.4726 16.1364C60.9963 12.1107 60.5898 8.80951 59.3793 7.03323C58.4315 5.64451 56.7534 5.4442 55.3991 5.77651C53.8323 6.15943 52.0682 7.47393 49.9296 8.84957C46.1864 11.2563 41.5046 14.4744 35.7312 15.4613C35.436 15.5119 35.1657 15.3769 35.2163 15.6721C35.2283 15.7422 35.2539 15.8092 35.2918 15.8693C35.3296 15.9295 35.379 15.9815 35.437 16.0226C35.495 16.0636 35.5605 16.0928 35.6298 16.1085C35.6991 16.1242 35.7708 16.1261 35.8408 16.1141C41.8309 15.0902 46.4744 11.4478 50.3003 8.98705C52.3696 7.65611 54.1574 6.50735 55.5547 6.09955C56.8305 5.72548 58.4686 6.27287 59.1449 7.2656C60.1922 8.8015 60.5822 12.7058 60.0986 16.4169C59.6462 19.8918 58.3699 23.0552 57.1438 24.6446C56.9612 24.882 56.5771 24.8909 56.8128 25.0748C56.9092 25.1454 57.0255 25.184 57.1451 25.1848Z" fill="#4B2600"/>
<path d="M56.8306 22.7533C56.6987 22.996 56.5459 23.2269 56.3739 23.4432L47.4834 14.6293C52.6665 11.2311 56.3545 8.26132 57.396 8.74165C57.5591 8.81714 57.7236 9.02168 57.8796 9.34682C58.2949 10.2194 58.633 11.9615 58.6196 14.4138C58.6035 17.3671 57.872 20.8779 56.8306 22.7533Z" fill="#FFF3E9"/>
<g opacity="0.3">
<path opacity="0.3" d="M56.7683 22.701C56.6365 22.9439 56.4837 23.1748 56.3116 23.391L47.3604 14.6293C52.5435 11.2315 56.2893 8.02226 57.3307 8.50429C57.4939 8.57977 57.6617 8.96818 57.8173 9.2967C57.4285 9.46538 56.899 9.88415 56.1729 10.7432C53.894 13.451 53.8185 16.3238 54.744 19.0169C55.0134 19.7975 55.9452 21.3806 56.7683 22.701Z" fill="#000072"/>
</g>
<path d="M55.9199 23.7878L47.2473 15.2969C47.1583 15.2097 47.1076 15.0907 47.1062 14.9661C47.1049 14.8415 47.1531 14.7214 47.2402 14.6323C47.2643 14.6082 47.2905 14.5863 47.3186 14.5669C49.2159 13.322 50.8476 12.1172 52.2896 11.0549C55.3254 8.81427 56.5932 7.92107 57.4685 8.32761C58.3961 8.7565 58.9817 11.1531 58.964 14.429C58.9476 17.6164 58.0622 21.974 56.6126 23.749C56.5714 23.7995 56.5201 23.8409 56.4621 23.8706C56.404 23.9002 56.3404 23.9174 56.2753 23.9211H56.2487C56.1258 23.922 56.0075 23.8741 55.9199 23.7878ZM55.6589 9.09978C54.8911 9.5759 53.8847 10.3177 52.7214 11.1784C51.4607 12.1087 49.5334 13.5198 47.8111 14.6698L56.4701 23.3066C57.4938 21.6333 58.5723 17.5569 58.5888 14.4607C58.6078 10.9182 57.9597 8.75692 56.9508 8.54775C56.9436 8.54775 56.4659 8.60384 55.6589 9.10231V9.09978Z" fill="#4B2600"/>
<path d="M60.7548 47.3318C55.1188 56.4244 40.0214 56.6888 36.443 56.6888C32.8646 56.6888 17.7647 56.4232 12.1316 47.3318C9.80423 43.5751 10.4569 40.4826 11.3727 38.6022C11.8976 37.5222 12.5073 36.8398 12.6886 36.6623C13.4745 32.0234 14.4494 11.0906 36.4451 11.0906C58.4409 11.0906 59.4153 32.0255 60.2016 36.6623C60.3825 36.8419 60.9922 37.5243 61.5175 38.6022C62.4295 40.4826 63.0822 43.5734 60.7548 47.3318Z" fill="#F9A429"/>
<path d="M60.3972 47.6227C54.7646 56.7137 39.6701 56.981 36.0862 56.981C32.5023 56.981 17.4121 56.7137 11.7778 47.6227C9.44867 43.8656 10.103 40.7736 11.0188 38.8932C12.9938 36.4497 16.4802 34.1198 21.8396 36.5699C23.6556 37.4011 24.8067 39.1163 27.8568 38.3563C29.4737 37.9527 31.7404 34.84 36.0862 34.8367C40.429 34.8367 42.6966 37.951 44.3152 38.3546C47.3653 39.1137 48.5176 37.3994 50.3323 36.5682C55.6921 34.1172 59.1765 36.448 61.1557 38.8919C62.0719 40.7749 62.7263 43.8656 60.3972 47.6227Z" fill="#FFF3E9"/>
<g opacity="0.3">
<path opacity="0.3" d="M60.3971 47.6245C54.7611 56.7172 39.6637 56.9812 36.0862 56.9812C32.5086 56.9812 17.4078 56.7172 11.7748 47.6245C10.3092 45.2579 10.0259 43.1544 10.2455 41.4548C10.4028 42.6968 10.8565 44.075 11.7748 45.5573C17.4078 54.6499 32.5056 54.9143 36.0862 54.9143C39.6667 54.9143 54.7645 54.6499 60.3975 45.5573C61.3158 44.075 61.7699 42.6968 61.9272 41.4548C62.146 43.1552 61.8627 45.2579 60.3971 47.6245Z" fill="#000072"/>
</g>
<path d="M36.3393 41.5213L36.2739 41.5319V41.5112L36.3393 41.5213Z" fill="#512717"/>
<path d="M36.4023 41.5112V41.5321L36.3394 41.5214L36.4023 41.5112Z" fill="#512717"/>
<path d="M27.6714 13.0814C29.0139 12.6277 30.404 12.3223 31.8034 12.117C33.2028 11.9116 34.6132 11.8323 36.0227 11.8188C37.4339 11.8238 38.8433 11.9224 40.2415 12.114C41.6388 12.3202 43.029 12.623 44.3735 13.0772C45.7182 13.5243 47.011 14.1147 48.2294 14.8383C49.4435 15.562 50.5688 16.4254 51.5822 17.4108C51.5864 17.415 51.5911 17.4209 51.5953 17.4255C51.6145 17.4141 51.632 17.3999 51.6471 17.3834C51.6964 17.3329 51.7238 17.265 51.7232 17.1945C51.7227 17.1239 51.6943 17.0565 51.6442 17.0068C50.631 16.0213 49.5059 15.1579 48.2918 14.4343C47.0716 13.71 45.7769 13.1195 44.43 12.6732C43.0859 12.2177 41.6974 11.9162 40.3001 11.71C38.9018 11.5185 37.4923 11.4199 36.0809 11.4148C34.673 11.4283 33.261 11.5114 31.862 11.7129C30.463 11.9145 29.0759 12.222 27.73 12.6762C26.3837 13.1225 25.0895 13.713 23.8699 14.4373C22.6557 15.1613 21.53 16.0247 20.5159 17.0097C20.4681 17.0562 20.4395 17.119 20.4359 17.1856C20.4323 17.2522 20.4539 17.3177 20.4965 17.369C21.4991 16.4015 22.6097 15.5525 23.8063 14.8387C25.0273 14.1149 26.3233 13.5257 27.6714 13.0814Z" fill="#4B2600"/>
<path d="M20.4496 54.2138C19.0693 53.6349 17.7548 52.9102 16.5284 52.052C15.3002 51.1854 14.1673 50.1615 13.219 48.976C12.2707 47.7906 11.4937 46.455 11.0219 44.9786C10.5471 43.5097 10.4286 41.8907 10.7689 40.3641C10.8506 39.9829 10.9597 39.608 11.0952 39.2424C11.2271 38.8763 11.3832 38.5195 11.5624 38.1741C11.7408 37.829 11.9415 37.4958 12.1632 37.1768C12.2762 37.0182 12.3918 36.8609 12.5166 36.7078C12.6055 36.5999 12.6928 36.4944 12.7923 36.3873C12.8345 36.0833 12.8678 35.7716 12.9095 35.4595L13.0491 34.3525C13.1423 33.612 13.2494 32.8689 13.3784 32.1301C13.6282 30.6448 13.9639 29.1753 14.384 27.729C14.5948 27.0049 14.8322 26.2867 15.0978 25.5783C15.3634 24.8698 15.6497 24.1701 15.9702 23.4844C16.5545 22.2412 17.2637 21.0465 18.1344 19.9842C18.1195 19.9605 18.1015 19.9389 18.0809 19.9201C18.0543 19.8967 18.0235 19.8787 17.99 19.8673C17.9565 19.8559 17.9211 19.8513 17.8858 19.8536C17.8506 19.856 17.8161 19.8653 17.7844 19.881C17.7528 19.8968 17.7246 19.9187 17.7014 19.9454C16.7059 21.0865 15.9124 22.3968 15.2698 23.7649C14.9481 24.4502 14.6601 25.1506 14.3975 25.8583C14.1348 26.5659 13.8961 27.2841 13.6841 28.009C13.2632 29.4552 12.9274 30.9247 12.6785 32.4101C12.5494 33.1506 12.4424 33.8924 12.3492 34.633L12.2096 35.7396C12.1696 36.0529 12.1354 36.3645 12.0924 36.6673C11.9929 36.774 11.9056 36.8782 11.8162 36.9878C11.6897 37.1405 11.5759 37.2978 11.4633 37.4568C11.2419 37.7759 11.0412 38.1089 10.8625 38.4537C10.6832 38.799 10.5271 39.1559 10.3953 39.522C10.26 39.8876 10.151 40.2625 10.069 40.6437C9.72619 42.1708 9.84467 43.7893 10.322 45.2586C10.795 46.7346 11.5708 48.0719 12.5191 49.2556C13.4673 50.4394 14.602 51.465 15.8285 52.3316C17.0545 53.1904 18.3691 53.9152 19.7497 54.4934C21.1191 55.0796 22.5325 55.535 23.966 55.9032C26.8331 56.6243 29.7664 56.995 32.6963 57.0933C32.7638 57.0953 32.8296 57.0719 32.8805 57.0275C32.9314 56.9832 32.9636 56.9213 32.9708 56.8541C32.9721 56.8355 32.9721 56.8167 32.9708 56.7981C30.1817 56.6791 27.3943 56.3097 24.6647 55.624C23.2259 55.2614 21.8169 54.79 20.4496 54.2138Z" fill="#4B2600"/>
<path d="M51.9721 54.2138C53.3524 53.635 54.6669 52.9103 55.8933 52.052C57.1215 51.1854 58.2544 50.1615 59.2031 48.976C60.1518 47.7906 60.9284 46.455 61.4002 44.9786C61.8745 43.5097 61.9947 41.8907 61.6532 40.3641C61.5712 39.9829 61.4622 39.608 61.3268 39.2424C61.195 38.8762 61.0388 38.5194 60.8593 38.1741C60.681 37.8289 60.4803 37.4957 60.2584 37.1768C60.1459 37.0182 60.0303 36.8609 59.9055 36.7078C59.8166 36.5999 59.7289 36.4944 59.6298 36.3873C59.5876 36.0833 59.5526 35.7716 59.5126 35.4595L59.373 34.3525C59.2794 33.612 59.1727 32.8689 59.0437 32.1301C58.7938 30.6448 58.4579 29.1753 58.0377 27.729C57.8269 27.0049 57.5899 26.2867 57.3243 25.5783C57.0587 24.8698 56.7724 24.1701 56.4507 23.4844C55.8659 22.2412 55.1567 21.0465 54.286 19.9842C54.3009 19.9605 54.3189 19.9389 54.3395 19.9201C54.366 19.8967 54.3969 19.8787 54.4304 19.8673C54.4639 19.8559 54.4993 19.8513 54.5345 19.8536C54.5698 19.856 54.6043 19.8653 54.636 19.881C54.6676 19.8968 54.6958 19.9187 54.719 19.9454C55.7145 21.0865 56.508 22.3968 57.1506 23.7649C57.4723 24.4502 57.7603 25.1506 58.0242 25.8583C58.2881 26.5659 58.5255 27.2841 58.7376 28.009C59.1586 29.4552 59.4945 30.9247 59.7436 32.4101C59.8726 33.1506 59.9793 33.8924 60.0729 34.633L60.2125 35.7396C60.2546 36.0529 60.2879 36.3645 60.3297 36.6673C60.4288 36.774 60.5165 36.8782 60.6054 36.9878C60.7319 37.1405 60.8458 37.2978 60.9588 37.4568C61.18 37.776 61.3807 38.109 61.5596 38.4537C61.7388 38.7991 61.8948 39.1559 62.0268 39.522C62.1619 39.8877 62.2709 40.2626 62.3531 40.6437C62.6959 42.1708 62.577 43.7893 62.1001 45.2586C61.6266 46.7346 60.8508 48.0719 59.903 49.2556C58.9552 50.4394 57.8201 51.465 56.5932 52.3316C55.3673 53.1906 54.0527 53.9153 52.672 54.4934C51.3025 55.0796 49.8892 55.535 48.4556 55.9032C45.5885 56.6243 42.6552 56.995 39.7253 57.0933C39.6547 57.0954 39.5862 57.0697 39.5345 57.0216C39.4828 56.9735 39.4521 56.907 39.4491 56.8364C39.4483 56.8237 39.4483 56.8108 39.4491 56.7981C42.2378 56.6791 45.0257 56.3097 47.7553 55.624C49.1946 55.2616 50.6043 54.7902 51.9721 54.2138Z" fill="#4B2600"/>
<path d="M36.3415 40.1552L36.2769 40.1641V40.1445L36.3415 40.1552Z" fill="#512717"/>
<path d="M36.4051 40.1445V40.1641L36.3408 40.1552L36.4051 40.1445Z" fill="#512717"/>
<path d="M40.4562 40.0184C40.4562 40.0184 40.9263 41.3822 39.6972 42.0823C38.5133 42.757 37.1189 41.8819 36.4646 41.3717C36.3467 41.2802 36.2514 41.163 36.1858 41.0291C36.1202 40.8951 36.0862 40.7478 36.0864 40.5987C36.0864 40.748 36.0525 40.8953 35.9871 41.0296C35.9217 41.1638 35.8266 41.2814 35.709 41.3734C35.0534 41.8836 33.6603 42.7562 32.4763 42.084C31.2452 41.3852 31.7174 40.0201 31.7174 40.0201C31.7174 40.0201 32.0096 36.3684 36.0893 36.3684C40.169 36.3684 40.4562 40.0184 40.4562 40.0184Z" fill="#FFF3E9"/>
<path d="M39.1756 36.7909C38.5912 38.4276 36.0863 39.3491 36.0863 39.3491C36.0863 39.3491 33.5822 38.4259 32.9978 36.7892C32.5808 35.6185 35.5276 35.4275 36.0863 35.4275C36.6449 35.4275 39.5926 35.6202 39.1756 36.7909Z" fill="#4B2600"/>
<g opacity="0.5">
<path opacity="0.5" d="M37.3673 36.1739C37.1257 36.5876 36.0872 36.5805 36.0872 36.5805C36.0872 36.5805 35.0487 36.5876 34.8071 36.1739C34.6334 35.8788 35.8557 35.8298 36.0872 35.8298C36.3187 35.8298 37.541 35.8771 37.3673 36.1739Z" fill="white"/>
</g>
<path d="M30.2678 43.5203C32.0125 43.7885 33.7252 43.1255 34.8311 42.2796C35.355 41.8721 35.7994 41.3718 36.1424 40.8035C36.3492 40.4719 36.5055 40.1113 36.6062 39.7336C36.6728 39.4806 36.5897 39.0542 36.9013 38.8902C37.8062 38.4082 36.919 37.4926 35.8941 37.5829C34.8762 37.6719 34.388 38.6941 35.4475 39.0117C35.5516 39.0336 35.6514 39.0727 35.7427 39.1272L35.4012 38.8409C36.0585 39.8559 35.351 41.2657 34.3108 42.0666C33.2057 42.9185 31.8025 43.1352 30.2669 43.5004C30.2522 43.5034 30.2492 43.5215 30.2699 43.5245L30.2678 43.5203Z" fill="#4B2600"/>
<path d="M43.1457 43.455C41.56 43.253 40.1268 43.1864 38.8362 42.4728C38.2012 42.1224 37.6953 41.6981 37.3778 41.198C37.2247 40.9586 37.1002 40.7021 37.0067 40.4338C36.976 40.3419 36.7516 39.6325 36.774 39.6207C37.7336 39.2066 37.4064 38.1785 36.1689 38.1785C34.9863 38.1785 34.5246 39.2328 35.5635 39.6207C35.8245 39.7173 35.9729 40.4131 36.0842 40.597C36.2606 40.8904 36.4669 41.1647 36.6998 41.4156C37.2175 41.9781 37.827 42.4487 38.5023 42.8072C39.7916 43.4778 41.5507 43.9037 43.1457 43.4795C43.1605 43.4795 43.1664 43.4601 43.1457 43.4571V43.455Z" fill="#4B2600"/>
<path d="M43.6039 4.20149C43.6039 2.40159 40.4248 0.975342 36.5601 0.975342C32.6954 0.975342 29.4666 2.40159 29.4666 4.20149C29.4712 4.52667 29.5701 4.84352 29.7512 5.11366L31.7012 9.49532C31.8234 9.74415 32.0132 9.95353 32.2488 10.0995C32.4844 10.2454 32.7564 10.3221 33.0336 10.3206H39.6444C39.9049 10.322 40.1612 10.2543 40.3872 10.1244C40.6131 9.99458 40.8007 9.8072 40.9308 9.58135L43.2257 5.25621C43.4703 4.92558 43.6039 4.56923 43.6039 4.20149Z" fill="#381F1F"/>
<path d="M39.6445 10.3873H33.0328C32.7435 10.3882 32.4598 10.3078 32.2138 10.1555C31.9678 10.0031 31.7695 9.78476 31.6414 9.52529L29.6935 5.1449C29.5073 4.8645 29.4057 4.53641 29.4009 4.19983C29.4009 3.30663 30.1598 2.47078 31.5373 1.85085C32.8865 1.24274 34.6717 0.907471 36.5602 0.907471C38.4487 0.907471 40.2217 1.24485 41.5583 1.85085C42.9202 2.4712 43.6694 3.30494 43.6694 4.19983C43.6694 4.57389 43.5387 4.94163 43.2807 5.29208L40.987 9.61427C40.8517 9.85047 40.6561 10.0465 40.4202 10.1823C40.1843 10.3181 39.9166 10.3889 39.6445 10.3873ZM31.7599 9.46878C31.8772 9.70565 32.0585 9.9049 32.2833 10.0439C32.5081 10.1829 32.7673 10.2562 33.0316 10.2553H39.6445C39.893 10.2564 40.1373 10.1919 40.353 10.0684C40.5686 9.94492 40.7479 9.76675 40.8727 9.55185L43.1698 5.22207L43.1727 5.21785C43.416 4.88849 43.5391 4.5469 43.5391 4.19983C43.5391 2.45771 40.4089 1.04073 36.5623 1.04073C34.6915 1.04073 32.9278 1.37178 31.5942 1.97273C30.9457 2.26498 30.4368 2.60531 30.0822 2.98148C29.7188 3.36904 29.5341 3.77853 29.5341 4.19983C29.5392 4.51243 29.6345 4.81691 29.8086 5.07658L29.8132 5.08586L31.7599 9.46878Z" fill="#784421"/>
<path d="M15.5452 24.4107C15.6976 23.9474 15.9059 23.5044 16.1654 23.0915C16.0587 23.1414 15.961 23.2085 15.8761 23.2902C19.4676 14.5551 26.3242 10.1275 36.2726 10.1275C46.7637 10.1275 53.8029 15.0376 57.2164 24.7282C57.7635 25.571 58.1955 26.4831 58.5011 27.4403L58.1423 26.2283C57.5191 24.1197 56.7282 22.1819 55.7938 20.4727C54.6664 18.41 53.2957 16.616 51.72 15.1413C49.9045 13.4422 47.7727 12.1231 45.3829 11.2227C42.708 10.2135 39.6432 9.70239 36.2739 9.70239C33.1913 9.70239 30.358 10.1313 27.8568 10.9756C25.5944 11.7397 23.5486 12.8615 21.7761 14.3114C18.8638 16.6928 16.6102 20.0164 15.0763 24.1901L14.6787 25.2735L15.4309 24.4056L15.5452 24.4107Z" fill="#784421"/>
<path d="M16.2273 23.0614L17.5166 22.6448C16.9576 22.781 16.5199 22.9206 16.2273 23.0614Z" fill="#784421"/>
<path d="M36.0811 17.5462C39.2957 17.5462 41.6518 15.4452 44.0357 15.7467C45.5396 15.9365 47.4593 16.8474 48.8271 17.7912C49.0274 17.9291 49.4562 18.1442 49.643 18.2331C53.775 20.1979 56.1336 23.9356 58.16 27.0159C55.9127 19.1339 50.501 9.75659 36.1465 9.75659C23.0712 9.75659 17.4146 17.536 14.814 24.8807C20.2585 19.8032 23.4996 17.1856 27.0413 15.656C28.6924 14.9425 26.166 16.0701 28.3155 15.9424C30.5417 15.8104 33.4687 17.5462 36.0811 17.5462Z" fill="#381F1F"/>
<path d="M32.0073 9.74454C36.415 6.03046 40.4821 9.0546 40.7646 9.50711C40.8936 9.71333 40.7482 10.0233 40.7482 10.0233C40.7482 10.0233 37.7246 9.54253 36.6478 9.6332C35.5709 9.72387 31.9761 10.1064 31.9761 10.1064L32.0073 9.74454Z" fill="#1E1313"/>
<path d="M33.7744 7.14502C33.2849 7.43305 33.6956 8.50422 33.9228 8.91624C34.1501 9.32826 34.3723 9.61629 34.5443 9.75588L34.6898 9.68629L34.9427 9.53911L34.7825 9.4126C34.7205 9.36368 34.4739 9.07522 34.2648 8.69568C34.0556 8.31613 33.86 7.8379 33.801 7.35419L33.7744 7.14502Z" fill="#784421"/>
<path d="M34.7817 8.35279C34.9607 8.79264 35.1662 9.2212 35.3973 9.63608L35.501 9.81869L35.8408 9.59476L35.7354 9.41215C35.5138 9.01406 35.3167 8.60282 35.1451 8.18073C34.8546 7.46971 34.5831 6.5706 34.6202 5.87013L34.632 5.65674C33.9182 5.89881 34.5827 7.86318 34.7817 8.35279Z" fill="#784421"/>
<path d="M35.719 8.02339C35.7803 8.3692 35.8584 8.71149 35.9534 9.05027C36.0323 9.32481 36.093 9.50699 36.1642 9.63182L36.2696 9.81274L36.6069 9.58586L36.5041 9.40705C36.4357 9.25175 36.3793 9.09145 36.3354 8.92755C36.2448 8.6041 36.1705 8.27629 36.1128 7.94537C35.9762 7.17362 35.8889 6.21843 35.9998 5.34589L36.0268 5.13208C35.3884 5.15654 35.6258 7.4878 35.719 8.02339Z" fill="#784421"/>
<path d="M37.0379 6.0874C37.118 6.61244 37.0379 7.1379 36.9936 7.61866C36.9312 8.27865 36.8364 9.02804 36.7407 9.48055L36.6985 9.69141L37.0885 9.78503L37.1307 9.57417C37.2331 9.08287 37.3263 8.33221 37.3904 7.66168C37.4355 6.99663 37.4966 6.12409 37.0379 6.0874Z" fill="#784421"/>
<path d="M38.6162 5.70142L38.5985 5.91481C38.5762 6.17754 38.4029 6.89867 38.1861 7.60632C37.9694 8.31396 37.7055 9.04016 37.5317 9.35012L37.4268 9.53357L37.7679 9.75497L37.8703 9.57236C38.09 9.18185 38.3438 8.4624 38.5631 7.74C38.7604 6.99651 39.0737 5.80052 38.6162 5.70142Z" fill="#784421"/>
<path d="M39.486 7.10498L39.4324 7.3112C39.3759 7.53218 38.8346 8.97151 38.5289 9.41516L38.4104 9.58596L38.7751 9.72091L38.8493 9.66904C39.2263 9.1052 39.9367 7.29855 39.486 7.10498Z" fill="#784421"/>
<path d="M23.9433 18.1595L14.8601 25.0736L17.131 21.4177L22.7046 16.2495L26.0068 15.5984L26.1907 16.2972L23.9433 18.1595Z" fill="#381F1F"/>
<path d="M57.7506 26.3214C57.7506 26.3214 48.0708 16.3579 44.9511 15.7987C41.8315 15.2395 44.9971 13.7036 44.9971 13.7036L50.8687 16.7763L56.1898 23.5275L57.7506 26.3214Z" fill="#381F1F"/>
<path d="M23.835 18.1977C24.8275 16.7318 27.3746 14.7422 29.2601 14.8147C31.8207 14.9142 35.0281 16.4556 36.4106 16.3489C37.7931 16.2422 41.8475 14.4854 43.9751 14.7789C46.1027 15.0724 48.608 17.6993 48.8897 18.1412C49.1713 18.5832 47.387 16.8786 46.4821 16.6205C45.5773 16.3624 44.8293 15.7315 43.8073 15.8058C42.7853 15.88 39.2115 16.9381 38.3261 17.3163C37.4406 17.6946 37.1733 17.9489 36.2685 17.8979C35.3637 17.8469 32.4139 16.6412 31.7857 16.4662C31.1575 16.2911 28.8929 15.6738 28.2756 15.8015C27.6583 15.9293 24.5576 17.423 23.835 18.1977Z" fill="#1E1313"/>
<path d="M29.7408 14.2197C29.9693 14.9927 30.2956 15.7615 30.7628 16.168L30.8918 16.2811L31.1292 16.0394L31.0027 15.9281C30.6452 15.6177 30.2994 14.8776 30.0798 14.1324C29.8601 13.3872 29.7521 12.6193 29.7804 12.2899L29.7935 12.1267C29.2854 12.1512 29.6564 13.9274 29.7408 14.2197Z" fill="#784421"/>
<path d="M32.5493 15.7868C32.6866 16.0578 32.8415 16.3194 33.0131 16.57C33.1084 16.7159 33.2166 16.853 33.3365 16.9794L33.463 17.0967L33.7122 16.8652L33.5891 16.7479C33.4877 16.6357 33.3945 16.5164 33.3104 16.3907C33.1459 16.1528 32.9982 15.9038 32.8681 15.6456C32.567 15.0522 32.3001 14.2939 32.3199 13.5462L32.3229 13.3813C31.671 13.6736 32.371 15.4292 32.5493 15.7868Z" fill="#784421"/>
<path d="M34.5131 15.5907C34.6423 16.0639 34.7963 16.53 34.9744 16.987C35.0473 17.1709 35.1152 17.3244 35.1747 17.4441C35.2341 17.5639 35.2653 17.6352 35.3378 17.7064L35.4597 17.8237L35.7127 17.5968L35.5912 17.4783C35.603 17.4901 35.5453 17.4129 35.4917 17.3058C35.4382 17.1987 35.3745 17.0507 35.3033 16.8727C35.1287 16.4266 34.9782 15.9715 34.8525 15.5093C34.5616 14.4466 34.3466 13.1633 34.5097 12.2047L34.5363 12.0415C33.7673 12.3072 34.2875 14.84 34.5131 15.5907Z" fill="#784421"/>
<path d="M37.9032 11.9795C38.0512 12.3312 37.9032 13.7423 37.8125 14.5153C37.6776 15.6758 37.4284 16.9515 37.1151 17.4935L37.0308 17.6389L37.3394 17.7946L37.4237 17.6491C37.8032 16.9916 38.0381 15.7277 38.1625 14.5511C38.2426 13.7731 38.4846 12.0474 37.9032 11.9795Z" fill="#784421"/>
<path d="M40.2158 13.0862C40.1374 13.7274 40.0239 14.3639 39.8759 14.9928C39.701 15.6945 39.4429 16.3996 39.1714 16.7079L39.0601 16.8344L39.3299 17.0453L39.4412 16.9188C39.8005 16.511 40.0497 15.7911 40.2158 15.0687C40.379 14.3623 40.5135 13.3831 40.2158 13.0862Z" fill="#784421"/>
<path d="M42.8745 12.2996C42.9398 13.0587 42.4368 14.8682 41.7336 15.8327L41.6311 15.966L41.9161 16.1574L42.0186 16.0237C42.5937 15.5552 43.5951 12.4855 42.8745 12.2996Z" fill="#784421"/>
<path d="M40.858 9.92577C40.858 9.55761 39.2279 8.76099 36.5291 8.76099C33.8302 8.76099 31.9514 9.58713 31.9514 9.95529C31.9514 10.3234 33.8441 9.7866 36.5442 9.7866C39.2444 9.7866 40.858 10.2952 40.858 9.92577Z" fill="#D30707"/>
<path d="M27.5272 31.635L27.2662 31.328C27.1726 31.215 27.0702 31.1053 26.9711 30.9906C26.7679 30.7696 26.5587 30.5516 26.3386 30.3437C25.8997 29.93 25.4355 29.5395 24.9249 29.216C24.6679 29.0548 24.402 28.9083 24.1284 28.777C23.8492 28.6486 23.562 28.5382 23.2687 28.4464C22.6784 28.2579 22.046 28.163 21.3828 28.1242H21.3714C21.2957 28.1193 21.2241 28.0882 21.1688 28.0363C21.1135 27.9844 21.078 27.9149 21.0683 27.8397C21.0587 27.7645 21.0755 27.6882 21.1158 27.624C21.1562 27.5598 21.2176 27.5117 21.2896 27.4878C21.9932 27.2581 22.7324 27.1565 23.472 27.188C24.2328 27.2229 24.9825 27.3833 25.691 27.6628C26.7601 28.0779 27.7238 28.7251 28.5126 29.5576C28.645 29.6942 28.7681 29.8397 28.8921 29.9894C28.9528 30.0649 29.0105 30.1421 29.0683 30.2222C29.0982 30.261 29.1261 30.304 29.1526 30.3487L29.2479 30.4955C29.3906 30.7148 29.4444 30.9802 29.3983 31.2378C29.3523 31.4954 29.2098 31.7257 28.9999 31.8818C28.79 32.038 28.5285 32.1083 28.2686 32.0785C28.0087 32.0486 27.77 31.9208 27.601 31.721L27.5272 31.635Z" fill="#4B2600"/>
<path d="M30.6159 26.6865C30.1146 27.271 28.9024 27.0546 27.9086 26.2028C26.9148 25.3509 26.5151 24.1861 27.0156 23.6016C27.5161 23.0171 28.5672 23.2187 29.561 24.0706C30.5548 24.9224 31.116 26.102 30.6159 26.6865Z" fill="white"/>
<path d="M44.1542 31.635L44.4152 31.328C44.5105 31.215 44.6113 31.1053 44.7104 30.9906C44.9136 30.7696 45.1227 30.5516 45.3428 30.3437C45.7817 29.93 46.246 29.5395 46.7566 29.216C47.0142 29.0554 47.2807 28.9094 47.5547 28.7787C47.8336 28.6497 48.1205 28.5387 48.4136 28.4464C49.0072 28.2579 49.6388 28.163 50.3008 28.1242H50.3109C50.3866 28.1193 50.4582 28.0882 50.5135 28.0363C50.5688 27.9844 50.6043 27.9149 50.614 27.8397C50.6236 27.7645 50.6069 27.6882 50.5665 27.624C50.5261 27.5598 50.4647 27.5117 50.3927 27.4878C49.6891 27.2581 48.9499 27.1565 48.2104 27.188C47.4496 27.2229 46.6998 27.3833 45.9913 27.6628C44.9223 28.0781 43.9587 28.7252 43.1697 29.5576C43.0378 29.6942 42.9146 29.8397 42.7903 29.9894C42.7296 30.0649 42.6718 30.1421 42.614 30.2222C42.5841 30.261 42.5558 30.304 42.5297 30.3487L42.4319 30.493C42.2892 30.7123 42.2354 30.9777 42.2815 31.2353C42.3275 31.4928 42.47 31.7231 42.6799 31.8793C42.8898 32.0355 43.1513 32.1058 43.4112 32.0759C43.6711 32.046 43.9098 31.9182 44.0788 31.7185L44.1542 31.635Z" fill="#4B2600"/>
<path d="M41.0688 26.6865C41.5701 27.271 42.7806 27.0546 43.7761 26.2028C44.7716 25.3509 45.1704 24.1861 44.6691 23.6016C44.1678 23.0171 43.1175 23.2187 42.1237 24.0706C41.1299 24.9224 40.5675 26.102 41.0688 26.6865Z" fill="white"/>
</g>
<path d="M195.052 15.6903C193.899 11.6847 189.919 10.0919 186.373 12.1355C185.249 12.7842 184.347 13.6905 183.5 14.6683C181.659 16.7944 180.081 19.126 178.557 21.4811C178.01 21.2437 177.837 20.7622 177.562 20.3867C176.234 18.5695 174.81 16.8391 173.207 15.2715C172.698 14.7739 172.166 14.2907 171.596 13.8698C167.372 10.7549 162.722 12.5055 161.716 17.7626C160.112 26.1392 159.173 34.6173 158.328 43.1029C158.12 45.189 158.356 47.247 159.356 49.1416C161.092 52.4317 164.312 52.6417 166.463 49.619C167.957 47.5202 168.501 45.115 168.78 42.5893C169.165 39.0901 168.936 35.5446 169.566 32.066C169.756 31.0183 169.881 29.9407 170.632 28.9174C171.938 31.3142 173.033 33.6676 174.6 35.7247C176.522 38.2478 179.088 38.6608 181.655 36.8086C183.241 35.665 184.533 34.1887 185.861 32.7546C186.331 32.2495 186.685 31.5903 187.389 31.3272C187.748 31.7675 187.616 32.2735 187.656 32.7357C187.919 35.7664 187.925 38.8035 188.011 41.8405C188.078 44.1944 188.078 46.5676 188.727 48.8701C189.329 51.0106 190.197 51.8617 192.053 52.052C193.994 52.2506 195.332 51.4547 196.211 49.5335C197.063 47.6734 197.337 45.6588 197.564 43.6505C198.241 37.6577 197.639 31.7077 196.844 25.778C196.388 22.3903 196 18.9799 195.052 15.6903Z" fill="white"/>
<path d="M118.447 8.76423C117.533 9.19489 116.805 9.85771 116.16 10.6299C114.705 12.3723 114.331 14.4941 114.236 16.689C114.105 19.7419 114.593 22.7452 115.078 25.7376C115.249 26.789 114.987 27.0939 113.973 27.0367C112.11 26.9324 110.241 26.8979 108.375 26.9169C107.534 26.9257 107.474 26.5455 107.578 25.8532C107.742 24.7597 107.889 23.6579 107.96 22.5543C108.157 19.5262 108.393 16.4829 107.473 13.5196C106.905 11.6906 105.842 10.3834 103.864 10.1551C100.808 9.80472 98.2647 11.757 97.6439 14.8654C97.4148 16.0111 97.3705 17.1592 97.3851 18.3141C97.4712 25.158 97.5941 32.002 97.6384 38.8459C97.6522 40.9656 97.4913 43.0873 97.7129 45.2024C97.9303 47.2791 98.2476 49.3147 99.8392 50.8586C101.595 52.564 103.644 52.49 105.224 50.6101C106.148 49.509 106.52 48.1855 106.668 46.7682C106.939 44.2229 106.954 41.6708 106.919 39.1138C106.888 36.8583 107.497 36.0617 109.681 35.7354C111.387 35.4805 113.121 35.4359 114.836 35.2408C115.672 35.1457 115.851 35.4178 115.776 36.2699C115.577 38.5237 115.381 40.7885 115.388 43.0482C115.394 45.2894 115.838 47.4642 117.408 49.1974C119.122 51.0899 120.826 50.8401 121.908 48.487C122.551 47.0912 123.001 45.6049 123.179 44.071C124.023 36.7998 124.842 29.5244 125.139 21.7388C125.139 18.5904 125.368 14.9559 124.34 11.4348C123.535 8.67801 120.99 7.5656 118.447 8.76423Z" fill="white"/>
<path d="M93.7569 6.46061C92.306 5.26489 90.5721 4.75451 88.7468 4.73583C82.6204 4.67426 77.4878 6.96505 73.6958 11.9793C67.2821 20.4601 69.4931 30.8207 78.6839 35.7942C79.8129 36.4056 80.916 37.0599 81.8984 37.9053C83.318 39.1274 83.664 40.4072 82.9935 41.8823C82.2567 43.5022 80.9013 44.2508 79.1935 43.9777C77.8837 43.768 76.6352 43.3243 75.3909 42.8648C74.0313 42.3625 72.6606 42.1489 71.238 42.6045C68.6134 43.4457 67.6645 45.9556 69.0723 48.3759C69.8074 49.6404 70.8641 50.4837 72.2221 50.9278C75.3372 51.9469 78.5137 52.6046 82.2077 52.6734C82.7358 52.6403 83.6864 52.6445 84.616 52.5116C88.4916 51.9596 91.952 50.679 93.8968 46.7708C96.4293 41.6806 95.3363 35.5186 91.1425 31.7778C89.5762 30.3799 87.8469 29.1749 86.2861 27.7715C82.4113 24.2897 82.4937 20.3204 86.4488 16.9065C88.2873 15.3146 90.413 14.0927 92.7104 13.3071C94.0472 12.8472 95.3439 12.3334 95.5674 10.6562C95.8015 8.89789 95.0397 7.51832 93.7569 6.46061Z" fill="white"/>
<path d="M155.943 18.956C155.378 16.8593 153.861 15.4268 152.159 15.3228C150.456 15.2188 148.837 16.4645 148.051 18.5417C147.849 19.0782 147.736 19.6601 147.649 20.2323C147.35 22.1792 147.583 24.1193 147.823 26.0471C148.312 29.9816 148.337 33.9047 147.706 37.8232C147.494 39.1291 147.084 40.3753 146.43 41.5115C145.227 43.6036 143.166 43.7343 141.686 41.8307C140.902 40.8239 140.521 39.6274 140.235 38.3851C139.468 35.0596 139.844 31.7036 140.066 28.3539C140.066 26.5055 140.087 24.6566 140.06 22.8091C140.031 20.8095 139.833 18.8321 139.215 16.9178C138.211 13.8152 136.087 12.5385 132.973 13.1828C130.589 13.6768 129.24 15.3241 128.451 17.552C127.712 19.6317 127.479 21.8171 127.533 24.0128C127.679 30.0908 128.281 36.1492 129.335 42.1363C130.018 46.0242 131.704 49.4303 135.427 51.277C143.384 55.2243 153.337 50.4281 155.302 41.5973C156.825 34.7472 156.553 27.7771 156.249 20.8223C156.215 20.1909 156.112 19.5651 155.943 18.956Z" fill="white"/>
<path d="M227.617 27.0705C226.646 19.7523 222.106 15.1229 215.356 14.8142C209.147 14.5313 201.14 17.4821 199.883 27.4135C198.976 34.5807 200.578 41.3017 203.623 47.7162C204.192 48.9142 205.138 49.8141 206.212 50.5699C211.397 54.2171 222.081 53.5915 225.695 44.94C227.328 41.0333 228.055 36.9671 227.99 32.4776C228.045 30.8339 227.866 28.9509 227.617 27.0705ZM219.632 35.1549C219.497 37.4315 219.234 39.7101 218.293 41.82C217.576 43.4269 216.589 44.9053 214.668 44.854C212.693 44.8014 211.357 43.5181 210.539 41.7394C209.646 39.8013 209.618 37.6957 209.567 35.5239C209.665 34.2012 209.659 32.7944 209.954 31.4043C210.476 28.9445 212.033 27.4085 214.161 26.4364C216.235 25.4894 218.004 26.2668 218.927 28.4127C219.859 30.5794 219.767 32.8797 219.632 35.1549Z" fill="white"/>
</g>
<defs>
<filter id="filter0_d_326_2790" x="0" y="0" width="232" height="66" filterUnits="userSpaceOnUse" color-interpolation-filters="sRGB">
<feFlood flood-opacity="0" result="BackgroundImageFix"/>
<feColorMatrix in="SourceAlpha" type="matrix" values="0 0 0 0 0 0 0 0 0 0 0 0 0 0 0 0 0 0 127 0" result="hardAlpha"/>
<feOffset dy="4"/>
<feGaussianBlur stdDeviation="2"/>
<feComposite in2="hardAlpha" operator="out"/>
<feColorMatrix type="matrix" values="0 0 0 0 0.156863 0 0 0 0 0.0784314 0 0 0 0 0 0 0 0 0.25 0"/>
<feBlend mode="normal" in2="BackgroundImageFix" result="effect1_dropShadow_326_2790"/>
<feBlend mode="normal" in="SourceGraphic" in2="effect1_dropShadow_326_2790" result="shape"/>
</filter>
<clipPath id="clip0_326_2790">
<rect width="64.4222" height="55.6327" fill="white" transform="translate(4 1.18359)"/>
</clipPath>
</defs>
</svg>
