<svg width="482" height="668" viewBox="0 0 482 668" fill="none" xmlns="http://www.w3.org/2000/svg">
<g style="mix-blend-mode:multiply" opacity="0.6" filter="url(#filter0_f_487_89)">
<path d="M346.566 232.698L369.904 181.149C406.109 167.346 420.175 146.853 420.175 146.853C306.64 171.975 257.484 68.8347 244.553 34.6859L243.313 23.3661L240.832 1L238.393 23.3661L237.195 34.6649C224.264 68.8136 175.15 171.954 61.5729 146.832C61.5729 146.832 75.6387 167.325 111.844 181.128L135.181 232.677L125.047 242.966C112.012 257.526 78.2668 281.302 1 270.719C1 270.719 27.5125 286.541 78.7924 295.631V328.328H89.3049V340.237H98.7661L100 666.5C100 666.5 100.5 661.5 104 651C107.5 640.5 109.657 638 109.657 638V340.237H157.762V599.5L168.674 596.5V340.237H313.326V469H324.238V340.237H372.343L374 488.5L377.5 491.5L385 489L383.234 340.237H392.695V328.328H403.208V296.199C455.055 287.214 481 270.719 481 270.719C372.259 285.573 346.566 232.698 346.566 232.698ZM339.944 233.035H342.424V243.555H339.944V233.035ZM332.522 233.035H334.982V243.555H332.522V233.035ZM325.079 233.035H327.56V243.555H325.079V233.035ZM317.657 233.035H320.138V243.555H317.657V233.035ZM310.214 233.035H312.695V243.555H310.214V233.035ZM302.792 233.035H305.273V243.555H302.792V233.035ZM295.371 233.035H297.831V243.555H295.371V233.035ZM287.928 233.035H290.409V243.555H287.928V233.035ZM280.506 233.035H282.987V243.555H280.506V233.035ZM256.138 185.946H276.784V221.463H256.138V185.946ZM275.544 233.035V243.555H273.063V233.035H275.544ZM268.122 233.035V243.555H265.641V233.035H268.122ZM260.679 233.035V243.555H258.22V233.035H260.679ZM250.777 233.035H253.258V243.555H250.777V233.035ZM228.07 185.946H248.716V221.463H228.07V185.946ZM245.836 233.035V243.555H243.355V233.035H245.836ZM238.393 233.035V243.555H235.912V233.035H238.393ZM230.971 233.035V243.555H228.49V233.035H230.971ZM221.068 233.035H223.528V243.555H221.068V233.035ZM200.043 185.946H220.69V221.463H200.043V185.946ZM216.149 233.035V243.555H213.668V233.035H216.149ZM208.727 233.035V243.555H206.246V233.035H208.727ZM198.803 233.035H201.284V243.555H198.782L198.803 233.035ZM191.381 233.035H193.862V243.555H191.381V233.035ZM183.959 233.035H186.419V243.555H183.959V233.035ZM176.516 233.035H178.997V243.555H176.516V233.035ZM169.095 233.035H171.449V243.555H168.969L169.095 233.035ZM161.652 233.035H164.133V243.555H161.652V233.035ZM154.23 233.035H156.732V243.555H154.251L154.23 233.035ZM146.808 233.035H149.268V243.555H146.808V233.035ZM139.365 233.035H141.846V243.555H139.365V233.035ZM383.486 332.599H98.2615V327.633H383.486V332.599ZM395.05 299.965H86.6978V295.757H395.05V299.965Z" fill="#ED5135" fill-opacity="0.15"/>
</g>
<defs>
<filter id="filter0_f_487_89" x="0" y="0" width="482" height="667.5" filterUnits="userSpaceOnUse" color-interpolation-filters="sRGB">
<feFlood flood-opacity="0" result="BackgroundImageFix"/>
<feBlend mode="normal" in="SourceGraphic" in2="BackgroundImageFix" result="shape"/>
<feGaussianBlur stdDeviation="0.5" result="effect1_foregroundBlur_487_89"/>
</filter>
</defs>
</svg>
