<svg width="16" height="16" viewBox="0 0 16 16" fill="none" xmlns="http://www.w3.org/2000/svg">
<path d="M1.00953 9.17077L1.31512 9.4331L1.32834 9.41667L1.16764 9.22425L1.1766 9.20782L1.8272 9.74025L1.85906 9.70559L1.69222 9.42115L2.01953 9.67721L2.02613 9.66496L1.89139 9.51317L1.99782 9.48987L1.95864 9.37514L2.20572 9.55082L2.21988 9.52094L1.90366 9.15763L1.919 9.13522L2.6057 9.62074L2.61703 9.60311L2.29374 9.28341L2.31049 9.24995L2.89219 9.72202C2.88369 9.6793 2.87449 9.63239 2.86505 9.58339C3.15625 9.67511 3.3389 9.96075 3.58786 10.1152C3.55883 10.0722 3.52816 10.0301 3.50102 9.98495C3.48804 9.96374 3.46822 9.92729 3.47435 9.91235C3.54019 9.75041 3.43518 9.68527 3.3691 9.59504C3.25347 9.43728 3.13595 9.28132 3.02858 9.1152C2.97903 9.03871 2.96133 8.92846 2.91059 8.85377C2.85986 8.77907 2.78529 8.72917 2.73337 8.64462L3.16876 8.97925L3.18645 8.96163L3.05737 8.76921L3.44533 9.05903L3.45453 9.04409L3.15531 8.72619L3.17702 8.69481C4.20896 9.36857 4.94239 10.4627 5.68125 11.576C5.76573 11.4612 5.85233 11.3558 5.92785 11.2386C6.31203 10.6432 6.69266 10.0435 7.07543 9.44744C7.4091 8.92667 7.75057 8.41366 8.07575 7.88452C8.24896 7.60277 8.39173 7.29114 8.55385 6.99774C8.83254 6.4931 9.11808 5.99473 9.39583 5.4892C9.67901 4.97529 9.95416 4.45601 10.234 3.94002C10.5139 3.42403 10.7947 2.89937 11.0836 2.38636C11.3016 1.99795 11.5083 1.5934 11.7627 1.24592C12.0756 0.818061 12.4327 0.441598 12.7708 0.0430244L12.8117 0.0938171L12.5172 0.51211L12.5228 0.523165L12.8869 0.14939L12.8976 0.160146L12.7836 0.358537L12.8029 0.380646L13.1649 0C13.1619 0.0217836 13.157 0.0431098 13.1505 0.0636403C13.0689 0.192116 12.9993 0.315214 12.9502 0.481933C12.8773 0.731116 12.7142 0.937275 12.5927 1.16435C12.5639 1.21783 12.5476 1.28386 12.5167 1.36602C12.3588 1.43295 12.3388 1.46163 12.3527 1.68004L12.68 1.24054L12.6923 1.25159L12.5124 1.58025L12.5299 1.60236C12.6443 1.45984 12.756 1.31344 12.8747 1.1769C12.932 1.11087 13.003 1.06456 13.067 1.00719C13.0981 0.979104 13.1269 0.947433 13.1751 0.897537C13.1701 0.964763 13.1668 1.01137 13.1635 1.05977L13.7322 0.437415C13.7428 0.45086 13.7532 0.464305 13.7636 0.478049L13.3093 0.983586L13.3391 1.01944L14.0517 0.310134L14.0753 0.333439L13.8158 0.734702C13.8224 0.745756 13.8292 0.756811 13.8358 0.768165L14.0524 0.540793L14.0664 0.555433L14.0156 0.671061H14.1336L14.0097 0.8575L14.0168 0.869153L14.342 0.515098C14.3297 0.6615 14.1563 0.707811 14.2141 0.896043L14.8007 0.247689L14.8142 0.260835L14.6747 0.483427L14.6861 0.499561L14.9612 0.182256L14.9789 0.198092C14.8975 0.387518 14.8163 0.576945 14.7219 0.795653L15.2333 0.164031L15.2614 0.193909L15.0797 0.489701L15.0938 0.511512L15.2234 0.433232L14.6202 1.64479L14.6476 1.67198C14.7184 1.59429 14.7866 1.51273 14.86 1.44042C15.019 1.28446 15.1835 1.13716 15.3407 0.978208C15.4167 0.901122 15.4771 0.798939 15.5516 0.719165C15.6682 0.593677 15.7897 0.476256 15.9115 0.358836C15.9306 0.340311 15.9611 0.340311 15.9995 0.327165L15.8412 0.722452L15.9592 0.754122L15.3015 1.97703L15.4591 1.91459L15.4218 2.05501L15.4362 2.06696L15.8268 1.39441L15.8622 1.42429L15.4931 2.09356L15.5129 2.11477C15.5455 2.07135 15.5779 2.02792 15.6102 1.9845L15.6222 1.99346C15.6094 2.02494 15.5952 2.05547 15.5797 2.08489C15.1297 2.83842 14.678 3.58985 14.2297 4.34636C13.9753 4.77631 13.7244 5.20954 13.4818 5.64994C13.0099 6.50655 12.5441 7.36883 12.0766 8.22931C11.8345 8.67509 11.5987 9.12566 11.3512 9.56755C11.1886 9.85797 11.0097 10.1337 10.8389 10.4167C10.5399 10.9127 10.2513 11.4191 9.94 11.9022C9.61836 12.4021 9.27453 12.8792 8.94133 13.3662C8.80776 13.562 8.67514 13.7588 8.54583 13.9593C8.23597 14.4434 7.87454 14.8706 7.47187 15.2288C6.96569 15.677 6.41373 15.9671 5.77847 15.9967C5.3117 16.0185 4.88741 15.8733 4.46642 15.6522C3.93381 15.3723 3.5291 14.8808 3.12935 14.3809C2.5534 13.6614 1.97996 12.9381 1.40904 12.2109C1.03619 11.7328 0.673254 11.2446 0.306068 10.7609C0.314563 10.7492 0.323294 10.7379 0.332026 10.7265L0.662399 11.2135L0.70346 11.1618L0.265715 10.5724C0.476682 10.6889 0.583346 10.9545 0.781334 11.1457L0.71054 10.9733L0.875726 11.0125L0.0908528 9.91504L0.202472 9.86574L0 9.49585C0.315271 9.58249 0.522462 9.87141 0.778738 10.0453C1.03501 10.2192 1.27902 10.4242 1.55984 10.6396C1.41825 10.423 1.30026 10.2356 1.17613 10.0519C1.052 9.86813 0.926698 9.68677 0.811539 9.48031L0.905932 9.52602L0.927642 9.50242L0.718799 9.238L0.738149 9.20334L1.31866 9.74114L0.999145 9.19527L1.00953 9.17077ZM5.77281 12.5619L5.79381 12.5894C5.81906 12.579 5.84293 12.5637 5.86461 12.5443C6.05882 12.3083 6.2679 12.0875 6.44064 11.8272C6.68676 11.4573 6.889 11.0405 7.14103 10.6772C7.38173 10.3297 7.54951 9.93027 7.73405 9.54186C7.74565 9.51073 7.75474 9.4782 7.76119 9.44475L7.73546 9.42713L7.37725 9.95388C7.38031 9.9715 7.39353 10.0002 7.3881 10.0214C7.35907 10.1394 7.28592 10.1941 7.20805 10.2661C7.08675 10.3784 6.99566 10.5511 6.90646 10.7101C6.84369 10.8209 6.78493 10.9282 6.77903 11.0907C6.77431 11.2195 6.67803 11.3522 6.60535 11.4651C6.45479 11.6988 6.29858 11.9276 6.13339 12.1442C6.03664 12.2712 5.91676 12.3695 5.80915 12.4834C5.79394 12.507 5.78168 12.5335 5.77281 12.5619ZM9.16646 6.74348L9.12705 6.70703C8.73083 7.36434 8.40542 8.08142 8.0269 8.76234C8.20365 8.74949 8.20554 8.75099 8.30135 8.56604C8.41871 8.33957 8.53426 8.1116 8.648 7.88213C8.766 7.64311 8.87974 7.40408 9.01236 7.1292L8.92717 7.18538L8.9149 7.16476L9.16646 6.74348ZM10.075 4.78198L9.72738 5.36012L9.76113 5.39239C9.89092 5.21163 9.97516 4.98695 10.075 4.78198ZM8.96917 7.75575C9.01967 7.68583 9.08339 7.62608 9.11454 7.5466C9.13979 7.48087 9.12634 7.39094 9.13011 7.31176L9.10014 7.30758C9.08858 7.34223 9.05956 7.39213 9.06852 7.40946C9.14191 7.5475 9.04492 7.53435 9.01472 7.54839C8.99796 7.62428 8.98522 7.68284 8.96917 7.75575ZM6.55367 11.302L6.3243 11.6823L6.36158 11.7173C6.37834 11.5446 6.58624 11.5532 6.55367 11.302ZM10.1153 5.60692L10.1092 5.60124L10.108 5.6099L10.1153 5.60692Z" fill="#784421"/>
</svg>
