<svg width="281" height="388" viewBox="0 0 281 388" fill="none" xmlns="http://www.w3.org/2000/svg">
<g filter="url(#filter0_d_487_12)">
<g clip-path="url(#clip0_487_12)">
<rect x="4" width="273" height="380" rx="10" fill="#FFF3E9"/>
<mask id="mask0_487_12" style="mask-type:alpha" maskUnits="userSpaceOnUse" x="-55" y="318" width="385" height="69">
<path d="M213.503 353.591C205.37 353.591 198.767 359.62 198.647 367.091C198.647 367.114 198.647 367.136 198.647 367.159C198.647 367.182 198.647 367.204 198.647 367.227C198.767 374.704 205.37 380.727 213.503 380.727C221.635 380.727 228.238 374.699 228.358 367.227C228.358 367.204 228.358 367.182 228.358 367.159C228.358 367.136 228.358 367.114 228.358 367.091C228.238 359.614 221.633 353.591 213.503 353.591ZM213.535 378.655C206.69 378.655 201.133 373.52 201.054 367.159C201.133 360.798 206.69 355.664 213.534 355.664C220.378 355.664 225.936 360.798 226.015 367.159C225.935 373.52 220.378 378.655 213.535 378.655Z" fill="url(#paint0_linear_487_12)"/>
<path d="M213.326 357.601C207.667 357.601 203.068 361.829 202.951 367.091C202.951 367.114 202.951 367.136 202.951 367.159C202.951 367.182 202.951 367.204 202.951 367.227C203.068 372.485 207.667 376.717 213.326 376.717C218.985 376.717 223.584 372.49 223.702 367.227C223.702 367.204 223.702 367.182 223.702 367.159C223.702 367.136 223.702 367.114 223.702 367.091C223.584 361.833 218.986 357.601 213.326 357.601ZM213.462 374.639C208.79 374.639 204.997 371.302 204.914 367.159C204.997 363.016 208.79 359.68 213.462 359.68C218.134 359.68 221.926 363.016 222.008 367.159C221.928 371.302 218.135 374.639 213.465 374.639H213.462Z" fill="url(#paint1_linear_487_12)"/>
<path d="M213.399 361.48C209.896 361.48 207.045 363.974 206.924 367.091C206.924 367.114 206.924 367.136 206.924 367.159C206.924 367.182 206.924 367.204 206.924 367.227C207.045 370.345 209.896 372.839 213.399 372.839C216.903 372.839 219.754 370.345 219.875 367.227C219.875 367.204 219.875 367.182 219.875 367.159C219.875 367.136 219.875 367.114 219.875 367.091C219.75 363.974 216.899 361.48 213.399 361.48ZM213.33 370.616C211.06 370.616 209.213 369.076 209.129 367.152C209.213 365.227 211.06 363.689 213.33 363.689C215.599 363.689 217.448 365.228 217.532 367.152C217.444 369.085 215.595 370.623 213.326 370.623L213.33 370.616Z" fill="url(#paint2_linear_487_12)"/>
<path d="M251.69 353.591C243.558 353.591 236.955 359.62 236.835 367.091C236.835 367.114 236.835 367.136 236.835 367.159C236.835 367.182 236.835 367.204 236.835 367.227C236.955 374.704 243.558 380.727 251.69 380.727C259.822 380.727 266.425 374.699 266.545 367.227C266.545 367.204 266.545 367.182 266.545 367.159C266.545 367.136 266.545 367.114 266.545 367.091C266.425 359.614 259.821 353.591 251.69 353.591ZM251.723 378.655C244.877 378.655 239.321 373.52 239.242 367.159C239.321 360.798 244.877 355.664 251.721 355.664C258.565 355.664 264.123 360.798 264.202 367.159C264.122 373.52 258.565 378.655 251.723 378.655Z" fill="url(#paint3_linear_487_12)"/>
<path d="M251.513 357.601C245.854 357.601 241.256 361.829 241.139 367.091C241.139 367.114 241.139 367.136 241.139 367.159C241.139 367.182 241.139 367.204 241.139 367.227C241.256 372.485 245.854 376.717 251.513 376.717C257.172 376.717 261.771 372.49 261.889 367.227C261.889 367.204 261.889 367.182 261.889 367.159C261.889 367.136 261.889 367.114 261.889 367.091C261.771 361.833 257.173 357.601 251.513 357.601ZM251.649 374.639C246.977 374.639 243.184 371.302 243.101 367.159C243.184 363.016 246.977 359.68 251.649 359.68C256.321 359.68 260.113 363.016 260.196 367.159C260.116 371.302 256.323 374.639 251.652 374.639H251.649Z" fill="url(#paint4_linear_487_12)"/>
<path d="M251.587 361.48C248.083 361.48 245.232 363.974 245.111 367.091C245.111 367.114 245.111 367.136 245.111 367.159C245.111 367.182 245.111 367.204 245.111 367.227C245.232 370.345 248.083 372.839 251.587 372.839C255.09 372.839 257.941 370.345 258.062 367.227C258.062 367.204 258.062 367.182 258.062 367.159C258.062 367.136 258.062 367.114 258.062 367.091C257.937 363.974 255.086 361.48 251.587 361.48ZM251.517 370.616C249.248 370.616 247.401 369.076 247.317 367.152C247.401 365.227 249.248 363.689 251.517 363.689C253.787 363.689 255.635 365.228 255.719 367.152C255.631 369.085 253.783 370.623 251.513 370.623L251.517 370.616Z" fill="url(#paint5_linear_487_12)"/>
<path d="M289.877 353.591C281.745 353.591 275.142 359.62 275.022 367.091C275.022 367.114 275.022 367.136 275.022 367.159C275.022 367.182 275.022 367.204 275.022 367.227C275.142 374.704 281.745 380.727 289.877 380.727C298.01 380.727 304.613 374.699 304.732 367.227C304.732 367.204 304.732 367.182 304.732 367.159C304.732 367.136 304.732 367.114 304.732 367.091C304.613 359.614 298.008 353.591 289.877 353.591ZM289.91 378.655C283.065 378.655 277.508 373.52 277.429 367.159C277.508 360.798 283.065 355.664 289.909 355.664C296.752 355.664 302.311 360.798 302.39 367.159C302.309 373.52 296.752 378.655 289.91 378.655Z" fill="url(#paint6_linear_487_12)"/>
<path d="M327.554 357.207V357C327.463 352.302 325.505 347.9 322.031 344.591C318.523 341.249 313.877 339.409 308.94 339.409C308.287 339.41 307.635 339.444 306.986 339.511C306.064 337.744 304.855 336.142 303.409 334.773C299.901 331.43 295.255 329.591 290.318 329.591C289.441 329.591 288.566 329.651 287.698 329.771C284.441 323.939 278.166 320.318 271.292 320.318C264.418 320.318 258.129 323.945 254.877 329.79C253.098 329.531 251.291 329.525 249.51 329.771C246.255 323.939 239.978 320.318 233.104 320.318C226.231 320.318 219.941 323.945 216.689 329.79C214.91 329.531 213.104 329.525 211.323 329.771C208.068 323.939 201.791 320.318 194.917 320.318C189.983 320.318 185.334 322.159 181.826 325.5C180.508 326.751 179.387 328.195 178.499 329.782C177.59 329.654 176.673 329.59 175.755 329.591C174.879 329.591 174.004 329.651 173.135 329.771C169.879 323.939 163.603 320.318 156.73 320.318C149.856 320.318 143.566 323.945 140.314 329.79C138.535 329.531 136.729 329.525 134.948 329.771C131.693 323.939 125.416 320.318 118.542 320.318C111.668 320.318 105.379 323.945 102.127 329.79C100.348 329.531 98.5413 329.525 96.7604 329.771C93.5056 323.939 87.2285 320.318 80.3547 320.318C75.4203 320.318 70.7712 322.159 67.2636 325.5C65.9461 326.751 64.8245 328.195 63.9368 329.782C63.0278 329.654 62.111 329.59 61.1931 329.591C60.3166 329.591 59.4412 329.651 58.5729 329.771C55.3168 323.939 49.041 320.318 42.1673 320.318C35.2935 320.318 29.0042 323.945 25.7521 329.79C23.973 329.531 22.1664 329.525 20.3855 329.771C17.1307 323.939 10.8536 320.318 3.97985 320.318C-2.89389 320.318 -9.18327 323.945 -12.4353 329.79C-14.2144 329.531 -16.021 329.525 -17.8019 329.771C-21.0567 323.939 -27.3339 320.318 -34.2076 320.318C-39.1421 320.318 -43.7911 322.159 -47.2987 325.5C-50.7722 328.81 -52.7305 333.211 -52.8257 337.909V338.112V338.318C-52.7609 341.484 -51.8352 344.571 -50.1485 347.247C-52.1805 350.096 -53.3035 353.497 -53.3693 357V357V357.203V357.409C-53.2782 362.107 -51.3199 366.509 -47.8464 369.818C-44.3388 373.16 -39.6925 375 -34.7553 375C-33.9091 374.999 -33.0639 374.943 -32.2248 374.834C-31.2947 376.68 -30.0533 378.35 -28.5556 379.771C-25.048 383.114 -20.4017 384.953 -15.4645 384.953C-10.5273 384.953 -5.88094 383.112 -2.3734 379.771C-0.886351 378.362 0.349163 376.708 1.27955 374.88C2.83444 375.054 4.40465 375.039 5.95581 374.834C6.89165 376.681 8.13902 378.352 9.64273 379.773C13.1503 383.115 17.7966 384.955 22.7338 384.955C27.671 384.955 32.3174 383.114 35.8249 379.773C37.312 378.364 38.5475 376.709 39.4779 374.881C40.1904 374.96 40.9068 375 41.6237 375C42.4698 374.999 43.3151 374.943 44.1541 374.834C45.0848 376.679 46.3261 378.35 47.8234 379.771C51.3309 383.114 55.9773 384.953 60.9145 384.953C65.8517 384.953 70.498 383.112 74.0056 379.771C75.4926 378.362 76.7281 376.708 77.6585 374.88L77.9724 374.91C78.1505 374.928 78.3285 374.941 78.5079 374.954L78.8897 374.977L79.148 374.988C79.3667 374.988 79.5855 375 79.8043 375C80 375 80.1957 375 80.3914 374.99H80.4838C81.1062 374.97 81.7246 374.918 82.3348 374.839C83.268 376.684 84.5116 378.354 86.0108 379.775C89.5184 383.118 94.1647 384.957 99.1019 384.957C104.039 384.957 108.685 383.116 112.193 379.775C113.68 378.366 114.916 376.712 115.846 374.884C117.401 375.058 118.971 375.043 120.522 374.838C121.457 376.683 122.703 378.353 124.205 379.773C127.713 383.115 132.359 384.955 137.296 384.955C142.233 384.955 146.88 383.114 150.387 379.773C151.874 378.364 153.11 376.709 154.04 374.881C154.753 374.96 155.469 375 156.186 375C157.032 374.999 157.877 374.943 158.716 374.834C159.649 376.68 160.893 378.351 162.393 379.773C165.9 383.115 170.546 384.955 175.484 384.955C180.421 384.955 185.067 383.114 188.575 379.773C190.062 378.364 191.297 376.709 192.228 374.881C192.335 374.894 192.442 374.902 192.55 374.913L192.781 374.935L193.11 374.958C193.229 374.966 193.35 374.973 193.47 374.978L193.731 374.989C193.945 374.989 194.16 375.001 194.373 375.001C194.587 375.001 194.765 375.001 194.961 374.992H195.053C195.675 374.971 196.294 374.92 196.904 374.84C197.837 376.686 199.081 378.356 200.58 379.777C204.087 383.119 208.734 384.959 213.671 384.959C218.608 384.959 223.255 383.118 226.762 379.777C228.249 378.368 229.485 376.713 230.415 374.885C231.97 375.06 233.54 375.044 235.091 374.839C236.024 376.684 237.268 378.353 238.767 379.773C242.275 383.115 246.921 384.955 251.858 384.955C256.796 384.955 261.442 383.114 264.95 379.773C266.437 378.364 267.672 376.709 268.603 374.881C269.315 374.96 270.031 375 270.748 375C271.594 374.999 272.44 374.943 273.279 374.834C274.211 376.68 275.455 378.351 276.955 379.773C280.462 383.115 285.109 384.955 290.046 384.955C294.983 384.955 299.629 383.114 303.137 379.773C304.624 378.364 305.86 376.709 306.79 374.881C307.503 374.96 308.219 375 308.936 375C313.87 375 318.519 373.159 322.027 369.818C325.5 366.51 327.463 362.108 327.55 357.409L327.554 357.207ZM290.284 332.01C299.2 332.01 306.517 338.909 306.592 347.385C306.563 350.283 305.69 353.109 304.081 355.516C303.78 355.184 303.463 354.86 303.13 354.547C303.047 354.466 302.963 354.389 302.877 354.311C304.219 352.274 304.955 349.896 304.997 347.455V347.455C304.997 347.431 304.997 347.41 304.997 347.386C304.997 347.363 304.997 347.341 304.997 347.318C304.878 339.841 298.273 333.818 290.142 333.818C284.687 333.818 279.92 336.532 277.337 340.575C276.877 340.408 276.412 340.258 275.941 340.125C278.811 335.104 284.253 332.01 290.284 332.01ZM300.35 347.386C300.35 347.363 300.35 347.341 300.35 347.318C300.232 342.06 295.634 337.829 289.974 337.829C286.231 337.829 282.953 339.68 281.128 342.455C281.021 342.386 280.915 342.319 280.806 342.248C280.379 341.984 279.942 341.74 279.496 341.51C281.681 338.142 285.648 335.891 290.18 335.891C297.026 335.891 302.583 341.025 302.661 347.386C302.636 349.32 302.101 351.212 301.109 352.87C300.499 352.434 299.864 352.035 299.207 351.675C299.924 350.382 300.317 348.934 300.351 347.455C300.352 347.431 300.351 347.41 300.35 347.386ZM296.52 347.386C296.52 347.363 296.52 347.341 296.52 347.318C296.399 344.201 293.548 341.707 290.045 341.707C287.487 341.707 285.279 343.038 284.225 344.969C283.761 344.5 283.272 344.057 282.76 343.642C284.255 341.407 286.983 339.907 290.114 339.907C294.785 339.907 298.578 343.244 298.66 347.386C298.634 348.631 298.272 349.846 297.614 350.902C296.969 350.626 296.31 350.386 295.638 350.183C296.174 349.372 296.479 348.429 296.52 347.456C296.523 347.431 296.52 347.41 296.52 347.386V347.386ZM294.174 347.386C294.127 348.233 293.758 349.028 293.144 349.61C291.279 349.311 289.38 349.284 287.507 349.53C287.033 348.588 286.477 347.69 285.844 346.848C286.214 345.183 287.92 343.923 289.973 343.923C292.242 343.923 294.09 345.462 294.174 347.386ZM270.403 347.647C266.754 347.647 263.548 349.407 261.697 352.066C261.156 351.74 260.599 351.443 260.027 351.175C262.234 347.892 266.143 345.709 270.61 345.709C275.187 345.709 279.185 348.004 281.358 351.427C280.693 351.766 280.049 352.144 279.43 352.56C277.645 349.627 274.274 347.647 270.403 347.647ZM278 353.622C277.641 353.917 277.292 354.224 276.955 354.547C276.777 354.716 276.604 354.888 276.434 355.064C275.448 352.984 273.151 351.518 270.472 351.518C268.064 351.518 265.969 352.699 264.852 354.449C264.379 354.005 263.884 353.585 263.368 353.193C264.891 351.102 267.534 349.718 270.542 349.718C273.748 349.725 276.536 351.297 278 353.622ZM270.58 343.636C265.163 343.636 260.425 346.312 257.83 350.309C257.36 350.156 256.884 350.02 256.403 349.9C259.272 344.917 264.736 341.828 270.714 341.828C276.744 341.828 282.233 344.958 285.086 350.01C284.542 350.156 283.998 350.325 283.463 350.519C280.899 346.4 276.091 343.636 270.58 343.636ZM251.858 341.707C249.301 341.707 247.093 343.038 246.039 344.969C245.575 344.5 245.086 344.057 244.574 343.642C246.069 341.407 248.797 339.907 251.928 339.907C254.927 339.907 257.563 341.283 259.09 343.365C258.546 343.786 258.026 344.238 257.532 344.718C256.426 342.923 254.305 341.707 251.858 341.707ZM255.851 346.595C255.149 347.497 254.535 348.463 254.017 349.482C252.456 349.309 250.881 349.325 249.324 349.53C248.85 348.588 248.293 347.69 247.661 346.848C248.03 345.183 249.737 343.923 251.789 343.923C253.733 343.923 255.369 345.057 255.847 346.595H255.851ZM232.22 347.647C228.571 347.647 225.365 349.407 223.514 352.066C222.973 351.74 222.416 351.443 221.844 351.175C224.051 347.892 227.959 345.709 232.426 345.709C237.003 345.709 241.002 348.004 243.175 351.427C242.51 351.766 241.866 352.144 241.246 352.56C239.458 349.627 236.086 347.647 232.216 347.647H232.22ZM239.816 353.622C239.458 353.917 239.108 354.224 238.771 354.547C238.593 354.716 238.421 354.888 238.251 355.064C237.264 352.984 234.968 351.518 232.289 351.518C229.881 351.518 227.785 352.699 226.668 354.449C226.196 354.005 225.7 353.585 225.184 353.193C226.708 351.102 229.351 349.718 232.358 349.718C235.56 349.725 238.349 351.297 239.812 353.622H239.816ZM232.392 343.636C226.975 343.636 222.238 346.312 219.642 350.309C219.172 350.156 218.697 350.02 218.215 349.9C221.084 344.917 226.549 341.828 232.527 341.828C238.557 341.828 244.046 344.958 246.898 350.01C246.355 350.156 245.811 350.325 245.276 350.519C242.711 346.4 237.903 343.636 232.392 343.636ZM195.783 372.517C195.669 372.526 195.556 372.536 195.442 372.543C195.327 372.55 195.19 372.559 195.064 372.565L194.868 372.571C194.693 372.571 194.516 372.581 194.339 372.581C193.967 372.581 193.587 372.566 193.205 372.54C193.4 371.958 193.563 371.367 193.695 370.767C193.864 370.767 194.034 370.777 194.205 370.777C194.624 370.777 195.04 370.761 195.451 370.729C195.581 371.328 195.743 371.92 195.936 372.502L195.783 372.517ZM186.123 332.624C185.592 332.28 185.046 331.962 184.484 331.669C186.733 328.616 190.504 326.613 194.778 326.613C199.085 326.613 202.879 328.645 205.123 331.736C204.464 332.079 203.826 332.46 203.211 332.877C201.35 330.27 198.183 328.55 194.572 328.55C191.086 328.556 188.004 330.162 186.123 332.624V332.624ZM194.71 330.634C197.646 330.634 200.233 331.954 201.777 333.963C201.249 334.402 200.745 334.871 200.269 335.367C199.153 333.616 197.056 332.434 194.647 332.434C192.355 332.434 190.344 333.502 189.193 335.111C189.08 334.998 188.969 334.885 188.852 334.774C188.501 334.44 188.139 334.122 187.765 333.82C189.313 331.89 191.844 330.634 194.71 330.634ZM204.755 342.451C204.228 342.108 203.683 341.792 203.124 341.505C205.312 338.14 209.276 335.891 213.806 335.891C218.225 335.891 222.104 338.03 224.321 341.258C223.707 341.552 223.108 341.877 222.528 342.235L222.367 342.338C220.527 339.629 217.29 337.829 213.599 337.829C209.856 337.829 206.58 339.682 204.755 342.451ZM194.572 334.65C196.521 334.65 198.153 335.786 198.631 337.324C198.107 338.052 197.639 338.819 197.231 339.619C196.535 339.516 195.834 339.451 195.13 339.425H195.043C194.821 339.419 194.598 339.413 194.373 339.413C194.178 339.413 193.981 339.413 193.784 339.424C193.683 339.424 193.583 339.428 193.482 339.436L193.281 339.447C192.993 339.464 192.705 339.485 192.419 339.514C191.929 338.574 191.355 337.679 190.706 336.841C191.347 335.551 192.835 334.65 194.572 334.65ZM193.077 353.839C193.39 353.775 193.709 353.742 194.028 353.741C196.298 353.741 198.146 355.28 198.23 357.205C198.23 357.229 198.23 357.254 198.23 357.278C197.665 358.081 197.169 358.931 196.746 359.817C196.369 360.088 195.951 360.298 195.508 360.439V360.439C195.399 360.475 195.289 360.505 195.177 360.532L195.145 360.539C195.037 360.565 194.927 360.585 194.815 360.604H194.774C194.663 360.62 194.55 360.634 194.436 360.644H194.401C194.282 360.652 194.163 360.657 194.041 360.657C193.918 360.657 193.8 360.657 193.682 360.644L193.536 360.629C193.47 360.622 193.4 360.615 193.335 360.605L193.157 360.574L193 360.544L192.812 360.498L192.726 360.473C192.274 359.413 191.719 358.401 191.068 357.45C191.876 356.33 192.549 355.118 193.073 353.839H193.077ZM195.053 367.158V367.364C195.062 367.801 195.087 368.235 195.128 368.667H195.057C194.951 368.667 194.845 368.68 194.738 368.684C194.571 368.684 194.402 368.695 194.232 368.695H194.016C194.058 368.253 194.084 367.808 194.094 367.361V367.156V366.955C194.094 366.889 194.094 366.825 194.094 366.761C194.229 366.761 194.365 366.761 194.501 366.75H194.599C194.755 366.742 194.91 366.732 195.064 366.717C195.064 366.799 195.064 366.88 195.056 366.96L195.053 367.158ZM195.26 364.62C195.081 364.64 194.903 364.657 194.724 364.668H194.685L194.455 364.679H194.166C194.077 364.679 193.99 364.679 193.902 364.679C193.809 364.065 193.684 363.458 193.525 362.858C193.602 362.865 193.676 362.869 193.752 362.873C193.867 362.88 193.981 362.884 194.096 362.884C194.212 362.884 194.368 362.884 194.504 362.872H194.516C194.905 362.849 195.291 362.795 195.671 362.71C195.499 363.338 195.362 363.976 195.261 364.62H195.26ZM200.058 355.064C200.04 355.025 200.021 354.99 200.002 354.953C199.998 354.943 199.994 354.934 199.989 354.925C199.953 354.855 199.917 354.788 199.877 354.717C199.794 354.573 199.706 354.431 199.606 354.293C199.562 354.23 199.517 354.168 199.47 354.105C199.461 354.093 199.452 354.082 199.442 354.07C199.403 354.018 199.362 353.967 199.322 353.917L199.285 353.872C199.245 353.824 199.205 353.776 199.163 353.735L199.124 353.692C199.08 353.643 199.035 353.595 198.989 353.547L198.957 353.515C198.843 353.397 198.722 353.284 198.597 353.175L198.575 353.156C198.521 353.11 198.467 353.065 198.411 353.02L198.358 352.977L198.222 352.87L198.158 352.823C198.112 352.79 198.067 352.758 198.022 352.726L197.956 352.68L197.81 352.587L197.746 352.546L197.571 352.443L197.532 352.421C197.46 352.38 197.385 352.339 197.31 352.301L197.272 352.282C197.211 352.252 197.148 352.22 197.086 352.192L197.01 352.158L196.856 352.09L196.769 352.054L196.62 351.995L196.529 351.961C196.477 351.942 196.426 351.925 196.374 351.908L196.286 351.878C196.228 351.859 196.17 351.841 196.11 351.825L196.04 351.803C195.957 351.78 195.874 351.758 195.79 351.738L195.754 351.731C195.682 351.713 195.609 351.697 195.537 351.682L195.448 351.665L195.279 351.635L195.178 351.619L195.015 351.597L194.91 351.585C194.856 351.578 194.8 351.573 194.744 351.569L194.645 351.545L194.463 351.535H194.376C194.286 351.535 194.195 351.535 194.104 351.535C194.013 351.535 193.93 351.535 193.845 351.541C193.996 350.946 194.115 350.343 194.202 349.735C194.316 349.735 194.429 349.735 194.542 349.743H194.583C194.681 349.743 194.778 349.752 194.875 349.759H194.936C195.028 349.766 195.121 349.774 195.208 349.785H195.265C195.366 349.797 195.465 349.81 195.563 349.825H195.59C195.81 349.857 196.027 349.898 196.241 349.946L196.29 349.957C196.375 349.976 196.459 349.996 196.545 350.018L196.633 350.043L196.844 350.101L196.949 350.133L197.142 350.194L197.249 350.231L197.438 350.298L197.543 350.336C197.632 350.371 197.721 350.407 197.814 350.444C197.866 350.464 197.915 350.487 197.965 350.509L198.085 350.562L198.251 350.641L198.346 350.688C198.404 350.716 198.463 350.746 198.52 350.778C198.546 350.79 198.57 350.804 198.594 350.817C198.657 350.851 198.721 350.885 198.782 350.921L198.821 350.944C199.96 351.594 200.925 352.511 201.633 353.617C201.274 353.911 200.925 354.218 200.588 354.541C200.402 354.716 200.229 354.888 200.059 355.064H200.058ZM203.048 352.56C203.036 352.541 203.022 352.522 203.011 352.501L202.913 352.347L202.824 352.211L202.723 352.064L202.624 351.927C202.59 351.881 202.557 351.835 202.523 351.791C202.489 351.747 202.444 351.687 202.404 351.637C202.363 351.586 202.345 351.559 202.314 351.521C202.243 351.434 202.178 351.346 202.098 351.262L202.05 351.209C201.989 351.139 201.927 351.072 201.864 351.001C201.84 350.974 201.814 350.948 201.789 350.922L201.62 350.746L201.539 350.667C201.481 350.61 201.423 350.554 201.361 350.498L201.285 350.426L201.091 350.253L201.023 350.194C200.95 350.131 200.875 350.07 200.8 350.009L200.754 349.972C198.93 348.528 196.689 347.715 194.367 347.654C194.367 347.633 194.367 347.613 194.367 347.592V347.39V347.182C194.357 346.687 194.325 346.196 194.274 345.709H194.307C194.443 345.709 194.588 345.709 194.728 345.719H194.838C194.954 345.719 195.069 345.73 195.185 345.738L195.321 345.749C195.428 345.757 195.534 345.766 195.641 345.777L195.777 345.792C195.883 345.805 195.988 345.819 196.091 345.833L196.227 345.852L196.546 345.904L196.67 345.926C196.788 345.948 196.905 345.971 197.023 345.997L197.104 346.013C197.394 346.077 197.68 346.15 197.963 346.233C197.999 346.242 198.035 346.255 198.071 346.265C198.173 346.295 198.274 346.327 198.374 346.36L198.522 346.41L198.779 346.5L198.942 346.561L199.177 346.653L199.347 346.724C199.422 346.755 199.495 346.786 199.567 346.819C199.64 346.852 199.684 346.87 199.741 346.897C199.799 346.924 199.877 346.962 199.952 346.996C200.027 347.03 200.069 347.051 200.126 347.081C200.183 347.111 200.262 347.149 200.327 347.185L200.502 347.276C200.568 347.311 200.638 347.348 200.695 347.385C200.816 347.453 200.936 347.521 201.054 347.596C201.103 347.625 201.152 347.654 201.2 347.684C201.269 347.727 201.336 347.774 201.406 347.82L201.542 347.91C201.611 347.956 201.678 348.004 201.749 348.046L201.875 348.136C201.944 348.187 202.011 348.237 202.082 348.289L202.198 348.378L202.406 348.543L202.507 348.625C202.579 348.685 202.651 348.745 202.722 348.806L202.796 348.873C202.874 348.94 202.95 349.009 203.026 349.079C203.387 349.414 203.728 349.771 204.045 350.148L204.086 350.195C204.154 350.276 204.222 350.358 204.285 350.441L204.335 350.505C204.399 350.587 204.461 350.669 204.522 350.752L204.57 350.819C204.631 350.903 204.692 350.988 204.751 351.074L204.79 351.132C204.851 351.222 204.912 351.314 204.971 351.405C204.31 351.751 203.67 352.137 203.055 352.56H203.048ZM207.081 350.515C207.009 350.4 206.936 350.285 206.86 350.174L206.827 350.122C206.757 350.018 206.691 349.915 206.611 349.812L206.557 349.736C206.486 349.638 206.421 349.542 206.341 349.445L206.274 349.36C206.201 349.265 206.127 349.173 206.053 349.087L205.979 349C205.903 348.908 205.827 348.818 205.748 348.727L205.675 348.644C205.595 348.554 205.514 348.465 205.432 348.371C205.408 348.346 205.385 348.323 205.364 348.299C205.277 348.209 205.19 348.119 205.101 348.026L205.054 347.98C204.631 347.562 204.184 347.171 203.714 346.808L203.703 346.8C203.606 346.726 203.507 346.653 203.409 346.58L203.311 346.51C203.222 346.445 203.131 346.383 203.04 346.32L202.904 346.23L202.642 346.06L202.491 345.964L202.232 345.807L202.067 345.71C201.982 345.661 201.897 345.614 201.811 345.566L201.633 345.469C201.549 345.424 201.465 345.379 201.379 345.333C201.317 345.3 201.253 345.27 201.19 345.239C201.105 345.196 201.02 345.154 200.935 345.115L200.736 345.023L200.482 344.91L200.271 344.821C200.187 344.787 200.104 344.752 200.02 344.719C199.936 344.686 199.839 344.65 199.748 344.617C199.612 344.568 199.489 344.521 199.357 344.48C199.267 344.449 199.176 344.418 199.085 344.389C198.994 344.36 198.936 344.343 198.862 344.32C198.789 344.296 198.684 344.265 198.59 344.24L198.362 344.178C198.272 344.153 198.183 344.129 198.09 344.107L197.861 344.051L197.589 343.988L197.356 343.94C197.263 343.921 197.17 343.904 197.075 343.887C196.98 343.871 196.92 343.859 196.843 343.846C196.765 343.834 196.651 343.815 196.555 343.801C196.458 343.788 196.401 343.778 196.324 343.769C196.224 343.755 196.124 343.744 196.023 343.732L195.799 343.707C195.693 343.696 195.586 343.688 195.48 343.68L195.268 343.664C195.149 343.655 195.03 343.65 194.91 343.645C194.85 343.645 194.792 343.638 194.732 343.636C194.553 343.636 194.372 343.627 194.189 343.627C194.098 343.627 194.008 343.627 193.917 343.627C193.779 343.024 193.609 342.43 193.407 341.846C193.561 341.838 193.71 341.832 193.86 341.827H193.872C194.023 341.827 194.172 341.827 194.322 341.827C194.524 341.827 194.73 341.827 194.928 341.838L195.094 341.846C195.243 341.853 195.391 341.861 195.539 341.87L195.704 341.884C195.857 341.896 196.011 341.91 196.163 341.926L196.284 341.941C196.461 341.962 196.638 341.984 196.811 342.01H196.851C201.959 342.775 206.304 345.815 208.682 350C208.149 350.15 207.618 350.32 207.088 350.513L207.081 350.515ZM211.132 349.53C210.657 348.587 210.099 347.688 209.464 346.845C209.835 345.181 211.54 343.924 213.591 343.924C215.538 343.924 217.174 345.059 217.653 346.595C216.951 347.497 216.337 348.464 215.818 349.484C215.105 349.405 214.388 349.365 213.671 349.364C212.824 349.364 211.979 349.419 211.139 349.529L211.132 349.53ZM213.66 341.708C211.103 341.708 208.896 343.039 207.841 344.969C207.716 344.842 207.588 344.716 207.458 344.594C207.11 344.261 206.748 343.943 206.377 343.639C207.872 341.405 210.6 339.907 213.729 339.907C216.729 339.907 219.365 341.283 220.891 343.365C220.347 343.786 219.828 344.238 219.334 344.718C218.239 342.923 216.117 341.707 213.671 341.707L213.66 341.708ZM232.891 330.635C235.827 330.635 238.414 331.955 239.958 333.964C239.429 334.404 238.926 334.873 238.449 335.369C237.334 333.618 235.237 332.435 232.827 332.435C230.535 332.435 228.525 333.506 227.374 335.118C226.919 334.663 226.441 334.233 225.941 333.828C227.493 331.894 230.028 330.634 232.898 330.634L232.891 330.635ZM224.293 332.639C223.763 332.296 223.216 331.98 222.653 331.692C224.9 328.63 228.677 326.62 232.959 326.62C237.266 326.62 241.06 328.651 243.304 331.743C242.645 332.086 242.006 332.467 241.392 332.884C239.531 330.277 236.363 328.557 232.753 328.557C229.267 328.556 226.18 330.168 224.3 332.637L224.293 332.639ZM232.753 334.651C234.701 334.651 236.333 335.787 236.812 337.325C236.289 338.055 235.822 338.822 235.415 339.622C233.82 339.383 232.202 339.345 230.599 339.509C230.11 338.571 229.539 337.679 228.892 336.843C229.534 335.555 231.021 334.65 232.759 334.65L232.753 334.651ZM241.299 341.512C243.486 338.144 247.453 335.892 251.985 335.892C256.404 335.892 260.283 338.032 262.501 341.26C261.886 341.553 261.287 341.879 260.707 342.236L260.546 342.34C258.706 339.63 255.469 337.83 251.778 337.83C248.036 337.83 244.758 339.682 242.931 342.457C242.825 342.387 242.719 342.32 242.611 342.25C242.191 341.984 241.753 341.74 241.306 341.51L241.299 341.512ZM271.079 330.635C274.014 330.635 276.601 331.955 278.145 333.964C277.617 334.404 277.113 334.873 276.637 335.369C275.521 333.618 273.424 332.435 271.015 332.435C268.722 332.435 266.712 333.506 265.561 335.119C265.106 334.664 264.628 334.233 264.129 333.828C265.681 331.894 268.215 330.634 271.085 330.634L271.079 330.635ZM262.48 332.639C261.95 332.296 261.404 331.98 260.84 331.692C263.088 328.63 266.864 326.62 271.147 326.62C275.453 326.62 279.247 328.651 281.491 331.743C280.832 332.086 280.193 332.467 279.578 332.884C277.719 330.277 274.549 328.557 270.94 328.557C267.454 328.556 264.368 330.168 262.487 332.637L262.48 332.639ZM270.94 334.651C272.889 334.651 274.521 335.787 274.999 337.327C274.476 338.055 274.009 338.823 273.602 339.622C272.008 339.383 270.39 339.345 268.786 339.509C268.297 338.571 267.726 337.679 267.079 336.843C267.722 335.555 269.209 334.65 270.947 334.65L270.94 334.651ZM271.251 322.739C276.959 322.739 282.301 325.623 285.241 330.277C284.682 330.43 284.132 330.607 283.592 330.81C280.946 327.038 276.349 324.537 271.117 324.537C265.912 324.537 261.332 327.008 258.682 330.746C258.212 330.576 257.734 330.424 257.25 330.289C260.194 325.628 265.541 322.737 271.258 322.737L271.251 322.739ZM252.089 332.011C258.028 332.011 263.417 335.028 266.31 339.92C265.747 340.053 265.193 340.211 264.647 340.394C262.039 336.439 257.331 333.81 251.955 333.81C246.5 333.81 241.733 336.524 239.149 340.567C238.69 340.4 238.225 340.25 237.754 340.117C240.624 335.104 246.065 332.01 252.096 332.01L252.089 332.011ZM233.064 322.739C238.771 322.739 244.114 325.623 247.053 330.277C246.494 330.43 245.945 330.607 245.405 330.81C242.759 327.038 238.161 324.537 232.929 324.537C227.724 324.537 223.144 327.008 220.494 330.746C220.024 330.576 219.547 330.424 219.062 330.289C222.007 325.628 227.353 322.737 233.071 322.737L233.064 322.739ZM213.902 332.011C219.841 332.011 225.229 335.028 228.122 339.92C227.56 340.053 227.005 340.211 226.459 340.394C223.851 336.439 219.144 333.81 213.768 333.81C208.314 333.81 203.549 336.521 200.965 340.561C200.507 340.395 200.041 340.246 199.567 340.114C202.438 335.103 207.879 332.01 213.909 332.01L213.902 332.011ZM194.876 322.739C200.584 322.739 205.926 325.623 208.866 330.277C208.307 330.43 207.757 330.607 207.217 330.81C204.571 327.038 199.974 324.537 194.742 324.537C189.544 324.537 184.971 327.001 182.317 330.732C181.851 330.563 181.378 330.413 180.898 330.281C183.773 325.773 188.971 322.737 194.883 322.737L194.876 322.739ZM175.715 332.011C184.631 332.011 191.948 338.91 192.022 347.386C191.994 350.284 191.121 353.111 189.512 355.518C189.211 355.185 188.894 354.862 188.561 354.548C188.478 354.468 188.394 354.39 188.308 354.312C189.65 352.275 190.385 349.897 190.428 347.456V347.456C190.428 347.433 190.428 347.411 190.428 347.388C190.428 347.365 190.428 347.343 190.428 347.32C190.309 339.843 183.704 333.82 175.573 333.82C170.118 333.82 165.351 336.533 162.768 340.576C162.308 340.409 161.843 340.259 161.372 340.126C164.249 335.104 169.69 332.01 175.721 332.01L175.715 332.011ZM185.781 347.388C185.781 347.365 185.781 347.343 185.781 347.32C185.662 342.061 181.065 337.83 175.405 337.83C171.662 337.83 168.384 339.682 166.559 342.457C166.452 342.387 166.346 342.32 166.237 342.25C165.81 341.985 165.373 341.741 164.927 341.512C167.112 338.144 171.079 335.892 175.611 335.892C182.457 335.892 188.013 341.026 188.092 347.388C188.067 349.321 187.531 351.213 186.54 352.871C185.93 352.435 185.295 352.036 184.638 351.676C185.355 350.384 185.748 348.935 185.782 347.456C185.79 347.431 185.789 347.41 185.787 347.386L185.781 347.388ZM181.951 347.388C181.951 347.365 181.951 347.343 181.951 347.32C181.83 344.202 178.979 341.708 175.475 341.708C172.918 341.708 170.709 343.039 169.656 344.97C169.192 344.502 168.703 344.059 168.191 343.643C169.686 341.408 172.414 339.908 175.545 339.908C180.216 339.908 184.008 343.245 184.091 347.388C184.065 348.633 183.703 349.847 183.045 350.903C182.4 350.627 181.74 350.387 181.069 350.185C181.605 349.373 181.91 348.43 181.951 347.457V347.457C181.96 347.431 181.958 347.41 181.958 347.386L181.951 347.388ZM179.605 347.388C179.558 348.234 179.189 349.03 178.575 349.612C176.71 349.312 174.811 349.285 172.938 349.531C172.464 348.589 171.908 347.692 171.275 346.849C171.644 345.184 173.351 343.924 175.403 343.924C177.68 343.923 179.528 345.462 179.612 347.386L179.605 347.388ZM155.834 347.648C152.185 347.648 148.979 349.409 147.128 352.068C146.587 351.742 146.03 351.444 145.458 351.176C147.665 347.894 151.574 345.71 156.041 345.71C160.618 345.71 164.616 348.005 166.789 351.428C166.124 351.767 165.48 352.145 164.86 352.561C163.083 349.627 159.711 347.647 155.841 347.647L155.834 347.648ZM163.431 353.624C163.072 353.918 162.723 354.225 162.386 354.548C162.208 354.717 162.035 354.889 161.865 355.065C160.879 352.985 158.582 351.52 155.903 351.52C153.495 351.52 151.4 352.7 150.283 354.45C149.81 354.006 149.315 353.587 148.799 353.194C150.322 351.104 152.965 349.72 155.973 349.72C159.185 349.725 161.974 351.297 163.438 353.622L163.431 353.624ZM156.018 343.636C150.601 343.636 145.863 346.312 143.268 350.309C142.797 350.156 142.322 350.02 141.841 349.9C144.709 344.917 150.174 341.828 156.152 341.828C162.182 341.828 167.671 344.958 170.523 350.01C169.98 350.156 169.436 350.325 168.901 350.519C166.336 346.4 161.528 343.636 156.018 343.636ZM137.296 341.707C134.739 341.707 132.53 343.038 131.477 344.969C131.013 344.5 130.524 344.057 130.012 343.642C131.507 341.407 134.234 339.907 137.365 339.907C140.365 339.907 143.001 341.283 144.527 343.365C143.983 343.786 143.464 344.238 142.97 344.718C141.864 342.923 139.742 341.707 137.296 341.707ZM141.289 346.595C140.587 347.497 139.972 348.463 139.454 349.482C137.894 349.309 136.318 349.325 134.762 349.53C134.288 348.588 133.731 347.69 133.098 346.848C133.468 345.183 135.175 343.923 137.227 343.923C139.17 343.923 140.806 345.057 141.285 346.595H141.289ZM117.657 347.647C114.009 347.647 110.803 349.407 108.952 352.066C108.411 351.74 107.853 351.443 107.282 351.175C109.489 347.892 113.397 345.709 117.864 345.709C122.441 345.709 126.439 348.004 128.612 351.427C127.948 351.766 127.304 352.144 126.684 352.56C124.895 349.627 121.524 347.647 117.653 347.647H117.657ZM125.254 353.622C124.895 353.917 124.546 354.224 124.209 354.547C124.031 354.716 123.859 354.888 123.689 355.064C122.702 352.984 120.405 351.518 117.727 351.518C115.319 351.518 113.223 352.699 112.106 354.449C111.633 354.005 111.138 353.585 110.622 353.193C112.145 351.102 114.789 349.718 117.796 349.718C120.998 349.725 123.786 351.297 125.25 353.622H125.254ZM117.83 343.636C112.413 343.636 107.676 346.312 105.08 350.309C104.61 350.156 104.134 350.02 103.653 349.9C106.522 344.917 111.986 341.828 117.965 341.828C123.994 341.828 129.483 344.958 132.336 350.01C131.792 350.156 131.249 350.325 130.713 350.519C128.149 346.4 123.341 343.636 117.83 343.636ZM99.1087 341.707C96.5511 341.707 94.3441 343.038 93.2895 344.969C93.1645 344.842 93.0368 344.715 92.9063 344.592C92.5584 344.26 92.1969 343.942 91.8259 343.638C93.3208 341.404 96.0483 339.905 99.178 339.905C102.177 339.905 104.814 341.281 106.34 343.364C105.796 343.785 105.276 344.237 104.782 344.716C103.676 342.923 101.555 341.707 99.1087 341.707ZM103.101 346.594C102.4 347.496 101.785 348.463 101.267 349.482C100.55 349.403 99.8297 349.364 99.1087 349.364C98.2621 349.364 97.4164 349.419 96.5769 349.529C96.1017 348.585 95.5431 347.686 94.9081 346.842C95.2804 345.18 96.9846 343.923 99.0353 343.923C100.983 343.923 102.619 345.057 103.097 346.594H103.101ZM86.9988 350.675C86.9743 350.651 86.9512 350.626 86.9268 350.603C86.8643 350.543 86.8004 350.485 86.7365 350.426L86.6835 350.377C86.6074 350.307 86.5299 350.239 86.4511 350.172L86.4335 350.157C84.5712 348.596 82.2371 347.713 79.8111 347.652C79.8111 347.632 79.8111 347.611 79.8111 347.591V347.389V347.182C79.8016 346.687 79.769 346.196 79.7187 345.709H79.7513C79.8872 345.709 80.0313 345.709 80.1713 345.719H80.28C80.3955 345.719 80.511 345.731 80.6252 345.739L80.7611 345.749L81.0804 345.779L81.2163 345.794C81.3196 345.806 81.4215 345.818 81.5248 345.833L81.6607 345.852L81.9706 345.903L82.1065 345.926C82.2165 345.946 82.3266 345.968 82.4353 345.991L82.54 346.013C82.6759 346.043 82.8118 346.075 82.9477 346.109H82.964C83.108 346.145 83.2507 346.185 83.3921 346.226L83.4831 346.253C83.5891 346.285 83.6965 346.317 83.8011 346.353L83.9506 346.403C84.0362 346.432 84.1205 346.46 84.2034 346.492L84.3732 346.555L84.5988 346.643C84.66 346.666 84.7198 346.691 84.7796 346.717L84.9861 346.805L85.1737 346.889L85.3639 346.979C85.4292 347.01 85.4998 347.04 85.5569 347.073C85.614 347.105 85.6724 347.131 85.7295 347.161C85.7866 347.191 85.8654 347.231 85.932 347.268L86.0679 347.343C86.3506 347.501 86.6264 347.667 86.8942 347.845L86.9621 347.89C87.045 347.945 87.1252 348.001 87.2067 348.059C87.2353 348.08 87.2652 348.101 87.2951 348.121C87.3739 348.179 87.4513 348.236 87.5302 348.296L87.6171 348.361L87.8482 348.544L87.9256 348.608C88.0044 348.672 88.0833 348.738 88.1594 348.805L88.2205 348.858C88.3021 348.93 88.3823 349.001 88.4624 349.075L88.491 349.102C89.0411 349.613 89.5416 350.175 89.9858 350.78L89.9981 350.797C90.0687 350.892 90.134 350.99 90.2033 351.089L90.2223 351.115C90.2889 351.213 90.3582 351.311 90.4167 351.41V351.419C89.752 351.758 89.108 352.136 88.4882 352.552L88.4719 352.526L88.37 352.365L88.2926 352.245L88.1893 352.094L88.1037 351.97C88.0697 351.922 88.0357 351.875 88.0004 351.833C87.965 351.791 87.9365 351.746 87.9025 351.704C87.8686 351.661 87.8359 351.616 87.802 351.574L87.6919 351.438L87.594 351.32L87.4704 351.184L87.378 351.08L87.2421 350.929L87.1564 350.839C87.1034 350.782 87.0491 350.727 86.9947 350.675H86.9988ZM87.0668 353.622C86.708 353.917 86.3587 354.224 86.0217 354.547C85.8437 354.716 85.6711 354.888 85.5012 355.064L85.4917 355.045C85.47 355 85.4482 354.956 85.4251 354.908L85.383 354.826L85.3109 354.69L85.2675 354.616C85.1791 354.468 85.084 354.322 84.9834 354.18C84.9658 354.155 84.9481 354.131 84.9291 354.108C84.91 354.085 84.8693 354.029 84.8394 353.989L84.7796 353.914L84.6844 353.8C84.6654 353.776 84.645 353.755 84.6247 353.731C84.5635 353.662 84.501 353.595 84.4358 353.527L84.3719 353.46L84.27 353.36L84.1911 353.287L84.0879 353.193L84.0022 353.118L83.8881 353.045L83.7834 352.962C83.7277 352.92 83.6734 352.878 83.6163 352.837C83.5796 352.81 83.5415 352.781 83.5035 352.755C83.4654 352.729 83.4342 352.707 83.3989 352.684L83.2888 352.612L83.1828 352.545L83.0591 352.471L82.9613 352.414C82.8906 352.375 82.8186 352.335 82.7452 352.298L82.6636 352.257L82.5087 352.182L82.4082 352.137L82.2614 352.073L82.1608 352.032L81.9909 351.967L81.9121 351.938C81.8292 351.908 81.7477 351.881 81.6634 351.855L81.586 351.832L81.4011 351.779L81.3033 351.754L81.1253 351.71L81.0342 351.682C80.9595 351.665 80.8847 351.652 80.81 351.638L80.7624 351.629C80.6714 351.614 80.5803 351.6 80.4906 351.588L80.4091 351.578C80.3425 351.57 80.2732 351.562 80.208 351.556L80.1115 351.547L79.9103 351.535H79.822C79.7269 351.535 79.6304 351.528 79.5339 351.528C79.4374 351.528 79.36 351.528 79.2743 351.528C79.4257 350.933 79.545 350.33 79.6317 349.722C79.7432 349.722 79.8546 349.722 79.9647 349.722H79.9987C80.0965 349.722 80.193 349.732 80.2895 349.739H80.3479L80.6197 349.762L80.6836 349.769L80.9554 349.803L81.0111 349.811C81.1076 349.825 81.2027 349.84 81.2979 349.857H81.325C81.5384 349.895 81.7477 349.942 81.9556 349.994H81.9774C82.0684 350.017 82.1595 350.041 82.2492 350.067L82.3266 350.09C82.3991 350.11 82.4698 350.132 82.5386 350.156L82.6365 350.189C82.7003 350.209 82.7615 350.231 82.824 350.254L82.9314 350.294L83.104 350.36L83.2154 350.405L83.3785 350.475L83.4926 350.525L83.6503 350.6C83.7332 350.64 83.8161 350.681 83.8962 350.723L84.0036 350.778L84.1612 350.865L84.2536 350.917L84.414 351.012L84.4955 351.061L84.6586 351.166L84.7279 351.211L84.8978 351.327L84.9467 351.363L85.1288 351.499H85.1383C85.903 352.084 86.5551 352.803 87.0627 353.622H87.0668ZM90.2264 347.727L90.1979 347.7C90.1014 347.61 90.0035 347.521 89.903 347.427L89.8377 347.37C89.744 347.287 89.6475 347.206 89.551 347.126L89.4681 347.058C89.373 346.98 89.2764 346.904 89.18 346.829L89.0916 346.76L88.7927 346.538L88.7152 346.484C88.6092 346.409 88.5018 346.332 88.3931 346.26C88.0371 346.02 87.6697 345.793 87.291 345.578C87.2516 345.558 87.2135 345.535 87.1755 345.514C87.0849 345.463 86.9911 345.414 86.8942 345.367L86.727 345.28L86.4552 345.15L86.2636 345.06L86.004 344.943L85.7907 344.864C85.7064 344.827 85.6208 344.793 85.5352 344.757L85.3109 344.671C85.228 344.639 85.1451 344.607 85.0609 344.577C84.9766 344.547 84.8964 344.52 84.8149 344.491L84.5771 344.41C84.4752 344.377 84.3732 344.347 84.2713 344.315L84.0104 344.239C83.8745 344.2 83.7386 344.161 83.6027 344.126L83.4016 344.078C83.2983 344.054 83.195 344.028 83.0904 344.006L82.8702 343.96C82.771 343.939 82.6704 343.919 82.5699 343.901L82.3443 343.861C82.2437 343.844 82.1431 343.827 82.0412 343.812L81.8143 343.781C81.711 343.766 81.6064 343.754 81.5031 343.741L81.2788 343.717C81.1701 343.706 81.0614 343.696 80.9513 343.688C80.8807 343.688 80.8154 343.676 80.7393 343.672C80.6184 343.664 80.4961 343.657 80.3751 343.651L80.1917 343.636C80.0095 343.636 79.8261 343.627 79.6481 343.627C79.557 343.627 79.4673 343.627 79.3763 343.627C79.2356 343.027 79.0632 342.435 78.8598 341.854C79.0161 341.846 79.1683 341.839 79.3192 341.835C79.47 341.831 79.6222 341.835 79.7744 341.835C79.9783 341.835 80.1821 341.835 80.3833 341.847L80.5518 341.855C80.7013 341.855 80.8508 341.869 80.9989 341.88L81.1647 341.894C81.3196 341.906 81.4745 341.92 81.6281 341.936L81.7477 341.95C81.9284 341.971 82.1078 341.995 82.2913 342.02H82.3225C87.4242 342.788 91.7593 345.829 94.1362 350.01C93.5926 350.155 93.0562 350.323 92.5271 350.515C92.5269 350.511 92.5269 350.507 92.5271 350.504C92.4538 350.386 92.3777 350.269 92.3002 350.155L92.273 350.114C92.1955 349.999 92.1167 349.885 92.0352 349.773L92.0121 349.74C91.4823 349.013 90.8843 348.339 90.2264 347.727V347.727ZM80.1482 330.634C83.0836 330.634 85.6711 331.954 87.2149 333.963C86.6863 334.402 86.1827 334.871 85.7064 335.367C84.5907 333.616 82.4938 332.434 80.0843 332.434C77.793 332.434 75.7831 333.502 74.6307 335.112C74.5179 334.999 74.4065 334.885 74.2896 334.774C73.939 334.44 73.5766 334.122 73.2024 333.82C74.7489 331.89 77.2821 330.634 80.1482 330.634ZM71.5607 332.624C71.0305 332.28 70.4836 331.964 69.9218 331.676C72.1709 328.621 75.9421 326.618 80.2188 326.618C84.5255 326.618 88.3197 328.65 90.5634 331.741C89.9046 332.084 89.2661 332.465 88.6513 332.883C86.7909 330.275 83.6231 328.556 80.0123 328.556C76.5238 328.556 73.4416 330.162 71.5607 332.624V332.624ZM80.0096 334.65C81.9583 334.65 83.5905 335.786 84.0688 337.324C83.5445 338.052 83.0766 338.819 82.6691 339.619C81.9728 339.516 81.2714 339.451 80.5681 339.425H80.4811C80.2582 339.419 80.0354 339.413 79.8111 339.413C79.6127 339.413 79.413 339.413 79.2132 339.424C79.114 339.424 79.0148 339.432 78.9156 339.436C78.8463 339.436 78.7797 339.443 78.709 339.449C78.4236 339.464 78.1396 339.486 77.8569 339.514C77.366 338.573 76.792 337.677 76.1419 336.839C76.7847 335.553 78.2728 334.65 80.0096 334.65V334.65ZM88.5603 341.505C90.7482 338.14 94.7124 335.891 99.2419 335.891C103.661 335.891 107.54 338.03 109.758 341.258C109.143 341.552 108.544 341.877 107.964 342.235L107.803 342.338C105.963 339.629 102.726 337.829 99.0353 337.829C95.294 337.829 92.0175 339.679 90.1924 342.451C89.6648 342.108 89.1201 341.792 88.5603 341.505V341.505ZM118.336 330.634C121.271 330.634 123.859 331.954 125.402 333.963C124.874 334.402 124.37 334.871 123.894 335.367C122.778 333.616 120.681 332.434 118.272 332.434C115.979 332.434 113.969 333.505 112.818 335.116C112.363 334.662 111.885 334.231 111.386 333.826C112.931 331.894 115.465 330.634 118.336 330.634V330.634ZM109.737 332.637C109.207 332.295 108.661 331.979 108.097 331.691C110.345 328.628 114.121 326.618 118.404 326.618C122.71 326.618 126.504 328.65 128.748 331.741C128.089 332.084 127.451 332.465 126.836 332.883C124.976 330.275 121.808 328.556 118.197 328.556C114.704 328.556 111.618 330.168 109.737 332.637V332.637ZM118.197 334.65C120.146 334.65 121.778 335.786 122.256 337.324C121.731 338.053 121.262 338.822 120.852 339.622C119.258 339.383 117.64 339.345 116.036 339.509C115.548 338.571 114.976 337.679 114.329 336.843C114.972 335.555 116.459 334.65 118.197 334.65V334.65ZM126.744 341.51C128.93 338.142 132.897 335.891 137.429 335.891C141.849 335.891 145.727 338.03 147.945 341.258C147.33 341.552 146.732 341.877 146.151 342.235L145.991 342.338C144.151 339.629 140.914 337.829 137.223 337.829C133.48 337.829 130.202 339.68 128.376 342.455C128.27 342.386 128.164 342.319 128.055 342.248C127.628 341.984 127.191 341.74 126.744 341.51V341.51ZM156.523 330.634C159.458 330.634 162.046 331.954 163.59 333.963C163.061 334.402 162.558 334.871 162.081 335.367C160.966 333.616 158.869 332.434 156.459 332.434C154.167 332.434 152.157 333.505 151.006 335.118C150.551 334.662 150.073 334.231 149.573 333.826C151.118 331.894 153.653 330.634 156.523 330.634V330.634ZM147.925 332.637C147.395 332.295 146.848 331.979 146.284 331.691C148.532 328.628 152.309 326.618 156.591 326.618C160.898 326.618 164.692 328.65 166.936 331.741C166.276 332.085 165.638 332.466 165.022 332.883C163.163 330.275 159.994 328.556 156.384 328.556C152.892 328.556 149.806 330.168 147.925 332.637V332.637ZM156.384 334.65C158.333 334.65 159.965 335.786 160.444 337.325C159.919 338.054 159.449 338.822 159.04 339.622C157.445 339.383 155.828 339.345 154.224 339.509C153.735 338.571 153.164 337.679 152.517 336.843C153.16 335.555 154.646 334.65 156.384 334.65V334.65ZM156.696 322.737C162.403 322.737 167.746 325.621 170.685 330.275C170.126 330.428 169.577 330.606 169.037 330.809C166.391 327.037 161.793 324.536 156.561 324.536C151.356 324.536 146.776 327.007 144.126 330.745C143.656 330.575 143.179 330.422 142.694 330.288C145.632 325.628 150.978 322.737 156.696 322.737V322.737ZM137.534 332.01C143.473 332.01 148.861 335.026 151.754 339.919C151.192 340.052 150.637 340.21 150.091 340.392C147.483 336.438 142.776 333.809 137.399 333.809C131.944 333.809 127.177 336.522 124.594 340.565C124.134 340.398 123.669 340.248 123.198 340.115C126.061 335.104 131.503 332.01 137.534 332.01V332.01ZM118.508 322.737C124.216 322.737 129.558 325.621 132.498 330.275C131.939 330.428 131.389 330.606 130.849 330.809C128.203 327.037 123.606 324.536 118.374 324.536C113.169 324.536 108.589 327.007 105.939 330.745C105.469 330.575 104.991 330.422 104.507 330.288C107.445 325.628 112.791 322.737 118.508 322.737V322.737ZM99.3465 332.01C105.285 332.01 110.674 335.026 113.567 339.919C113.004 340.052 112.45 340.21 111.904 340.392C109.296 336.438 104.588 333.809 99.212 333.809C93.7584 333.809 88.9938 336.52 86.409 340.56C85.9515 340.394 85.4858 340.245 85.012 340.113C87.8753 335.103 93.3167 332.01 99.3465 332.01V332.01ZM80.3208 322.737C86.0285 322.737 91.3706 325.621 94.3101 330.275C93.7511 330.428 93.2017 330.606 92.6617 330.809C90.0158 327.037 85.4183 324.536 80.1862 324.536C74.9881 324.545 70.4138 327 67.7597 330.735C67.2931 330.566 66.8206 330.415 66.3423 330.284C69.2111 325.773 74.4092 322.737 80.3208 322.737V322.737ZM61.1591 332.01C70.0754 332.01 77.3921 338.909 77.4669 347.385C77.4381 350.283 76.5657 353.109 74.9569 355.516C74.6552 355.184 74.3381 354.86 74.0056 354.547C73.9227 354.466 73.8384 354.389 73.7528 354.311C75.0969 352.275 75.8346 349.896 75.8796 347.455V347.455C75.8796 347.431 75.8796 347.41 75.8796 347.386C75.8796 347.363 75.8796 347.341 75.8796 347.318C75.76 339.841 69.1553 333.818 61.0245 333.818C55.5696 333.818 50.8023 336.532 48.2188 340.575C47.7595 340.408 47.2943 340.258 46.8232 340.125C49.6865 335.104 55.1279 332.01 61.1591 332.01V332.01ZM71.2251 347.386C71.2251 347.363 71.2251 347.341 71.2251 347.318C71.1068 342.06 66.5094 337.829 60.8492 337.829C57.1066 337.829 53.8287 339.68 52.0036 342.455C51.8963 342.386 51.7903 342.319 51.6815 342.248C51.2548 341.984 50.8172 341.74 50.3715 341.51C52.5567 338.142 56.5236 335.891 61.0558 335.891C67.901 335.891 73.4579 341.025 73.5367 347.386C73.5114 349.32 72.9759 351.212 71.9847 352.87C71.3748 352.434 70.7395 352.035 70.0822 351.675C70.7985 350.382 71.1903 348.933 71.2237 347.455V347.455C71.2278 347.431 71.2264 347.41 71.2251 347.386ZM67.3955 347.386C67.3955 347.363 67.3955 347.341 67.3955 347.318C67.2745 344.201 64.4234 341.707 60.9199 341.707C58.3623 341.707 56.1539 343.038 55.1007 344.969C54.6358 344.498 54.1458 344.054 53.633 343.636C55.1279 341.401 57.8554 339.901 60.9865 339.901C65.6573 339.901 69.4502 343.238 69.5331 347.381C69.5063 348.626 69.1447 349.841 68.4867 350.896C67.8418 350.622 67.1821 350.383 66.5108 350.182C67.0467 349.37 67.3516 348.427 67.3927 347.455C67.3982 347.431 67.3955 347.41 67.3955 347.386V347.386ZM65.0499 347.386C65.0022 348.233 64.6336 349.028 64.0197 349.61C62.1544 349.311 60.2557 349.284 58.3827 349.53C57.9087 348.588 57.352 347.69 56.7193 346.848C57.0889 345.183 58.7958 343.923 60.8479 343.923C63.1174 343.923 64.9656 345.462 65.0499 347.386V347.386ZM41.2785 347.647C37.6296 347.647 34.4238 349.407 32.5729 352.066C32.0318 351.74 31.4743 351.443 30.9027 351.175C33.1097 347.892 37.0181 345.709 41.4851 345.709C46.0621 345.709 50.0603 348.004 52.2333 351.427C51.5686 351.766 50.9247 352.144 50.3049 352.56C48.5205 349.627 45.1489 347.647 41.2785 347.647V347.647ZM48.8752 353.622C48.5165 353.917 48.1672 354.224 47.8302 354.547C47.6521 354.716 47.4796 354.888 47.3097 355.064C46.3231 352.984 44.0264 351.518 41.3478 351.518C38.9397 351.518 36.8441 352.699 35.7271 354.449C35.2543 354.005 34.759 353.585 34.2431 353.193C35.7665 351.102 38.4097 349.718 41.4171 349.718C44.623 349.725 47.4116 351.297 48.8752 353.622V353.622ZM41.4552 343.636C36.0383 343.636 31.3009 346.312 28.7052 350.309C28.235 350.156 27.7593 350.02 27.2783 349.9C30.1471 344.917 35.6116 341.828 41.5897 341.828C47.6195 341.828 53.1085 344.958 55.961 350.01C55.4174 350.156 54.8738 350.325 54.3383 350.519C51.7739 346.4 46.9659 343.636 41.4552 343.636ZM22.7338 341.707C20.1762 341.707 17.9679 343.038 16.9147 344.969C16.4493 344.498 15.9589 344.054 15.4456 343.636C16.9405 341.401 19.668 339.901 22.7991 339.901C25.7983 339.901 28.4348 341.277 29.9609 343.36C29.4171 343.781 28.8971 344.233 28.4035 344.712C27.3014 342.923 25.18 341.707 22.7338 341.707ZM26.7265 346.595C26.0244 347.497 25.41 348.463 24.8919 349.482C23.3314 349.309 21.756 349.325 20.1993 349.53C19.7253 348.588 19.1687 347.69 18.5359 346.848C18.9056 345.183 20.6124 343.923 22.6645 343.923C24.6079 343.923 26.2441 345.057 26.7224 346.595H26.7265ZM3.09515 347.647C-0.553723 347.647 -3.75956 349.407 -5.6105 352.066C-6.15157 351.74 -6.70904 351.443 -7.28069 351.175C-5.0737 347.892 -1.16526 345.709 3.30172 345.709C7.87877 345.709 11.8769 348.004 14.0499 351.427C13.3852 351.766 12.7413 352.144 12.1215 352.56C10.3331 349.627 6.96146 347.647 3.09107 347.647H3.09515ZM10.6919 353.622C10.3331 353.917 9.98384 354.224 9.64681 354.547C9.46878 354.716 9.29619 354.888 9.12632 355.064C8.1397 352.984 5.84301 351.518 3.16446 351.518C0.756339 351.518 -1.33921 352.699 -2.4563 354.449C-2.92905 354.005 -3.42438 353.585 -3.94031 353.193C-2.41689 351.102 0.226337 349.718 3.23377 349.718C6.43553 349.725 9.22416 351.297 10.6878 353.622H10.6919ZM3.26774 343.636C-2.14917 343.636 -6.88659 346.312 -9.48224 350.309C-9.95245 350.156 -10.4281 350.02 -10.9092 349.9C-8.04036 344.917 -2.57589 341.828 3.40228 341.828C9.43209 341.828 14.921 344.958 17.7735 350.01C17.2299 350.156 16.6863 350.325 16.1509 350.519C13.5865 346.4 8.77842 343.636 3.26774 343.636ZM-15.4536 341.707C-18.0112 341.707 -20.2196 343.038 -21.2728 344.969C-21.7382 344.498 -22.2286 344.054 -22.7418 343.636C-21.247 341.401 -18.5195 339.901 -15.3884 339.901C-12.3891 339.901 -9.75268 341.277 -8.22654 343.36C-8.77036 343.781 -9.2903 344.233 -9.78394 344.712C-10.8861 342.923 -13.0074 341.707 -15.4536 341.707ZM-11.4609 346.594C-12.1628 347.496 -12.7771 348.463 -13.2956 349.482C-14.856 349.309 -16.4315 349.325 -17.9881 349.53C-18.4621 348.588 -19.0188 347.69 -19.6515 346.848C-19.2819 345.183 -17.575 343.923 -15.5229 343.923C-13.5796 343.923 -11.9434 345.057 -11.465 346.594H-11.4609ZM-24.3713 342.455C-24.4773 342.386 -24.5833 342.319 -24.692 342.248C-25.1187 341.984 -25.5563 341.74 -26.002 341.51C-23.8168 338.142 -19.8499 335.891 -15.3177 335.891C-10.8983 335.891 -7.01977 338.03 -4.8019 341.258C-5.41666 341.552 -6.01546 341.877 -6.59576 342.235L-6.75612 342.338C-8.59619 339.629 -11.8333 337.829 -15.5243 337.829C-19.2696 337.829 -22.5475 339.682 -24.374 342.455H-24.3713ZM3.77328 330.634C6.70869 330.634 9.29619 331.954 10.84 333.963C10.3114 334.402 9.80778 334.871 9.33153 335.367C8.2158 333.616 6.11889 332.434 3.70941 332.434C1.41681 332.434 -0.593131 333.505 -1.74419 335.116C-2.19916 334.662 -2.67726 334.231 -3.17656 333.826C-1.6314 331.894 0.90311 330.634 3.77328 330.634ZM-4.82501 332.637C-5.35501 332.295 -5.90177 331.979 -6.4653 331.691C-4.21754 328.628 -0.440926 326.618 3.84395 326.618C8.15057 326.618 11.9449 328.65 14.1885 331.741C13.5273 332.084 12.8866 332.465 12.2696 332.883C10.4133 330.273 7.24141 328.556 3.63466 328.556C0.142077 328.556 -2.94417 330.168 -4.82501 332.637V332.637ZM3.63466 334.65C5.58345 334.65 7.21559 335.786 7.69395 337.324C7.16908 338.053 6.69981 338.822 6.29012 339.622C4.69565 339.383 3.07773 339.345 1.47388 339.509C0.985268 338.571 0.414032 337.679 -0.233001 336.843C0.409798 335.555 1.89652 334.65 3.63466 334.65V334.65ZM12.1827 341.51C14.3679 338.142 18.3348 335.891 22.867 335.891C27.2864 335.891 31.165 338.03 33.3828 341.258C32.7681 341.552 32.1693 341.877 31.589 342.235L31.4286 342.338C29.5885 339.629 26.3514 337.829 22.6604 337.829C18.9178 337.829 15.6399 339.68 13.8135 342.455C13.7075 342.386 13.6015 342.319 13.4927 342.248C13.066 341.984 12.6284 341.74 12.1827 341.51V341.51ZM41.9607 330.634C44.8961 330.634 47.4836 331.954 49.0274 333.963C48.4988 334.402 47.9952 334.871 47.519 335.367C46.4032 333.616 44.3063 332.434 41.8969 332.434C39.6042 332.434 37.5943 333.505 36.4433 335.118C35.9886 334.662 35.5105 334.231 35.0109 333.826C36.556 331.894 39.0905 330.634 41.9607 330.634ZM33.3624 332.637C32.8324 332.295 32.2857 331.979 31.7221 331.691C33.9699 328.628 37.7465 326.618 42.0314 326.618C46.338 326.618 50.1323 328.65 52.376 331.741C51.715 332.084 51.0743 332.466 50.4571 332.883C48.6007 330.273 45.4289 328.556 41.8221 328.556C38.3295 328.556 35.2433 330.168 33.3624 332.637ZM41.8221 334.65C43.7709 334.65 45.403 335.786 45.8814 337.325C45.3562 338.054 44.8869 338.822 44.4776 339.622C42.8831 339.383 41.2652 339.345 39.6613 339.509C39.1727 338.571 38.6015 337.679 37.9544 336.843C38.5972 335.555 40.084 334.65 41.8221 334.65V334.65ZM42.1333 322.737C47.841 322.737 53.1832 325.621 56.1227 330.275C55.5646 330.428 55.0151 330.606 54.4742 330.809C51.8283 327.037 47.2309 324.536 41.9988 324.536C36.7939 324.536 32.2141 327.007 29.5641 330.745C29.0939 330.575 28.6164 330.422 28.1317 330.288C31.0698 325.628 36.4161 322.737 42.1333 322.737V322.737ZM22.9716 332.01C28.9104 332.01 34.2988 335.026 37.1921 339.919C36.6294 340.052 36.075 340.21 35.5287 340.392C32.9262 336.449 28.2132 333.818 22.8371 333.818C17.3821 333.818 12.6148 336.532 10.0314 340.575C9.57207 340.408 9.10684 340.258 8.63573 340.125C11.4991 335.104 16.9405 332.01 22.9716 332.01V332.01ZM3.94587 322.737C9.6536 322.737 14.9958 325.621 17.9353 330.275C17.3772 330.428 16.8277 330.606 16.2868 330.809C13.6409 327.037 9.04342 324.536 3.81134 324.536C-1.39357 324.536 -5.97335 327.007 -8.62337 330.745C-9.09357 330.575 -9.57103 330.422 -10.0557 330.288C-7.11761 325.628 -1.77137 322.737 3.94587 322.737V322.737ZM-15.2158 332.01C-9.27704 332.01 -3.88867 335.026 -0.995389 339.919C-1.55801 340.052 -2.11248 340.21 -2.65879 340.392C-5.26124 336.449 -9.97419 333.818 -15.3503 333.818C-20.8053 333.818 -25.5726 336.532 -28.156 340.575C-28.6154 340.408 -29.0806 340.258 -29.5517 340.125C-26.6883 335.104 -21.247 332.01 -15.2158 332.01V332.01ZM-34.4794 332.434C-37.9828 332.434 -40.834 334.928 -40.9549 338.045C-40.9549 338.069 -40.9549 338.09 -40.9549 338.114C-40.9549 338.137 -40.9549 338.159 -40.9549 338.182C-40.9257 338.903 -40.7495 339.61 -40.4372 340.26C-41.0643 340.453 -41.6812 340.678 -42.2854 340.935C-42.7092 340.054 -42.9408 339.092 -42.9649 338.114C-42.882 333.971 -39.0891 330.634 -34.4169 330.634C-31.4815 330.634 -28.894 331.954 -27.3502 333.963C-27.8788 334.402 -28.3824 334.871 -28.8586 335.367C-29.9771 333.616 -32.074 332.434 -34.4794 332.434ZM-30.4894 337.324C-31.0157 338.053 -31.4863 338.821 -31.8973 339.622C-33.9995 339.308 -36.1388 339.342 -38.2302 339.721C-38.5464 339.243 -38.7276 338.687 -38.7548 338.114C-38.6705 336.188 -36.8236 334.65 -34.5541 334.65C-32.604 334.65 -30.9719 335.786 -30.4935 337.324H-30.4894ZM-44.93 338.114C-44.93 338.137 -44.93 338.159 -44.93 338.182C-44.9022 339.439 -44.6144 340.677 -44.0847 341.817C-44.6378 342.127 -45.1749 342.465 -45.6937 342.829C-46.4203 341.363 -46.8082 339.751 -46.8285 338.114C-46.7497 331.752 -41.1928 326.618 -34.3489 326.618C-30.0423 326.618 -26.248 328.65 -24.0043 331.741C-24.6637 332.084 -25.3026 332.465 -25.9178 332.883C-27.7742 330.273 -30.946 328.556 -34.5528 328.556C-40.2116 328.556 -44.8104 332.783 -44.9273 338.045C-44.9313 338.069 -44.93 338.09 -44.93 338.114ZM-50.5521 338.114C-50.476 329.635 -43.1592 322.736 -34.2443 322.736C-28.5366 322.736 -23.1944 325.62 -20.2549 330.274C-20.813 330.427 -21.3625 330.605 -21.9034 330.807C-24.5493 327.035 -29.1467 324.535 -34.3788 324.535C-42.5083 324.545 -49.1116 330.569 -49.2312 338.045C-49.2312 338.069 -49.2312 338.09 -49.2312 338.114C-49.2312 338.137 -49.2312 338.159 -49.2312 338.182C-49.1949 340.337 -48.6162 342.448 -47.5487 344.318C-47.6475 344.409 -47.7453 344.5 -47.8423 344.591C-48.1018 344.838 -48.3519 345.091 -48.5938 345.349C-49.8518 343.145 -50.526 340.655 -50.5521 338.115V338.114ZM-34.7879 372.58C-43.7055 372.58 -51.0223 365.681 -51.0957 357.203C-51.0196 348.725 -43.7028 341.827 -34.7879 341.827C-28.7581 341.827 -23.2691 344.956 -20.4166 350.009C-20.9602 350.155 -21.5038 350.324 -22.0393 350.517C-24.6009 346.4 -29.409 343.636 -34.9197 343.636C-43.0519 343.636 -49.6552 349.665 -49.7748 357.136C-49.7748 357.16 -49.7748 357.181 -49.7748 357.205C-49.7748 357.228 -49.7748 357.25 -49.7748 357.273C-49.6552 364.75 -43.0519 370.773 -34.9197 370.773C-34.4998 370.773 -34.0839 370.755 -33.6735 370.724C-33.5433 371.323 -33.3814 371.915 -33.1884 372.496C-33.7211 372.554 -34.2579 372.581 -34.7852 372.581L-34.7879 372.58ZM-41.5053 357.205C-41.5053 357.228 -41.5053 357.25 -41.5053 357.273C-41.3844 360.39 -38.5332 362.884 -35.0298 362.884C-34.5017 362.883 -33.9752 362.824 -33.4602 362.707C-33.632 363.335 -33.7682 363.972 -33.8678 364.616C-34.231 364.658 -34.5963 364.679 -34.9618 364.68C-39.634 364.68 -43.4269 361.343 -43.5098 357.2C-43.4269 353.058 -39.634 349.721 -34.9618 349.721C-31.756 349.721 -28.9674 351.293 -27.5037 353.618C-27.8625 353.913 -28.2118 354.22 -28.5488 354.543C-28.7268 354.712 -28.8994 354.884 -29.0693 355.06C-30.0559 352.98 -32.3526 351.514 -35.0311 351.514C-38.5346 351.514 -41.3857 354.008 -41.5067 357.125C-41.5081 357.16 -41.5053 357.181 -41.5053 357.205ZM-35.0964 347.647C-40.7552 347.647 -45.354 351.874 -45.4708 357.136C-45.4708 357.16 -45.4708 357.181 -45.4708 357.205C-45.4708 357.228 -45.4708 357.25 -45.4708 357.273C-45.354 362.531 -40.7552 366.762 -35.0964 366.762C-34.7457 366.762 -34.4006 366.743 -34.0595 366.71C-34.0595 366.792 -34.0663 366.873 -34.0676 366.955V367.158V367.364C-34.0586 367.801 -34.0336 368.236 -33.9929 368.669C-34.2891 368.688 -34.5881 368.7 -34.8884 368.7C-41.7336 368.7 -47.2905 363.566 -47.3693 357.205C-47.2905 350.843 -41.7336 345.709 -34.8898 345.709C-30.3127 345.709 -26.3146 348.004 -24.1416 351.427C-24.8063 351.766 -25.4502 352.144 -26.07 352.56C-27.8543 349.627 -31.226 347.647 -35.0964 347.647V347.647ZM-32.3784 359.817C-33.1729 360.38 -34.1238 360.678 -35.0964 360.668C-37.3659 360.668 -39.2127 359.129 -39.297 357.205C-39.2127 355.279 -37.3659 353.741 -35.0964 353.741C-32.8269 353.741 -30.9786 355.28 -30.8944 357.205C-30.8944 357.229 -30.8944 357.254 -30.8944 357.278C-31.4612 358.081 -31.9594 358.93 -32.3838 359.817H-32.3784ZM-15.4822 382.535C-24.3998 382.535 -31.7166 375.637 -31.79 367.159C-31.7139 358.681 -24.3971 351.783 -15.4822 351.783C-6.56722 351.783 0.750904 358.681 0.825648 367.158C0.745468 375.637 -6.5713 382.535 -15.4876 382.535H-15.4822ZM3.40772 372.581C3.03536 372.581 2.65484 372.566 2.27433 372.54C2.46818 371.958 2.63148 371.366 2.76356 370.767C2.93207 370.767 3.10194 370.777 3.27317 370.777C3.6931 370.777 4.10759 370.758 4.51936 370.726C4.64943 371.326 4.81184 371.917 5.00588 372.499C4.46636 372.554 3.92957 372.581 3.40228 372.581H3.40772ZM3.16446 367.159V366.955C3.16446 366.89 3.16446 366.825 3.15766 366.761C3.48654 366.761 3.81133 366.742 4.13205 366.712C4.13205 366.792 4.13205 366.873 4.1239 366.955V367.158V367.364C4.13387 367.801 4.15878 368.236 4.19864 368.669C3.90238 368.69 3.60386 368.7 3.30307 368.7H3.08699C3.12958 368.258 3.1554 367.814 3.16446 367.366V367.159ZM3.23105 364.684C3.14271 364.684 3.05574 364.684 2.9674 364.684C2.8746 364.071 2.74848 363.463 2.58961 362.864C2.7785 362.879 2.96741 362.89 3.16038 362.89C3.68842 362.888 4.21475 362.829 4.73001 362.714C4.55793 363.342 4.42181 363.979 4.32231 364.623C3.95955 364.664 3.59476 364.684 3.22969 364.684H3.23105ZM5.80496 359.817C5.01041 360.38 4.05952 360.678 3.08699 360.668C2.64317 360.669 2.20141 360.608 1.77422 360.487C1.1043 358.919 0.212206 357.457 -0.874442 356.145C-0.298233 354.746 1.25508 353.741 3.08699 353.741C5.3565 353.741 7.20472 355.28 7.28897 357.205C7.28897 357.229 7.28897 357.254 7.28897 357.278C6.72388 358.081 6.22701 358.931 5.80361 359.817H5.80496ZM22.7012 382.535C13.7836 382.535 6.46679 375.637 6.3934 367.159C6.46951 358.681 13.7863 351.783 22.7012 351.783C31.6161 351.783 38.9343 358.681 39.009 367.158C38.9329 375.637 31.6161 382.535 22.6998 382.535H22.7012ZM41.5911 372.581C41.2187 372.581 40.8382 372.566 40.4563 372.54C40.6502 371.96 40.813 371.37 40.9442 370.773C41.1127 370.773 41.2826 370.782 41.4538 370.782C41.8737 370.782 42.2882 370.763 42.7 370.732C42.8301 371.331 42.9925 371.923 43.1865 372.505C42.6538 372.555 42.117 372.581 41.5897 372.581H41.5911ZM41.3519 367.159V366.955C41.3519 366.89 41.3519 366.825 41.3451 366.761C41.674 366.761 41.9988 366.742 42.3195 366.712C42.3195 366.792 42.3127 366.873 42.3113 366.955V367.156V367.364C42.3213 367.801 42.3462 368.236 42.3861 368.669C42.0898 368.69 41.7913 368.7 41.4905 368.7H41.2744C41.317 368.258 41.3428 367.814 41.3519 367.366V367.159ZM41.4185 364.684C41.3302 364.684 41.2432 364.684 41.1548 364.684C41.062 364.071 40.9359 363.463 40.7771 362.864C40.966 362.879 41.1548 362.89 41.3478 362.89C41.8759 362.888 42.4022 362.829 42.9175 362.714C42.7454 363.342 42.6093 363.979 42.5098 364.623C42.147 364.664 41.7822 364.684 41.4171 364.684H41.4185ZM43.9924 359.817C43.1978 360.38 42.247 360.678 41.2744 360.668C40.8306 360.669 40.3889 360.608 39.9617 360.487C39.2917 358.919 38.3997 357.457 37.313 356.145C37.8892 354.746 39.4425 353.741 41.2744 353.741C43.5439 353.741 45.3922 355.28 45.4764 357.205C45.4764 357.229 45.4764 357.254 45.4764 357.278C44.9113 358.081 44.4144 358.931 43.991 359.817H43.9924ZM60.8886 382.535C51.971 382.535 44.6542 375.637 44.5808 367.159C44.6569 358.681 51.9737 351.783 60.8886 351.783C69.8036 351.783 77.1217 358.681 77.1965 367.158C77.1204 375.637 69.8036 382.535 60.8873 382.535H60.8886ZM79.7785 372.581C79.4062 372.581 79.0256 372.566 78.6438 372.54C78.8378 371.96 79.0006 371.37 79.1316 370.773C79.3002 370.773 79.47 370.782 79.6413 370.782C79.8573 370.782 80.0721 370.782 80.2868 370.769C80.4227 370.769 80.5586 370.754 80.6945 370.744L80.8874 370.733C81.0176 371.332 81.1796 371.924 81.3726 372.506C80.8412 372.554 80.3044 372.581 79.7772 372.581H79.7785ZM79.5393 367.159V366.955C79.5393 366.889 79.5393 366.825 79.5325 366.761H79.5855C79.7296 366.761 79.8737 366.761 80.0163 366.749C80.1808 366.742 80.3452 366.73 80.5069 366.715C80.5069 366.795 80.5001 366.875 80.4988 366.957V367.16V367.364C80.5087 367.801 80.5337 368.235 80.5735 368.667H80.5137C80.3955 368.675 80.2773 368.682 80.159 368.686C79.9987 368.686 79.8383 368.696 79.678 368.696C79.6046 368.696 79.5339 368.696 79.4619 368.696C79.5045 368.256 79.5303 367.812 79.5393 367.364V367.159ZM80.1631 364.668H80.1251L79.8927 364.679C79.7975 364.679 79.7024 364.679 79.6059 364.679C79.5094 364.679 79.4306 364.679 79.3423 364.672C79.2489 364.063 79.1232 363.459 78.9659 362.864C79.1534 362.879 79.3436 362.887 79.5353 362.887C79.6712 362.887 79.8071 362.887 79.943 362.875C80.3336 362.852 80.7217 362.798 81.1035 362.712C80.9313 363.34 80.7951 363.978 80.6958 364.621C80.5205 364.636 80.3411 364.657 80.1618 364.668H80.1631ZM82.1798 359.817C81.8022 360.088 81.3844 360.298 80.9418 360.439V360.439C80.8331 360.475 80.723 360.505 80.6102 360.532L80.579 360.539C80.4702 360.565 80.3602 360.585 80.2487 360.604H80.208C80.0965 360.62 79.9837 360.634 79.8696 360.644H79.8342C79.716 360.652 79.5964 360.657 79.4741 360.657C79.3518 360.657 79.2404 360.657 79.1249 360.644C79.0691 360.644 79.0134 360.633 78.9591 360.627C78.9047 360.622 78.8435 360.616 78.7865 360.608C78.7294 360.6 78.6506 360.585 78.5799 360.571L78.4576 360.55C78.3842 360.533 78.3135 360.515 78.2415 360.496L78.16 360.475C77.708 359.414 77.1527 358.401 76.502 357.45C77.3146 356.327 77.9916 355.111 78.5187 353.828C78.6723 353.797 78.8286 353.772 78.9862 353.756H78.9957C79.0678 353.756 79.1412 353.744 79.2132 353.74C79.2852 353.735 79.3844 353.731 79.4714 353.731C81.7409 353.731 83.5891 355.271 83.6734 357.195C83.6734 357.22 83.6734 357.244 83.6734 357.269C83.1042 358.074 82.6042 358.927 82.1785 359.817H82.1798ZM99.0761 382.535C90.1584 382.535 82.8417 375.637 82.7683 367.159C82.8444 358.681 90.1612 351.783 99.0761 351.783C107.991 351.783 115.309 358.681 115.384 367.158C115.308 375.637 107.991 382.535 99.0747 382.535H99.0761ZM117.966 372.581C117.594 372.581 117.213 372.566 116.833 372.54C117.026 371.958 117.19 371.366 117.322 370.767C117.49 370.767 117.66 370.777 117.831 370.777C118.251 370.777 118.666 370.758 119.078 370.726C119.208 371.326 119.37 371.917 119.564 372.499C119.029 372.554 118.492 372.581 117.965 372.581H117.966ZM117.727 367.159V366.955C117.727 366.89 117.727 366.825 117.727 366.761C118.056 366.761 118.38 366.742 118.701 366.712C118.701 366.792 118.701 366.873 118.693 366.955V367.158V367.364C118.702 367.801 118.727 368.236 118.768 368.669C118.472 368.69 118.173 368.7 117.872 368.7H117.656C117.698 368.258 117.724 367.814 117.734 367.366L117.727 367.159ZM117.793 364.684C117.705 364.684 117.618 364.684 117.53 364.684C117.437 364.071 117.312 363.463 117.153 362.864C117.342 362.879 117.531 362.89 117.724 362.89C118.252 362.888 118.778 362.829 119.294 362.714C119.122 363.342 118.985 363.979 118.886 364.623C118.523 364.664 118.158 364.684 117.792 364.684H117.793ZM120.367 359.817C119.573 360.38 118.622 360.678 117.649 360.668C117.206 360.669 116.764 360.608 116.337 360.487C115.667 358.919 114.775 357.457 113.688 356.145C114.264 354.746 115.817 353.741 117.649 353.741C119.919 353.741 121.767 355.28 121.851 357.205C121.851 357.229 121.851 357.254 121.851 357.278C121.286 358.081 120.789 358.931 120.366 359.817H120.367ZM137.264 382.535C128.346 382.535 121.029 375.637 120.956 367.159C121.032 358.681 128.349 351.783 137.264 351.783C146.178 351.783 153.497 358.681 153.571 367.158C153.495 375.637 146.178 382.535 137.262 382.535H137.264ZM156.153 372.581C155.781 372.581 155.401 372.566 155.019 372.54C155.214 371.958 155.377 371.367 155.509 370.767C155.678 370.767 155.848 370.777 156.019 370.777C156.439 370.777 156.853 370.758 157.265 370.726C157.395 371.326 157.558 371.917 157.752 372.499C157.216 372.555 156.679 372.581 156.152 372.581H156.153ZM155.914 367.159V366.955C155.914 366.89 155.914 366.825 155.914 366.761C156.243 366.761 156.568 366.742 156.889 366.712C156.889 366.792 156.889 366.873 156.88 366.955V367.156V367.364C156.89 367.801 156.914 368.236 156.955 368.669C156.659 368.69 156.36 368.7 156.06 368.7H155.844C155.885 368.258 155.911 367.814 155.921 367.366L155.914 367.159ZM155.981 364.684C155.892 364.684 155.806 364.684 155.717 364.684C155.625 364.071 155.499 363.463 155.341 362.864C155.53 362.879 155.719 362.89 155.912 362.89C156.44 362.888 156.966 362.829 157.481 362.714C157.309 363.342 157.173 363.979 157.073 364.623C156.71 364.664 156.345 364.684 155.979 364.684H155.981ZM158.555 359.817C157.76 360.38 156.809 360.678 155.837 360.668C155.393 360.669 154.951 360.608 154.524 360.487C153.854 358.919 152.962 357.457 151.875 356.145C152.452 354.746 154.005 353.741 155.837 353.741C158.106 353.741 159.954 355.28 160.039 357.205C160.039 357.229 160.039 357.254 160.039 357.278C159.474 358.081 158.977 358.931 158.553 359.817H158.555ZM175.451 382.535C166.533 382.535 159.217 375.637 159.143 367.159C159.219 358.681 166.536 351.783 175.451 351.783C184.366 351.783 191.684 358.681 191.759 367.158C191.683 375.637 184.366 382.535 175.45 382.535H175.451ZM213.638 382.535C204.721 382.535 197.404 375.637 197.331 367.159C197.407 358.681 204.723 351.783 213.638 351.783C222.553 351.783 229.871 358.681 229.946 367.158C229.87 375.637 222.553 382.535 213.637 382.535H213.638ZM232.528 372.581C232.156 372.581 231.775 372.566 231.395 372.54C231.589 371.958 231.752 371.366 231.884 370.767C232.053 370.767 232.223 370.777 232.394 370.777C232.814 370.777 233.228 370.758 233.64 370.726C233.77 371.326 233.932 371.917 234.126 372.499C233.591 372.554 233.054 372.581 232.527 372.581H232.528ZM232.289 367.159V366.955C232.289 366.89 232.289 366.825 232.289 366.761C232.618 366.761 232.943 366.742 233.263 366.712C233.263 366.792 233.257 366.873 233.255 366.955V367.158V367.364C233.264 367.801 233.289 368.236 233.33 368.669C233.034 368.69 232.735 368.7 232.435 368.7H232.218C232.26 368.258 232.286 367.814 232.296 367.366L232.289 367.159ZM232.356 364.684C232.267 364.684 232.18 364.684 232.092 364.684C232 364.071 231.874 363.463 231.716 362.864C231.905 362.879 232.093 362.89 232.286 362.89C232.814 362.888 233.341 362.829 233.856 362.714C233.684 363.342 233.548 363.979 233.448 364.623C233.085 364.664 232.72 364.684 232.354 364.684H232.356ZM234.93 359.817C234.135 360.38 233.184 360.678 232.212 360.668C231.768 360.669 231.326 360.608 230.899 360.487C230.229 358.919 229.337 357.457 228.25 356.145C228.826 354.746 230.38 353.741 232.212 353.741C234.481 353.741 236.329 355.28 236.414 357.205C236.414 357.229 236.414 357.254 236.414 357.278C235.849 358.081 235.352 358.931 234.928 359.817H234.93ZM251.826 382.535C242.908 382.535 235.591 375.637 235.518 367.159C235.594 358.681 242.911 351.783 251.826 351.783C260.741 351.783 268.059 358.681 268.134 367.158C268.058 375.637 260.741 382.535 251.824 382.535H251.826ZM270.716 372.581C270.343 372.581 269.963 372.566 269.581 372.54C269.776 371.958 269.94 371.367 270.072 370.767C270.24 370.767 270.41 370.777 270.581 370.777C271.001 370.777 271.416 370.758 271.827 370.726C271.957 371.326 272.12 371.917 272.314 372.499C271.778 372.555 271.242 372.581 270.714 372.581H270.716ZM270.477 367.159V366.955C270.477 366.89 270.477 366.825 270.477 366.761C270.805 366.761 271.13 366.742 271.451 366.712C271.451 366.792 271.444 366.873 271.443 366.955V367.156V367.364C271.452 367.801 271.477 368.236 271.518 368.669C271.221 368.69 270.923 368.7 270.622 368.7H270.406C270.448 368.258 270.473 367.814 270.483 367.366L270.477 367.159ZM270.543 364.684C270.455 364.684 270.368 364.684 270.279 364.684C270.187 364.071 270.061 363.463 269.903 362.864C270.092 362.879 270.281 362.89 270.474 362.89C271.002 362.888 271.528 362.829 272.043 362.714C271.871 363.342 271.735 363.979 271.636 364.623C271.273 364.664 270.907 364.684 270.542 364.684H270.543ZM273.117 359.817C272.322 360.38 271.372 360.678 270.399 360.668C269.955 360.669 269.513 360.608 269.086 360.487C268.416 358.919 267.524 357.457 266.438 356.145C267.014 354.746 268.567 353.741 270.399 353.741C272.669 353.741 274.517 355.28 274.601 357.205C274.601 357.229 274.601 357.254 274.601 357.278C274.036 358.081 273.539 358.931 273.116 359.817H273.117ZM290.013 382.535C281.096 382.535 273.779 375.637 273.705 367.159C273.782 358.681 281.098 351.783 290.013 351.783C298.928 351.783 306.246 358.681 306.321 367.158C306.245 375.637 298.928 382.535 290.012 382.535H290.013ZM305.62 357.461C306.432 356.338 307.109 355.122 307.637 353.839C307.95 353.775 308.268 353.742 308.588 353.741C310.857 353.741 312.706 355.28 312.79 357.205C312.706 359.13 310.857 360.668 308.588 360.668C308.144 360.669 307.702 360.608 307.275 360.487C306.823 359.426 306.268 358.413 305.619 357.461H305.62ZM308.664 367.159V366.955C308.664 366.889 308.664 366.825 308.664 366.761C314.296 366.73 318.856 362.512 318.977 357.273C318.977 357.25 318.977 357.228 318.977 357.205C318.977 357.181 318.977 357.16 318.977 357.136C318.862 351.983 314.442 347.82 308.94 347.655C308.94 347.633 308.94 347.613 308.94 347.591V347.389V347.182C308.93 346.687 308.898 346.196 308.847 345.709C315.674 345.73 321.207 350.857 321.286 357.205C321.207 363.566 315.651 368.7 308.807 368.7H308.591C308.632 368.258 308.658 367.814 308.668 367.366L308.664 367.159ZM317.277 357.205C317.194 361.347 313.401 364.684 308.731 364.684C308.642 364.684 308.555 364.684 308.467 364.684C308.375 364.071 308.249 363.463 308.09 362.864C308.279 362.879 308.468 362.89 308.661 362.89C312.165 362.89 315.016 360.395 315.137 357.278C315.137 357.255 315.137 357.233 315.137 357.21C315.137 357.187 315.137 357.165 315.137 357.142C315.016 354.025 312.165 351.53 308.661 351.53C308.574 351.53 308.487 351.53 308.402 351.539C308.553 350.943 308.672 350.339 308.759 349.73C313.42 349.739 317.194 353.07 317.276 357.205H317.277ZM308.903 372.581C308.531 372.581 308.15 372.566 307.768 372.54C307.963 371.958 308.127 371.367 308.259 370.767C308.428 370.767 308.597 370.777 308.769 370.777C316.899 370.777 323.504 364.748 323.624 357.277C323.624 357.254 323.624 357.232 323.624 357.209C323.624 357.185 323.624 357.164 323.624 357.14C323.504 349.664 316.899 343.64 308.769 343.64C308.678 343.64 308.588 343.64 308.497 343.64C308.359 343.038 308.189 342.444 307.987 341.86C308.3 341.843 308.601 341.834 308.902 341.834C317.818 341.834 325.135 348.732 325.21 357.209C325.135 365.682 317.818 372.581 308.902 372.581H308.903Z" fill="url(#paint7_linear_487_12)"/>
<path d="M22.5654 353.591C14.4332 353.591 7.82992 359.62 7.71033 367.091C7.71033 367.114 7.71033 367.136 7.71033 367.159C7.71033 367.182 7.71033 367.204 7.71033 367.227C7.82992 374.704 14.4332 380.727 22.5654 380.727C30.6975 380.727 37.3008 374.699 37.4204 367.227C37.4204 367.204 37.4204 367.182 37.4204 367.159C37.4204 367.136 37.4204 367.114 37.4204 367.091C37.3008 359.614 30.6962 353.591 22.5654 353.591ZM22.598 378.655C15.7528 378.655 10.1959 373.52 10.1171 367.159C10.1959 360.798 15.7528 355.664 22.5966 355.664C29.4405 355.664 34.9987 360.798 35.0775 367.159C34.9973 373.52 29.4405 378.655 22.598 378.655Z" fill="url(#paint8_linear_487_12)"/>
<path d="M22.3886 357.601C16.7298 357.601 12.131 361.829 12.0142 367.091C12.0142 367.114 12.0142 367.136 12.0142 367.159C12.0142 367.182 12.0142 367.204 12.0142 367.227C12.131 372.485 16.7298 376.717 22.3886 376.717C28.0474 376.717 32.6462 372.49 32.7645 367.227C32.7645 367.204 32.7645 367.182 32.7645 367.159C32.7645 367.136 32.7645 367.114 32.7645 367.091C32.6462 361.833 28.0488 357.601 22.3886 357.601ZM22.5245 374.639C17.8524 374.639 14.0594 371.302 13.9765 367.159C14.0594 363.016 17.8524 359.68 22.5245 359.68C27.1967 359.68 30.9883 363.016 31.0712 367.159C30.991 371.302 27.1981 374.639 22.5273 374.639H22.5245Z" fill="url(#paint9_linear_487_12)"/>
<path d="M22.462 361.48C18.9586 361.48 16.1074 363.974 15.9865 367.091C15.9865 367.114 15.9865 367.136 15.9865 367.159C15.9865 367.182 15.9865 367.204 15.9865 367.227C16.1074 370.345 18.9586 372.839 22.462 372.839C25.9655 372.839 28.8166 370.345 28.9376 367.227C28.9376 367.204 28.9376 367.182 28.9376 367.159C28.9376 367.136 28.9376 367.114 28.9376 367.091C28.8125 363.974 25.9614 361.48 22.462 361.48ZM22.3927 370.616C20.1232 370.616 18.2763 369.076 18.1921 367.152C18.2763 365.227 20.1232 363.689 22.3927 363.689C24.6622 363.689 26.5104 365.228 26.5947 367.152C26.5063 369.085 24.6581 370.623 22.3886 370.623L22.3927 370.616Z" fill="url(#paint10_linear_487_12)"/>
<path d="M60.7527 353.591C52.6206 353.591 46.0173 359.62 45.8977 367.091C45.8977 367.114 45.8977 367.136 45.8977 367.159C45.8977 367.182 45.8977 367.204 45.8977 367.227C46.0173 374.704 52.6206 380.727 60.7527 380.727C68.8849 380.727 75.4882 374.699 75.6078 367.227C75.6078 367.204 75.6078 367.182 75.6078 367.159C75.6078 367.136 75.6078 367.114 75.6078 367.091C75.4882 359.614 68.8835 353.591 60.7527 353.591ZM60.7854 378.655C53.9402 378.655 48.3833 373.52 48.3045 367.159C48.3833 360.798 53.9402 355.664 60.784 355.664C67.6278 355.664 73.1861 360.798 73.2649 367.159C73.1847 373.52 67.6278 378.655 60.7854 378.655Z" fill="url(#paint11_linear_487_12)"/>
<path d="M60.5761 357.601C54.9173 357.601 50.3185 361.829 50.2017 367.091C50.2017 367.114 50.2017 367.136 50.2017 367.159C50.2017 367.182 50.2017 367.204 50.2017 367.227C50.3185 372.485 54.9173 376.717 60.5761 376.717C66.235 376.717 70.8337 372.49 70.952 367.227C70.952 367.204 70.952 367.182 70.952 367.159C70.952 367.136 70.952 367.114 70.952 367.091C70.8337 361.833 66.2363 357.601 60.5761 357.601ZM60.712 374.639C56.0399 374.639 52.2469 371.302 52.164 367.159C52.2469 363.016 56.0399 359.68 60.712 359.68C65.3842 359.68 69.1758 363.016 69.2587 367.159C69.1785 371.302 65.3856 374.639 60.7148 374.639H60.712Z" fill="url(#paint12_linear_487_12)"/>
<path d="M60.6495 361.48C57.146 361.48 54.2949 363.974 54.174 367.091C54.174 367.114 54.174 367.136 54.174 367.159C54.174 367.182 54.174 367.204 54.174 367.227C54.2949 370.345 57.146 372.839 60.6495 372.839C64.153 372.839 67.0041 370.345 67.1251 367.227C67.1251 367.204 67.1251 367.182 67.1251 367.159C67.1251 367.136 67.1251 367.114 67.1251 367.091C67 363.974 64.1489 361.48 60.6495 361.48ZM60.5802 370.616C58.3107 370.616 56.4638 369.076 56.3796 367.152C56.4638 365.227 58.3107 363.689 60.5802 363.689C62.8497 363.689 64.6979 365.228 64.7822 367.152C64.6938 369.085 62.8456 370.623 60.5761 370.623L60.5802 370.616Z" fill="url(#paint13_linear_487_12)"/>
<path d="M98.9403 353.591C90.8081 353.591 84.2048 359.62 84.0852 367.091C84.0852 367.114 84.0852 367.136 84.0852 367.159C84.0852 367.182 84.0852 367.204 84.0852 367.227C84.2048 374.704 90.8081 380.727 98.9403 380.727C107.072 380.727 113.676 374.699 113.795 367.227C113.795 367.204 113.795 367.182 113.795 367.159C113.795 367.136 113.795 367.114 113.795 367.091C113.676 359.614 107.071 353.591 98.9403 353.591ZM98.9729 378.655C92.1277 378.655 86.5708 373.52 86.492 367.159C86.5708 360.798 92.1277 355.664 98.9715 355.664C105.815 355.664 111.374 360.798 111.452 367.159C111.372 373.52 105.815 378.655 98.9729 378.655Z" fill="url(#paint14_linear_487_12)"/>
<path d="M98.7635 357.601C93.1047 357.601 88.5059 361.829 88.389 367.091C88.389 367.114 88.389 367.136 88.389 367.159C88.389 367.182 88.389 367.204 88.389 367.227C88.5059 372.485 93.1047 376.717 98.7635 376.717C104.422 376.717 109.021 372.49 109.139 367.227C109.139 367.204 109.139 367.182 109.139 367.159C109.139 367.136 109.139 367.114 109.139 367.091C109.021 361.833 104.424 357.601 98.7635 357.601ZM98.8994 374.639C94.2272 374.639 90.4343 371.302 90.3514 367.159C90.4343 363.016 94.2272 359.68 98.8994 359.68C103.572 359.68 107.363 363.016 107.446 367.159C107.366 371.302 103.573 374.639 98.9021 374.639H98.8994Z" fill="url(#paint15_linear_487_12)"/>
<path d="M98.8369 361.48C95.3334 361.48 92.4823 363.974 92.3613 367.091C92.3613 367.114 92.3613 367.136 92.3613 367.159C92.3613 367.182 92.3613 367.204 92.3613 367.227C92.4823 370.345 95.3334 372.839 98.8369 372.839C102.34 372.839 105.191 370.345 105.312 367.227C105.312 367.204 105.312 367.182 105.312 367.159C105.312 367.136 105.312 367.114 105.312 367.091C105.187 363.974 102.336 361.48 98.8369 361.48ZM98.7676 370.616C96.4981 370.616 94.6512 369.076 94.567 367.152C94.6512 365.227 96.4981 363.689 98.7676 363.689C101.037 363.689 102.885 365.228 102.97 367.152C102.881 369.085 101.033 370.623 98.7635 370.623L98.7676 370.616Z" fill="url(#paint16_linear_487_12)"/>
<path d="M137.128 353.591C128.995 353.591 122.392 359.62 122.273 367.091C122.273 367.114 122.273 367.136 122.273 367.159C122.273 367.182 122.273 367.204 122.273 367.227C122.392 374.704 128.995 380.727 137.128 380.727C145.26 380.727 151.863 374.699 151.983 367.227C151.983 367.204 151.983 367.182 151.983 367.159C151.983 367.136 151.983 367.114 151.983 367.091C151.863 359.614 145.258 353.591 137.128 353.591ZM137.16 378.655C130.315 378.655 124.758 373.52 124.679 367.159C124.758 360.798 130.315 355.664 137.159 355.664C144.003 355.664 149.561 360.798 149.64 367.159C149.56 373.52 144.003 378.655 137.16 378.655Z" fill="url(#paint17_linear_487_12)"/>
<path d="M136.951 357.601C131.292 357.601 126.693 361.829 126.577 367.091C126.577 367.114 126.577 367.136 126.577 367.159C126.577 367.182 126.577 367.204 126.577 367.227C126.693 372.485 131.292 376.717 136.951 376.717C142.61 376.717 147.209 372.49 147.327 367.227C147.327 367.204 147.327 367.182 147.327 367.159C147.327 367.136 147.327 367.114 147.327 367.091C147.209 361.833 142.611 357.601 136.951 357.601ZM137.087 374.639C132.415 374.639 128.622 371.302 128.539 367.159C128.622 363.016 132.415 359.68 137.087 359.68C141.759 359.68 145.551 363.016 145.634 367.159C145.553 371.302 141.76 374.639 137.09 374.639H137.087Z" fill="url(#paint18_linear_487_12)"/>
<path d="M137.024 361.48C133.521 361.48 130.67 363.974 130.549 367.091C130.549 367.114 130.549 367.136 130.549 367.159C130.549 367.182 130.549 367.204 130.549 367.227C130.67 370.345 133.521 372.839 137.024 372.839C140.528 372.839 143.379 370.345 143.5 367.227C143.5 367.204 143.5 367.182 143.5 367.159C143.5 367.136 143.5 367.114 143.5 367.091C143.375 363.974 140.524 361.48 137.024 361.48ZM136.955 370.616C134.686 370.616 132.839 369.076 132.754 367.152C132.839 365.227 134.686 363.689 136.955 363.689C139.225 363.689 141.073 365.228 141.157 367.152C141.069 369.085 139.221 370.623 136.951 370.623L136.955 370.616Z" fill="url(#paint19_linear_487_12)"/>
<path d="M190.173 367.091C190.053 359.614 183.449 353.591 175.318 353.591C167.187 353.591 160.582 359.62 160.463 367.091C160.463 367.114 160.463 367.136 160.463 367.159C160.463 367.182 160.463 367.204 160.463 367.227C160.582 374.704 167.186 380.727 175.318 380.727C183.45 380.727 190.053 374.699 190.173 367.227C190.173 367.204 190.173 367.182 190.173 367.159C190.173 367.136 190.173 367.114 190.173 367.091ZM175.348 378.655C168.502 378.655 162.946 373.52 162.867 367.159C162.946 360.798 168.502 355.664 175.346 355.664C182.19 355.664 187.748 360.798 187.827 367.159C187.747 373.52 182.19 378.655 175.348 378.655Z" fill="url(#paint20_linear_487_12)"/>
<path d="M175.138 357.601C169.48 357.601 164.881 361.829 164.764 367.091C164.764 367.114 164.764 367.136 164.764 367.159C164.764 367.182 164.764 367.204 164.764 367.227C164.881 372.485 169.48 376.717 175.138 376.717C180.797 376.717 185.396 372.49 185.514 367.227C185.514 367.204 185.514 367.182 185.514 367.159C185.514 367.136 185.514 367.114 185.514 367.091C185.396 361.833 180.799 357.601 175.138 357.601ZM175.274 374.639C170.602 374.639 166.809 371.302 166.726 367.159C166.809 363.016 170.602 359.68 175.274 359.68C179.946 359.68 183.738 363.016 183.821 367.159C183.741 371.302 179.948 374.639 175.277 374.639H175.274Z" fill="url(#paint21_linear_487_12)"/>
<path d="M175.212 361.48C171.708 361.48 168.857 363.974 168.736 367.091C168.736 367.114 168.736 367.136 168.736 367.159C168.736 367.182 168.736 367.204 168.736 367.227C168.857 370.345 171.708 372.839 175.212 372.839C178.715 372.839 181.566 370.345 181.687 367.227C181.687 367.204 181.687 367.182 181.687 367.159C181.687 367.136 181.687 367.114 181.687 367.091C181.562 363.974 178.711 361.48 175.212 361.48ZM175.142 370.616C172.873 370.616 171.026 369.076 170.942 367.152C171.026 365.227 172.873 363.689 175.142 363.689C177.412 363.689 179.26 365.228 179.344 367.152C179.256 369.085 177.408 370.623 175.138 370.623L175.142 370.616Z" fill="url(#paint22_linear_487_12)"/>
</mask>
<g mask="url(#mask0_487_12)">
<path d="M139.363 344.968C211.594 315.533 235.86 327.882 277 332.788V381H4V367.805C34.3333 372.542 89.8421 365.147 139.363 344.968Z" fill="#FFD4CB"/>
</g>
<g opacity="0.5" clip-path="url(#clip1_487_12)">
<path d="M126.02 -27.0682L140.295 155.047H141.26L155.043 -27.0682H126.02Z" fill="#FFD8CF"/>
<path d="M72.9542 -27.0682L136.445 155.047H137.522L104.141 -27.0682H72.9542Z" fill="#FFD8CF"/>
<path d="M8.77734 -27.0682L131.843 155.047H133.351L47.8315 -27.0682H8.77734Z" fill="#FFD8CF"/>
<path d="M4.24805 49.9374L125.236 155.047H127.905L4.24805 7.86353V49.9374Z" fill="#FFD8CF"/>
<path d="M4.24805 102.473L112.681 155.047H119.15L4.24805 74.7822V102.473Z" fill="#FFD8CF"/>
<path d="M4.24805 143.084L67.9806 155.047H99.0427L4.24805 120.982V143.084Z" fill="#FFD8CF"/>
<path d="M276.752 120.922L182.615 155.047H213.454L276.752 142.983V120.922Z" fill="#FFD8CF"/>
<path d="M276.752 74.7539L162.481 155.047H168.995L276.752 102.431V74.7539Z" fill="#FFD8CF"/>
<path d="M276.752 7.75372L153.687 155.047H156.385L276.752 49.8944V7.75372Z" fill="#FFD8CF"/>
<path d="M233.137 -27.0682L148.217 155.047H149.74L272.086 -27.0682H233.137Z" fill="#FFD8CF"/>
<path d="M176.91 -27.0682L144.034 155.047H145.12L208.059 -27.0682H176.91Z" fill="#FFD8CF"/>
</g>
</g>
</g>
<defs>
<filter id="filter0_d_487_12" x="0" y="0" width="281" height="388" filterUnits="userSpaceOnUse" color-interpolation-filters="sRGB">
<feFlood flood-opacity="0" result="BackgroundImageFix"/>
<feColorMatrix in="SourceAlpha" type="matrix" values="0 0 0 0 0 0 0 0 0 0 0 0 0 0 0 0 0 0 127 0" result="hardAlpha"/>
<feOffset dy="4"/>
<feGaussianBlur stdDeviation="2"/>
<feComposite in2="hardAlpha" operator="out"/>
<feColorMatrix type="matrix" values="0 0 0 0 0.470588 0 0 0 0 0.266667 0 0 0 0 0.129412 0 0 0 0.25 0"/>
<feBlend mode="normal" in2="BackgroundImageFix" result="effect1_dropShadow_487_12"/>
<feBlend mode="normal" in="SourceGraphic" in2="effect1_dropShadow_487_12" result="shape"/>
</filter>
<linearGradient id="paint0_linear_487_12" x1="213.503" y1="353.591" x2="213.503" y2="380.727" gradientUnits="userSpaceOnUse">
<stop stop-color="#ED5135" stop-opacity="0.56"/>
<stop offset="1" stop-color="#ED5135"/>
</linearGradient>
<linearGradient id="paint1_linear_487_12" x1="213.327" y1="357.601" x2="213.327" y2="376.717" gradientUnits="userSpaceOnUse">
<stop stop-color="#ED5135" stop-opacity="0.56"/>
<stop offset="1" stop-color="#ED5135"/>
</linearGradient>
<linearGradient id="paint2_linear_487_12" x1="213.399" y1="361.48" x2="213.399" y2="372.839" gradientUnits="userSpaceOnUse">
<stop stop-color="#ED5135" stop-opacity="0.56"/>
<stop offset="1" stop-color="#ED5135"/>
</linearGradient>
<linearGradient id="paint3_linear_487_12" x1="251.69" y1="353.591" x2="251.69" y2="380.727" gradientUnits="userSpaceOnUse">
<stop stop-color="#ED5135" stop-opacity="0.56"/>
<stop offset="1" stop-color="#ED5135"/>
</linearGradient>
<linearGradient id="paint4_linear_487_12" x1="251.514" y1="357.601" x2="251.514" y2="376.717" gradientUnits="userSpaceOnUse">
<stop stop-color="#ED5135" stop-opacity="0.56"/>
<stop offset="1" stop-color="#ED5135"/>
</linearGradient>
<linearGradient id="paint5_linear_487_12" x1="251.587" y1="361.48" x2="251.587" y2="372.839" gradientUnits="userSpaceOnUse">
<stop stop-color="#ED5135" stop-opacity="0.56"/>
<stop offset="1" stop-color="#ED5135"/>
</linearGradient>
<linearGradient id="paint6_linear_487_12" x1="289.877" y1="353.591" x2="289.877" y2="380.727" gradientUnits="userSpaceOnUse">
<stop stop-color="#ED5135" stop-opacity="0.56"/>
<stop offset="1" stop-color="#ED5135"/>
</linearGradient>
<linearGradient id="paint7_linear_487_12" x1="137.092" y1="320.318" x2="137.092" y2="384.959" gradientUnits="userSpaceOnUse">
<stop stop-color="#ED5135" stop-opacity="0.56"/>
<stop offset="1" stop-color="#ED5135"/>
</linearGradient>
<linearGradient id="paint8_linear_487_12" x1="22.5654" y1="353.591" x2="22.5654" y2="380.727" gradientUnits="userSpaceOnUse">
<stop stop-color="#ED5135" stop-opacity="0.56"/>
<stop offset="1" stop-color="#ED5135"/>
</linearGradient>
<linearGradient id="paint9_linear_487_12" x1="22.3893" y1="357.601" x2="22.3893" y2="376.717" gradientUnits="userSpaceOnUse">
<stop stop-color="#ED5135" stop-opacity="0.56"/>
<stop offset="1" stop-color="#ED5135"/>
</linearGradient>
<linearGradient id="paint10_linear_487_12" x1="22.462" y1="361.48" x2="22.462" y2="372.839" gradientUnits="userSpaceOnUse">
<stop stop-color="#ED5135" stop-opacity="0.56"/>
<stop offset="1" stop-color="#ED5135"/>
</linearGradient>
<linearGradient id="paint11_linear_487_12" x1="60.7527" y1="353.591" x2="60.7527" y2="380.727" gradientUnits="userSpaceOnUse">
<stop stop-color="#ED5135" stop-opacity="0.56"/>
<stop offset="1" stop-color="#ED5135"/>
</linearGradient>
<linearGradient id="paint12_linear_487_12" x1="60.5768" y1="357.601" x2="60.5768" y2="376.717" gradientUnits="userSpaceOnUse">
<stop stop-color="#ED5135" stop-opacity="0.56"/>
<stop offset="1" stop-color="#ED5135"/>
</linearGradient>
<linearGradient id="paint13_linear_487_12" x1="60.6495" y1="361.48" x2="60.6495" y2="372.839" gradientUnits="userSpaceOnUse">
<stop stop-color="#ED5135" stop-opacity="0.56"/>
<stop offset="1" stop-color="#ED5135"/>
</linearGradient>
<linearGradient id="paint14_linear_487_12" x1="98.9402" y1="353.591" x2="98.9402" y2="380.727" gradientUnits="userSpaceOnUse">
<stop stop-color="#ED5135" stop-opacity="0.56"/>
<stop offset="1" stop-color="#ED5135"/>
</linearGradient>
<linearGradient id="paint15_linear_487_12" x1="98.7642" y1="357.601" x2="98.7642" y2="376.717" gradientUnits="userSpaceOnUse">
<stop stop-color="#ED5135" stop-opacity="0.56"/>
<stop offset="1" stop-color="#ED5135"/>
</linearGradient>
<linearGradient id="paint16_linear_487_12" x1="98.8369" y1="361.48" x2="98.8369" y2="372.839" gradientUnits="userSpaceOnUse">
<stop stop-color="#ED5135" stop-opacity="0.56"/>
<stop offset="1" stop-color="#ED5135"/>
</linearGradient>
<linearGradient id="paint17_linear_487_12" x1="137.128" y1="353.591" x2="137.128" y2="380.727" gradientUnits="userSpaceOnUse">
<stop stop-color="#ED5135" stop-opacity="0.56"/>
<stop offset="1" stop-color="#ED5135"/>
</linearGradient>
<linearGradient id="paint18_linear_487_12" x1="136.952" y1="357.601" x2="136.952" y2="376.717" gradientUnits="userSpaceOnUse">
<stop stop-color="#ED5135" stop-opacity="0.56"/>
<stop offset="1" stop-color="#ED5135"/>
</linearGradient>
<linearGradient id="paint19_linear_487_12" x1="137.024" y1="361.48" x2="137.024" y2="372.839" gradientUnits="userSpaceOnUse">
<stop stop-color="#ED5135" stop-opacity="0.56"/>
<stop offset="1" stop-color="#ED5135"/>
</linearGradient>
<linearGradient id="paint20_linear_487_12" x1="175.318" y1="353.591" x2="175.318" y2="380.727" gradientUnits="userSpaceOnUse">
<stop stop-color="#ED5135" stop-opacity="0.56"/>
<stop offset="1" stop-color="#ED5135"/>
</linearGradient>
<linearGradient id="paint21_linear_487_12" x1="175.139" y1="357.601" x2="175.139" y2="376.717" gradientUnits="userSpaceOnUse">
<stop stop-color="#ED5135" stop-opacity="0.56"/>
<stop offset="1" stop-color="#ED5135"/>
</linearGradient>
<linearGradient id="paint22_linear_487_12" x1="175.212" y1="361.48" x2="175.212" y2="372.839" gradientUnits="userSpaceOnUse">
<stop stop-color="#ED5135" stop-opacity="0.56"/>
<stop offset="1" stop-color="#ED5135"/>
</linearGradient>
<clipPath id="clip0_487_12">
<rect x="4" width="273" height="380" rx="10" fill="white"/>
</clipPath>
<clipPath id="clip1_487_12">
<rect width="273" height="171" fill="white" transform="translate(4 -16)"/>
</clipPath>
</defs>
</svg>
