<svg width="400" height="400" viewBox="0 0 400 400" fill="none" xmlns="http://www.w3.org/2000/svg">
<g clip-path="url(#clip0_103_232)">
<path d="M400.05 400.05H-0.0500488V-0.0500488H400.05V400.05ZM0.0499511 399.95H399.95V0.0499511H0.0499511V399.95Z" fill="black"/>
<g opacity="0.4">
<path opacity="0.4" d="M337.98 341.76C335.6 342.96 330.26 345.17 327.4 346.32Z" fill="white"/>
</g>
<path d="M209.01 116.76L147.73 142.72L63.23 179.35C45.3 156.12 35.32 85.5099 52.14 60.8999C57.22 53.4799 64.88 50.1099 75.74 53.2899C103.06 61.2799 146.74 106.13 209.01 116.76Z" fill="#F9A429"/>
<g opacity="0.5">
<path opacity="0.5" d="M208.94 116.97L197.93 121.64C140.84 108.31 100.31 67.7099 74.45 60.1499C63.6 56.9799 55.93 60.3399 50.85 67.7599C48.2 71.6399 46.25 76.6399 44.91 82.3799C46.12 73.8199 48.42 66.4399 52.06 61.1199C57.14 53.6999 64.8 50.3299 75.66 53.5099C102.99 61.4899 146.67 106.34 208.94 116.97Z" fill="white"/>
</g>
<g opacity="0.3">
<path opacity="0.3" d="M146.72 143.24L63.7801 178.36C45.8501 155.13 34.3101 86.03 51.1301 61.43C54.8501 59.99 59.4801 60.26 64.9601 64.25C78.9801 74.47 113 129.7 146.72 143.24Z" fill="#000072"/>
</g>
<path d="M64.73 181.71C63.6 181.71 62.53 181.19 61.84 180.29C52.7 168.44 45.55 145.7 42.3 120.72C38.77 93.5901 41.51 71.3401 49.67 59.3701C56.06 50.0101 67.37 48.6601 76.5 50.9001C87.06 53.4801 98.95 62.3401 113.37 71.6101C138.6 87.8301 170.16 109.52 209.08 116.17C211.07 116.51 212.89 115.6 212.55 117.59C212.21 119.58 210.32 120.91 208.34 120.57C167.96 113.67 136.66 89.1201 110.87 72.5501C96.92 63.5801 84.87 55.8401 75.45 53.0801C66.85 50.5601 55.81 54.2501 51.25 60.9301C44.18 71.2901 41.56 97.6001 44.81 122.6C47.86 146.02 56.46 167.34 64.73 178.05C65.96 179.65 68.55 179.71 66.96 180.95C66.32 181.44 65.53 181.71 64.73 181.71Z" fill="#4B2600"/>
<path d="M66.8501 165.32C67.8401 167.1 68.8701 168.67 69.9301 169.97L129.86 110.58C94.9201 87.6801 70.0601 67.6501 63.0401 70.9001C61.9401 71.4101 60.8201 72.7901 59.78 74.9801C56.98 80.8601 54.7001 92.6101 54.7901 109.14C54.9001 129.02 59.8201 152.67 66.8501 165.32Z" fill="#FFF3E9"/>
<g opacity="0.3">
<path opacity="0.3" d="M67.2699 164.97C68.2599 166.75 69.2899 168.32 70.3499 169.62L130.68 110.58C95.7399 87.6799 70.4999 66.0499 63.4799 69.2999C62.3799 69.8099 61.25 72.4399 60.2 74.6399C62.82 75.7799 66.3899 78.5999 71.2799 84.3899C86.6399 102.64 87.1499 122.01 80.8999 140.15C79.0999 145.39 72.7999 156.07 67.2699 164.97Z" fill="#000072"/>
</g>
<path d="M70.77 173.21C70.71 173.21 70.65 173.21 70.59 173.21C69.7 173.16 68.87 172.74 68.31 172.05C58.53 160.07 52.5701 130.7 52.4601 109.23C52.3401 87.14 56.3001 70.99 62.5401 68.11C68.44 65.38 76.99 71.4 97.45 86.49C107.16 93.65 118.17 101.77 130.96 110.16C132.42 111.12 132.83 113.08 131.87 114.54C131.74 114.73 131.6 114.91 131.43 115.07L72.99 172.3C72.4 172.88 71.6 173.21 70.77 173.21ZM66.05 69.57C59.2401 70.98 54.88 85.55 55.01 109.42C55.12 130.29 62.3901 157.76 69.29 169.04L127.66 110.83C116.05 103.07 103.06 93.57 94.56 87.3C86.71 81.51 79.94 76.52 74.76 73.31C69.31 69.95 66.08 69.56 66.05 69.57Z" fill="#4B2600"/>
<path d="M197.49 108.4L258.77 134.36L343.27 170.99C361.2 147.76 371.19 77.1501 354.36 52.5501C349.28 45.1301 341.62 41.7601 330.76 44.9401C303.44 52.9201 259.77 97.7601 197.49 108.4Z" fill="#F9A429"/>
<g opacity="0.5">
<path opacity="0.5" d="M197.56 108.61L208.57 113.28C265.66 99.95 306.19 59.35 332.05 51.79C342.91 48.62 350.57 51.98 355.65 59.4C358.3 63.28 360.25 68.28 361.59 74.02C360.38 65.46 358.08 58.08 354.44 52.76C349.36 45.34 341.7 41.97 330.84 45.15C303.51 53.12 259.84 97.97 197.56 108.61Z" fill="white"/>
</g>
<g opacity="0.3">
<path opacity="0.3" d="M259.78 134.88L342.72 170C360.66 146.77 372.2 77.6701 355.38 53.0701C351.66 51.6301 347.03 51.9001 341.55 55.8901C327.52 66.1001 293.5 121.33 259.78 134.88Z" fill="#000072"/>
</g>
<path d="M341.78 173.34C342.91 173.34 343.98 172.82 344.67 171.92C353.81 160.08 360.96 137.34 364.21 112.36C367.74 85.23 365 62.98 356.84 51.01C350.45 41.65 339.14 40.3 330.01 42.54C319.45 45.12 307.56 53.98 293.14 63.25C267.91 79.47 236.35 101.16 197.43 107.81C195.44 108.15 193.62 107.24 193.96 109.23C194.3 111.22 196.19 112.55 198.17 112.21C238.55 105.31 269.85 80.76 295.64 64.19C309.59 55.22 321.64 47.48 331.06 44.73C339.66 42.21 350.7 45.9 355.26 52.59C362.32 62.94 364.95 89.25 361.69 114.25C358.64 137.67 350.04 158.99 341.77 169.7C340.54 171.3 337.95 171.36 339.54 172.6C340.19 173.07 340.97 173.34 341.78 173.34Z" fill="#4B2600"/>
<path d="M339.66 156.95C338.67 158.73 337.64 160.3 336.58 161.6L276.65 102.21C311.59 79.3099 336.45 59.2799 343.47 62.5299C344.57 63.0399 345.68 64.4199 346.73 66.6099C349.53 72.4899 351.81 84.2399 351.72 100.76C351.61 120.65 346.68 144.31 339.66 156.95Z" fill="#FFF3E9"/>
<g opacity="0.3">
<path opacity="0.3" d="M339.24 156.6C338.25 158.38 337.22 159.95 336.16 161.25L275.82 102.2C310.76 79.3 336.01 57.67 343.03 60.92C344.13 61.43 345.26 64.06 346.31 66.26C343.69 67.4 340.12 70.22 335.23 76.01C319.87 94.26 319.36 113.62 325.6 131.77C327.41 137.03 333.7 147.7 339.24 156.6Z" fill="#000072"/>
</g>
<path d="M333.52 163.93L275.06 106.7C273.81 105.48 273.79 103.47 275.01 102.22C275.17 102.06 275.35 101.91 275.54 101.78C288.33 93.3899 299.33 85.2699 309.05 78.1099C329.51 63.0099 338.06 56.9899 343.96 59.7299C350.2 62.6199 354.16 78.7599 354.04 100.85C353.93 122.33 347.96 151.7 338.19 163.67C337.63 164.36 336.8 164.78 335.91 164.83C335.85 164.83 335.79 164.83 335.73 164.83C334.91 164.84 334.11 164.51 333.52 163.93ZM331.76 64.9399C326.58 68.1399 319.8 73.1399 311.96 78.9299C303.46 85.1999 290.47 94.7099 278.86 102.46L337.23 160.67C344.13 149.39 351.4 121.92 351.51 101.05C351.64 77.1799 347.27 62.6099 340.47 61.1999C340.42 61.1899 337.2 61.5799 331.76 64.9399Z" fill="#4B2600"/>
<path d="M366.11 322.6C328.12 383.88 226.35 385.66 202.23 385.66C178.11 385.66 76.33 383.87 38.3499 322.6C22.6599 297.28 27.0599 276.44 33.2299 263.77C36.7699 256.49 40.8799 251.89 42.0999 250.68C47.3999 219.43 53.97 78.3401 202.24 78.3401C350.51 78.3401 357.08 219.43 362.38 250.68C363.6 251.89 367.71 256.49 371.25 263.77C377.4 276.44 381.8 297.27 366.11 322.6Z" fill="#F9A429"/>
<path d="M363.7 324.56C325.72 385.83 223.99 387.63 199.83 387.63H199.81C175.66 387.63 73.9301 385.83 35.95 324.56C20.25 299.24 24.66 278.4 30.82 265.73C44.16 249.26 67.6601 233.56 103.79 250.07C116.03 255.67 123.79 267.23 144.35 262.11C155.25 259.39 170.53 238.41 199.81 238.4H199.83C229.11 238.41 244.39 259.39 255.3 262.11C275.86 267.23 283.63 255.67 295.86 250.07C331.99 233.55 355.48 249.26 368.82 265.73C374.99 278.41 379.4 299.24 363.7 324.56Z" fill="#FFF3E9"/>
<g opacity="0.3">
<path opacity="0.3" d="M363.7 324.57C325.71 385.85 223.94 387.63 199.82 387.63C175.7 387.63 73.92 385.85 35.94 324.57C26.06 308.62 24.15 294.45 25.63 282.99C26.69 291.36 29.75 300.65 35.94 310.64C73.92 371.92 175.69 373.7 199.81 373.7C223.93 373.7 325.71 371.92 363.69 310.64C369.88 300.65 372.94 291.36 374 282.99C375.49 294.45 373.58 308.62 363.7 324.57Z" fill="#000072"/>
</g>
<path d="M201.53 283.44L201.09 283.51V283.37L201.53 283.44Z" fill="#512717"/>
<path d="M201.95 283.37V283.51L201.53 283.44L201.95 283.37Z" fill="#512717"/>
<path d="M143.1 91.77C152.15 88.71 161.52 86.65 170.94 85.27C180.37 83.92 189.88 83.35 199.38 83.26C208.87 83.33 218.39 83.92 227.82 85.25C237.24 86.64 246.61 88.68 255.66 91.74C264.74 94.75 273.46 98.73 281.69 103.61C289.87 108.52 297.51 114.32 304.29 120.96C304.32 120.99 304.35 121.03 304.38 121.06C304.51 120.98 304.63 120.89 304.73 120.78C305.42 120.07 305.41 118.93 304.71 118.24C297.93 111.6 290.29 105.8 282.11 100.89C273.89 96.01 265.16 92.03 256.08 89.02C247.02 85.95 237.66 83.92 228.24 82.53C218.8 81.2 209.29 80.61 199.8 80.54C190.31 80.63 180.79 81.19 171.36 82.55C161.94 83.93 152.58 85.98 143.52 89.04C134.44 92.05 125.72 96.03 117.5 100.91C109.32 105.82 101.68 111.61 94.89 118.25C94.22 118.9 94.17 119.95 94.76 120.67L94.77 120.68C101.48 114.17 109.02 108.46 117.08 103.63C125.3 98.75 134.02 94.77 143.1 91.77Z" fill="#4B2600"/>
<path d="M94.42 368.98C85.18 365.07 76.26 360.25 67.98 354.41C59.7 348.57 52.07 341.67 45.67 333.68C39.28 325.71 34.04 316.69 30.86 306.74C27.66 296.84 26.86 285.93 29.16 275.64C29.71 273.07 30.45 270.54 31.36 268.08C32.25 265.61 33.3 263.21 34.51 260.88C35.71 258.55 37.07 256.31 38.56 254.16C39.32 253.09 40.1 252.03 40.94 251C41.54 250.27 42.13 249.56 42.8 248.84C43.08 246.79 43.31 244.69 43.59 242.58L44.53 235.12C45.16 230.13 45.88 225.12 46.75 220.14C48.46 210.17 50.66 200.24 53.53 190.48C54.96 185.6 56.55 180.76 58.34 175.99C60.13 171.22 62.06 166.5 64.22 161.88C68.16 153.5 72.94 145.45 78.81 138.28C78.71 138.12 78.59 137.98 78.45 137.85C77.7 137.19 76.56 137.27 75.9 138.02C69.19 145.71 63.84 154.54 59.51 163.76C57.34 168.38 55.4 173.1 53.63 177.87C51.86 182.64 50.25 187.48 48.82 192.36C45.94 202.12 43.75 212.05 42.04 222.02C41.17 227.01 40.45 232.01 39.82 237L38.88 244.46C38.61 246.57 38.38 248.67 38.09 250.72C37.42 251.44 36.83 252.14 36.23 252.88C35.39 253.91 34.61 254.97 33.85 256.04C32.36 258.19 31 260.44 29.8 262.76C28.59 265.09 27.54 267.49 26.65 269.96C25.74 272.43 25 274.95 24.45 277.52C22.14 287.81 22.94 298.72 26.15 308.62C29.34 318.57 34.57 327.58 40.96 335.56C47.36 343.55 55 350.45 63.27 356.29C71.54 362.13 80.47 366.95 89.71 370.86C98.94 374.81 108.47 377.88 118.12 380.36C137.45 385.22 157.22 387.72 176.97 388.38C177.91 388.41 178.72 387.71 178.82 386.77C178.83 386.64 178.83 386.51 178.82 386.39C160.02 385.59 141.23 383.1 122.83 378.48C113.18 376 103.65 372.92 94.42 368.98Z" fill="#4B2600"/>
<path d="M306.91 368.98C316.15 365.07 325.07 360.25 333.35 354.41C341.63 348.57 349.26 341.67 355.66 333.68C362.05 325.71 367.29 316.69 370.47 306.74C373.67 296.84 374.48 285.93 372.17 275.64C371.62 273.07 370.88 270.54 369.97 268.08C369.08 265.61 368.03 263.21 366.82 260.88C365.62 258.55 364.26 256.31 362.77 254.16C362.01 253.09 361.23 252.03 360.39 251C359.79 250.27 359.2 249.56 358.53 248.84C358.25 246.79 358.01 244.69 357.74 242.58L356.8 235.12C356.17 230.13 355.45 225.12 354.58 220.14C352.87 210.17 350.67 200.24 347.8 190.48C346.37 185.6 344.78 180.76 342.99 175.99C341.2 171.22 339.27 166.5 337.1 161.88C333.16 153.5 328.38 145.45 322.51 138.28C322.61 138.12 322.73 137.98 322.87 137.85C323.62 137.19 324.76 137.27 325.42 138.02C332.13 145.71 337.48 154.54 341.81 163.76C343.98 168.38 345.92 173.1 347.7 177.87C349.48 182.64 351.08 187.48 352.51 192.36C355.39 202.12 357.58 212.05 359.29 222.02C360.16 227.01 360.88 232.01 361.51 237L362.45 244.46C362.72 246.57 362.96 248.67 363.24 250.72C363.91 251.44 364.5 252.14 365.1 252.88C365.94 253.91 366.72 254.97 367.48 256.04C368.97 258.19 370.33 260.44 371.53 262.76C372.74 265.09 373.79 267.49 374.68 269.96C375.59 272.43 376.33 274.95 376.88 277.52C379.19 287.81 378.39 298.72 375.18 308.62C371.99 318.57 366.76 327.58 360.37 335.56C353.97 343.55 346.33 350.45 338.06 356.29C329.79 362.13 320.86 366.95 311.62 370.86C302.39 374.81 292.86 377.88 283.21 380.36C263.88 385.22 244.11 387.72 224.36 388.38C223.37 388.41 222.54 387.64 222.5 386.65C222.5 386.56 222.5 386.47 222.51 386.39C241.31 385.59 260.1 383.1 278.5 378.48C288.15 376 297.68 372.92 306.91 368.98Z" fill="#4B2600"/>
<path d="M201.54 274.23L201.11 274.29V274.16L201.54 274.23Z" fill="#512717"/>
<path d="M201.97 274.16V274.29L201.54 274.23L201.97 274.16Z" fill="#512717"/>
<path d="M229.28 273.31C229.28 273.31 232.45 282.5 224.15 287.22C216.17 291.76 206.77 285.87 202.36 282.43C200.75 281.18 199.82 279.26 199.82 277.22C199.82 279.25 198.88 281.18 197.28 282.43C192.86 285.87 183.47 291.75 175.49 287.22C167.19 282.51 170.36 273.31 170.36 273.31C170.36 273.31 172.33 248.7 199.83 248.7C227.33 248.7 229.28 273.31 229.28 273.31Z" fill="#FFF3E9"/>
<path d="M220.65 251.56C216.71 262.59 199.83 268.81 199.83 268.81C199.83 268.81 182.95 262.59 179.01 251.56C176.2 243.67 196.06 242.38 199.83 242.38C203.6 242.38 223.46 243.67 220.65 251.56Z" fill="#4B2600"/>
<g opacity="0.5">
<path opacity="0.5" d="M208.46 247.4C206.83 250.19 199.83 250.14 199.83 250.14C199.83 250.14 192.83 250.19 191.2 247.4C190.03 245.41 198.27 245.08 199.83 245.08C201.39 245.08 209.63 245.4 208.46 247.4Z" fill="white"/>
</g>
<path d="M160.6 296.91C172.36 298.72 183.92 294.25 191.36 288.55C195.18 285.62 198.01 282.14 200.2 278.59C201.59 276.35 202.65 273.92 203.32 271.38C203.77 269.68 203.21 266.8 205.3 265.69C211.4 262.44 205.42 256.27 198.51 256.87C191.65 257.47 188.36 264.36 195.5 266.5C196.2 266.65 196.88 266.91 197.49 267.28L195.19 265.35C199.62 272.19 194.85 281.69 187.84 287.09C180.39 292.83 170.93 294.29 160.58 296.75C160.48 296.77 160.46 296.89 160.6 296.91Z" fill="#4B2600"/>
<path d="M247.41 296.47C236.72 295.11 227.06 294.66 218.36 289.85C214.08 287.49 210.67 284.63 208.53 281.26C207.5 279.65 206.66 277.92 206.03 276.11C205.82 275.49 204.31 270.7 204.46 270.63C210.93 267.84 208.72 260.91 200.38 260.91C192.41 260.91 189.31 268.03 196.3 270.63C198.06 271.28 199.06 275.97 199.81 277.21C201 279.19 202.39 281.03 203.96 282.72C207.23 286.2 211.19 289.53 216.11 292.09C224.8 296.61 236.66 299.48 247.41 296.62C247.51 296.61 247.55 296.49 247.41 296.47Z" fill="#4B2600"/>
<path d="M250.5 31.9199C250.5 19.7899 229.07 10.1799 203.02 10.1799C176.97 10.1799 155.21 19.7899 155.21 31.9199C155.21 34.0499 155.88 36.1099 157.13 38.0699L170.26 67.5999C171.89 70.9899 175.39 73.1599 179.24 73.1599H223.81C227.41 73.1599 230.73 71.2599 232.48 68.1799L247.95 39.0299C249.6 36.7999 250.5 34.3999 250.5 31.9199Z" fill="#381F1F"/>
<path d="M223.81 73.61H179.24C175.24 73.61 171.56 71.33 169.86 67.8L169.85 67.79L156.73 38.28C155.42 36.21 154.76 34.07 154.76 31.91C154.76 25.89 159.88 20.26 169.16 16.08C178.26 11.98 190.29 9.71997 203.02 9.71997C215.73 9.71997 227.7 11.98 236.71 16.08C245.89 20.26 250.94 25.88 250.94 31.91C250.94 34.43 250.06 36.91 248.32 39.27L232.86 68.4C231.05 71.62 227.57 73.61 223.81 73.61ZM170.67 67.42C172.22 70.64 175.59 72.72 179.24 72.72H223.81C227.25 72.72 230.42 70.9 232.09 67.98L247.57 38.8L247.59 38.77C249.23 36.55 250.06 34.25 250.06 31.91C250.06 20.17 228.96 10.62 203.03 10.62C190.42 10.62 178.53 12.85 169.54 16.9C165.17 18.87 161.74 21.16 159.35 23.7C156.9 26.31 155.66 29.07 155.66 31.91C155.66 33.9 156.28 35.89 157.51 37.82L157.54 37.88L170.67 67.42Z" fill="#784421"/>
<path d="M61.36 168.12C62.82 163.54 65.15 159.84 65.54 159.23C64.67 159.67 64.02 160.12 63.59 160.57C87.8 101.7 134.02 71.86 201.08 71.86C271.8 71.86 319.25 104.95 342.26 170.26C347.66 178.52 350.3 186.5 350.92 188.54L348.5 180.37C344.3 166.15 338.97 153.1 332.67 141.58C325.07 127.68 315.83 115.59 305.21 105.65C292.97 94.2 278.6 85.31 262.49 79.24C244.46 72.44 223.8 68.99 201.09 68.99C180.31 68.99 161.21 71.88 144.35 77.57C129.1 82.72 115.31 90.28 103.36 100.05C83.73 116.1 68.54 138.5 58.2 166.63L55.52 173.93L60.59 168.08L61.36 168.12Z" fill="#784421"/>
<path d="M65.95 159.03L74.64 156.22C70.88 157.14 67.93 158.08 65.95 159.03Z" fill="#784421"/>
<path d="M199.79 121.86C221.46 121.86 237.34 107.7 253.41 109.73C263.55 111.01 276.49 117.15 285.71 123.51C287.06 124.44 289.95 125.89 291.21 126.49C319.05 139.73 334.96 164.92 348.63 185.68C333.48 132.56 297 69.3601 200.24 69.3601C112.1 69.3601 73.9699 121.79 56.4399 171.29C93.14 137.07 114.99 119.43 138.85 109.12C149.98 104.31 132.95 111.91 147.44 111.05C162.45 110.16 182.18 121.86 199.79 121.86Z" fill="#381F1F"/>
<path d="M172.33 69.2899C202.04 44.2599 229.45 64.6399 231.36 67.6899C232.23 69.0799 231.25 71.1699 231.25 71.1699C231.25 71.1699 210.87 67.9299 203.61 68.5399C196.35 69.1499 172.12 71.7299 172.12 71.7299L172.33 69.2899Z" fill="#1E1313"/>
<path d="M184.24 51.76C180.94 53.7 183.71 60.92 185.24 63.71C186.79 66.5 188.27 68.43 189.43 69.37L190.41 68.9L192.12 67.91L191.04 67.06C190.62 66.73 188.96 64.78 187.55 62.23C186.14 59.68 184.82 56.45 184.42 53.19L184.24 51.76Z" fill="#784421"/>
<path d="M191.03 59.91C192.24 62.88 193.62 65.76 195.18 68.56L195.88 69.79L198.17 68.28L197.46 67.05C195.97 64.37 194.64 61.59 193.49 58.75C191.53 53.96 189.7 47.9 189.95 43.18L190.03 41.74C185.21 43.36 189.69 56.6 191.03 59.91Z" fill="#784421"/>
<path d="M197.35 57.6799C197.76 60.0099 198.29 62.3199 198.93 64.5999C199.46 66.4499 199.87 67.6799 200.36 68.5199L201.07 69.7399L203.35 68.2099L202.64 66.9899C202.53 66.8099 202 65.4999 201.5 63.7599C200.89 61.5799 200.39 59.3699 200 57.1399C199.08 51.9399 198.49 45.4999 199.24 39.6199L199.42 38.1799C195.12 38.3599 196.72 54.0699 197.35 57.6799Z" fill="#784421"/>
<path d="M206.24 44.6299C206.78 48.1699 206.25 51.7099 205.94 54.9499C205.52 59.3999 204.88 64.4499 204.24 67.4999L203.95 68.9099L206.58 69.5399L206.87 68.1299C207.56 64.8199 208.19 59.7599 208.62 55.2399C208.92 50.7599 209.33 44.8799 206.24 44.6299Z" fill="#784421"/>
<path d="M216.87 42.03L216.75 43.47C216.6 45.24 215.43 50.1 213.97 54.87C212.51 59.64 210.73 64.53 209.56 66.62L208.86 67.85L211.16 69.34L211.85 68.11C213.33 65.48 215.04 60.63 216.52 55.76C217.85 50.76 219.96 42.7 216.87 42.03Z" fill="#784421"/>
<path d="M222.74 51.49L222.38 52.88C222 54.37 218.35 64.07 216.29 67.06L215.49 68.21L217.95 69.12L218.45 68.77C220.99 64.97 225.78 52.8 222.74 51.49Z" fill="#784421"/>
<path d="M117.97 125.99L56.74 172.59L72.05 147.95L109.62 113.12L131.88 108.73L133.12 113.44L117.97 125.99Z" fill="#381F1F"/>
<path d="M345.86 181C345.86 181 280.61 113.85 259.58 110.08C238.55 106.31 259.89 95.96 259.89 95.96L299.47 116.67L335.34 162.17L345.86 181Z" fill="#381F1F"/>
<path d="M117.24 126.25C123.93 116.37 141.1 102.96 153.81 103.45C171.07 104.12 192.69 114.51 202.01 113.79C211.33 113.07 238.66 101.23 253 103.21C267.34 105.19 284.23 122.89 286.13 125.87C288.03 128.85 276 117.36 269.9 115.62C263.8 113.88 258.76 109.63 251.87 110.13C244.98 110.63 220.88 117.76 214.91 120.31C208.94 122.86 207.14 124.57 201.04 124.23C194.94 123.89 175.07 115.76 170.82 114.58C166.57 113.4 151.32 109.24 147.16 110.1C143 110.96 122.11 121.03 117.24 126.25Z" fill="#1E1313"/>
<path d="M157.05 99.4401C158.59 104.65 160.79 109.83 163.94 112.57L164.81 113.33L166.41 111.7L165.55 110.95C163.14 108.86 160.81 103.87 159.33 98.8501C157.85 93.8301 157.12 88.6501 157.31 86.4301L157.4 85.3301C153.98 85.5001 156.48 97.4701 157.05 99.4401Z" fill="#784421"/>
<path d="M175.98 110C176.91 111.83 177.95 113.59 179.11 115.28C180.06 116.65 180.78 117.55 181.29 118.04L182.13 118.83L183.81 117.27L182.98 116.48C182.78 116.29 181.99 115.36 181.1 114.07C179.99 112.47 179 110.79 178.12 109.05C176.09 105.05 174.29 99.94 174.41 94.9L174.43 93.79C170.06 95.76 174.78 107.59 175.98 110Z" fill="#784421"/>
<path d="M189.22 108.68C190.09 111.87 191.13 115.01 192.33 118.09C192.82 119.33 193.28 120.37 193.68 121.17C194.08 121.97 194.29 122.46 194.78 122.94L195.6 123.73L197.31 122.2L196.49 121.4C196.57 121.48 196.18 120.96 195.82 120.24C195.46 119.52 195.03 118.52 194.55 117.32C193.37 114.31 192.36 111.25 191.51 108.13C189.55 100.97 188.11 92.32 189.2 85.86L189.38 84.76C184.19 86.55 187.7 103.62 189.22 108.68Z" fill="#784421"/>
<path d="M212.07 84.3401C213.07 86.7101 212.07 96.2201 211.46 101.43C210.55 109.25 208.87 117.85 206.76 121.5L206.2 122.48L208.28 123.53L208.84 122.55C211.4 118.12 212.98 109.6 213.82 101.67C214.36 96.4301 215.99 84.8001 212.07 84.3401Z" fill="#784421"/>
<path d="M227.66 91.8C227.07 96.36 226.3 100.9 225.37 104.65C224.19 109.38 222.45 114.13 220.62 116.21L219.87 117.07L221.69 118.48L222.44 117.63C224.86 114.88 226.54 110.03 227.66 105.16C228.76 100.4 229.66 93.8 227.66 91.8Z" fill="#784421"/>
<path d="M245.58 86.5C246.02 91.6 242.63 103.81 237.89 110.31L237.2 111.21L239.12 112.5L239.81 111.6C243.69 108.44 250.44 87.74 245.58 86.5Z" fill="#784421"/>
<path d="M231.99 70.4999C231.99 68.0199 221 62.6499 202.81 62.6499C184.62 62.6499 171.95 68.2199 171.95 70.6999C171.95 73.1799 184.71 69.5499 202.91 69.5499C221.11 69.5499 231.99 72.9899 231.99 70.4999Z" fill="#D30707"/>
<path d="M142.14 216.81L140.38 214.74C139.75 213.98 139.06 213.24 138.38 212.48C137.01 210.99 135.6 209.52 134.12 208.12C131.16 205.33 128.03 202.7 124.59 200.52C122.86 199.46 121.08 198.43 119.22 197.56C117.35 196.74 115.43 195.91 113.43 195.32C109.43 194.05 105.17 193.41 100.71 193.15H100.64C99.43 193.08 98.5 192.04 98.58 190.82C98.63 189.92 99.23 189.14 100.09 188.86C104.83 187.31 109.81 186.63 114.8 186.84C119.93 187.07 124.98 188.16 129.76 190.04C136.97 192.84 143.46 197.2 148.78 202.81C149.67 203.73 150.5 204.71 151.33 205.72C151.74 206.23 152.13 206.75 152.52 207.29C152.72 207.55 152.91 207.84 153.1 208.13L153.74 209.12C155.82 212.34 154.9 216.63 151.68 218.71C148.76 220.6 144.89 220.03 142.64 217.38L142.14 216.81Z" fill="#4B2600"/>
<path d="M162.95 183.46C159.57 187.4 151.4 185.94 144.7 180.2C138 174.46 135.3 166.61 138.68 162.67C142.06 158.73 149.14 160.09 155.84 165.83C162.54 171.57 166.32 179.52 162.95 183.46Z" fill="white"/>
<path d="M254.21 216.81L255.97 214.74C256.61 213.98 257.29 213.24 257.96 212.48C259.33 210.99 260.74 209.52 262.22 208.12C265.18 205.33 268.31 202.7 271.75 200.52C273.48 199.46 275.26 198.43 277.12 197.56C278.99 196.74 280.91 195.91 282.91 195.32C286.91 194.05 291.17 193.41 295.63 193.15H295.7C296.91 193.08 297.84 192.04 297.76 190.82C297.71 189.92 297.11 189.14 296.25 188.86C291.51 187.31 286.53 186.63 281.54 186.84C276.41 187.07 271.36 188.16 266.58 190.04C259.37 192.84 252.88 197.2 247.56 202.81C246.67 203.73 245.84 204.71 245.01 205.72C244.6 206.23 244.21 206.75 243.82 207.29C243.62 207.55 243.43 207.84 243.24 208.13L242.6 209.12C240.52 212.34 241.44 216.63 244.66 218.71C247.58 220.6 251.45 220.03 253.7 217.38L254.21 216.81Z" fill="#4B2600"/>
<path d="M233.41 183.46C236.79 187.4 244.95 185.94 251.66 180.2C258.37 174.46 261.06 166.61 257.68 162.67C254.3 158.73 247.22 160.09 240.52 165.83C233.82 171.57 230.03 179.52 233.41 183.46Z" fill="white"/>
</g>
<defs>
<clipPath id="clip0_103_232">
<rect width="400" height="400" fill="white"/>
</clipPath>
</defs>
</svg>
